<svg width="176" height="34" viewBox="0 0 176 34" fill="none" xmlns="http://www.w3.org/2000/svg">
<g clip-path="url(#clip0_374_5365)">
<path d="M32.2891 28.0783V6.02148H41.5865C43.1017 6.02148 44.4004 6.27807 45.4827 6.79126C46.5649 7.30443 47.3914 8.0446 47.962 9.01174C48.5327 9.95914 48.818 11.1138 48.818 12.4757C48.818 13.4428 48.5523 14.3705 48.021 15.2587C47.4898 16.1272 46.6142 16.8575 45.3941 17.4496V15.1995C46.5551 15.6534 47.4505 16.1963 48.0801 16.8278C48.7097 17.4594 49.1426 18.1503 49.3788 18.9003C49.615 19.6306 49.7329 20.4004 49.7329 21.2096C49.7329 23.3808 49.0147 25.0683 47.5784 26.2723C46.1418 27.4762 44.1447 28.0783 41.5865 28.0783H32.2891ZM36.8641 24.0815H42.1178C43.0427 24.0815 43.7806 23.815 44.3316 23.282C44.8826 22.7491 45.1581 22.0583 45.1581 21.2096C45.1581 20.3412 44.8826 19.6405 44.3316 19.1075C43.7806 18.5746 43.0427 18.3081 42.1178 18.3081H36.8641V24.0815ZM36.8641 14.3113H41.9113C42.6197 14.3113 43.1805 14.1139 43.5937 13.7192C44.0266 13.3047 44.243 12.7619 44.243 12.0908C44.243 11.4197 44.0266 10.8868 43.5937 10.4921C43.1805 10.0776 42.6197 9.87033 41.9113 9.87033H36.8641V14.3113Z" fill="white"/>
<path d="M57.3328 28.4343C56.1718 28.4343 55.1683 28.2467 54.3221 27.8718C53.476 27.4968 52.8267 26.9638 52.3742 26.273C51.9216 25.5624 51.6953 24.7236 51.6953 23.7565C51.6953 22.8485 51.9018 22.0491 52.3151 21.3583C52.7283 20.6477 53.3579 20.0556 54.2042 19.582C55.07 19.1083 56.1423 18.7726 57.4214 18.5753L62.3506 17.7759V21.0327L58.2182 21.7729C57.5886 21.8913 57.1065 22.0984 56.7721 22.3945C56.4375 22.6709 56.2702 23.0755 56.2702 23.6084C56.2702 24.1019 56.4571 24.4868 56.831 24.763C57.205 25.0394 57.6674 25.1775 58.2182 25.1775C58.9464 25.1775 59.5858 25.0196 60.1368 24.7038C60.6878 24.388 61.1109 23.9637 61.406 23.4308C61.7208 22.8781 61.8783 22.2761 61.8783 21.6248V17.4207C61.8783 16.8089 61.6324 16.2956 61.1404 15.8811C60.668 15.4667 60.0187 15.2595 59.1923 15.2595C58.4052 15.2595 57.7067 15.4765 57.0967 15.9107C56.5064 16.3449 56.0735 16.9174 55.798 17.628L52.2561 15.9403C52.5709 15.0324 53.0727 14.2528 53.7613 13.6014C54.4501 12.9501 55.2765 12.4468 56.2407 12.0915C57.205 11.7362 58.2577 11.5586 59.3989 11.5586C60.7566 11.5586 61.957 11.8053 62.9999 12.2988C64.0427 12.7922 64.8495 13.483 65.4202 14.3712C66.0105 15.2396 66.3056 16.2561 66.3056 17.4207V28.079H62.1734V25.4736L63.1769 25.296C62.7047 26.0066 62.1832 26.5986 61.6126 27.0723C61.042 27.5264 60.4025 27.8618 59.6941 28.079C58.9857 28.3159 58.1987 28.4343 57.3328 28.4343Z" fill="white"/>
<path d="M77.4619 28.4343C75.8484 28.4343 74.3923 28.0691 73.0936 27.3388C71.8146 26.5888 70.7914 25.5724 70.0239 24.2893C69.2762 23.0064 68.9023 21.5656 68.9023 19.9668C68.9023 18.368 69.2762 16.9371 70.0239 15.6738C70.7716 14.3909 71.7948 13.3843 73.0936 12.654C74.3923 11.9237 75.8484 11.5586 77.4619 11.5586C78.6623 11.5586 79.774 11.7658 80.7972 12.1803C81.8205 12.5948 82.6961 13.1771 83.4242 13.9271C84.1523 14.6574 84.6736 15.5258 84.9886 16.5325L81.1515 18.1904C80.876 17.3812 80.4037 16.7397 79.7347 16.266C79.0854 15.7923 78.3277 15.5554 77.4619 15.5554C76.6946 15.5554 76.0058 15.743 75.3959 16.118C74.8056 16.4929 74.3332 17.016 73.9791 17.6871C73.6446 18.3583 73.4774 19.1279 73.4774 19.9964C73.4774 20.8649 73.6446 21.6346 73.9791 22.3057C74.3332 22.9767 74.8056 23.4998 75.3959 23.8749C76.0058 24.2499 76.6946 24.4373 77.4619 24.4373C78.3474 24.4373 79.1149 24.2005 79.7642 23.7269C80.4136 23.2531 80.876 22.6117 81.1515 21.8025L84.9886 23.49C84.6934 24.4373 84.1817 25.2861 83.4537 26.0362C82.7256 26.7862 81.85 27.3783 80.8268 27.8125C79.8036 28.2271 78.682 28.4343 77.4619 28.4343Z" fill="white"/>
<path d="M87.5977 28.0781V5.66602H92.0251V20.0251L90.3721 19.4923L97.4855 11.913H102.946L97.1018 18.4264L102.916 28.0781H97.8986L93.0285 19.877L95.5964 19.2258L90.6673 24.6141L92.0251 22.0383V28.0781H87.5977Z" fill="white"/>
<path d="M104.891 34.0003V11.9139H109.023V14.993L108.639 14.1047C109.17 13.2955 109.889 12.6738 110.794 12.2395C111.719 11.7856 112.771 11.5586 113.952 11.5586C115.487 11.5586 116.874 11.9336 118.114 12.6836C119.353 13.4337 120.337 14.4501 121.065 15.733C121.793 16.9963 122.158 18.4173 122.158 19.9964C122.158 21.5557 121.793 22.9767 121.065 24.2597C120.357 25.5428 119.383 26.5592 118.143 27.3092C116.904 28.0592 115.497 28.4343 113.923 28.4343C112.821 28.4343 111.797 28.2368 110.853 27.8421C109.928 27.4276 109.18 26.8257 108.61 26.0362L109.318 25.1183V34.0003H104.891ZM113.391 24.4373C114.218 24.4373 114.946 24.2499 115.575 23.8749C116.205 23.4998 116.697 22.9767 117.051 22.3057C117.405 21.6346 117.582 20.8649 117.582 19.9964C117.582 19.1279 117.405 18.368 117.051 17.7167C116.697 17.0456 116.205 16.5226 115.575 16.1476C114.946 15.7529 114.218 15.5554 113.391 15.5554C112.604 15.5554 111.896 15.743 111.266 16.118C110.656 16.4929 110.174 17.016 109.82 17.6871C109.485 18.3583 109.318 19.1279 109.318 19.9964C109.318 20.8649 109.485 21.6346 109.82 22.3057C110.174 22.9767 110.656 23.4998 111.266 23.8749C111.896 24.2499 112.604 24.4373 113.391 24.4373Z" fill="white"/>
<path d="M129.739 28.4343C128.578 28.4343 127.575 28.2467 126.729 27.8718C125.882 27.4968 125.233 26.9638 124.78 26.273C124.328 25.5624 124.102 24.7236 124.102 23.7565C124.102 22.8485 124.308 22.0491 124.721 21.3583C125.135 20.6477 125.764 20.0556 126.61 19.582C127.476 19.1083 128.549 18.7726 129.828 18.5753L134.757 17.7759V21.0327L130.625 21.7729C129.995 21.8913 129.513 22.0984 129.178 22.3945C128.844 22.6709 128.677 23.0755 128.677 23.6084C128.677 24.1019 128.863 24.4868 129.237 24.763C129.611 25.0394 130.074 25.1775 130.625 25.1775C131.353 25.1775 131.992 25.0196 132.543 24.7038C133.094 24.388 133.517 23.9637 133.812 23.4308C134.127 22.8781 134.285 22.2761 134.285 21.6248V17.4207C134.285 16.8089 134.039 16.2956 133.547 15.8811C133.074 15.4667 132.425 15.2595 131.599 15.2595C130.812 15.2595 130.113 15.4765 129.503 15.9107C128.913 16.3449 128.48 16.9174 128.204 17.628L124.662 15.9403C124.977 15.0324 125.479 14.2528 126.168 13.6014C126.856 12.9501 127.683 12.4468 128.647 12.0915C129.611 11.7362 130.664 11.5586 131.805 11.5586C133.163 11.5586 134.363 11.8053 135.406 12.2988C136.449 12.7922 137.256 13.483 137.826 14.3712C138.417 15.2396 138.712 16.2561 138.712 17.4207V28.079H134.58V25.4736L135.583 25.296C135.111 26.0066 134.59 26.5986 134.019 27.0723C133.448 27.5264 132.809 27.8618 132.1 28.079C131.392 28.3159 130.605 28.4343 129.739 28.4343Z" fill="white"/>
<path d="M149.868 28.4343C148.255 28.4343 146.799 28.0691 145.5 27.3388C144.221 26.5888 143.198 25.5724 142.43 24.2893C141.682 23.0064 141.309 21.5656 141.309 19.9668C141.309 18.368 141.682 16.9371 142.43 15.6738C143.178 14.3909 144.202 13.3843 145.5 12.654C146.799 11.9237 148.255 11.5586 149.868 11.5586C151.068 11.5586 152.18 11.7658 153.203 12.1803C154.226 12.5948 155.102 13.1771 155.83 13.9271C156.558 14.6574 157.079 15.5258 157.394 16.5325L153.558 18.1904C153.283 17.3812 152.81 16.7397 152.141 16.266C151.491 15.7923 150.733 15.5554 149.868 15.5554C149.101 15.5554 148.413 15.743 147.802 16.118C147.212 16.4929 146.739 17.016 146.386 17.6871C146.051 18.3583 145.883 19.1279 145.883 19.9964C145.883 20.8649 146.051 21.6346 146.386 22.3057C146.739 22.9767 147.212 23.4998 147.802 23.8749C148.413 24.2499 149.101 24.4373 149.868 24.4373C150.753 24.4373 151.521 24.2005 152.171 23.7269C152.82 23.2531 153.283 22.6117 153.558 21.8025L157.394 23.49C157.099 24.4373 156.588 25.2861 155.86 26.0362C155.132 26.7862 154.256 27.3783 153.233 27.8125C152.21 28.2271 151.088 28.4343 149.868 28.4343Z" fill="white"/>
<path d="M160 28.0781V5.66602H164.427V20.0251L162.775 19.4923L169.889 11.913H175.349L169.504 18.4264L175.319 28.0781H170.302L165.43 19.877L167.999 19.2258L163.07 24.6141L164.427 22.0383V28.0781H160Z" fill="white"/>
<mask id="mask0_374_5365" style="mask-type:luminance" maskUnits="userSpaceOnUse" x="0" y="0" width="21" height="30">
<path d="M20.4919 0H0V29.75H20.4919V0Z" fill="white"/>
</mask>
<g mask="url(#mask0_374_5365)">
<path fill-rule="evenodd" clip-rule="evenodd" d="M12.1871 2.33919C13.2705 2.33919 14.2867 2.48414 15.2275 2.75298C14.3064 0.610189 12.3938 0 10.2653 0C8.13259 0 6.21669 0.612588 5.29763 2.7656C6.23159 2.48731 7.24341 2.33919 8.32308 2.33919H12.1871ZM8.07528 4.49046C2.93101 4.49046 0 8.52975 0 13.5125V18.6309C0 19.1292 0.417025 19.5234 0.931452 19.5234H19.5604C20.0749 19.5234 20.4919 19.1292 20.4919 18.6309V13.5125C20.4919 8.52975 17.0836 4.49046 11.9393 4.49046H8.07528ZM10.2387 13.5567C12.0392 13.5567 13.4988 12.0999 13.4988 10.3028C13.4988 8.50574 12.0392 7.04892 10.2387 7.04892C8.43819 7.04892 6.97861 8.50574 6.97861 10.3028C6.97861 12.0999 8.43819 13.5567 10.2387 13.5567ZM0 22.5319C0 22.0337 0.417025 21.6298 0.931452 21.6298H19.5604C20.0749 21.6298 20.4919 22.0337 20.4919 22.5319V27.9452C20.4919 28.9416 19.6579 29.7496 18.629 29.7496H1.8629C0.83405 29.7496 0 28.9416 0 27.9452V22.5319Z" fill="white"/>
</g>
</g>
<defs>
<clipPath id="clip0_374_5365">
<rect width="176" height="34" fill="white"/>
</clipPath>
</defs>
</svg>
