<svg width="2415" height="1485" viewBox="0 0 2415 1485" fill="none" xmlns="http://www.w3.org/2000/svg">
<g clip-path="url(#clip0_1509_3581)">
<path d="M1902.55 1413.39C1655.11 1138.81 1616.76 930.287 1629.31 788.838C1643.32 630.975 1727.01 485.925 1684.96 457.925C1658.04 439.994 1598.83 482.914 1480.87 581.764C1123.18 881.51 1077.84 981.071 980.196 972.388C843.401 960.25 837.896 756.414 648.893 684.776C510.074 632.167 359.835 684.026 250.234 739.751" stroke="url(#paint0_linear_1509_3581)" stroke-width="5" stroke-miterlimit="10"/>
<path d="M1916.03 1401.2C1675.96 1133.36 1629.71 927.059 1636.06 792.316C1643.15 641.738 1723.42 504.547 1680.79 479.393C1653.38 463.217 1595.24 505.428 1481.31 600.884C1135.11 890.917 1087.75 991.134 991.3 981.42C854.549 967.129 857.362 752.055 668.892 673.341C664.783 671.625 660.716 669.99 656.6 668.464C520.654 618.156 368.808 669.422 257.813 723.973" stroke="url(#paint1_linear_1509_3581)" stroke-width="5" stroke-miterlimit="10"/>
<path d="M1929.48 1389.01C1696.8 1127.92 1642.62 924.155 1642.78 795.796C1642.95 652.723 1719.8 523.174 1676.59 500.862C1648.69 486.444 1591.62 527.947 1481.74 620.012C1147.07 900.33 1097.59 1001.55 1002.37 990.439C865.594 974.485 876.795 747.576 688.86 661.889C684.737 660.008 680.628 658.132 676.432 656.472C539.465 602.282 380.942 653.183 265.37 708.181" stroke="url(#paint2_linear_1509_3581)" stroke-width="5" stroke-miterlimit="10"/>
<path d="M1942.95 1376.82C1717.63 1122.42 1655.56 921.65 1649.51 799.282C1642.82 663.972 1716.16 541.812 1672.41 522.343C1643.99 509.69 1588.04 550.48 1482.17 639.141C1159 909.777 1107.47 1011.76 1013.45 999.463C876.692 981.574 896.249 743.015 708.839 650.443C704.68 648.387 700.52 646.346 696.301 644.491C559.205 584.223 393.112 636.955 272.965 692.395" stroke="url(#paint3_linear_1509_3581)" stroke-width="5" stroke-miterlimit="10"/>
<path d="M1956.42 1364.63C1738.46 1116.98 1668.55 919.584 1656.24 802.77C1642.82 675.504 1712.49 560.462 1668.22 543.821C1639.28 532.937 1584.43 573.01 1482.6 658.273C1170.93 919.205 1117.34 1021.96 1024.53 1008.48C887.758 988.627 915.711 738.369 728.821 638.979C724.622 636.757 720.418 634.534 716.13 632.479C578.445 567.304 405.25 620.705 280.505 676.6" stroke="url(#paint4_linear_1509_3581)" stroke-width="5" stroke-miterlimit="10"/>
<path d="M1969.88 1352.44C1759.28 1111.54 1681.66 918.006 1662.96 806.258C1643.05 687.343 1708.82 579.125 1664.03 565.292C1634.54 556.19 1580.83 595.534 1483.02 677.403C1182.85 928.629 1127.2 1032.13 1035.6 1017.51C898.83 995.662 935.188 733.646 748.781 627.543C744.546 625.132 740.314 622.711 735.956 620.5C597.672 550.456 417.363 604.473 288.053 660.826" stroke="url(#paint5_linear_1509_3581)" stroke-width="5" stroke-miterlimit="10"/>
<path d="M1983.35 1340.25C1780.12 1106.08 1694.97 916.945 1669.69 809.749C1643.69 699.461 1705.11 597.801 1659.85 586.775C1629.81 579.456 1577.23 618.082 1483.46 696.536C1194.8 938.058 1137.08 1042.3 1046.69 1026.53C909.901 1002.67 954.705 728.863 768.764 616.102C764.476 613.504 760.223 610.898 755.814 608.523C616.929 533.641 429.518 588.258 295.634 645.048" stroke="url(#paint6_linear_1509_3581)" stroke-width="5" stroke-miterlimit="10"/>
<path d="M1996.81 1328.07C1800.95 1100.63 1727.58 908.425 1676.42 813.236C1664.66 707.689 1701.4 616.5 1655.66 608.249C1625.07 602.733 1573.63 640.593 1483.88 715.691C1206.72 947.51 1146.94 1052.46 1057.76 1035.58C920.967 1009.69 974.234 724.037 788.734 604.682C784.42 601.908 780.111 599.109 775.64 596.554C636.129 516.873 441.627 572.025 303.174 629.281" stroke="url(#paint7_linear_1509_3581)" stroke-width="5" stroke-miterlimit="10"/>
<path d="M2010.28 1315.88C1821.78 1095.17 1743.41 905.296 1683.15 816.723C1667.7 718.649 1697.68 635.224 1651.47 629.728C1620.31 626.021 1570.04 663.111 1484.32 734.802C1218.69 956.926 1156.82 1062.56 1068.84 1044.58C932.053 1016.62 993.811 719.108 808.718 593.214C804.372 590.256 800.025 587.272 795.491 584.543C655.341 500.093 453.796 555.778 310.747 613.474" stroke="url(#paint8_linear_1509_3581)" stroke-width="5" stroke-miterlimit="10"/>
<path d="M2023.74 1303.7C1842.62 1089.72 1759.24 902.177 1689.88 820.212C1670.76 729.606 1693.95 653.965 1647.28 651.202C1615.56 649.32 1566.43 685.641 1484.75 753.931C1230.6 966.36 1166.69 1072.66 1079.93 1053.6C943.131 1023.55 1013.41 714.153 828.696 581.76C824.315 578.623 819.925 575.456 815.334 572.549C674.535 483.355 465.94 539.538 318.312 597.685" stroke="url(#paint9_linear_1509_3581)" stroke-width="5" stroke-miterlimit="10"/>
<path d="M2037.21 1291.51C1863.44 1084.26 1775.07 899.054 1696.61 823.705C1673.8 740.573 1690.21 672.737 1643.1 672.684C1610.8 672.645 1562.83 708.177 1485.19 773.05C1242.54 975.763 1176.57 1082.74 1091.01 1062.62C954.222 1030.45 1033.05 709.147 848.675 570.308C844.259 566.981 839.826 563.642 835.184 560.555C693.713 466.637 478.085 523.299 325.88 581.894" stroke="url(#paint10_linear_1509_3581)" stroke-width="5" stroke-miterlimit="10"/>
<path d="M2050.68 1279.32C1884.29 1078.82 1790.89 895.925 1703.33 827.209C1676.84 751.549 1686.47 691.537 1638.91 694.183C1606.04 696.004 1559.23 730.722 1485.61 792.218C1254.47 985.226 1186.45 1092.83 1102.07 1071.67C965.292 1037.36 1052.69 704.155 868.637 558.896C864.183 555.383 859.729 551.87 855.005 548.617C712.853 449.995 490.209 507.11 333.424 566.156" stroke="url(#paint11_linear_1509_3581)" stroke-width="5" stroke-miterlimit="10"/>
<path d="M2064.14 1267.13C1905.12 1073.36 1806.74 892.808 1710.06 830.679C1679.89 762.493 1682.76 710.332 1634.73 715.636C1601.29 719.331 1555.63 753.233 1486.05 811.331C1266.39 994.628 1196.34 1102.86 1113.16 1080.68C976.404 1044.2 1072.41 699.063 888.618 547.433C884.138 543.734 879.618 540.04 874.845 536.591C731.986 433.302 502.356 490.823 340.985 550.339" stroke="url(#paint12_linear_1509_3581)" stroke-width="5" stroke-miterlimit="10"/>
<path d="M2077.59 1254.94C1925.95 1067.91 1822.57 889.689 1716.79 834.175C1682.94 773.463 1679.04 729.157 1630.54 737.114C1596.53 742.693 1552.03 775.757 1486.47 830.457C1278.34 1004.06 1206.22 1112.91 1124.24 1089.7C987.503 1051.02 1092.15 693.95 908.596 535.99C904.08 532.101 899.515 528.228 894.699 524.607C751.133 416.641 514.504 474.611 348.533 534.549" stroke="url(#paint13_linear_1509_3581)" stroke-width="5" stroke-miterlimit="10"/>
<path d="M2091.07 1242.76C1946.79 1062.46 1838.39 886.564 1723.52 837.658C1685.99 784.418 1675.33 747.992 1626.34 758.601C1591.79 766.076 1548.43 798.291 1486.92 849.607C1290.29 1013.51 1216.14 1122.93 1135.34 1098.74C998.635 1057.83 1111.91 688.879 928.588 524.558C924.039 520.485 919.426 516.439 914.56 512.638C770.257 400.014 526.66 458.398 356.134 518.792" stroke="url(#paint14_linear_1509_3581)" stroke-width="5" stroke-miterlimit="10"/>
<path d="M2104.54 1230.58C1967.62 1057 1854.23 883.442 1730.25 841.147C1689.03 795.378 1671.64 766.843 1622.16 780.066C1587.06 789.447 1544.83 820.813 1487.33 868.722C1302.21 1022.92 1226.03 1132.91 1146.39 1107.75C1009.74 1064.57 1131.7 683.714 948.538 513.121C943.958 508.859 939.297 504.639 934.352 500.652C789.338 383.37 538.787 442.146 363.689 502.974" stroke="url(#paint15_linear_1509_3581)" stroke-width="5" stroke-miterlimit="10"/>
<path d="M2118.01 1218.39C1988.45 1051.55 1870.06 880.332 1736.98 844.629C1692.12 806.33 1667.96 785.703 1617.98 801.538C1582.34 812.833 1541.23 843.332 1487.77 887.831C1314.15 1032.32 1235.95 1142.87 1157.48 1116.75C1020.9 1071.28 1151.53 678.535 968.53 501.628C963.921 497.173 959.212 492.784 954.234 488.623C808.422 366.744 550.914 425.902 371.245 487.201" stroke="url(#paint16_linear_1509_3581)" stroke-width="5" stroke-miterlimit="10"/>
<path d="M2131.49 1206.18C2009.3 1046.08 1885.91 877.172 1743.73 848.099C1695.15 817.272 1664.3 804.545 1613.81 822.991C1577.65 836.18 1537.65 865.834 1488.22 906.957C1326.1 1041.74 1245.87 1152.84 1168.57 1125.77C1032.05 1077.99 1171.38 673.378 988.496 490.203C983.863 485.557 979.099 480.997 974.071 476.656C827.485 350.13 563.067 409.673 378.799 471.432" stroke="url(#paint17_linear_1509_3581)" stroke-width="5" stroke-miterlimit="10"/>
<path d="M2145.3 1193.16C2030.58 1039.54 1880.83 931.171 1750.98 850.285C1702.39 820.017 1661.16 822.138 1610.09 843.294C1573.38 858.483 1534.44 887.379 1488.98 925.248C1338.17 1050.82 1255.79 1162.8 1179.64 1134.81C1043.22 1084.67 1191.75 666.98 1009.08 477.233C1004.42 472.398 999.602 467.651 994.531 463.126C847.232 331.801 575.74 392.154 386.739 454.693" stroke="url(#paint18_linear_1509_3581)" stroke-width="5" stroke-miterlimit="10"/>
<path d="M2158.43 1181.82C2050.97 1035.17 1915.55 885.131 1757.19 855.071C1700.06 844.231 1657 842.293 1605.44 865.944C1568.24 882.985 1530.45 910.888 1489.08 945.22C1349.96 1060.61 1265.74 1172.74 1190.73 1143.82C1054.42 1091.29 1211.18 662.983 1028.46 467.278C1023.77 462.255 1018.89 457.361 1013.76 452.65C865.323 317.197 587.357 377.181 393.918 439.82" stroke="url(#paint19_linear_1509_3581)" stroke-width="5" stroke-miterlimit="10"/>
<path d="M2171.9 1169.63C2071.82 1029.72 1932.86 875.046 1763.92 858.558C1703.99 852.713 1653.37 861.172 1601.25 887.417C1563.55 906.388 1526.85 933.417 1489.51 964.349C1361.9 1070.04 1275.55 1182.98 1201.81 1152.85C1065.87 1097.31 1231.41 657.523 1048.44 455.83C1043.73 450.609 1038.79 445.553 1033.61 440.66C884.477 300.449 599.501 360.937 401.497 424.028" stroke="url(#paint20_linear_1509_3581)" stroke-width="5" stroke-miterlimit="10"/>
<path d="M2185.37 1157.45C2092.65 1024.27 1949.24 864.692 1770.65 862.051C1501.42 858.083 1335.3 1213.54 1212.88 1161.87C1073.34 1102.98 1260.34 628.847 1053.45 428.668C903.633 283.707 611.623 344.69 409.056 408.246" stroke="url(#paint21_linear_1509_3581)" stroke-width="5" stroke-miterlimit="10"/>
</g>
<defs>
<linearGradient id="paint0_linear_1509_3581" x1="1902.55" y1="1413.39" x2="545.127" y2="1.98957" gradientUnits="userSpaceOnUse">
<stop offset="0.296875" stop-color="#931403"/>
<stop offset="0.96875" stop-color="#200F0D"/>
</linearGradient>
<linearGradient id="paint1_linear_1509_3581" x1="1916.03" y1="1401.2" x2="594.019" y2="-29.1915" gradientUnits="userSpaceOnUse">
<stop offset="0.296875" stop-color="#931403"/>
<stop offset="0.96875" stop-color="#200F0D"/>
</linearGradient>
<linearGradient id="paint2_linear_1509_3581" x1="1929.48" y1="1389.01" x2="647.084" y2="-59.7627" gradientUnits="userSpaceOnUse">
<stop offset="0.296875" stop-color="#931403"/>
<stop offset="0.96875" stop-color="#200F0D"/>
</linearGradient>
<linearGradient id="paint3_linear_1509_3581" x1="1942.91" y1="1376.92" x2="704.636" y2="-89.1641" gradientUnits="userSpaceOnUse">
<stop offset="0.296875" stop-color="#931403"/>
<stop offset="0.96875" stop-color="#200F0D"/>
</linearGradient>
<linearGradient id="paint4_linear_1509_3581" x1="1948.91" y1="1383.34" x2="732.524" y2="-93.7397" gradientUnits="userSpaceOnUse">
<stop offset="0.296875" stop-color="#931403"/>
<stop offset="0.96875" stop-color="#200F0D"/>
</linearGradient>
<linearGradient id="paint5_linear_1509_3581" x1="1954.88" y1="1389.83" x2="761.554" y2="-97.7533" gradientUnits="userSpaceOnUse">
<stop offset="0.296875" stop-color="#931403"/>
<stop offset="0.96875" stop-color="#200F0D"/>
</linearGradient>
<linearGradient id="paint6_linear_1509_3581" x1="1960.83" y1="1396.35" x2="791.78" y2="-101.137" gradientUnits="userSpaceOnUse">
<stop offset="0.296875" stop-color="#931403"/>
<stop offset="0.96875" stop-color="#200F0D"/>
</linearGradient>
<linearGradient id="paint7_linear_1509_3581" x1="1966.75" y1="1402.95" x2="823.058" y2="-103.835" gradientUnits="userSpaceOnUse">
<stop offset="0.296875" stop-color="#931403"/>
<stop offset="0.96875" stop-color="#200F0D"/>
</linearGradient>
<linearGradient id="paint8_linear_1509_3581" x1="1972.68" y1="1409.55" x2="855.627" y2="-105.822" gradientUnits="userSpaceOnUse">
<stop offset="0.296875" stop-color="#931403"/>
<stop offset="0.96875" stop-color="#200F0D"/>
</linearGradient>
<linearGradient id="paint9_linear_1509_3581" x1="1978.58" y1="1416.19" x2="889.268" y2="-106.952" gradientUnits="userSpaceOnUse">
<stop offset="0.296875" stop-color="#931403"/>
<stop offset="0.96875" stop-color="#200F0D"/>
</linearGradient>
<linearGradient id="paint10_linear_1509_3581" x1="1984.48" y1="1422.86" x2="923.937" y2="-107.16" gradientUnits="userSpaceOnUse">
<stop offset="0.296875" stop-color="#931403"/>
<stop offset="0.96875" stop-color="#200F0D"/>
</linearGradient>
<linearGradient id="paint11_linear_1509_3581" x1="1990.34" y1="1429.61" x2="959.42" y2="-106.341" gradientUnits="userSpaceOnUse">
<stop offset="0.296875" stop-color="#931403"/>
<stop offset="0.96875" stop-color="#200F0D"/>
</linearGradient>
<linearGradient id="paint12_linear_1509_3581" x1="1996.22" y1="1436.33" x2="995.557" y2="-104.534" gradientUnits="userSpaceOnUse">
<stop offset="0.296875" stop-color="#931403"/>
<stop offset="0.96875" stop-color="#200F0D"/>
</linearGradient>
<linearGradient id="paint13_linear_1509_3581" x1="2002.06" y1="1443.09" x2="1031.89" y2="-101.635" gradientUnits="userSpaceOnUse">
<stop offset="0.296875" stop-color="#931403"/>
<stop offset="0.96875" stop-color="#200F0D"/>
</linearGradient>
<linearGradient id="paint14_linear_1509_3581" x1="2007.92" y1="1449.88" x2="1067.8" y2="-97.6798" gradientUnits="userSpaceOnUse">
<stop offset="0.296875" stop-color="#931403"/>
<stop offset="0.96875" stop-color="#200F0D"/>
</linearGradient>
<linearGradient id="paint15_linear_1509_3581" x1="2013.77" y1="1456.68" x2="1102.22" y2="-92.947" gradientUnits="userSpaceOnUse">
<stop offset="0.296875" stop-color="#931403"/>
<stop offset="0.96875" stop-color="#200F0D"/>
</linearGradient>
<linearGradient id="paint16_linear_1509_3581" x1="2019.62" y1="1463.48" x2="1059.47" y2="-96.5302" gradientUnits="userSpaceOnUse">
<stop offset="0.296875" stop-color="#931403"/>
<stop offset="0.96875" stop-color="#200F0D"/>
</linearGradient>
<linearGradient id="paint17_linear_1509_3581" x1="2025.45" y1="1470.33" x2="1016.65" y2="-98.2643" gradientUnits="userSpaceOnUse">
<stop offset="0.296875" stop-color="#931403"/>
<stop offset="0.96875" stop-color="#200F0D"/>
</linearGradient>
<linearGradient id="paint18_linear_1509_3581" x1="2031.26" y1="1477.21" x2="972.752" y2="-98.1914" gradientUnits="userSpaceOnUse">
<stop offset="0.296875" stop-color="#931403"/>
<stop offset="0.96875" stop-color="#200F0D"/>
</linearGradient>
<linearGradient id="paint19_linear_1509_3581" x1="2037.09" y1="1484.08" x2="937.633" y2="-96.5743" gradientUnits="userSpaceOnUse">
<stop offset="0.296875" stop-color="#931403"/>
<stop offset="0.96875" stop-color="#200F0D"/>
</linearGradient>
<linearGradient id="paint20_linear_1509_3581" x1="2042.89" y1="1490.98" x2="900.967" y2="-93.614" gradientUnits="userSpaceOnUse">
<stop offset="0.296875" stop-color="#931403"/>
<stop offset="0.96875" stop-color="#200F0D"/>
</linearGradient>
<linearGradient id="paint21_linear_1509_3581" x1="2048.7" y1="1497.9" x2="866.226" y2="-89.552" gradientUnits="userSpaceOnUse">
<stop offset="0.296875" stop-color="#931403"/>
<stop offset="0.96875" stop-color="#200F0D"/>
</linearGradient>
<clipPath id="clip0_1509_3581">
<rect width="2415" height="1485" fill="white" transform="matrix(-1 0 0 1 2415 0)"/>
</clipPath>
</defs>
</svg>
