<svg width="52" height="41" viewBox="0 0 52 41" fill="none" xmlns="http://www.w3.org/2000/svg">
<g id="Vector">
<path id="Vector_2" d="M40.9933 6.28955H51.9675V10.6212C51.9675 16.495 47.3224 21.2424 41.5736 21.2424H40.9927L40.9933 6.28955ZM25.3741 0H40.9933V40.881H39.1356C27.8128 40.881 25.5489 32.8112 25.5489 25.632L25.3741 0ZM0 9.25616C0 16.5544 5.10962 19.2243 10.8002 20.1146H0V41H10.394C20.8455 41 22.0648 36.2532 22.0648 31.7438C22.0648 26.2257 18.3485 22.3694 12.6004 20.8854H22.0648V0H11.6708C1.21935 0 0 4.74673 0 9.25616Z" fill="white"/>
</g>
</svg>
