<svg width="715" height="147" viewBox="0 0 715 147" fill="none" xmlns="http://www.w3.org/2000/svg">
<path d="M154.938 76.459C150.981 76.459 147.305 76.0511 143.936 75.2474C140.566 74.4317 137.626 73.2801 135.128 71.7568C132.629 70.2454 130.672 68.3621 129.282 66.119C127.891 63.8639 127.19 61.2728 127.19 58.322C127.19 58.0223 127.19 57.7342 127.19 57.4345C127.19 57.1346 127.224 56.8827 127.292 56.6547H142.421C142.421 56.7987 142.421 56.9665 142.421 57.1584C142.421 57.3386 142.421 57.5064 142.421 57.6622C142.488 59.4376 143.11 60.8771 144.298 61.9806C145.473 63.0843 147.045 63.8758 148.99 64.3557C150.934 64.8355 152.993 65.0755 155.14 65.0755C157.154 65.0755 159.121 64.9315 161.032 64.6316C162.943 64.3317 164.548 63.7439 165.827 62.8562C167.116 61.9687 167.76 60.7931 167.76 59.3177C167.76 57.4702 166.991 56.115 165.464 55.2275C163.938 54.3398 161.835 53.6442 159.155 53.1284C156.476 52.6126 153.468 52.0246 150.133 51.3527C147.35 50.8369 144.693 50.1774 142.149 49.3618C139.616 48.5458 137.332 47.5024 135.32 46.2068C133.307 44.9112 131.701 43.256 130.525 41.2289C129.338 39.2018 128.75 36.6709 128.75 33.6479C128.75 30.4813 129.406 27.7461 130.729 25.4551C132.052 23.164 133.929 21.2925 136.36 19.8175C138.791 18.3421 141.663 17.2504 144.965 16.5548C148.266 15.8591 151.829 15.499 155.65 15.499C159.2 15.499 162.536 15.847 165.669 16.5548C168.8 17.2504 171.514 18.2938 173.797 19.6493C176.092 21.0169 177.914 22.7322 179.27 24.7956C180.626 26.8584 181.306 29.1857 181.306 31.7645C181.306 32.2082 181.306 32.6163 181.306 32.9759C181.306 33.3482 181.272 33.6359 181.203 33.8641H166.086V33.0843C166.086 31.6808 165.612 30.5414 164.673 29.6537C163.734 28.7657 162.445 28.082 160.817 27.6024C159.178 27.1224 157.324 26.8826 155.231 26.8826C154.191 26.8826 153.005 26.9547 151.681 27.0987C150.358 27.2423 149.092 27.5063 147.87 27.878C146.649 28.2503 145.677 28.7657 144.953 29.4255C144.23 30.0854 143.857 30.9368 143.857 31.9684C143.857 33.2999 144.512 34.3437 145.835 35.1234C147.158 35.9032 148.911 36.5027 151.104 36.9465C153.298 37.3903 155.672 37.8704 158.251 38.3862C161.168 39.0456 164.096 39.7297 167.013 40.437C169.931 41.133 172.611 42.0806 175.042 43.256C177.473 44.4316 179.383 46.1348 180.774 48.3423C182.164 50.5493 182.854 53.5122 182.854 57.1947C182.854 60.7332 182.176 63.7439 180.818 66.2149C179.462 68.6859 177.54 70.6773 175.03 72.1887C172.532 73.7001 169.569 74.7915 166.165 75.4513C162.797 76.1231 159.042 76.459 154.938 76.459Z" fill="white"/>
<path d="M214.069 76.457C207.533 76.457 202.478 74.6815 198.893 71.143C195.31 67.6044 193.523 62.0386 193.523 54.4335V16.9244H208.754V51.7706C208.754 53.9177 208.991 55.705 209.489 57.1326C209.975 58.5718 210.711 59.7356 211.683 60.6232C212.656 61.5108 213.82 62.1586 215.176 62.5544C216.534 62.9503 218.082 63.1662 219.813 63.1662C222.311 63.1662 224.595 62.5784 226.642 61.3909C228.688 60.2154 230.339 58.5718 231.594 56.4727C232.849 54.3736 233.471 51.9867 233.471 49.3356V16.9124H248.804V75.1134H236.286L235.144 66.261H234.41C232.736 68.5521 230.859 70.4473 228.779 71.9587C226.686 73.4701 224.381 74.5978 221.847 75.3294C219.303 76.085 216.714 76.457 214.069 76.457Z" fill="white"/>
<path d="M262.561 95.373V16.9242H274.976L276.333 25.3327H277.068C279.228 21.7944 281.952 19.2872 285.255 17.8117C288.556 16.3362 292.151 15.6047 296.053 15.6047C301.129 15.6047 305.527 16.6723 309.247 18.8192C312.967 20.9547 315.839 24.2774 317.853 28.7753C319.865 33.2738 320.871 39.0316 320.871 46.0367C320.871 52.8977 319.843 58.5836 317.796 63.0819C315.75 67.5801 312.911 70.9387 309.294 73.1459C305.675 75.353 301.435 76.4686 296.573 76.4686C294.142 76.4686 291.79 76.1687 289.528 75.5809C287.267 74.9931 285.198 74.0814 283.32 72.87C281.444 71.6585 279.837 70.159 278.526 68.3837H277.904V95.3851H262.561V95.373ZM291.665 63.2857C294.798 63.2857 297.364 62.674 299.388 61.4625C301.4 60.2511 302.894 58.4037 303.877 55.9328C304.849 53.4615 305.335 50.5347 305.335 47.1403V44.933C305.335 41.3947 304.849 38.4074 303.877 35.9729C302.904 33.5377 301.412 31.7142 299.388 30.491C297.364 29.279 294.764 28.6675 291.564 28.6675C288.579 28.6675 286.046 29.3273 283.998 30.6588C281.952 31.9902 280.381 33.8854 279.307 36.3562C278.222 38.8276 277.69 41.7664 277.69 45.1491V46.6966C277.69 49.2033 278.007 51.5064 278.629 53.6055C279.25 55.7046 280.143 57.4798 281.286 58.9194C282.428 60.359 283.852 61.4505 285.559 62.1822C287.267 62.9259 289.303 63.2857 291.665 63.2857Z" fill="white"/>
<path d="M360.808 76.4604C354.204 76.4604 348.586 75.3687 343.961 73.1976C339.336 71.0264 335.808 67.6799 333.378 63.1817C330.947 58.6833 329.725 52.9614 329.725 46.0283C329.725 39.0951 330.935 33.3732 333.378 28.8752C335.808 24.3768 339.302 21.0424 343.86 18.8592C348.416 16.688 353.923 15.5964 360.39 15.5964C366.722 15.5964 372.092 16.6639 376.502 18.8114C380.912 20.9462 384.258 24.209 386.509 28.5991C388.77 32.9897 389.901 38.4953 389.901 45.1407V49.6749H345.475C345.612 53.0698 346.278 55.8887 347.454 58.1435C348.63 60.3987 350.361 62.042 352.622 63.0736C354.884 64.1051 357.676 64.621 361.023 64.621C362.685 64.621 364.29 64.4171 365.818 64.0093C367.344 63.6014 368.734 62.9776 369.989 62.126C371.244 61.2744 372.285 60.2308 373.122 58.9713C373.958 57.7238 374.41 56.2841 374.478 54.653H389.812C389.812 58.0477 389.098 61.1064 387.674 63.8413C386.25 66.5762 384.282 68.8553 381.783 70.7025C379.283 72.5497 376.253 73.9653 372.703 74.9609C369.153 75.9565 365.196 76.4604 360.808 76.4604ZM345.691 39.611H373.845C373.845 37.5477 373.517 35.7362 372.851 34.1892C372.183 32.6417 371.268 31.3461 370.092 30.3144C368.904 29.2832 367.514 28.5272 365.919 28.0475C364.324 27.5675 362.549 27.3277 360.604 27.3277C357.62 27.3277 355.064 27.7836 352.939 28.7075C350.814 29.6308 349.162 31.0102 347.986 32.8578C346.799 34.7166 346.03 36.9599 345.691 39.611Z" fill="white"/>
<path d="M401.173 75.1264V16.9256H413.689L414.944 26.4378H415.68C416.369 24.4464 417.387 22.5992 418.698 20.9081C420.022 19.2166 421.639 17.8851 423.55 16.9256C425.46 15.9659 427.63 15.4858 430.073 15.4858C431.328 15.4858 432.47 15.594 433.512 15.8218C434.552 16.0379 435.455 16.3018 436.224 16.6016V30.768H430.176C427.812 30.768 425.776 31.1519 424.07 31.9317C422.362 32.711 420.937 33.8147 419.795 35.2544C418.654 36.6937 417.816 38.3731 417.296 40.2924C416.776 42.2116 416.517 44.3828 416.517 46.8174V75.1383H401.173V75.1264Z" fill="white"/>
<path d="M464.265 76.4577C460.444 76.4577 457.311 75.8339 454.88 74.5745C452.449 73.3269 450.652 71.4557 449.509 68.9846C448.367 66.5136 447.79 63.4307 447.79 59.7482V29.1005H439.344V16.9254H448.413L451.33 5.14184e-07L463.112 0V16.9254H475.413V29.1005H463.112V57.4211C463.112 59.6283 463.541 61.3077 464.413 62.4591C465.283 63.5987 466.933 64.1744 469.365 64.1744H475.413V74.6824C474.509 74.9822 473.401 75.2581 472.078 75.51C470.756 75.7619 469.398 75.9898 468.008 76.1698C466.629 76.3616 465.385 76.4577 464.265 76.4577Z" fill="white"/>
<path d="M514.331 76.4604C507.728 76.4604 502.108 75.3687 497.483 73.1976C492.859 71.0264 489.331 67.6799 486.9 63.1817C484.469 58.6833 483.249 52.9614 483.249 46.0283C483.249 39.0951 484.469 33.3732 486.9 28.8752C489.331 24.3768 492.824 21.0424 497.382 18.8592C501.938 16.688 507.445 15.5964 513.914 15.5964C520.233 15.5964 525.616 16.6639 530.023 18.8114C534.436 20.9462 537.781 24.209 540.043 28.5991C542.307 32.9897 543.435 38.4953 543.435 45.1407V49.6749H499.01C499.147 53.0698 499.813 55.8887 500.989 58.1435C502.165 60.3987 503.895 62.042 506.156 63.0736C508.418 64.1051 511.21 64.621 514.557 64.621C516.231 64.621 517.824 64.4171 519.352 64.0093C520.878 63.6014 522.269 62.9776 523.524 62.126C524.779 61.2744 525.819 60.2308 526.656 58.9713C527.493 57.7238 527.944 56.2841 528.013 54.653H543.343C543.343 58.0477 542.632 61.1064 541.209 63.8413C539.782 66.5762 537.817 68.8553 535.317 70.7025C532.816 72.5497 529.786 73.9653 526.248 74.9609C522.676 75.9565 518.707 76.4604 514.331 76.4604ZM499.202 39.611H527.367C527.367 37.5477 527.041 35.7362 526.373 34.1892C525.718 32.6417 524.79 31.3461 523.615 30.3144C522.427 29.2832 521.036 28.5272 519.441 28.0475C517.836 27.5675 516.073 27.3277 514.128 27.3277C511.143 27.3277 508.587 27.7836 506.462 28.7075C504.336 29.6308 502.685 31.0102 501.509 32.8578C500.321 34.7166 499.552 36.9599 499.202 39.611Z" fill="white"/>
<path d="M572.011 76.4628C569.579 76.4628 567.148 76.1989 564.703 75.683C562.273 75.1672 560.101 74.3156 558.192 73.1399C556.283 71.9645 554.731 70.2851 553.558 68.1019C552.369 65.9309 551.782 63.148 551.782 59.7533C551.782 55.3991 552.753 51.8844 554.7 49.1855C556.645 46.4984 559.459 44.4713 563.145 43.1042C566.83 41.7364 571.194 40.8368 576.239 40.393C581.28 39.9491 586.823 39.7332 592.871 39.7332V36.3026C592.871 34.3112 592.473 32.6681 591.674 31.3845C590.869 30.0892 589.627 29.0814 587.919 28.3379C586.211 27.6059 583.94 27.2341 581.091 27.2341C578.591 27.2341 576.452 27.5101 574.68 28.0618C572.904 28.6139 571.544 29.3333 570.608 30.2208C569.668 31.1085 569.193 32.1402 569.193 33.3158V34.6473H554.177C554.108 34.2035 554.053 33.8316 554.02 33.5435C553.985 33.2438 553.964 32.884 553.964 32.4403C553.964 29.0455 555.037 26.0826 557.195 23.5397C559.357 20.9967 562.501 19.0416 566.637 17.674C570.777 16.3067 575.728 15.6228 581.496 15.6228C587.264 15.6228 592.112 16.2826 596.047 17.614C599.974 18.9455 602.98 21.0088 605.07 23.8157C607.152 26.6226 608.205 30.1971 608.205 34.5515V60.1132C608.205 61.4448 608.53 62.4523 609.198 63.1599C609.852 63.8556 610.681 64.2156 611.654 64.2156H616.027V74.6154C615.259 74.9873 614.049 75.3712 612.377 75.779C610.7 76.1868 608.755 76.3908 606.529 76.3908C603.952 76.3908 601.838 76.043 600.162 75.3352C598.489 74.6394 597.191 73.6798 596.251 72.4563C595.315 71.2328 594.635 69.8174 594.218 68.1981H593.382C591.923 69.8174 590.122 71.2808 588.007 72.5642C585.882 73.8598 583.486 74.8314 580.806 75.4911C578.137 76.1269 575.197 76.4628 572.011 76.4628ZM576.589 64.5154C578.603 64.5154 580.567 64.2396 582.481 63.6878C584.39 63.1359 586.11 62.3563 587.647 61.3607C589.173 60.3651 590.428 59.1056 591.4 57.594C592.373 56.0827 592.859 54.4394 592.859 52.6763V49.4736C587.434 49.4736 582.807 49.7491 578.985 50.3012C575.166 50.8528 572.224 51.7767 570.178 53.0718C568.131 54.3674 567.103 56.1547 567.103 58.4337C567.103 59.9092 567.522 61.0848 568.358 61.9725C569.193 62.8601 570.334 63.5078 571.793 63.9036C573.252 64.3116 574.861 64.5154 576.589 64.5154Z" fill="white"/>
<path d="M623.212 75.1273V16.9264H635.729L636.982 25.6709H637.718C639.178 23.3798 640.93 21.4846 642.987 19.9734C645.033 18.4618 647.248 17.3585 649.612 16.6507C651.976 15.9551 654.407 15.5949 656.919 15.5949C661.16 15.5949 664.741 16.3867 667.658 17.9701C670.576 19.5534 672.803 22.1205 674.33 25.6588H675.066C676.593 23.3678 678.39 21.4726 680.436 19.9613C682.481 18.4497 684.745 17.3464 687.221 16.6386C689.684 15.943 692.209 15.5833 694.784 15.5833C698.889 15.5833 702.381 16.3268 705.268 17.7902C708.149 19.2657 710.388 21.6288 711.996 24.8674C713.587 28.1181 714.391 32.2443 714.391 37.2585V75.1035H698.958V40.0291C698.958 37.9663 698.733 36.1906 698.278 34.7155C697.828 33.2402 697.181 32.0644 696.345 31.1769C695.509 30.2892 694.448 29.6656 693.169 29.2938C691.878 28.9216 690.513 28.7417 689.054 28.7417C686.759 28.7417 684.653 29.3175 682.744 30.457C680.834 31.5964 679.307 33.2281 678.153 35.3272C677.011 37.4263 676.433 39.8135 676.433 42.4643V75.1035L661.203 75.1033V40.0293C661.203 37.9663 660.954 36.1906 660.468 34.7152C659.982 33.2402 659.303 32.0644 658.434 31.1769C657.562 30.2892 656.521 29.6656 655.299 29.2938C654.082 28.9216 652.678 28.7417 651.071 28.7417C648.776 28.7417 646.673 29.3175 644.764 30.457C642.851 31.5964 641.336 33.2281 640.227 35.3272C639.121 37.4263 638.555 39.8135 638.555 42.4643V75.1033H623.212V75.1273Z" fill="white"/>
<path d="M82.4083 19.5304H104.47V27.9744C104.47 39.4266 95.1313 48.6828 83.5767 48.6828H82.4083V19.5304ZM51.0105 7.26611H82.4083V86.9769H78.6722C55.9121 86.9769 51.3596 71.244 51.3596 57.2441L51.0105 7.26611ZM0 25.3152C0 39.5439 10.2707 44.751 21.7099 46.4867H0V87.2085H20.8935C41.9052 87.2085 44.3545 77.9523 44.3545 69.1594C44.3545 58.3992 36.8852 50.8817 25.3277 47.9878H44.3545V7.26611H23.4612C2.45231 7.26611 0 16.5223 0 25.3152Z" fill="white"/>
<path d="M422.562 147C416.123 147 411.155 145.291 407.658 141.873C404.2 138.415 402.471 133.069 402.471 125.836C402.471 121.027 403.306 117.073 404.975 113.972C406.644 110.833 409.069 108.508 412.248 106.997C415.428 105.447 419.243 104.672 423.695 104.672C426.357 104.672 428.861 104.97 431.206 105.567C433.551 106.163 435.618 107.077 437.406 108.309C439.234 109.541 440.645 111.091 441.639 112.959C442.672 114.787 443.189 116.973 443.189 119.517H434.187C434.187 118.285 433.909 117.192 433.352 116.238C432.836 115.284 432.1 114.489 431.147 113.853C430.193 113.217 429.1 112.74 427.868 112.422C426.636 112.104 425.344 111.946 423.993 111.946C421.926 111.946 420.118 112.224 418.568 112.78C417.018 113.297 415.726 114.112 414.692 115.224C413.699 116.297 412.944 117.649 412.427 119.278C411.91 120.908 411.652 122.796 411.652 124.942V126.73C411.652 129.711 412.089 132.155 412.964 134.063C413.838 135.971 415.15 137.402 416.898 138.355C418.647 139.27 420.813 139.727 423.396 139.727C425.543 139.727 427.43 139.409 429.06 138.773C430.729 138.097 432.021 137.143 432.935 135.911C433.889 134.679 434.366 133.169 434.366 131.38V130.963H422.144V124.167H443.189V146.284H437.347L436.572 141.873C435.379 143.025 434.088 143.979 432.697 144.734C431.345 145.489 429.835 146.046 428.166 146.404C426.496 146.801 424.628 147 422.562 147Z" fill="white"/>
<path d="M451.759 146.284V105.388H484.429V112.661H460.702V121.782H481.687V128.996H460.702V138.952H484.787V146.284H451.759Z" fill="white"/>
<path d="M492.454 146.284V105.388H514.87C517.89 105.388 520.394 105.924 522.381 106.997C524.408 108.07 525.919 109.581 526.912 111.528C527.906 113.436 528.403 115.642 528.403 118.146C528.403 120.808 527.807 123.173 526.614 125.24C525.422 127.267 523.693 128.817 521.428 129.89L529.774 146.284H519.937L512.724 131.38H501.337V146.284H492.454ZM501.337 124.346H513.678C515.466 124.346 516.857 123.809 517.851 122.736C518.844 121.623 519.341 120.133 519.341 118.265C519.341 117.073 519.122 116.059 518.685 115.224C518.248 114.35 517.612 113.694 516.778 113.257C515.943 112.82 514.91 112.601 513.678 112.601H501.337V124.346Z" fill="white"/>
<path d="M536.002 146.284V105.388H549.535L555.377 126.313C555.616 127.068 555.854 127.962 556.092 128.996C556.331 130.029 556.569 131.062 556.808 132.096C557.086 133.089 557.305 133.984 557.464 134.778H557.941C558.02 134.103 558.159 133.308 558.358 132.394C558.557 131.44 558.775 130.427 559.014 129.353C559.252 128.28 559.51 127.247 559.789 126.253L565.631 105.388H578.925V146.284H570.162V126.909C570.162 125.121 570.162 123.332 570.162 121.544C570.202 119.715 570.241 118.126 570.281 116.774C570.361 115.423 570.4 114.549 570.4 114.151H569.923C569.844 114.589 569.645 115.403 569.327 116.596C569.049 117.748 568.731 118.98 568.373 120.292C568.055 121.603 567.757 122.736 567.479 123.69L561.1 146.284H553.35L546.912 123.75C546.673 122.915 546.395 121.941 546.077 120.828C545.799 119.676 545.521 118.503 545.242 117.311C545.004 116.079 544.765 115.026 544.527 114.151H544.05C544.09 115.224 544.13 116.516 544.169 118.026C544.209 119.497 544.249 121.027 544.289 122.617C544.328 124.167 544.348 125.598 544.348 126.909V146.284H536.002Z" fill="white"/>
<path d="M583.818 146.284L599.557 105.388H610.526L626.265 146.284H616.667L613.745 138.236H595.92L592.999 146.284H583.818ZM598.484 131.082H611.182L607.545 121.007C607.386 120.57 607.188 120.053 606.949 119.457C606.75 118.821 606.532 118.126 606.293 117.371C606.055 116.615 605.816 115.88 605.578 115.165C605.379 114.41 605.181 113.734 604.982 113.138H604.624C604.425 113.893 604.167 114.787 603.849 115.821C603.531 116.814 603.213 117.788 602.895 118.742C602.577 119.656 602.319 120.411 602.12 121.007L598.484 131.082Z" fill="white"/>
<path d="M631.131 146.284V105.388H639.299L655.753 127.446C655.991 127.724 656.289 128.121 656.647 128.638C657.005 129.115 657.343 129.592 657.661 130.069C657.979 130.546 658.197 130.923 658.316 131.202H658.614C658.614 130.526 658.614 129.87 658.614 129.234C658.614 128.559 658.614 127.962 658.614 127.446V105.388H667.02V146.284H658.853L642.041 123.69C641.644 123.133 641.226 122.517 640.789 121.842C640.352 121.166 640.034 120.649 639.835 120.292H639.537C639.537 120.888 639.537 121.484 639.537 122.08C639.537 122.637 639.537 123.173 639.537 123.69V146.284H631.131Z" fill="white"/>
<path d="M687.94 146.284V129.83L672.082 105.388H682.396L692.53 121.842H692.828L702.904 105.388H712.621L696.882 129.83V146.284H687.94Z" fill="white"/>
</svg>
