<svg width="782" height="196" viewBox="0 0 782 196" fill="none" xmlns="http://www.w3.org/2000/svg">
<path d="M36.9528 101.824C31.6831 101.824 26.7883 101.28 22.301 100.21C17.8137 99.1238 13.8986 97.5901 10.5708 95.5615C7.24286 93.5486 4.63776 91.0406 2.78572 88.0534C0.933473 85.0502 0 81.5996 0 77.6698C0 77.2706 0 76.887 0 76.4878C0 76.0885 0.045266 75.753 0.135576 75.4494H20.2832C20.2832 75.6411 20.2832 75.8646 20.2832 76.1202C20.2832 76.3602 20.2832 76.5837 20.2832 76.7911C20.3735 79.1554 21.2018 81.0726 22.7829 82.5422C24.3489 84.0119 26.4419 85.0661 29.0319 85.7052C31.6215 86.3441 34.3626 86.6637 37.2227 86.6637C39.9042 86.6637 42.5242 86.4719 45.0688 86.0726C47.6133 85.6732 49.751 84.8904 51.454 83.7082C53.1709 82.5263 54.0283 80.9606 54.0283 78.9959C54.0283 76.5355 53.0041 74.7307 50.9717 73.5487C48.9392 72.3665 46.1386 71.4402 42.5699 70.7533C39.0011 70.0663 34.9958 69.2833 30.5537 68.3885C26.8484 67.7016 23.3099 66.8233 19.9218 65.7372C16.5487 64.6505 13.507 63.2609 10.8267 61.5355C8.14635 59.8101 6.0081 57.6057 4.44207 54.9062C2.86095 52.2066 2.07793 48.8361 2.07793 44.8103C2.07793 40.5931 2.95125 36.9506 4.71319 33.8995C6.47492 30.8484 8.97462 28.3561 12.2121 26.3917C15.4495 24.4269 19.2743 22.973 23.6713 22.0467C28.0683 21.1202 32.8124 20.6406 37.9016 20.6406C42.6294 20.6406 47.0715 21.1041 51.2436 22.0467C55.4137 22.973 59.0281 24.3626 62.0689 26.1678C65.1255 27.9891 67.551 30.2734 69.3572 33.0212C71.1634 35.7684 72.0684 38.8677 72.0684 42.3021C72.0684 42.893 72.0684 43.4364 72.0684 43.9154C72.0684 44.4112 72.0228 44.7942 71.9315 45.0981H51.7993V44.0597C51.7993 42.1905 51.1682 40.6731 49.9177 39.491C48.6673 38.3084 46.9504 37.398 44.783 36.7592C42.5997 36.1199 40.1305 35.8006 37.3438 35.8006C35.9584 35.8006 34.3785 35.8966 32.6159 36.0884C30.8534 36.2797 29.1683 36.6312 27.5411 37.1262C25.9148 37.622 24.6199 38.3084 23.6562 39.1871C22.6926 40.066 22.1956 41.1997 22.1956 42.5736C22.1956 44.3469 23.0689 45.7368 24.8306 46.7753C26.5926 47.8138 28.9265 48.6121 31.8478 49.2031C34.7695 49.7942 37.9313 50.4335 41.3651 51.1205C45.2494 51.9986 49.1496 52.9096 53.0339 53.8516C56.9202 54.7785 60.4889 56.0405 63.7262 57.6057C66.9635 59.1714 69.508 61.4396 71.3599 64.3794C73.2117 67.3185 74.1307 71.2643 74.1307 76.1685C74.1307 80.8809 73.2276 84.8904 71.4194 88.1811C69.6132 91.4719 67.0528 94.1238 63.7103 96.1367C60.3837 98.1495 56.4379 99.603 51.9045 100.482C47.4188 101.376 42.419 101.824 36.9528 101.824Z" fill="white"/>
<path d="M115.7 101.822C106.997 101.822 100.264 99.4571 95.4908 94.7447C90.7193 90.0321 88.3395 82.62 88.3395 72.492V22.5395H108.622V68.9457C108.622 71.805 108.938 74.1852 109.601 76.0865C110.248 78.0031 111.229 79.553 112.523 80.735C113.819 81.9171 115.369 82.7797 117.175 83.3069C118.983 83.8341 121.046 84.1217 123.35 84.1217C126.676 84.1217 129.719 83.3389 132.444 81.7574C135.17 80.1919 137.369 78.003 139.04 75.2076C140.711 72.4122 141.539 69.2335 141.539 65.7028V22.5234H161.959V100.032H145.288L143.768 88.2432H142.789C140.56 91.2943 138.061 93.8182 135.291 95.831C132.504 97.8438 129.433 99.3455 126.059 100.32C122.671 101.326 119.223 101.822 115.7 101.822Z" fill="white"/>
<path d="M180.278 127.013V22.5389H196.812L198.62 33.7369H199.599C202.475 29.0247 206.103 25.6859 210.501 23.7209C214.898 21.7559 219.685 20.7817 224.882 20.7817C231.642 20.7817 237.499 22.2035 242.453 25.0626C247.407 27.9065 251.232 32.3315 253.914 38.3215C256.593 44.3123 257.933 51.9803 257.933 61.3092C257.933 70.4464 256.563 78.0185 253.838 84.0091C251.113 89.9996 247.332 94.4724 242.515 97.4117C237.696 100.351 232.049 101.837 225.574 101.837C222.337 101.837 219.205 101.437 216.192 100.655C213.181 99.8717 210.426 98.6576 207.925 97.0443C205.426 95.4309 203.287 93.4339 201.54 91.0698H200.712V127.029H180.278V127.013ZM219.038 84.2805C223.21 84.2805 226.628 83.4659 229.324 81.8524C232.003 80.2392 233.992 77.779 235.302 74.4883C236.596 71.1973 237.243 67.2994 237.243 62.779V59.8395C237.243 55.1273 236.596 51.1491 235.302 47.9068C234.006 44.6638 232.019 42.2354 229.324 40.6064C226.628 38.9924 223.165 38.178 218.903 38.178C214.928 38.178 211.555 39.0567 208.828 40.8299C206.103 42.603 204.011 45.1269 202.58 48.4173C201.135 51.7086 200.426 55.6223 200.426 60.1273V62.1881C200.426 65.5264 200.849 68.5936 201.677 71.389C202.505 74.1844 203.693 76.5486 205.216 78.4657C206.736 80.3829 208.634 81.8365 210.906 82.8109C213.181 83.8013 215.892 84.2805 219.038 84.2805Z" fill="white"/>
<path d="M311.119 101.825C302.325 101.825 294.842 100.371 288.683 97.48C282.524 94.5885 277.826 90.1317 274.589 84.1413C271.351 78.1507 269.724 70.5305 269.724 61.2975C269.724 52.0643 271.335 44.4441 274.589 38.4539C277.826 32.4633 282.478 28.0226 288.548 25.1152C294.615 22.2237 301.949 20.77 310.562 20.77C318.995 20.77 326.146 22.1916 332.02 25.0515C337.893 27.8946 342.349 32.2398 345.346 38.0863C348.357 43.9334 349.863 51.2654 349.863 60.1153V66.1538H290.699C290.882 70.6748 291.769 74.4289 293.335 77.4318C294.901 80.435 297.206 82.6235 300.217 83.9974C303.23 85.3711 306.947 86.0581 311.405 86.0581C313.618 86.0581 315.756 85.7865 317.79 85.2435C319.823 84.7002 321.675 83.8696 323.346 82.7354C325.017 81.6013 326.403 80.2115 327.518 78.5342C328.631 76.8729 329.233 74.9555 329.324 72.7833H349.744C349.744 77.3042 348.793 81.3776 346.898 85.0198C345 88.6619 342.38 91.6972 339.052 94.1572C335.723 96.6172 331.688 98.5023 326.96 99.8282C322.232 101.154 316.963 101.825 311.119 101.825ZM290.987 52.7512H328.481C328.481 50.0034 328.044 47.591 327.157 45.5308C326.268 43.4699 325.049 41.7445 323.483 40.3706C321.901 38.9973 320.049 37.9904 317.925 37.3517C315.802 36.7124 313.438 36.393 310.847 36.393C306.874 36.393 303.47 37.0002 300.639 38.2306C297.809 39.4602 295.61 41.2971 294.044 43.7577C292.462 46.2332 291.438 49.2206 290.987 52.7512Z" fill="white"/>
<path d="M364.874 100.049V22.5404H381.543L383.214 35.2082H384.195C385.112 32.5563 386.467 30.0963 388.214 27.8441C389.977 25.5915 392.13 23.8182 394.675 22.5404C397.219 21.2624 400.109 20.623 403.362 20.623C405.034 20.623 406.554 20.7671 407.941 21.0704C409.327 21.3582 410.529 21.7097 411.554 22.1089V40.9749H403.499C400.351 40.9749 397.64 41.4862 395.367 42.5247C393.093 43.5625 391.195 45.0323 389.675 46.9497C388.154 48.8664 387.039 51.1029 386.346 53.659C385.654 56.2149 385.308 59.1063 385.308 62.3486V100.065H364.874V100.049Z" fill="white"/>
<path d="M448.897 101.822C443.808 101.822 439.636 100.991 436.399 99.314C433.161 97.6525 430.768 95.1605 429.245 91.8697C427.725 88.579 426.957 84.4734 426.957 79.5693V38.7544H415.709V22.5403H427.786L431.671 6.8476e-07L447.361 0V22.5403H463.744V38.7544H447.361V76.4702C447.361 79.4095 447.933 81.646 449.094 83.1795C450.253 84.6971 452.45 85.4638 455.689 85.4638H463.744V99.4577C462.539 99.857 461.064 100.224 459.302 100.56C457.541 100.895 455.733 101.199 453.881 101.439C452.045 101.694 450.388 101.822 448.897 101.822Z" fill="white"/>
<path d="M515.572 101.825C506.779 101.825 499.294 100.371 493.135 97.48C486.976 94.5885 482.278 90.1317 479.041 84.1413C475.804 78.1507 474.178 70.5305 474.178 61.2975C474.178 52.0643 475.804 44.4441 479.041 38.4539C482.278 32.4633 486.931 28.0226 493 25.1152C499.068 22.2237 506.402 20.77 515.016 20.77C523.432 20.77 530.601 22.1916 536.47 25.0515C542.347 27.8946 546.801 32.2398 549.814 38.0863C552.829 43.9334 554.331 51.2654 554.331 60.1153V66.1538H495.168C495.35 70.6748 496.237 74.4289 497.803 77.4318C499.369 80.435 501.674 82.6235 504.685 83.9974C507.698 85.3711 511.415 86.0581 515.873 86.0581C518.102 86.0581 520.224 85.7865 522.259 85.2435C524.291 84.7002 526.143 83.8696 527.814 82.7354C529.485 81.6013 530.871 80.2115 531.986 78.5342C533.1 76.8729 533.701 74.9555 533.792 72.7833H554.208C554.208 77.3042 553.262 81.3776 551.366 85.0198C549.467 88.6619 546.849 91.6972 543.52 94.1572C540.19 96.6172 536.154 98.5023 531.442 99.8282C526.685 101.154 521.399 101.825 515.572 101.825ZM495.424 52.7512H532.933C532.933 50.0034 532.498 47.591 531.609 45.5308C530.736 43.4699 529.501 41.7445 527.935 40.3706C526.353 38.9973 524.501 37.9904 522.378 37.3517C520.24 36.7124 517.892 36.393 515.302 36.393C511.326 36.393 507.922 37.0002 505.092 38.2306C502.261 39.4602 500.062 41.2971 498.496 43.7577C496.914 46.2332 495.89 49.2206 495.424 52.7512Z" fill="white"/>
<path d="M592.387 101.828C589.147 101.828 585.91 101.477 582.655 100.79C579.418 100.103 576.526 98.9688 573.983 97.4032C571.441 95.8378 569.375 93.6012 567.812 90.6939C566.229 87.8026 565.447 84.0965 565.447 79.5756C565.447 73.7769 566.741 69.0963 569.333 65.502C571.923 61.9235 575.67 59.224 580.579 57.4033C585.487 55.5818 591.299 54.3838 598.018 53.7927C604.73 53.2016 612.112 52.914 620.166 52.914V48.3453C620.166 45.6934 619.636 43.5051 618.573 41.7958C617.501 40.0707 615.847 38.7286 613.573 37.7384C611.298 36.7636 608.273 36.2684 604.478 36.2684C601.15 36.2684 598.301 36.636 595.942 37.3708C593.576 38.106 591.765 39.064 590.519 40.246C589.267 41.4282 588.633 42.8021 588.633 44.3677V46.141H568.636C568.545 45.5499 568.471 45.0547 568.428 44.671C568.38 44.2718 568.352 43.7927 568.352 43.2018C568.352 38.6808 569.781 34.7349 572.655 31.3484C575.535 27.9619 579.721 25.3582 585.229 23.5369C590.743 21.716 597.337 20.8052 605.018 20.8052C612.699 20.8052 619.156 21.6839 624.396 23.4569C629.626 25.2302 633.63 27.978 636.412 31.716C639.185 35.454 640.588 40.2144 640.588 46.0133V80.055C640.588 81.8282 641.021 83.17 641.91 84.1124C642.782 85.0389 643.885 85.5182 645.181 85.5182H651.005V99.3682C649.983 99.8634 648.371 100.375 646.144 100.918C643.911 101.461 641.321 101.733 638.355 101.733C634.924 101.733 632.109 101.269 629.876 100.327C627.649 99.4001 625.92 98.1221 624.668 96.4928C623.422 94.8634 622.516 92.9784 621.961 90.8219H620.847C618.904 92.9784 616.506 94.9273 613.69 96.6365C610.86 98.3619 607.668 99.6558 604.099 100.534C600.544 101.381 596.63 101.828 592.387 101.828ZM598.484 85.9176C601.166 85.9176 603.782 85.5502 606.33 84.8154C608.873 84.0804 611.163 83.0421 613.21 81.7163C615.242 80.3904 616.913 78.713 618.207 76.7C619.503 74.6874 620.151 72.4989 620.151 70.1509V65.8857C612.926 65.8857 606.765 66.2527 601.674 66.9878C596.589 67.7224 592.671 68.9528 589.945 70.6776C587.22 72.4031 585.851 74.7833 585.851 77.8183C585.851 79.7832 586.408 81.3489 587.522 82.5311C588.633 83.713 590.154 84.5756 592.097 85.1028C594.04 85.646 596.182 85.9176 598.484 85.9176Z" fill="white"/>
<path d="M660.574 100.05V22.5412H677.242L678.912 34.1866H679.892C681.835 31.1355 684.17 28.6116 686.909 26.599C689.634 24.5859 692.583 23.1166 695.731 22.174C698.879 21.2477 702.116 20.7679 705.463 20.7679C711.11 20.7679 715.879 21.8225 719.764 23.9311C723.65 26.0396 726.615 29.4583 728.65 34.1705H729.63C731.663 31.1194 734.056 28.5955 736.781 26.5829C739.505 24.5699 742.52 23.1005 745.816 22.1579C749.097 21.2316 752.46 20.7524 755.889 20.7524C761.356 20.7524 766.006 21.7427 769.851 23.6916C773.687 25.6566 776.669 28.8035 778.81 33.1165C780.93 37.4457 782 42.9407 782 49.6182V100.018H761.447V53.308C761.447 50.5608 761.147 48.1961 760.542 46.2317C759.942 44.2669 759.081 42.7011 757.968 41.5191C756.854 40.337 755.441 39.5065 753.738 39.0113C752.019 38.5157 750.201 38.2761 748.258 38.2761C745.201 38.2761 742.397 39.0429 739.854 40.5605C737.311 42.0779 735.277 44.2509 733.741 47.0463C732.22 49.8417 731.45 53.0208 731.45 56.5511V100.018L711.167 100.018V53.3082C711.167 50.5608 710.836 48.1961 710.189 46.2313C709.542 44.2669 708.637 42.7011 707.479 41.5191C706.318 40.337 704.933 39.5065 703.305 39.0113C701.684 38.5157 699.814 38.2761 697.674 38.2761C694.618 38.2761 691.817 39.0429 689.274 40.5605C686.728 42.0779 684.709 44.2509 683.233 47.0463C681.76 49.8417 681.006 53.0208 681.006 56.5511V100.018H660.574V100.05Z" fill="white"/>
<path d="M393.359 195.766C384.785 195.766 378.169 193.49 373.511 188.938C368.906 184.333 366.604 177.214 366.604 167.581C366.604 161.177 367.715 155.91 369.938 151.782C372.161 147.6 375.39 144.504 379.624 142.493C383.859 140.429 388.94 139.396 394.868 139.396C398.414 139.396 401.749 139.793 404.871 140.587C407.994 141.381 410.746 142.599 413.128 144.239C415.563 145.88 417.442 147.944 418.765 150.432C420.141 152.867 420.829 155.778 420.829 159.165H408.841C408.841 157.525 408.47 156.069 407.729 154.799C407.041 153.528 406.062 152.47 404.792 151.623C403.522 150.776 402.066 150.141 400.425 149.718C398.784 149.294 397.064 149.082 395.265 149.082C392.512 149.082 390.104 149.453 388.04 150.194C385.976 150.882 384.256 151.967 382.879 153.449C381.556 154.878 380.551 156.678 379.862 158.848C379.174 161.018 378.83 163.532 378.83 166.39V168.772C378.83 172.742 379.413 175.997 380.577 178.537C381.741 181.078 383.488 182.983 385.817 184.254C388.146 185.471 391.03 186.08 394.471 186.08C397.329 186.08 399.843 185.656 402.013 184.809C404.236 183.91 405.956 182.639 407.174 180.999C408.444 179.358 409.079 177.346 409.079 174.965V174.409H392.804V165.358H420.829V194.813H413.049L412.017 188.938C410.429 190.473 408.709 191.743 406.856 192.749C405.057 193.754 403.045 194.495 400.822 194.972C398.599 195.501 396.112 195.766 393.359 195.766Z" fill="white"/>
<path d="M432.243 194.813V140.349H475.75V150.035H444.152V162.182H472.098V171.789H444.152V185.048H476.227V194.813H432.243Z" fill="white"/>
<path d="M486.438 194.813V140.349H516.29C520.312 140.349 523.647 141.064 526.293 142.493C528.993 143.922 531.004 145.933 532.327 148.527C533.65 151.067 534.312 154.005 534.312 157.339C534.312 160.886 533.518 164.035 531.93 166.787C530.342 169.487 528.04 171.551 525.023 172.98L536.138 194.813H523.038L513.432 174.965H498.268V194.813H486.438ZM498.268 165.596H514.702C517.084 165.596 518.936 164.882 520.259 163.453C521.583 161.971 522.244 159.986 522.244 157.498C522.244 155.91 521.953 154.561 521.371 153.449C520.789 152.285 519.942 151.411 518.83 150.829C517.719 150.247 516.343 149.956 514.702 149.956H498.268V165.596Z" fill="white"/>
<path d="M544.432 194.813V140.349H562.454L570.235 168.216C570.553 169.222 570.87 170.413 571.188 171.789C571.505 173.165 571.823 174.541 572.14 175.917C572.511 177.241 572.802 178.431 573.014 179.49H573.649C573.755 178.59 573.94 177.532 574.205 176.314C574.469 175.044 574.76 173.694 575.078 172.265C575.396 170.836 575.74 169.46 576.11 168.137L583.891 140.349H601.595V194.813H589.925V169.01C589.925 166.628 589.925 164.247 589.925 161.865C589.977 159.43 590.03 157.313 590.083 155.513C590.189 153.714 590.242 152.549 590.242 152.02H589.607C589.501 152.602 589.236 153.687 588.813 155.275C588.443 156.81 588.019 158.451 587.543 160.198C587.119 161.944 586.722 163.453 586.352 164.723L577.857 194.813H567.536L558.961 164.802C558.644 163.691 558.273 162.394 557.85 160.912C557.479 159.377 557.109 157.816 556.738 156.228C556.421 154.587 556.103 153.184 555.785 152.02H555.15C555.203 153.449 555.256 155.169 555.309 157.181C555.362 159.139 555.415 161.177 555.468 163.294C555.521 165.358 555.547 167.264 555.547 169.01V194.813H544.432Z" fill="white"/>
<path d="M608.111 194.813L629.071 140.349H643.679L664.639 194.813H651.857L647.967 184.095H624.228L620.338 194.813H608.111ZM627.642 174.568H644.553L639.71 161.15C639.498 160.568 639.233 159.88 638.916 159.086C638.651 158.239 638.36 157.313 638.042 156.307C637.725 155.302 637.407 154.322 637.09 153.37C636.825 152.364 636.56 151.464 636.296 150.67H635.819C635.555 151.676 635.211 152.867 634.787 154.243C634.364 155.566 633.94 156.863 633.517 158.133C633.094 159.351 632.75 160.356 632.485 161.15L627.642 174.568Z" fill="white"/>
<path d="M671.12 194.813V140.349H681.997L703.91 169.725C704.227 170.095 704.624 170.624 705.101 171.313C705.577 171.948 706.027 172.583 706.45 173.218C706.874 173.853 707.165 174.356 707.324 174.726H707.721C707.721 173.827 707.721 172.953 707.721 172.107C707.721 171.207 707.721 170.413 707.721 169.725V140.349H718.915V194.813H708.038L685.649 164.723C685.12 163.982 684.564 163.162 683.982 162.262C683.4 161.362 682.976 160.674 682.712 160.198H682.315C682.315 160.991 682.315 161.785 682.315 162.579C682.315 163.32 682.315 164.035 682.315 164.723V194.813H671.12Z" fill="white"/>
<path d="M746.775 194.813V172.9L725.656 140.349H739.391L752.888 162.262H753.285L766.702 140.349H779.643L758.684 172.9V194.813H746.775Z" fill="white"/>
</svg>
