<svg width="130" height="18" viewBox="0 0 130 18" fill="none" xmlns="http://www.w3.org/2000/svg">
<g id="Group 43">
<path id="Vector" d="M0 10.615V0.0117188H5.54445V10.615C5.54445 11.8233 6.70755 12.5799 8.31103 12.5799C9.91452 12.5799 11.0776 11.8233 11.0776 10.615V0.0117188H16.6221V10.615C16.6221 15.1771 12.9973 18.0001 8.31103 18.0001C3.62478 17.9888 0 15.1771 0 10.615Z" fill="white"/>
<path id="Vector_2" d="M18.2578 0H23.8023V12.3423H31.8649V17.6384H18.2578V0Z" fill="white"/>
<path id="Vector_3" d="M33.5042 5.29603H28.3438V0H44.2206V5.29603H39.06V17.6384H33.5156L33.5042 5.29603Z" fill="white"/>
<path id="Vector_4" d="M45.8594 12.3536H49.1342V5.29603H45.8594V0H57.9534V5.29603H54.6786V12.3536H57.9534V17.6497H45.8594V12.3536Z" fill="white"/>
<path id="Vector_5" d="M59.5898 0H65.8908L68.9397 7.2044H69.9447L72.9936 0H79.2946V17.6384H73.7502V10.5582H72.7452L70.9836 14.8379H67.9121L66.1505 10.5582H65.1455V17.6384H59.6011L59.5898 0Z" fill="white"/>
<path id="Vector_6" d="M99.8025 17.2657V17.6384H94.1112L93.0836 13.8894H87.5392L86.5116 17.6384H80.8203V17.2657L85.9244 0H94.721L99.8025 17.2657ZM91.9205 9.59834L90.8139 5.54446H89.8089L88.7023 9.59834H91.9205Z" fill="white"/>
<path id="Vector_7" d="M103.278 5.29603H98.1172V0H113.994V5.29603H108.834V17.6384H103.289L103.278 5.29603Z" fill="white"/>
<path id="Vector_8" d="M115.621 0H129.477V5.21698H121.166V6.97856H128.325V10.6598H121.166V12.4214H129.477V17.6384H115.621V0Z" fill="white"/>
</g>
</svg>
