<svg xmlns="http://www.w3.org/2000/svg" xmlns:xlink="http://www.w3.org/1999/xlink" width="777" zoomAndPan="magnify" viewBox="0 0 582.75 240.749995" height="321" preserveAspectRatio="xMidYMid meet" version="1.0"><defs><clipPath id="11bb5ec501"><path d="M 12.179688 40.3125 L 189 40.3125 L 189 81 L 12.179688 81 Z M 12.179688 40.3125 " clip-rule="nonzero"/></clipPath><clipPath id="315bb97493"><path d="M 12.179688 63 L 189 63 L 189 95 L 12.179688 95 Z M 12.179688 63 " clip-rule="nonzero"/></clipPath><clipPath id="4f77a03dc9"><path d="M 12.179688 88 L 189 88 L 189 110 L 12.179688 110 Z M 12.179688 88 " clip-rule="nonzero"/></clipPath><clipPath id="278f2f6565"><path d="M 12.179688 112 L 189 112 L 189 128 L 12.179688 128 Z M 12.179688 112 " clip-rule="nonzero"/></clipPath><clipPath id="77c5861088"><path d="M 12.179688 130 L 189 130 L 189 153 L 12.179688 153 Z M 12.179688 130 " clip-rule="nonzero"/></clipPath><clipPath id="8cc4b627e3"><path d="M 12.179688 145 L 189 145 L 189 177 L 12.179688 177 Z M 12.179688 145 " clip-rule="nonzero"/></clipPath><clipPath id="a3493cf67d"><path d="M 12.179688 159 L 189 159 L 189 199.898438 L 12.179688 199.898438 Z M 12.179688 159 " clip-rule="nonzero"/></clipPath></defs><path fill="#ffffff" d="M 247.207031 60.871094 C 251.464844 60.847656 256.25 61.78125 261.570312 63.667969 L 259.335938 72.167969 C 254.394531 70.421875 250.375 69.546875 247.277344 69.546875 C 244.773438 69.546875 242.796875 70.042969 241.355469 71.035156 C 239.914062 72.027344 239.191406 73.375 239.191406 75.074219 C 239.191406 76.914062 239.855469 78.378906 241.179688 79.464844 C 242.527344 80.550781 244.972656 81.554688 248.519531 82.476562 C 253.746094 83.820312 257.457031 85.6875 259.65625 88.070312 C 261.855469 90.433594 262.953125 93.691406 262.953125 97.847656 C 262.953125 102.878906 261.25 106.738281 257.847656 109.429688 C 254.464844 112.097656 249.628906 113.433594 243.339844 113.433594 C 238.210938 113.433594 232.714844 112.273438 226.851562 109.960938 L 229.472656 101.707031 C 232.714844 102.867188 235.363281 103.679688 237.417969 104.152344 C 239.476562 104.601562 241.425781 104.824219 243.269531 104.824219 C 245.941406 104.824219 248 104.257812 249.441406 103.125 C 250.90625 101.96875 251.640625 100.375 251.640625 98.34375 C 251.640625 97.046875 251.332031 95.957031 250.71875 95.085938 C 250.105469 94.210938 249.0625 93.433594 247.597656 92.746094 C 246.132812 92.039062 244.015625 91.34375 241.25 90.65625 C 236.636719 89.546875 233.269531 87.824219 231.140625 85.488281 C 229.011719 83.148438 227.949219 80.066406 227.949219 76.242188 C 227.949219 71.355469 229.628906 67.578125 232.984375 64.90625 C 236.367188 62.214844 241.105469 60.871094 247.207031 60.871094 Z M 302.179688 69.9375 L 288.242188 69.9375 L 288.242188 112.9375 L 277.140625 112.9375 L 277.140625 69.9375 L 262.671875 69.9375 L 262.671875 61.507812 L 302.179688 61.507812 Z M 312.007812 99.726562 L 307.820312 112.9375 L 296.898438 112.9375 L 313.601562 61.507812 L 328.285156 61.507812 L 345.414062 112.9375 L 334.667969 112.9375 L 330.308594 99.726562 Z M 320.800781 71 L 314.488281 91.542969 L 327.789062 91.542969 L 321.296875 71 Z M 350.277344 61.507812 L 361.375 61.507812 L 361.375 112.9375 L 350.277344 112.9375 Z M 393.863281 112.9375 L 381.203125 112.9375 L 362.40625 85.453125 L 379.605469 61.507812 L 392.125 61.507812 L 374.464844 85.308594 Z M 398.40625 61.507812 L 409.507812 61.507812 L 409.507812 112.9375 L 398.40625 112.9375 Z M 437.878906 90.160156 C 436.179688 87.753906 433.515625 83.46875 429.898438 77.304688 L 429.898438 112.9375 L 419.792969 112.9375 L 419.792969 61.507812 L 428.589844 61.507812 L 444.261719 83.855469 C 446.25 86.667969 449.015625 91.011719 452.5625 96.890625 L 452.5625 61.507812 L 462.703125 61.507812 L 462.703125 112.9375 L 453.839844 112.9375 Z M 512.609375 109.75 C 509.886719 110.953125 506.992188 111.886719 503.917969 112.546875 C 500.84375 113.183594 497.832031 113.503906 494.875 113.503906 C 486.882812 113.503906 480.699219 111.222656 476.328125 106.667969 C 471.949219 102.085938 469.765625 95.617188 469.765625 87.257812 C 469.765625 78.851562 472.023438 72.359375 476.539062 67.777344 C 481.078125 63.171875 487.488281 60.871094 495.761719 60.871094 C 498.667969 60.871094 501.578125 61.222656 504.488281 61.933594 C 507.394531 62.617188 510.007812 63.585938 512.324219 64.835938 L 509.058594 72.664062 C 506.601562 71.648438 504.449219 70.917969 502.605469 70.46875 C 500.761719 69.996094 498.917969 69.761719 497.074219 69.761719 C 491.847656 69.761719 487.886719 71.222656 485.191406 74.152344 C 482.496094 77.082031 481.148438 81.378906 481.148438 87.046875 C 481.148438 92.664062 482.390625 97.023438 484.871094 100.113281 C 487.378906 103.207031 490.914062 104.753906 495.476562 104.753906 C 497.792969 104.753906 500.0625 104.4375 502.285156 103.796875 L 502.285156 86.832031 L 512.609375 86.832031 Z M 241.886719 148.042969 L 260.933594 148.042969 L 260.933594 156.402344 L 241.886719 156.402344 L 241.886719 178.222656 L 230.785156 178.222656 L 230.785156 126.792969 L 263.910156 126.792969 L 263.910156 135.117188 L 241.886719 135.117188 Z M 276.363281 165.007812 L 272.175781 178.222656 L 261.253906 178.222656 L 277.957031 126.792969 L 292.640625 126.792969 L 309.769531 178.222656 L 299.023438 178.222656 L 294.664062 165.007812 Z M 285.15625 136.285156 L 278.84375 156.828125 L 292.144531 156.828125 L 285.652344 136.285156 Z M 334.492188 126.15625 C 337.210938 126.15625 339.917969 126.507812 342.613281 127.21875 C 345.332031 127.902344 347.769531 128.871094 349.917969 130.121094 L 346.621094 137.808594 C 344.585938 136.839844 342.707031 136.144531 340.980469 135.71875 C 339.28125 135.269531 337.554688 135.046875 335.804688 135.046875 C 330.910156 135.046875 327.1875 136.519531 324.632812 139.472656 C 322.101562 142.425781 320.835938 146.710938 320.835938 152.328125 C 320.835938 158.042969 322.101562 162.375 324.632812 165.328125 C 327.1875 168.257812 330.910156 169.71875 335.804688 169.71875 C 339.585938 169.71875 343.535156 168.859375 347.648438 167.132812 L 350.34375 175.246094 C 345.027344 177.605469 339.695312 178.789062 334.351562 178.789062 C 326.3125 178.789062 320.152344 176.53125 315.871094 172.023438 C 311.59375 167.488281 309.453125 160.996094 309.453125 152.542969 C 309.453125 147.085938 310.445312 142.375 312.433594 138.410156 C 314.417969 134.441406 317.277344 131.410156 321.015625 129.308594 C 324.773438 127.207031 329.265625 126.15625 334.492188 126.15625 Z M 355.878906 126.792969 L 366.980469 126.792969 L 366.980469 178.222656 L 355.878906 178.222656 Z M 409.507812 178.222656 L 377.269531 178.222656 L 377.269531 126.792969 L 387.871094 126.792969 L 387.871094 169.792969 L 409.507812 169.792969 Z M 414.472656 126.792969 L 425.574219 126.792969 L 425.574219 178.222656 L 414.472656 178.222656 Z M 469.980469 135.222656 L 456.039062 135.222656 L 456.039062 178.222656 L 444.9375 178.222656 L 444.9375 135.222656 L 430.46875 135.222656 L 430.46875 126.792969 L 469.980469 126.792969 Z M 474.910156 126.792969 L 486.007812 126.792969 L 486.007812 178.222656 L 474.910156 178.222656 Z M 507.394531 147.691406 L 527.683594 147.691406 L 527.683594 155.730469 L 507.394531 155.730469 L 507.394531 170.039062 L 530.59375 170.039062 L 530.59375 178.222656 L 496.296875 178.222656 L 496.296875 126.792969 L 529.847656 126.792969 L 529.847656 134.972656 L 507.394531 134.972656 Z M 553.894531 126.15625 C 558.148438 126.132812 562.941406 127.0625 568.257812 128.953125 L 566.023438 137.453125 C 561.082031 135.707031 557.0625 134.832031 553.964844 134.832031 C 551.460938 134.832031 549.484375 135.328125 548.042969 136.320312 C 546.601562 137.3125 545.878906 138.65625 545.878906 140.359375 C 545.878906 142.199219 546.542969 143.664062 547.863281 144.75 C 549.210938 145.835938 551.660156 146.839844 555.207031 147.761719 C 560.429688 149.105469 564.144531 150.972656 566.34375 153.355469 C 568.542969 155.71875 569.640625 158.976562 569.640625 163.132812 C 569.640625 168.160156 567.941406 172.023438 564.535156 174.714844 C 561.152344 177.382812 556.320312 178.714844 550.027344 178.714844 C 544.898438 178.714844 539.398438 177.558594 533.539062 175.246094 L 536.164062 166.992188 C 539.398438 168.148438 542.050781 168.964844 544.105469 169.4375 C 546.160156 169.886719 548.113281 170.109375 549.957031 170.109375 C 552.628906 170.109375 554.683594 169.542969 556.128906 168.410156 C 557.59375 167.253906 558.328125 165.660156 558.328125 163.628906 C 558.328125 162.328125 558.019531 161.242188 557.40625 160.371094 C 556.792969 159.496094 555.75 158.71875 554.285156 158.03125 C 552.816406 157.324219 550.699219 156.628906 547.9375 155.941406 C 543.324219 154.832031 539.953125 153.109375 537.828125 150.769531 C 535.703125 148.433594 534.636719 145.351562 534.636719 141.527344 C 534.636719 136.640625 536.316406 132.859375 539.671875 130.191406 C 543.050781 127.5 547.796875 126.15625 553.894531 126.15625 Z M 553.894531 126.15625 " fill-opacity="1" fill-rule="nonzero"/><g clip-path="url(#11bb5ec501)"><path fill="#ffffff" d="M 188.582031 80.230469 L 188.582031 70.691406 L 125.265625 40.3125 L 12.429688 63.625 L 12.429688 74.222656 L 124.203125 56.5625 Z M 188.582031 80.230469 " fill-opacity="1" fill-rule="nonzero"/></g><g clip-path="url(#315bb97493)"><path fill="#ffffff" d="M 188.582031 84.46875 L 188.582031 94.359375 L 115.714844 80.226562 L 12.429688 91.886719 L 12.429688 80.226562 L 118.542969 63.980469 Z M 188.582031 84.46875 " fill-opacity="1" fill-rule="nonzero"/></g><g clip-path="url(#4f77a03dc9)"><path fill="#ffffff" d="M 188.582031 98.949219 L 188.582031 109.195312 L 108.996094 104.074219 L 12.429688 109.195312 L 12.429688 96.832031 L 110.054688 88 Z M 188.582031 98.949219 " fill-opacity="1" fill-rule="nonzero"/></g><g clip-path="url(#278f2f6565)"><path fill="#ffffff" d="M 188.582031 114.492188 L 188.582031 125.089844 L 100.363281 127.917969 L 12.429688 125.089844 L 12.429688 114.492188 L 102.273438 112.019531 Z M 188.582031 114.492188 " fill-opacity="1" fill-rule="nonzero"/></g><g clip-path="url(#77c5861088)"><path fill="#ffffff" d="M 188.582031 130.738281 L 188.582031 141.460938 L 91.929688 152.746094 L 12.429688 140.332031 L 12.429688 130.742188 L 92.777344 136.664062 Z M 188.582031 130.738281 " fill-opacity="1" fill-rule="nonzero"/></g><g clip-path="url(#8cc4b627e3)"><path fill="#ffffff" d="M 188.582031 147.949219 L 188.582031 158.953125 L 83.738281 176.164062 L 12.429688 155.566406 L 12.429688 145.410156 L 84.585938 160.789062 Z M 188.582031 147.949219 " fill-opacity="1" fill-rule="nonzero"/></g><g clip-path="url(#a3493cf67d)"><path fill="#ffffff" d="M 12.429688 159.238281 L 12.429688 168.828125 L 76.109375 199.863281 L 188.582031 176.160156 L 188.582031 165.160156 L 76.957031 183.78125 Z M 12.429688 159.238281 " fill-opacity="1" fill-rule="nonzero"/></g></svg>