<svg width="1272" height="838" viewBox="0 0 1272 838" fill="none" xmlns="http://www.w3.org/2000/svg">
<g clip-path="url(#clip0_1409_3138)">
<path d="M1012.31 986.439C1064.04 800.131 865.355 581.216 678.684 502.745C463.558 412.338 316.358 530.308 173.748 412.98C43.5858 305.963 99.7166 152.949 0.688577 81.9464C-90.3227 16.6985 -288.434 37.8498 -744.454 370.577" stroke="url(#paint0_linear_1409_3138)" stroke-width="5" stroke-miterlimit="10"/>
<path d="M-740.576 395.788C-290.544 68.133 -90.826 43.5365 3.34868 105.403C73.1014 151.359 70.6795 236.454 105.101 318.755C121.896 360.719 148.85 397.852 183.544 426.82C297.142 521.81 411.719 470.656 566.777 494.744C606.346 500.777 645.068 511.44 682.146 526.514C870.799 602.496 1073.19 805.365 1028.05 986.939" stroke="url(#paint1_linear_1409_3138)" stroke-width="5" stroke-miterlimit="10"/>
<path d="M-736.64 420.953C-292.609 98.3998 -91.3892 70.3488 5.72367 128.773C77.1064 171.726 77.9137 254.117 113.708 333.592C131.665 374.814 158.798 411.39 193.038 440.53C304.481 535.339 415.364 492.595 570.169 518.592C609.542 525.123 648.132 535.714 685.321 550.196C875.738 624.278 1082.06 810.481 1043.52 987.32" stroke="url(#paint2_linear_1409_3138)" stroke-width="5" stroke-miterlimit="10"/>
<path d="M-732.708 446.043C-294.779 128.656 -91.9789 97.2207 8.23298 152.164C81.2799 192.201 85.2216 271.775 122.467 348.494C141.528 388.93 168.806 424.947 202.562 454.251C311.971 548.933 418.901 514.451 573.591 542.451C612.819 549.409 651.332 559.914 688.658 573.838C880.952 645.674 1091.06 815.545 1059.12 987.649" stroke="url(#paint3_linear_1409_3138)" stroke-width="5" stroke-miterlimit="10"/>
<path d="M-728.843 471.285C-296.875 158.909 -92.6426 124.097 10.7591 175.598C85.3662 212.71 92.5938 289.533 131.299 363.392C151.48 403.065 178.96 438.575 212.298 468.065C319.673 562.619 422.728 536.469 577.376 566.469C616.35 573.906 654.692 584.331 692.063 597.654C886.265 667.257 1100.15 820.825 1074.84 988.209" stroke="url(#paint4_linear_1409_3138)" stroke-width="5" stroke-miterlimit="10"/>
<path d="M-725.072 496.414C-299.002 189.149 -91.9373 148.074 13.2982 199.003C88.4521 235.272 100.058 307.08 140.057 378.295C161.363 417.151 189.043 452.153 221.943 481.839C327.284 576.267 426.402 558.422 580.785 590.36C619.566 598.207 657.8 608.543 695.251 621.305C891.413 688.553 1109.03 825.911 1090.31 988.59" stroke="url(#paint5_linear_1409_3138)" stroke-width="5" stroke-miterlimit="10"/>
<path d="M-721.028 521.662C-301.111 219.433 -94.0618 178.062 15.8736 222.243C93.352 253.829 107.504 324.835 148.833 393.241C171.232 431.256 199.112 465.762 231.576 495.644C334.882 589.944 430.169 580.414 584.315 614.303C622.89 622.598 661.014 632.867 698.535 645.07C896.605 710.084 1118.05 831.018 1105.89 989.054" stroke="url(#paint6_linear_1409_3138)" stroke-width="5" stroke-miterlimit="10"/>
<path d="M-717.136 546.843C-303.298 249.646 -94.7297 204.864 18.3336 245.829C97.3642 274.343 115.129 342.343 157.635 408.126C181.11 445.267 209.21 479.273 241.26 509.328C342.489 603.517 433.917 602.363 587.898 638.125C623.709 646.485 661.658 656.061 701.884 668.682C901.932 731.385 1127.03 836.216 1121.49 989.457" stroke="url(#paint7_linear_1409_3138)" stroke-width="5" stroke-miterlimit="10"/>
<path d="M-713.244 572.024C-305.347 279.956 -95.5425 232 20.8687 269.16C101.363 294.887 122.771 359.895 166.51 423.007C191.068 459.262 219.392 492.817 251.009 523.111C350.204 617.173 437.753 624.277 591.531 662.077C627.336 670.866 665.167 680.464 705.315 692.438C907.055 752.742 1136.03 841.384 1137.09 989.86" stroke="url(#paint8_linear_1409_3138)" stroke-width="5" stroke-miterlimit="10"/>
<path d="M-709.308 597.189C-307.442 310.209 -96.328 259.076 23.3692 292.655C105.284 315.614 130.539 377.573 175.196 437.913C200.797 473.249 229.335 506.36 260.507 536.894C357.699 630.842 441.372 646.277 595.011 685.89C630.657 695.043 668.519 704.654 708.575 716.011C912.526 773.962 1145.1 846.371 1152.75 990.142" stroke="url(#paint9_linear_1409_3138)" stroke-width="5" stroke-miterlimit="10"/>
<path d="M-705.416 622.37C-309.568 340.449 -97.1405 286.212 25.8177 316.021C109.14 336.24 138.147 395.038 183.911 452.833C210.568 487.203 239.351 519.87 270.092 550.642C365.219 644.449 445.03 668.186 598.427 709.928C634.041 719.571 671.825 729.112 711.745 739.87C917.697 795.376 1153.93 851.651 1168.25 990.714" stroke="url(#paint10_linear_1409_3138)" stroke-width="5" stroke-miterlimit="10"/>
<path d="M-701.524 647.552C-311.678 370.732 -97.893 313.374 28.417 339.451C113.164 356.975 145.98 412.565 192.729 467.761C219.608 499.477 247.24 531.7 279.797 564.443C372.903 658.092 448.826 690.191 602.03 733.867C637.564 743.944 675.3 753.428 715.175 763.626C923.127 816.686 1163.06 856.841 1183.93 991.187" stroke="url(#paint11_linear_1409_3138)" stroke-width="5" stroke-miterlimit="10"/>
<path d="M-697.631 672.734C-313.826 401.107 -98.8824 340.505 30.9139 362.873C117.098 377.671 153.841 430.032 201.519 482.678C229.651 513.749 257.585 545.527 289.444 578.218C380.476 671.831 452.546 712.127 605.575 757.781C641.014 768.321 678.733 777.762 718.426 787.304C928.374 837.845 1172.01 861.953 1199.46 991.595" stroke="url(#paint12_linear_1409_3138)" stroke-width="5" stroke-miterlimit="10"/>
<path d="M-693.8 697.888C-315.913 431.256 -99.5532 367.811 33.4092 386.295C120.992 398.457 161.713 447.467 210.294 497.623C239.736 528.003 267.927 559.352 298.954 591.97C388.022 685.377 456.116 734.07 609.091 781.754C644.494 792.71 682.135 802.081 721.709 811.067C933.71 859.042 1181.01 867.091 1215.05 992.028" stroke="url(#paint13_linear_1409_3138)" stroke-width="5" stroke-miterlimit="10"/>
<path d="M-689.803 723.08C-318.008 461.51 -100.461 395.086 35.9496 409.7C124.974 419.21 169.657 464.826 219.066 512.496C249.831 542.153 278.315 573.161 308.734 605.767C395.708 699.021 460 756.042 612.648 805.637C649.612 817.225 687.146 826.913 725.103 834.663C939.03 880.196 1190.08 872.329 1230.65 992.432" stroke="url(#paint14_linear_1409_3138)" stroke-width="5" stroke-miterlimit="10"/>
<path d="M-685.911 748.261C-320.118 491.793 -101.088 422.375 38.3673 433.052C128.82 439.941 177.521 482.114 227.885 527.425C259.986 556.33 288.702 586.97 318.379 619.542C403.349 712.681 463.735 778.021 616.13 829.524C652.864 841.557 690.336 851.213 728.312 858.431C944.428 901.168 1199 877.427 1246.33 992.757" stroke="url(#paint15_linear_1409_3138)" stroke-width="5" stroke-miterlimit="10"/>
<path d="M-682.02 773.443C-322.244 522.033 -101.807 449.876 40.9974 456.496C132.791 460.797 185.594 499.421 236.657 542.297C270.106 570.419 299.015 600.783 327.994 633.303C410.899 726.302 467.454 799.956 619.733 853.463C656.253 865.902 693.681 875.496 731.682 882.161C949.703 922.339 1207.99 882.595 1261.87 993.312" stroke="url(#paint16_linear_1409_3138)" stroke-width="5" stroke-miterlimit="10"/>
<path d="M-678.096 798.638C-324.405 552.439 -102.728 477.181 43.494 479.919C136.807 481.637 193.603 516.629 245.416 557.2C280.362 584.532 309.372 614.579 337.639 647.079C418.537 739.889 471.16 821.923 623.264 877.406C659.573 890.23 696.962 899.764 734.979 905.895C955.032 943.39 1217 887.734 1277.46 993.746" stroke="url(#paint17_linear_1409_3138)" stroke-width="5" stroke-miterlimit="10"/>
<path d="M-674.204 823.82C-326.601 582.506 -103.496 504.627 45.9797 503.446C140.725 502.617 201.541 533.915 254.124 572.299C290.315 598.838 319.695 628.615 347.204 661.036C426.042 753.78 474.815 844.084 626.753 901.441C662.85 914.649 700.205 924.125 738.235 929.721C960.333 964.501 1226.06 893.15 1292.99 994.302" stroke="url(#paint18_linear_1409_3138)" stroke-width="5" stroke-miterlimit="10"/>
<path d="M-670.313 849.003C-328.59 612.844 -104.233 532.086 48.5275 526.748C144.779 523.366 209.611 550.897 262.991 587.034C300.637 612.548 330.087 642.246 356.901 674.691C433.675 767.294 478.585 865.9 630.321 925.295C666.199 938.902 703.529 948.321 741.57 953.365C965.722 985.326 1234.99 898.041 1308.64 994.615" stroke="url(#paint19_linear_1409_3138)" stroke-width="5" stroke-miterlimit="10"/>
<path d="M-666.377 874.169C-330.685 643.098 -105.034 559.696 50.9458 550.102C148.646 544.215 217.49 567.905 271.628 601.885C310.715 626.405 340.322 655.991 366.435 688.31C441.191 780.829 482.226 887.767 633.769 949.096C669.447 963.074 706.764 972.441 744.816 976.969C970.975 1005.8 1243.87 903.158 1324.18 994.994" stroke="url(#paint20_linear_1409_3138)" stroke-width="5" stroke-miterlimit="10"/>
<path d="M-662.516 899.337C-127.483 532.536 137.418 533.75 280.537 616.854C436.772 707.569 433.151 887.621 637.418 973.091C877.055 1073.32 1238.26 893.588 1339.83 995.453" stroke="url(#paint21_linear_1409_3138)" stroke-width="5" stroke-miterlimit="10"/>
</g>
<defs>
<linearGradient id="paint0_linear_1409_3138" x1="-744.454" y1="370.577" x2="1083.61" y2="39.9185" gradientUnits="userSpaceOnUse">
<stop stop-color="#9945FF"/>
<stop offset="1" stop-color="#14F195"/>
</linearGradient>
<linearGradient id="paint1_linear_1409_3138" x1="-740.576" y1="395.788" x2="1088.21" y2="64.6465" gradientUnits="userSpaceOnUse">
<stop stop-color="#9945FF"/>
<stop offset="1" stop-color="#14F195"/>
</linearGradient>
<linearGradient id="paint2_linear_1409_3138" x1="-736.64" y1="420.953" x2="1092.79" y2="89.647" gradientUnits="userSpaceOnUse">
<stop stop-color="#9945FF"/>
<stop offset="1" stop-color="#14F195"/>
</linearGradient>
<linearGradient id="paint3_linear_1409_3138" x1="-732.708" y1="446.043" x2="1097.64" y2="114.698" gradientUnits="userSpaceOnUse">
<stop stop-color="#9945FF"/>
<stop offset="1" stop-color="#14F195"/>
</linearGradient>
<linearGradient id="paint4_linear_1409_3138" x1="-728.843" y1="471.285" x2="1102.99" y2="140.248" gradientUnits="userSpaceOnUse">
<stop stop-color="#9945FF"/>
<stop offset="1" stop-color="#14F195"/>
</linearGradient>
<linearGradient id="paint5_linear_1409_3138" x1="-725.072" y1="496.414" x2="1108.54" y2="166.196" gradientUnits="userSpaceOnUse">
<stop stop-color="#9945FF"/>
<stop offset="1" stop-color="#14F195"/>
</linearGradient>
<linearGradient id="paint6_linear_1409_3138" x1="-721.028" y1="521.661" x2="1114.47" y2="192.574" gradientUnits="userSpaceOnUse">
<stop stop-color="#9945FF"/>
<stop offset="1" stop-color="#14F195"/>
</linearGradient>
<linearGradient id="paint7_linear_1409_3138" x1="-717.136" y1="546.843" x2="1120.4" y2="218.844" gradientUnits="userSpaceOnUse">
<stop stop-color="#9945FF"/>
<stop offset="1" stop-color="#14F195"/>
</linearGradient>
<linearGradient id="paint8_linear_1409_3138" x1="-713.244" y1="572.024" x2="1126.97" y2="245.797" gradientUnits="userSpaceOnUse">
<stop stop-color="#9945FF"/>
<stop offset="1" stop-color="#14F195"/>
</linearGradient>
<linearGradient id="paint9_linear_1409_3138" x1="-709.308" y1="597.189" x2="1133.68" y2="272.874" gradientUnits="userSpaceOnUse">
<stop stop-color="#9945FF"/>
<stop offset="1" stop-color="#14F195"/>
</linearGradient>
<linearGradient id="paint10_linear_1409_3138" x1="-705.416" y1="622.37" x2="1140.88" y2="300.552" gradientUnits="userSpaceOnUse">
<stop stop-color="#9945FF"/>
<stop offset="1" stop-color="#14F195"/>
</linearGradient>
<linearGradient id="paint11_linear_1409_3138" x1="-701.524" y1="647.552" x2="1148.57" y2="328.603" gradientUnits="userSpaceOnUse">
<stop stop-color="#9945FF"/>
<stop offset="1" stop-color="#14F195"/>
</linearGradient>
<linearGradient id="paint12_linear_1409_3138" x1="-697.631" y1="672.734" x2="1156.59" y2="357.249" gradientUnits="userSpaceOnUse">
<stop stop-color="#9945FF"/>
<stop offset="1" stop-color="#14F195"/>
</linearGradient>
<linearGradient id="paint13_linear_1409_3138" x1="-693.8" y1="697.888" x2="1165.1" y2="386.325" gradientUnits="userSpaceOnUse">
<stop stop-color="#9945FF"/>
<stop offset="1" stop-color="#14F195"/>
</linearGradient>
<linearGradient id="paint14_linear_1409_3138" x1="-689.803" y1="723.08" x2="1174.25" y2="416.216" gradientUnits="userSpaceOnUse">
<stop stop-color="#9945FF"/>
<stop offset="1" stop-color="#14F195"/>
</linearGradient>
<linearGradient id="paint15_linear_1409_3138" x1="-685.911" y1="748.261" x2="1184.02" y2="446.789" gradientUnits="userSpaceOnUse">
<stop stop-color="#9945FF"/>
<stop offset="1" stop-color="#14F195"/>
</linearGradient>
<linearGradient id="paint16_linear_1409_3138" x1="-682.02" y1="773.443" x2="1194.42" y2="478.199" gradientUnits="userSpaceOnUse">
<stop stop-color="#9945FF"/>
<stop offset="1" stop-color="#14F195"/>
</linearGradient>
<linearGradient id="paint17_linear_1409_3138" x1="-678.096" y1="798.638" x2="1222.09" y2="530.11" gradientUnits="userSpaceOnUse">
<stop stop-color="#9945FF"/>
<stop offset="1" stop-color="#14F195"/>
</linearGradient>
<linearGradient id="paint18_linear_1409_3138" x1="-674.204" y1="823.82" x2="1249.2" y2="583.093" gradientUnits="userSpaceOnUse">
<stop stop-color="#9945FF"/>
<stop offset="1" stop-color="#14F195"/>
</linearGradient>
<linearGradient id="paint19_linear_1409_3138" x1="-670.313" y1="849.003" x2="1275.22" y2="636.513" gradientUnits="userSpaceOnUse">
<stop stop-color="#9945FF"/>
<stop offset="1" stop-color="#14F195"/>
</linearGradient>
<linearGradient id="paint20_linear_1409_3138" x1="-666.377" y1="874.169" x2="1299.63" y2="689.612" gradientUnits="userSpaceOnUse">
<stop stop-color="#9945FF"/>
<stop offset="1" stop-color="#14F195"/>
</linearGradient>
<linearGradient id="paint21_linear_1409_3138" x1="-662.516" y1="899.337" x2="1322.67" y2="742.278" gradientUnits="userSpaceOnUse">
<stop stop-color="#9945FF"/>
<stop offset="1" stop-color="#14F195"/>
</linearGradient>
<clipPath id="clip0_1409_3138">
<rect width="2005" height="838" fill="white" transform="translate(-733)"/>
</clipPath>
</defs>
</svg>