<svg width="1920" height="2281" viewBox="0 0 1920 2281" fill="none" xmlns="http://www.w3.org/2000/svg">
<g clip-path="url(#clip0_1138_1725)">
<path d="M2580.6 2768.08C2162.75 2473.67 1971.56 2169.79 1875.19 1935.29C1794.86 1739.78 1813.04 1671.78 1715.34 1517.05C1503.32 1181.31 1019.24 870.525 708.746 1043.48C555.798 1128.68 568.318 1285.05 443.474 1546.23C331.164 1781.18 111.066 2088.92 -367.232 2367.28" stroke="url(#paint0_linear_1138_1725)" stroke-width="5" stroke-miterlimit="10"/>
<path d="M2593.76 2707.8C2182.39 2442.52 1990.28 2153.77 1890.96 1932.16C1807.4 1745.65 1812.43 1680.08 1706.33 1525.66C1483.76 1201.7 1030.02 906.077 722.827 1063.36C564.595 1144.36 561.098 1294.35 426.093 1552.29C307.233 1779.38 85.6386 2080.62 -385.132 2357.25" stroke="url(#paint1_linear_1138_1725)" stroke-width="5" stroke-miterlimit="10"/>
<path d="M2606.92 2647.53C2202.04 2411.37 2008.82 2137.65 1906.7 1929.03C1819.71 1751.31 1812.03 1688.44 1697.29 1534.26C1464.86 1221.94 1040.11 941.029 736.869 1083.21C573.051 1160.03 554.104 1303.55 408.681 1558.34C283.533 1777.57 60.1834 2072.3 -403.082 2347.17" stroke="url(#paint2_linear_1138_1725)" stroke-width="5" stroke-miterlimit="10"/>
<path d="M2620.08 2587.25C2221.69 2380.21 2027.14 2121.41 1922.46 1925.86C1831.9 1756.78 1811.89 1696.79 1688.22 1542.85C1446.58 1241.97 1049.56 975.341 750.893 1103.08C581.2 1175.64 547.345 1312.68 391.242 1564.38C260.146 1775.78 34.7039 2063.97 -421.003 2337.12" stroke="url(#paint3_linear_1138_1725)" stroke-width="5" stroke-miterlimit="10"/>
<path d="M2633.23 2526.98C2241.29 2349.07 2045.18 2105.11 1938.19 1922.77C1843.89 1762.06 1811.91 1705.1 1679.22 1551.46C1428.98 1261.8 1058.52 1009.01 764.988 1122.96C589.122 1191.22 540.915 1321.82 373.874 1570.45C237.084 1774.05 9.28512 2055.66 -438.869 2327.04" stroke="url(#paint4_linear_1138_1725)" stroke-width="5" stroke-miterlimit="10"/>
<path d="M2646.39 2466.71C2260.97 2317.93 2062.91 2088.72 1953.94 1919.64C1855.66 1767.13 1812.25 1713.36 1670.18 1560.07C1411.88 1281.34 1066.96 1042.02 779.047 1142.82C596.751 1206.65 534.775 1330.98 356.469 1576.51C214.265 1772.38 -16.1605 2047.34 -456.8 2317.03" stroke="url(#paint5_linear_1138_1725)" stroke-width="5" stroke-miterlimit="10"/>
<path d="M2659.55 2406.44C2280.6 2286.83 2080.25 2072.34 1969.69 1916.51C1867.17 1772.03 1812.77 1721.52 1661.15 1568.67C1395.25 1300.62 1074.96 1074.37 793.103 1162.69C604.146 1221.91 528.808 1340.17 339.064 1582.56C191.694 1770.81 -41.6418 2039.01 -474.713 2306.97" stroke="url(#paint6_linear_1138_1725)" stroke-width="5" stroke-miterlimit="10"/>
<path d="M2672.68 2346.16C2300.23 2255.64 2097.14 2055.94 1985.4 1913.38C1878.33 1776.77 1813.43 1729.54 1652.09 1577.26C1379.01 1319.59 1082.56 1106.07 807.127 1182.56C611.289 1236.93 523.129 1349.45 321.625 1588.6C169.38 1769.34 -67.0499 2030.67 -492.635 2296.92" stroke="url(#paint7_linear_1138_1725)" stroke-width="5" stroke-miterlimit="10"/>
<path d="M2685.87 2285.89C2319.91 2224.5 2113.62 2039.64 2001.18 1910.25C1889.18 1781.4 1814.41 1737.39 1643.08 1585.88C1363.16 1338.27 1089.9 1137.15 821.218 1202.43C618.288 1251.71 517.771 1358.9 304.252 1594.67C147.274 1768 -92.5046 2022.38 -510.599 2286.86" stroke="url(#paint8_linear_1138_1725)" stroke-width="5" stroke-miterlimit="10"/>
<path d="M2699.02 2225.65C2339.54 2193.37 2129.56 2023.51 2016.92 1907.15C1899.66 1786.02 1815.49 1745.17 1634.05 1594.5C1347.64 1356.68 1097.01 1167.66 835.27 1222.32C625.135 1266.2 512.618 1368.52 286.841 1600.75C125.365 1766.83 -117.965 2014.09 -528.477 2276.85" stroke="url(#paint9_linear_1138_1725)" stroke-width="5" stroke-miterlimit="10"/>
<path d="M2712.19 2165.34C2359.15 2162.19 2144.99 2007.53 2032.66 1903.99C1909.67 1790.62 1816.73 1752.67 1625.01 1603.08C1332.34 1374.73 1103.94 1197.55 849.331 1242.16C631.839 1280.27 507.714 1378.3 269.437 1606.78C103.648 1765.76 -143.41 2005.74 -546.393 2266.75" stroke="url(#paint10_linear_1138_1725)" stroke-width="5" stroke-miterlimit="10"/>
<path d="M2725.35 2105.07C2378.83 2131.06 2159.9 1991.88 2048.4 1900.86C1919.23 1795.4 1818.08 1759.98 1615.98 1611.68C1317.24 1392.51 1110.72 1226.92 863.388 1262.03C638.446 1293.95 503.019 1388.33 252.033 1612.83C82.0698 1764.86 -168.858 1997.43 -564.308 2256.71" stroke="url(#paint11_linear_1138_1725)" stroke-width="5" stroke-miterlimit="10"/>
<path d="M2738.51 2044.79C2398.48 2099.91 2174.33 1976.61 2064.15 1897.72C1928.31 1800.47 1819.62 1767.09 1606.94 1620.28C1302.3 1410 1117.46 1255.79 877.436 1281.9C645.018 1307.18 498.519 1398.61 234.626 1618.88C60.6182 1764.13 -194.306 1989.1 -582.231 2246.66" stroke="url(#paint12_linear_1138_1725)" stroke-width="5" stroke-miterlimit="10"/>
<path d="M2751.67 1984.52C2418.12 2068.76 2188.33 1961.78 2079.9 1894.6C1936.92 1806.01 1821.24 1773.96 1597.92 1628.89C1287.5 1427.24 1124.18 1284.25 891.512 1301.77C651.532 1319.87 494.216 1409.18 217.238 1624.94C39.2599 1763.57 -219.758 1980.81 -600.139 2236.59" stroke="url(#paint13_linear_1138_1725)" stroke-width="5" stroke-miterlimit="10"/>
<path d="M2764.82 1924.25C2437.76 2037.62 2202.01 1947.47 2095.68 1891.48C1945.15 1812.22 1822.98 1780.62 1588.9 1637.5C1272.76 1444.2 1130.97 1312.21 905.584 1321.64C658.099 1332 490.054 1420.04 199.842 1631.03C18.0109 1763.22 -245.183 1972.5 -618.04 2226.6" stroke="url(#paint14_linear_1138_1725)" stroke-width="5" stroke-miterlimit="10"/>
<path d="M2777.99 1863.97C2457.37 2006.46 2215.46 1933.7 2111.39 1888.34C1952.97 1819.3 1824.74 1787.03 1579.84 1646.1C1258.07 1460.89 1137.79 1339.8 919.611 1341.5C664.693 1343.49 485.989 1431.16 182.411 1637.04C-3.25167 1762.96 -270.657 1964.14 -635.979 2216.51" stroke="url(#paint15_linear_1138_1725)" stroke-width="5" stroke-miterlimit="10"/>
<path d="M2791.1 1803.69C2477.02 1975.32 2234.72 1890.13 2127.09 1885.19C1951.05 1877.14 1826.54 1793.19 1570.75 1654.69C1243.36 1477.38 1144.78 1367.05 933.667 1361.37C671.449 1354.29 482.033 1442.67 165.004 1643.1C-24.443 1762.88 -296.104 1955.82 -653.894 2206.42" stroke="url(#paint16_linear_1138_1725)" stroke-width="5" stroke-miterlimit="10"/>
<path d="M2804.3 1743.43C2496.69 1944.18 2245.77 1882.45 2142.88 1882.08C1962.53 1881.42 1828.48 1799.15 1561.76 1663.3C1228.68 1493.6 1152 1393.97 947.721 1381.24C678.391 1364.4 478.159 1454.47 147.592 1649.17C-45.6428 1762.98 -321.559 1947.53 -671.821 2196.42" stroke="url(#paint17_linear_1138_1725)" stroke-width="5" stroke-miterlimit="10"/>
<path d="M2817.46 1683.16C2516.34 1913.04 2257.75 1876 2158.62 1878.95C1973.59 1884.45 1830.41 1804.87 1552.73 1671.86C1213.98 1509.65 1159.45 1420.66 961.79 1401.06C685.599 1373.68 474.345 1466.55 130.201 1655.18C-66.8217 1763.16 -347.003 1939.16 -689.727 2186.32" stroke="url(#paint18_linear_1138_1725)" stroke-width="5" stroke-miterlimit="10"/>
<path d="M2830.62 1622.89C2535.98 1881.89 2270.72 1883.97 2174.36 1875.82C1984.56 1859.72 1832.35 1810.36 1543.69 1680.48C1199.21 1525.52 1167.17 1447.16 975.834 1420.95C693.123 1382.25 470.535 1479.05 112.768 1661.27C-88.0754 1763.57 -372.472 1930.86 -707.659 2176.31" stroke="url(#paint19_linear_1138_1725)" stroke-width="5" stroke-miterlimit="10"/>
<path d="M2843.77 1562.62C2555.63 1850.75 2285.64 1872.56 2190.11 1872.69C1993.72 1872.95 1834.31 1815.64 1534.66 1689.09C1184.41 1541.21 1175.26 1473.47 989.899 1440.83C701.064 1389.95 466.749 1491.76 95.385 1667.31C-109.323 1764.08 -397.898 1922.53 -725.566 2166.24" stroke="url(#paint20_linear_1138_1725)" stroke-width="5" stroke-miterlimit="10"/>
<path d="M2856.93 1502.34C2575.27 1819.6 2301.34 1861.32 2205.86 1869.56C2003.81 1887.03 1836.27 1820.7 1525.62 1697.71C1169.51 1556.73 1183.71 1499.68 1003.95 1460.71C709.461 1396.9 462.941 1504.82 77.9702 1673.37C-130.63 1764.69 -423.349 1914.23 -743.49 2156.2" stroke="url(#paint21_linear_1138_1725)" stroke-width="5" stroke-miterlimit="10"/>
</g>
<defs>
<linearGradient id="paint0_linear_1138_1725" x1="1074.38" y1="2705.44" x2="1449.61" y2="1105.79" gradientUnits="userSpaceOnUse">
<stop offset="0.401042" stop-color="#67BD3B"/>
<stop offset="1" stop-color="#192314" stop-opacity="0"/>
</linearGradient>
<linearGradient id="paint1_linear_1138_1725" x1="1065.62" y1="2697.55" x2="1433.9" y2="1127.51" gradientUnits="userSpaceOnUse">
<stop offset="0.401042" stop-color="#67BD3B"/>
<stop offset="1" stop-color="#192314" stop-opacity="0"/>
</linearGradient>
<linearGradient id="paint2_linear_1138_1725" x1="1056.83" y1="2689.62" x2="1418.23" y2="1148.94" gradientUnits="userSpaceOnUse">
<stop offset="0.401042" stop-color="#67BD3B"/>
<stop offset="1" stop-color="#192314" stop-opacity="0"/>
</linearGradient>
<linearGradient id="paint3_linear_1138_1725" x1="1048.06" y1="2681.72" x2="1402.65" y2="1170.07" gradientUnits="userSpaceOnUse">
<stop offset="0.401042" stop-color="#67BD3B"/>
<stop offset="1" stop-color="#192314" stop-opacity="0"/>
</linearGradient>
<linearGradient id="paint4_linear_1138_1725" x1="1039.32" y1="2673.78" x2="1387.17" y2="1190.87" gradientUnits="userSpaceOnUse">
<stop offset="0.401042" stop-color="#67BD3B"/>
<stop offset="1" stop-color="#192314" stop-opacity="0"/>
</linearGradient>
<linearGradient id="paint5_linear_1138_1725" x1="1030.54" y1="2665.91" x2="1371.74" y2="1211.32" gradientUnits="userSpaceOnUse">
<stop offset="0.401042" stop-color="#67BD3B"/>
<stop offset="1" stop-color="#192314" stop-opacity="0"/>
</linearGradient>
<linearGradient id="paint6_linear_1138_1725" x1="1021.77" y1="2658" x2="1356.4" y2="1231.43" gradientUnits="userSpaceOnUse">
<stop offset="0.401042" stop-color="#67BD3B"/>
<stop offset="1" stop-color="#192314" stop-opacity="0"/>
</linearGradient>
<linearGradient id="paint7_linear_1138_1725" x1="1012.98" y1="2650.09" x2="1341.12" y2="1251.18" gradientUnits="userSpaceOnUse">
<stop offset="0.401042" stop-color="#67BD3B"/>
<stop offset="1" stop-color="#192314" stop-opacity="0"/>
</linearGradient>
<linearGradient id="paint8_linear_1138_1725" x1="1004.2" y1="2642.19" x2="1325.94" y2="1270.58" gradientUnits="userSpaceOnUse">
<stop offset="0.401042" stop-color="#67BD3B"/>
<stop offset="1" stop-color="#192314" stop-opacity="0"/>
</linearGradient>
<linearGradient id="paint9_linear_1138_1725" x1="995.451" y1="2634.31" x2="1310.86" y2="1289.67" gradientUnits="userSpaceOnUse">
<stop offset="0.401042" stop-color="#67BD3B"/>
<stop offset="1" stop-color="#192314" stop-opacity="0"/>
</linearGradient>
<linearGradient id="paint10_linear_1138_1725" x1="986.684" y1="2626.37" x2="1295.85" y2="1308.37" gradientUnits="userSpaceOnUse">
<stop offset="0.401042" stop-color="#67BD3B"/>
<stop offset="1" stop-color="#192314" stop-opacity="0"/>
</linearGradient>
<linearGradient id="paint11_linear_1138_1725" x1="977.914" y1="2618.47" x2="1280.91" y2="1326.76" gradientUnits="userSpaceOnUse">
<stop offset="0.401042" stop-color="#67BD3B"/>
<stop offset="1" stop-color="#192314" stop-opacity="0"/>
</linearGradient>
<linearGradient id="paint12_linear_1138_1725" x1="969.14" y1="2610.57" x2="1266.04" y2="1344.83" gradientUnits="userSpaceOnUse">
<stop offset="0.401042" stop-color="#67BD3B"/>
<stop offset="1" stop-color="#192314" stop-opacity="0"/>
</linearGradient>
<linearGradient id="paint13_linear_1138_1725" x1="960.378" y1="2602.64" x2="1251.25" y2="1362.6" gradientUnits="userSpaceOnUse">
<stop offset="0.401042" stop-color="#67BD3B"/>
<stop offset="1" stop-color="#192314" stop-opacity="0"/>
</linearGradient>
<linearGradient id="paint14_linear_1138_1725" x1="951.609" y1="2594.79" x2="1236.56" y2="1380.03" gradientUnits="userSpaceOnUse">
<stop offset="0.401042" stop-color="#67BD3B"/>
<stop offset="1" stop-color="#192314" stop-opacity="0"/>
</linearGradient>
<linearGradient id="paint15_linear_1138_1725" x1="942.832" y1="2586.85" x2="1221.9" y2="1397.14" gradientUnits="userSpaceOnUse">
<stop offset="0.401042" stop-color="#67BD3B"/>
<stop offset="1" stop-color="#192314" stop-opacity="0"/>
</linearGradient>
<linearGradient id="paint16_linear_1138_1725" x1="934.046" y1="2578.9" x2="1207.31" y2="1413.93" gradientUnits="userSpaceOnUse">
<stop offset="0.401042" stop-color="#67BD3B"/>
<stop offset="1" stop-color="#192314" stop-opacity="0"/>
</linearGradient>
<linearGradient id="paint17_linear_1138_1725" x1="925.284" y1="2571.06" x2="1207.29" y2="1368.82" gradientUnits="userSpaceOnUse">
<stop offset="0.401042" stop-color="#67BD3B"/>
<stop offset="1" stop-color="#192314" stop-opacity="0"/>
</linearGradient>
<linearGradient id="paint18_linear_1138_1725" x1="916.525" y1="2563.09" x2="1211.31" y2="1306.4" gradientUnits="userSpaceOnUse">
<stop offset="0.401042" stop-color="#67BD3B"/>
<stop offset="1" stop-color="#192314" stop-opacity="0"/>
</linearGradient>
<linearGradient id="paint19_linear_1138_1725" x1="907.742" y1="2555.23" x2="1215.32" y2="1243.99" gradientUnits="userSpaceOnUse">
<stop offset="0.401042" stop-color="#67BD3B"/>
<stop offset="1" stop-color="#192314" stop-opacity="0"/>
</linearGradient>
<linearGradient id="paint20_linear_1138_1725" x1="898.98" y1="2547.3" x2="1219.34" y2="1181.58" gradientUnits="userSpaceOnUse">
<stop offset="0.401042" stop-color="#67BD3B"/>
<stop offset="1" stop-color="#192314" stop-opacity="0"/>
</linearGradient>
<linearGradient id="paint21_linear_1138_1725" x1="890.204" y1="2539.42" x2="1223.35" y2="1119.16" gradientUnits="userSpaceOnUse">
<stop offset="0.401042" stop-color="#67BD3B"/>
<stop offset="1" stop-color="#192314" stop-opacity="0"/>
</linearGradient>
<clipPath id="clip0_1138_1725">
<rect width="2474.13" height="2017.06" fill="white" transform="translate(1119.71 3111.43) rotate(-142.154)"/>
</clipPath>
</defs>
</svg>
