<svg width="1040" height="617" viewBox="0 0 1040 617" fill="none" xmlns="http://www.w3.org/2000/svg">
<g clip-path="url(#clip0_1138_2248)">
<path d="M848.839 726.299C886.917 589.132 740.644 427.951 603.224 370.172C444.854 303.605 336.495 390.455 231.509 304.069C135.686 225.274 177.003 112.62 104.1 60.3427C37.0999 12.3018 -108.741 27.8685 -444.433 272.823" stroke="url(#paint0_linear_1138_2248)" stroke-width="5" stroke-miterlimit="10"/>
<path d="M-441.577 291.385C-110.293 50.1648 36.73 32.0616 106.059 77.6134C157.409 111.45 155.629 174.1 180.971 234.695C193.336 265.591 213.18 292.931 238.72 314.26C322.349 384.198 406.694 346.539 520.842 364.279C549.971 368.722 578.477 376.573 605.772 387.673C744.653 443.62 893.648 592.986 860.427 726.667" stroke="url(#paint1_linear_1138_2248)" stroke-width="5" stroke-miterlimit="10"/>
<path d="M-438.68 309.914C-111.813 72.4491 36.3154 51.8027 107.807 94.8198C160.357 126.445 160.954 187.105 187.307 245.62C200.527 275.97 220.502 302.899 245.709 324.354C327.751 394.16 409.377 362.693 523.339 381.837C552.324 386.647 580.732 394.446 608.11 405.109C748.288 459.657 900.179 596.754 871.815 726.949" stroke="url(#paint2_linear_1138_2248)" stroke-width="5" stroke-miterlimit="10"/>
<path d="M-435.786 328.387C-113.411 94.7261 35.8812 71.5878 109.654 112.042C163.43 141.521 166.334 200.107 193.754 256.592C207.787 286.363 227.869 312.882 252.72 334.457C333.265 404.17 411.981 378.786 525.858 399.405C554.736 404.529 583.088 412.264 610.566 422.517C752.126 475.411 906.805 600.483 883.299 727.193" stroke="url(#paint3_linear_1138_2248)" stroke-width="5" stroke-miterlimit="10"/>
<path d="M-432.94 346.972C-114.953 117 35.3928 91.3758 111.514 129.296C166.438 156.622 171.761 213.183 200.256 267.562C215.114 296.771 235.344 322.916 259.887 344.628C338.934 414.247 414.798 394.997 528.644 417.089C557.335 422.565 585.561 430.242 613.072 440.052C756.037 491.302 913.495 604.372 894.867 727.606" stroke="url(#paint4_linear_1138_2248)" stroke-width="5" stroke-miterlimit="10"/>
<path d="M-430.164 365.474C-116.519 139.265 35.9115 109.029 113.383 146.529C168.709 173.234 177.255 226.102 206.702 278.535C222.388 307.143 242.766 332.914 266.986 354.771C344.536 424.296 417.502 411.161 531.153 434.679C559.702 440.457 587.849 448.069 615.419 457.466C759.827 506.982 920.034 608.117 906.254 727.888" stroke="url(#paint5_linear_1138_2248)" stroke-width="5" stroke-miterlimit="10"/>
<path d="M-427.187 384.063C-118.071 161.561 34.3477 131.109 115.279 163.64C172.316 186.897 182.736 239.175 213.163 289.539C229.653 317.529 250.178 342.934 274.077 364.936C350.13 434.366 420.275 427.353 533.752 452.308C562.15 458.416 590.215 465.977 617.837 474.963C763.649 522.835 926.674 611.878 917.722 728.23" stroke="url(#paint6_linear_1138_2248)" stroke-width="5" stroke-miterlimit="10"/>
<path d="M-424.322 402.603C-119.681 183.807 33.8563 150.843 117.09 181.006C175.269 202.001 188.349 252.066 219.642 300.499C236.924 327.845 257.611 352.883 281.206 375.011C355.729 444.36 423.035 443.513 536.389 469.847C562.753 476.003 590.689 483.055 620.302 492.348C767.571 538.519 933.283 615.707 929.208 728.529" stroke="url(#paint7_linear_1138_2248)" stroke-width="5" stroke-miterlimit="10"/>
<path d="M-421.456 421.143C-121.188 206.122 33.259 170.821 118.957 198.183C178.214 217.127 193.976 264.989 226.176 311.456C244.256 338.149 265.108 362.855 288.384 385.16C361.41 454.415 425.859 459.648 539.065 487.482C565.424 493.954 593.274 501.022 622.829 509.839C771.343 554.243 939.904 619.512 940.695 728.826" stroke="url(#paint8_linear_1138_2248)" stroke-width="5" stroke-miterlimit="10"/>
<path d="M-418.559 439.671C-122.731 228.397 32.6801 190.756 120.797 215.482C181.1 232.388 199.693 278.006 232.569 322.432C251.416 348.449 272.426 372.827 295.375 395.308C366.926 464.479 428.523 475.846 541.626 505.015C567.868 511.755 595.74 518.832 625.228 527.195C775.37 569.867 946.581 623.184 952.22 729.035" stroke="url(#paint9_linear_1138_2248)" stroke-width="5" stroke-miterlimit="10"/>
<path d="M-415.694 458.212C-124.296 250.662 32.0823 210.736 122.6 232.686C183.938 247.575 205.294 290.865 238.985 333.418C258.61 358.723 279.8 382.775 302.431 405.432C372.462 474.499 431.216 491.978 544.141 522.714C570.359 529.815 598.174 536.841 627.562 544.762C779.176 585.634 953.086 627.073 963.626 729.458" stroke="url(#paint10_linear_1138_2248)" stroke-width="5" stroke-miterlimit="10"/>
<path d="M-412.829 476.752C-125.849 272.958 31.5282 230.734 124.513 249.937C186.9 262.841 211.06 303.77 245.476 344.409C265.264 367.761 285.607 391.486 309.575 415.593C378.118 484.544 434.01 508.179 546.793 540.34C572.952 547.76 600.732 554.743 630.087 562.253C783.173 601.324 959.804 630.895 975.169 729.807" stroke="url(#paint11_linear_1138_2248)" stroke-width="5" stroke-miterlimit="10"/>
<path d="M-409.963 495.293C-127.43 295.322 30.8004 250.71 126.351 267.182C189.797 278.079 216.847 316.631 251.947 355.392C272.658 378.269 293.222 401.666 316.676 425.736C383.693 494.66 436.748 524.33 549.403 557.947C575.493 565.708 603.26 572.66 632.48 579.686C787.036 616.903 966.39 634.659 986.602 730.108" stroke="url(#paint12_linear_1138_2248)" stroke-width="5" stroke-miterlimit="10"/>
<path d="M-407.143 513.814C-128.967 317.519 30.3063 270.814 128.188 284.427C192.663 293.384 222.642 329.468 258.406 366.397C280.081 388.764 300.835 411.846 323.676 435.861C389.247 504.635 439.376 540.487 551.991 575.598C578.054 583.665 605.764 590.566 634.897 597.183C790.964 632.51 973.018 638.443 998.078 730.428" stroke="url(#paint13_linear_1138_2248)" stroke-width="5" stroke-miterlimit="10"/>
<path d="M-404.2 532.362C-130.509 339.794 29.6383 290.896 130.058 301.66C195.594 308.664 228.489 342.25 264.864 377.348C287.512 399.184 308.482 422.014 330.876 446.021C394.905 514.681 442.236 556.664 554.61 593.182C581.822 601.715 609.453 608.849 637.395 614.556C794.88 648.086 979.696 642.301 1009.57 730.727" stroke="url(#paint14_linear_1138_2248)" stroke-width="5" stroke-miterlimit="10"/>
<path d="M-401.335 550.903C-132.062 362.091 29.1765 310.988 131.838 318.853C198.425 323.927 234.278 354.979 271.355 388.34C294.987 409.622 316.128 432.182 337.976 456.163C400.53 524.739 444.985 572.847 557.173 610.77C584.216 619.63 611.801 626.741 639.758 632.056C798.854 663.527 986.258 646.055 1021.1 730.968" stroke="url(#paint15_linear_1138_2248)" stroke-width="5" stroke-miterlimit="10"/>
<path d="M-398.471 569.443C-133.627 384.355 28.647 331.236 133.774 336.114C201.349 339.283 240.221 367.722 277.812 399.29C302.437 419.996 323.719 442.352 345.053 466.296C406.088 534.768 447.723 588.997 559.826 628.395C586.71 637.554 614.263 644.619 642.239 649.528C802.737 679.115 992.877 649.861 1032.54 731.377" stroke="url(#paint16_linear_1138_2248)" stroke-width="5" stroke-miterlimit="10"/>
<path d="M-395.582 587.993C-135.218 406.741 27.9693 351.339 135.612 353.359C204.305 354.627 246.117 380.391 284.26 410.263C309.987 430.386 331.344 452.51 352.154 476.438C411.71 544.772 450.451 605.17 562.425 646.024C589.155 655.466 616.679 662.487 644.666 667.002C806.661 694.613 999.507 653.644 1044.02 731.697" stroke="url(#paint17_linear_1138_2248)" stroke-width="5" stroke-miterlimit="10"/>
<path d="M-392.717 606.533C-136.833 428.877 27.405 371.545 137.442 370.68C207.19 370.073 251.961 393.117 290.671 421.379C317.315 440.92 338.944 462.843 359.196 486.714C417.235 554.999 453.143 621.486 564.994 663.72C591.568 673.445 619.068 680.422 647.064 684.543C810.563 710.157 1006.18 657.633 1055.45 732.107" stroke="url(#paint18_linear_1138_2248)" stroke-width="5" stroke-miterlimit="10"/>
<path d="M-389.852 625.075C-138.297 451.213 26.8626 391.762 139.318 387.837C210.174 385.35 257.901 405.621 297.199 432.228C324.913 451.014 346.593 472.88 366.334 496.768C422.854 564.949 455.918 637.548 567.621 681.282C594.034 691.301 621.515 698.237 649.519 701.952C814.531 725.49 1012.75 661.235 1066.97 732.339" stroke="url(#paint19_linear_1138_2248)" stroke-width="5" stroke-miterlimit="10"/>
<path d="M-386.955 643.603C-139.84 473.488 26.2724 412.09 141.098 405.03C213.021 400.7 263.702 418.143 303.557 443.163C332.332 461.216 354.128 483 373.352 506.796C428.387 574.914 458.598 653.648 570.16 698.805C596.425 709.098 623.896 715.995 651.908 719.331C818.398 740.567 1019.29 665.002 1078.41 732.618" stroke="url(#paint20_linear_1138_2248)" stroke-width="5" stroke-miterlimit="10"/>
<path d="M-384.113 662.133C9.74537 392.093 204.755 392.994 310.115 454.183C425.132 520.976 422.471 653.539 572.847 716.472C749.26 790.274 1015.16 657.956 1089.93 732.957" stroke="url(#paint21_linear_1138_2248)" stroke-width="5" stroke-miterlimit="10"/>
</g>
<defs>
<linearGradient id="paint0_linear_1138_2248" x1="348.158" y1="163.871" x2="182.336" y2="545.303" gradientUnits="userSpaceOnUse">
<stop stop-color="#9945FF"/>
<stop offset="0.572917" stop-color="#9945FF" stop-opacity="0"/>
</linearGradient>
<linearGradient id="paint1_linear_1138_2248" x1="351.384" y1="182.528" x2="185.537" y2="564.015" gradientUnits="userSpaceOnUse">
<stop stop-color="#9945FF"/>
<stop offset="0.572917" stop-color="#9945FF" stop-opacity="0"/>
</linearGradient>
<linearGradient id="paint2_linear_1138_2248" x1="354.568" y1="201.036" x2="188.668" y2="582.645" gradientUnits="userSpaceOnUse">
<stop stop-color="#9945FF"/>
<stop offset="0.572917" stop-color="#9945FF" stop-opacity="0"/>
</linearGradient>
<linearGradient id="paint3_linear_1138_2248" x1="357.839" y1="219.406" x2="191.842" y2="601.24" gradientUnits="userSpaceOnUse">
<stop stop-color="#9945FF"/>
<stop offset="0.572917" stop-color="#9945FF" stop-opacity="0"/>
</linearGradient>
<linearGradient id="paint4_linear_1138_2248" x1="361.232" y1="237.678" x2="195.033" y2="619.975" gradientUnits="userSpaceOnUse">
<stop stop-color="#9945FF"/>
<stop offset="0.572917" stop-color="#9945FF" stop-opacity="0"/>
</linearGradient>
<linearGradient id="paint5_linear_1138_2248" x1="364.591" y1="255.631" x2="198.098" y2="638.603" gradientUnits="userSpaceOnUse">
<stop stop-color="#9945FF"/>
<stop offset="0.572917" stop-color="#9945FF" stop-opacity="0"/>
</linearGradient>
<linearGradient id="paint6_linear_1138_2248" x1="368.145" y1="273.534" x2="201.31" y2="657.294" gradientUnits="userSpaceOnUse">
<stop stop-color="#9945FF"/>
<stop offset="0.572917" stop-color="#9945FF" stop-opacity="0"/>
</linearGradient>
<linearGradient id="paint7_linear_1138_2248" x1="371.654" y1="291.385" x2="204.465" y2="675.961" gradientUnits="userSpaceOnUse">
<stop stop-color="#9945FF"/>
<stop offset="0.572917" stop-color="#9945FF" stop-opacity="0"/>
</linearGradient>
<linearGradient id="paint8_linear_1138_2248" x1="375.318" y1="308.882" x2="207.621" y2="694.627" gradientUnits="userSpaceOnUse">
<stop stop-color="#9945FF"/>
<stop offset="0.572917" stop-color="#9945FF" stop-opacity="0"/>
</linearGradient>
<linearGradient id="paint9_linear_1138_2248" x1="379.03" y1="326.3" x2="210.797" y2="713.276" gradientUnits="userSpaceOnUse">
<stop stop-color="#9945FF"/>
<stop offset="0.572917" stop-color="#9945FF" stop-opacity="0"/>
</linearGradient>
<linearGradient id="paint10_linear_1138_2248" x1="382.842" y1="343.426" x2="213.941" y2="731.938" gradientUnits="userSpaceOnUse">
<stop stop-color="#9945FF"/>
<stop offset="0.572917" stop-color="#9945FF" stop-opacity="0"/>
</linearGradient>
<linearGradient id="paint11_linear_1138_2248" x1="386.8" y1="360.335" x2="217.129" y2="750.619" gradientUnits="userSpaceOnUse">
<stop stop-color="#9945FF"/>
<stop offset="0.572917" stop-color="#9945FF" stop-opacity="0"/>
</linearGradient>
<linearGradient id="paint12_linear_1138_2248" x1="390.819" y1="376.958" x2="220.263" y2="769.276" gradientUnits="userSpaceOnUse">
<stop stop-color="#9945FF"/>
<stop offset="0.572917" stop-color="#9945FF" stop-opacity="0"/>
</linearGradient>
<linearGradient id="paint13_linear_1138_2248" x1="394.958" y1="393.298" x2="223.395" y2="787.933" gradientUnits="userSpaceOnUse">
<stop stop-color="#9945FF"/>
<stop offset="0.572917" stop-color="#9945FF" stop-opacity="0"/>
</linearGradient>
<linearGradient id="paint14_linear_1138_2248" x1="399.323" y1="409.276" x2="226.595" y2="806.592" gradientUnits="userSpaceOnUse">
<stop stop-color="#9945FF"/>
<stop offset="0.572917" stop-color="#9945FF" stop-opacity="0"/>
</linearGradient>
<linearGradient id="paint15_linear_1138_2248" x1="403.834" y1="424.854" x2="229.761" y2="825.264" gradientUnits="userSpaceOnUse">
<stop stop-color="#9945FF"/>
<stop offset="0.572917" stop-color="#9945FF" stop-opacity="0"/>
</linearGradient>
<linearGradient id="paint16_linear_1138_2248" x1="408.527" y1="439.982" x2="232.916" y2="843.93" gradientUnits="userSpaceOnUse">
<stop stop-color="#9945FF"/>
<stop offset="0.572917" stop-color="#9945FF" stop-opacity="0"/>
</linearGradient>
<linearGradient id="paint17_linear_1138_2248" x1="418.009" y1="444.129" x2="236.083" y2="862.601" gradientUnits="userSpaceOnUse">
<stop stop-color="#9945FF"/>
<stop offset="0.572917" stop-color="#9945FF" stop-opacity="0"/>
</linearGradient>
<linearGradient id="paint18_linear_1138_2248" x1="427.901" y1="447.3" x2="239.239" y2="881.268" gradientUnits="userSpaceOnUse">
<stop stop-color="#9945FF"/>
<stop offset="0.572917" stop-color="#9945FF" stop-opacity="0"/>
</linearGradient>
<linearGradient id="paint19_linear_1138_2248" x1="438.095" y1="449.777" x2="242.395" y2="899.936" gradientUnits="userSpaceOnUse">
<stop stop-color="#9945FF"/>
<stop offset="0.572917" stop-color="#9945FF" stop-opacity="0"/>
</linearGradient>
<linearGradient id="paint20_linear_1138_2248" x1="448.422" y1="451.919" x2="245.549" y2="918.576" gradientUnits="userSpaceOnUse">
<stop stop-color="#9945FF"/>
<stop offset="0.572917" stop-color="#9945FF" stop-opacity="0"/>
</linearGradient>
<linearGradient id="paint21_linear_1138_2248" x1="458.916" y1="453.734" x2="248.715" y2="937.247" gradientUnits="userSpaceOnUse">
<stop stop-color="#9945FF"/>
<stop offset="0.572917" stop-color="#9945FF" stop-opacity="0"/>
</linearGradient>
<clipPath id="clip0_1138_2248">
<rect width="1476" height="617" fill="white" transform="translate(-436)"/>
</clipPath>
</defs>
</svg>
