<svg width="1329" height="871" viewBox="0 0 1329 871" fill="none" xmlns="http://www.w3.org/2000/svg">
<g clip-path="url(#clip0_1409_3111)">
<path d="M1286.55 1413.39C1039.11 1138.81 1000.76 930.287 1013.31 788.838C1027.32 630.975 1111.01 485.925 1068.96 457.925C1042.04 439.994 982.827 482.914 864.872 581.764C507.18 881.51 461.838 981.071 364.196 972.388C227.401 960.25 221.896 756.414 32.8931 684.776C-105.926 632.167 -256.165 684.026 -365.766 739.751" stroke="url(#paint0_linear_1409_3111)" stroke-width="5" stroke-miterlimit="10"/>
<path d="M1300.03 1401.2C1059.96 1133.36 1013.71 927.059 1020.06 792.316C1027.15 641.738 1107.42 504.547 1064.79 479.393C1037.38 463.217 979.242 505.428 865.315 600.884C519.109 890.917 471.751 991.134 375.3 981.42C238.549 967.129 241.362 752.055 52.8923 673.341C48.7831 671.625 44.716 669.99 40.6001 668.464C-95.346 618.156 -247.192 669.422 -358.187 723.973" stroke="url(#paint1_linear_1409_3111)" stroke-width="5" stroke-miterlimit="10"/>
<path d="M1313.48 1389.01C1080.8 1127.92 1026.62 924.155 1026.78 795.796C1026.95 652.723 1103.8 523.174 1060.59 500.862C1032.69 486.444 975.616 527.947 865.737 620.012C531.066 900.33 481.594 1001.55 386.37 990.439C249.594 974.485 260.795 747.576 72.8596 661.889C68.7368 660.008 64.6279 658.132 60.4322 656.472C-76.5353 602.282 -235.058 653.183 -350.63 708.181" stroke="url(#paint2_linear_1409_3111)" stroke-width="5" stroke-miterlimit="10"/>
<path d="M1326.95 1376.82C1101.63 1122.42 1039.56 921.65 1033.51 799.282C1026.82 663.972 1100.16 541.812 1056.41 522.343C1027.99 509.69 972.036 550.48 866.174 639.141C542.997 909.777 491.469 1011.76 397.453 999.463C260.692 981.574 280.249 743.015 92.8392 650.443C88.6799 648.387 84.5197 646.346 80.3013 644.491C-56.7955 584.223 -222.888 636.955 -343.035 692.395" stroke="url(#paint3_linear_1409_3111)" stroke-width="5" stroke-miterlimit="10"/>
<path d="M1340.42 1364.63C1122.46 1116.98 1052.55 919.584 1040.24 802.77C1026.82 675.504 1096.49 560.462 1052.22 543.821C1023.28 532.937 968.433 573.01 866.6 658.273C554.932 919.205 501.341 1021.96 408.534 1008.48C271.758 988.627 299.711 738.369 112.821 638.979C108.622 636.757 104.418 634.534 100.13 632.479C-37.5555 567.304 -210.75 620.705 -335.495 676.6" stroke="url(#paint4_linear_1409_3111)" stroke-width="5" stroke-miterlimit="10"/>
<path d="M1353.88 1352.44C1143.28 1111.54 1065.66 918.006 1046.96 806.258C1027.05 687.343 1092.82 579.125 1048.03 565.292C1018.54 556.19 964.827 595.534 867.022 677.403C566.853 928.629 511.201 1032.13 419.603 1017.51C282.83 995.662 319.188 733.646 132.781 627.543C128.546 625.132 124.314 622.711 119.956 620.5C-18.328 550.456 -198.637 604.473 -327.947 660.826" stroke="url(#paint5_linear_1409_3111)" stroke-width="5" stroke-miterlimit="10"/>
<path d="M1367.35 1340.25C1164.12 1106.08 1078.97 916.945 1053.69 809.749C1027.69 699.461 1089.11 597.801 1043.85 586.775C1013.81 579.456 961.227 618.082 867.464 696.536C578.798 938.058 521.076 1042.3 430.692 1026.53C293.901 1002.67 338.706 728.863 152.764 616.102C148.476 613.504 144.223 610.898 139.814 608.523C0.929055 533.641 -186.482 588.258 -320.365 645.048" stroke="url(#paint6_linear_1409_3111)" stroke-width="5" stroke-miterlimit="10"/>
<path d="M1380.81 1328.07C1184.95 1100.63 1111.58 908.425 1060.42 813.236C1048.66 707.689 1085.4 616.5 1039.66 608.249C1009.07 602.733 957.631 640.593 867.881 715.691C590.723 947.51 530.94 1052.46 441.761 1035.58C304.968 1009.69 358.234 724.037 172.734 604.682C168.42 601.908 164.111 599.109 159.64 596.554C20.1295 516.873 -174.373 572.025 -312.826 629.281" stroke="url(#paint7_linear_1409_3111)" stroke-width="5" stroke-miterlimit="10"/>
<path d="M1394.28 1315.88C1205.78 1095.17 1127.41 905.296 1067.15 816.723C1051.7 718.649 1081.68 635.224 1035.47 629.728C1004.31 626.021 954.038 663.111 868.322 734.802C602.69 956.926 540.82 1062.56 452.844 1044.58C316.053 1016.62 377.811 719.108 192.718 593.214C188.372 590.256 184.025 587.272 179.491 584.543C39.3409 500.093 -162.204 555.778 -305.253 613.474" stroke="url(#paint8_linear_1409_3111)" stroke-width="5" stroke-miterlimit="10"/>
<path d="M1407.74 1303.7C1226.62 1089.72 1143.24 902.177 1073.88 820.212C1054.76 729.606 1077.95 653.965 1031.28 651.202C999.556 649.32 950.435 685.641 868.755 753.931C614.596 966.36 550.694 1072.66 463.926 1053.6C327.131 1023.55 397.413 714.153 212.696 581.76C208.315 578.623 203.925 575.456 199.334 572.549C58.5353 483.355 -150.06 539.538 -297.688 597.685" stroke="url(#paint9_linear_1409_3111)" stroke-width="5" stroke-miterlimit="10"/>
<path d="M1421.21 1291.51C1247.44 1084.26 1159.07 899.054 1080.61 823.705C1057.8 740.573 1074.21 672.737 1027.1 672.684C994.799 672.645 946.831 708.177 869.188 773.05C626.543 975.763 560.574 1082.74 475.009 1062.62C338.222 1030.45 417.049 709.147 232.675 570.308C228.259 566.981 223.826 563.642 219.184 560.555C77.7126 466.637 -137.915 523.299 -290.12 581.894" stroke="url(#paint10_linear_1409_3111)" stroke-width="5" stroke-miterlimit="10"/>
<path d="M1434.68 1279.32C1268.29 1078.82 1174.89 895.925 1087.33 827.209C1060.84 751.549 1070.47 691.537 1022.91 694.183C990.037 696.004 943.228 730.722 869.612 792.218C638.47 985.226 570.449 1092.83 486.072 1071.67C349.292 1037.36 436.693 704.155 252.637 558.896C248.183 555.383 243.729 551.87 239.005 548.617C96.853 449.995 -125.791 507.11 -282.576 566.156" stroke="url(#paint11_linear_1409_3111)" stroke-width="5" stroke-miterlimit="10"/>
<path d="M1448.14 1267.13C1289.12 1073.36 1190.74 892.808 1094.06 830.679C1063.89 762.493 1066.76 710.332 1018.73 715.636C985.287 719.331 939.632 753.233 870.046 811.331C650.389 994.628 580.336 1102.86 497.163 1080.68C360.404 1044.2 456.409 699.063 272.619 547.433C268.138 543.734 263.618 540.04 258.845 536.591C115.986 433.302 -113.644 490.823 -275.015 550.339" stroke="url(#paint12_linear_1409_3111)" stroke-width="5" stroke-miterlimit="10"/>
<path d="M1461.59 1254.94C1309.95 1067.91 1206.57 889.689 1100.79 834.175C1066.94 773.463 1063.04 729.157 1014.54 737.114C980.533 742.693 936.03 775.757 870.473 830.457C662.336 1004.06 590.22 1112.91 508.24 1089.7C371.503 1051.02 476.148 693.95 292.596 535.99C288.08 532.101 283.515 528.228 278.699 524.607C135.133 416.641 -101.496 474.611 -267.467 534.549" stroke="url(#paint13_linear_1409_3111)" stroke-width="5" stroke-miterlimit="10"/>
<path d="M1475.07 1242.76C1330.79 1062.46 1222.39 886.564 1107.52 837.658C1069.99 784.418 1059.33 747.992 1010.34 758.601C975.789 766.076 932.426 798.291 870.92 849.607C674.286 1013.51 600.137 1122.93 519.335 1098.74C382.635 1057.83 495.915 688.879 312.588 524.558C308.039 520.485 303.426 516.439 298.56 512.638C154.257 400.014 -89.3404 458.398 -259.866 518.792" stroke="url(#paint14_linear_1409_3111)" stroke-width="5" stroke-miterlimit="10"/>
<path d="M1488.54 1230.58C1351.62 1057 1238.23 883.442 1114.25 841.147C1073.03 795.378 1055.64 766.843 1006.16 780.066C971.059 789.447 928.832 820.813 871.332 868.722C686.208 1022.92 610.027 1132.91 530.394 1107.75C393.744 1064.57 515.698 683.714 332.538 513.121C327.958 508.859 323.297 504.639 318.352 500.652C173.338 383.37 -77.2131 442.146 -252.311 502.974" stroke="url(#paint15_linear_1409_3111)" stroke-width="5" stroke-miterlimit="10"/>
<path d="M1502.01 1218.39C1372.45 1051.55 1254.06 880.332 1120.98 844.629C1076.12 806.33 1051.96 785.703 1001.98 801.538C966.341 812.833 925.235 843.332 871.775 887.831C698.153 1032.32 619.946 1142.87 541.485 1116.75C404.897 1071.28 535.534 678.535 352.53 501.628C347.922 497.173 343.212 492.784 338.234 488.623C192.422 366.744 -65.086 425.902 -244.755 487.201" stroke="url(#paint16_linear_1409_3111)" stroke-width="5" stroke-miterlimit="10"/>
<path d="M1515.49 1206.18C1393.3 1046.08 1269.91 877.172 1127.73 848.099C1079.15 817.272 1048.3 804.545 997.812 822.991C961.65 836.18 921.65 865.834 872.217 906.957C710.099 1041.74 629.871 1152.84 552.571 1125.77C416.046 1077.99 555.383 673.378 372.496 490.203C367.863 485.557 363.099 480.997 358.071 476.656C211.485 350.13 -52.9325 409.673 -237.201 471.432" stroke="url(#paint17_linear_1409_3111)" stroke-width="5" stroke-miterlimit="10"/>
<path d="M1528.96 1194C1414.13 1040.66 1264.34 932.411 1134.45 851.598C1085.85 821.357 1044.64 823.431 993.618 844.48C956.934 859.593 918.041 888.375 872.638 926.1C722.024 1051.19 639.791 1162.81 563.642 1134.81C427.222 1084.66 575.269 668.187 392.48 478.737C387.818 473.909 382.993 469.17 377.919 464.651C230.546 333.51 -40.7721 393.43 -229.632 455.616" stroke="url(#paint18_linear_1409_3111)" stroke-width="5" stroke-miterlimit="10"/>
<path d="M1542.43 1181.82C1434.97 1035.17 1299.55 885.131 1141.19 855.071C1084.06 844.231 1041 842.293 989.437 865.944C952.241 882.985 914.453 910.888 873.076 945.22C733.96 1060.61 649.737 1172.74 574.728 1143.82C438.422 1091.29 595.185 662.983 412.464 467.278C407.769 462.255 402.889 457.361 397.764 452.65C249.323 317.197 -28.643 377.181 -222.082 439.82" stroke="url(#paint19_linear_1409_3111)" stroke-width="5" stroke-miterlimit="10"/>
<path d="M1555.9 1169.63C1455.82 1029.72 1316.86 875.046 1147.92 858.558C1087.99 852.713 1037.37 861.172 985.253 887.417C947.554 906.388 910.852 933.417 873.512 964.349C745.897 1070.04 659.554 1182.98 585.808 1152.85C449.872 1097.31 615.411 657.523 432.44 455.83C427.729 450.609 422.786 445.553 417.61 440.66C268.477 300.449 -16.4995 360.937 -214.503 424.028" stroke="url(#paint20_linear_1409_3111)" stroke-width="5" stroke-miterlimit="10"/>
<path d="M1569.37 1157.45C1476.65 1024.27 1333.24 864.692 1154.65 862.051C885.422 858.083 719.297 1213.54 596.885 1161.87C457.34 1102.98 644.339 628.847 437.452 428.668C287.633 283.707 -4.37657 344.69 -206.944 408.246" stroke="url(#paint21_linear_1409_3111)" stroke-width="5" stroke-miterlimit="10"/>
</g>
<defs>
<linearGradient id="paint0_linear_1409_3111" x1="1286.55" y1="1413.39" x2="-70.873" y2="1.98957" gradientUnits="userSpaceOnUse">
<stop offset="0.296875" stop-color="#931403"/>
<stop offset="0.96875" stop-color="#200F0D"/>
</linearGradient>
<linearGradient id="paint1_linear_1409_3111" x1="1300.03" y1="1401.2" x2="-21.9813" y2="-29.1915" gradientUnits="userSpaceOnUse">
<stop offset="0.296875" stop-color="#931403"/>
<stop offset="0.96875" stop-color="#200F0D"/>
</linearGradient>
<linearGradient id="paint2_linear_1409_3111" x1="1313.48" y1="1389.01" x2="31.0839" y2="-59.7627" gradientUnits="userSpaceOnUse">
<stop offset="0.296875" stop-color="#931403"/>
<stop offset="0.96875" stop-color="#200F0D"/>
</linearGradient>
<linearGradient id="paint3_linear_1409_3111" x1="1326.91" y1="1376.92" x2="88.6364" y2="-89.1641" gradientUnits="userSpaceOnUse">
<stop offset="0.296875" stop-color="#931403"/>
<stop offset="0.96875" stop-color="#200F0D"/>
</linearGradient>
<linearGradient id="paint4_linear_1409_3111" x1="1332.91" y1="1383.34" x2="116.524" y2="-93.7397" gradientUnits="userSpaceOnUse">
<stop offset="0.296875" stop-color="#931403"/>
<stop offset="0.96875" stop-color="#200F0D"/>
</linearGradient>
<linearGradient id="paint5_linear_1409_3111" x1="1338.88" y1="1389.83" x2="145.554" y2="-97.7533" gradientUnits="userSpaceOnUse">
<stop offset="0.296875" stop-color="#931403"/>
<stop offset="0.96875" stop-color="#200F0D"/>
</linearGradient>
<linearGradient id="paint6_linear_1409_3111" x1="1344.83" y1="1396.35" x2="175.78" y2="-101.137" gradientUnits="userSpaceOnUse">
<stop offset="0.296875" stop-color="#931403"/>
<stop offset="0.96875" stop-color="#200F0D"/>
</linearGradient>
<linearGradient id="paint7_linear_1409_3111" x1="1350.75" y1="1402.95" x2="207.058" y2="-103.835" gradientUnits="userSpaceOnUse">
<stop offset="0.296875" stop-color="#931403"/>
<stop offset="0.96875" stop-color="#200F0D"/>
</linearGradient>
<linearGradient id="paint8_linear_1409_3111" x1="1356.68" y1="1409.55" x2="239.627" y2="-105.822" gradientUnits="userSpaceOnUse">
<stop offset="0.296875" stop-color="#931403"/>
<stop offset="0.96875" stop-color="#200F0D"/>
</linearGradient>
<linearGradient id="paint9_linear_1409_3111" x1="1362.58" y1="1416.19" x2="273.268" y2="-106.952" gradientUnits="userSpaceOnUse">
<stop offset="0.296875" stop-color="#931403"/>
<stop offset="0.96875" stop-color="#200F0D"/>
</linearGradient>
<linearGradient id="paint10_linear_1409_3111" x1="1368.48" y1="1422.86" x2="307.937" y2="-107.16" gradientUnits="userSpaceOnUse">
<stop offset="0.296875" stop-color="#931403"/>
<stop offset="0.96875" stop-color="#200F0D"/>
</linearGradient>
<linearGradient id="paint11_linear_1409_3111" x1="1374.34" y1="1429.61" x2="343.42" y2="-106.341" gradientUnits="userSpaceOnUse">
<stop offset="0.296875" stop-color="#931403"/>
<stop offset="0.96875" stop-color="#200F0D"/>
</linearGradient>
<linearGradient id="paint12_linear_1409_3111" x1="1380.22" y1="1436.33" x2="379.557" y2="-104.534" gradientUnits="userSpaceOnUse">
<stop offset="0.296875" stop-color="#931403"/>
<stop offset="0.96875" stop-color="#200F0D"/>
</linearGradient>
<linearGradient id="paint13_linear_1409_3111" x1="1386.06" y1="1443.09" x2="415.893" y2="-101.635" gradientUnits="userSpaceOnUse">
<stop offset="0.296875" stop-color="#931403"/>
<stop offset="0.96875" stop-color="#200F0D"/>
</linearGradient>
<linearGradient id="paint14_linear_1409_3111" x1="1391.92" y1="1449.88" x2="451.804" y2="-97.6798" gradientUnits="userSpaceOnUse">
<stop offset="0.296875" stop-color="#931403"/>
<stop offset="0.96875" stop-color="#200F0D"/>
</linearGradient>
<linearGradient id="paint15_linear_1409_3111" x1="1397.77" y1="1456.68" x2="486.22" y2="-92.947" gradientUnits="userSpaceOnUse">
<stop offset="0.296875" stop-color="#931403"/>
<stop offset="0.96875" stop-color="#200F0D"/>
</linearGradient>
<linearGradient id="paint16_linear_1409_3111" x1="1403.62" y1="1463.48" x2="443.467" y2="-96.5302" gradientUnits="userSpaceOnUse">
<stop offset="0.296875" stop-color="#931403"/>
<stop offset="0.96875" stop-color="#200F0D"/>
</linearGradient>
<linearGradient id="paint17_linear_1409_3111" x1="1409.45" y1="1470.33" x2="400.649" y2="-98.2643" gradientUnits="userSpaceOnUse">
<stop offset="0.296875" stop-color="#931403"/>
<stop offset="0.96875" stop-color="#200F0D"/>
</linearGradient>
<linearGradient id="paint18_linear_1409_3111" x1="1415.26" y1="1477.21" x2="359.924" y2="-98.1703" gradientUnits="userSpaceOnUse">
<stop offset="0.296875" stop-color="#931403"/>
<stop offset="0.96875" stop-color="#200F0D"/>
</linearGradient>
<linearGradient id="paint19_linear_1409_3111" x1="1421.09" y1="1484.08" x2="321.633" y2="-96.5743" gradientUnits="userSpaceOnUse">
<stop offset="0.296875" stop-color="#931403"/>
<stop offset="0.96875" stop-color="#200F0D"/>
</linearGradient>
<linearGradient id="paint20_linear_1409_3111" x1="1426.89" y1="1490.98" x2="284.967" y2="-93.614" gradientUnits="userSpaceOnUse">
<stop offset="0.296875" stop-color="#931403"/>
<stop offset="0.96875" stop-color="#200F0D"/>
</linearGradient>
<linearGradient id="paint21_linear_1409_3111" x1="1432.7" y1="1497.9" x2="250.226" y2="-89.552" gradientUnits="userSpaceOnUse">
<stop offset="0.296875" stop-color="#931403"/>
<stop offset="0.96875" stop-color="#200F0D"/>
</linearGradient>
<clipPath id="clip0_1409_3111">
<rect width="1531" height="871" fill="white" transform="matrix(-1 0 0 1 1329 0)"/>
</clipPath>
</defs>
</svg>
