<svg width="1190" height="871" viewBox="0 0 1190 871" fill="none" xmlns="http://www.w3.org/2000/svg">
<g clip-path="url(#clip0_1138_1750)">
<path d="M300.085 1413.39C547.527 1138.81 585.873 930.287 573.324 788.838C559.315 630.975 475.63 485.925 517.676 457.925C544.597 439.994 603.811 482.914 721.766 581.764C1079.46 881.51 1124.8 981.071 1222.44 972.388C1359.24 960.25 1364.74 756.414 1553.74 684.776C1692.56 632.167 1842.8 684.026 1952.4 739.751" stroke="url(#paint0_linear_1138_1750)" stroke-width="5" stroke-miterlimit="10"/>
<path d="M286.608 1401.2C526.681 1133.36 572.931 927.059 566.581 792.316C559.484 641.738 479.215 504.547 521.848 479.393C549.256 463.217 607.396 505.428 721.323 600.884C1067.53 890.917 1114.89 991.134 1211.34 981.42C1348.09 967.129 1345.28 752.055 1533.75 673.341C1537.85 671.625 1541.92 669.99 1546.04 668.464C1681.98 618.156 1833.83 669.422 1944.82 723.973" stroke="url(#paint1_linear_1138_1750)" stroke-width="5" stroke-miterlimit="10"/>
<path d="M273.156 1389.01C505.843 1127.92 560.019 924.155 559.863 795.796C559.685 652.723 482.841 523.174 526.045 500.862C553.95 486.444 611.022 527.947 720.901 620.012C1055.57 900.33 1105.04 1001.55 1200.27 990.439C1337.04 974.485 1325.84 747.576 1513.78 661.889C1517.9 660.008 1522.01 658.132 1526.21 656.472C1663.17 602.282 1821.7 653.183 1937.27 708.181" stroke="url(#paint2_linear_1138_1750)" stroke-width="5" stroke-miterlimit="10"/>
<path d="M259.687 1376.82C485.012 1122.42 547.082 921.65 553.132 799.282C559.818 663.972 486.479 541.812 530.226 522.343C558.648 509.69 614.602 550.48 720.465 639.141C1043.64 909.777 1095.17 1011.76 1189.19 999.463C1325.95 981.574 1306.39 743.015 1493.8 650.443C1497.96 648.387 1502.12 646.346 1506.34 644.491C1643.43 584.223 1809.53 636.955 1929.67 692.395" stroke="url(#paint3_linear_1138_1750)" stroke-width="5" stroke-miterlimit="10"/>
<path d="M246.221 1364.63C464.183 1116.98 534.085 919.584 546.399 802.77C559.817 675.504 490.145 560.462 534.415 543.821C563.361 532.937 618.205 573.01 720.038 658.273C1031.71 919.205 1085.3 1021.96 1178.1 1008.48C1314.88 988.627 1286.93 738.369 1473.82 638.979C1478.02 636.757 1482.22 634.534 1486.51 632.479C1624.19 567.304 1797.39 620.705 1922.13 676.6" stroke="url(#paint4_linear_1138_1750)" stroke-width="5" stroke-miterlimit="10"/>
<path d="M232.754 1352.44C443.356 1111.54 520.973 918.006 539.682 806.258C559.587 687.343 493.817 579.125 538.612 565.292C568.096 556.19 621.811 595.534 719.616 677.403C1019.79 928.629 1075.44 1032.13 1167.04 1017.51C1303.81 995.662 1267.45 733.646 1453.86 627.543C1458.09 625.132 1462.32 622.711 1466.68 620.5C1604.97 550.456 1785.27 604.473 1914.58 660.826" stroke="url(#paint5_linear_1138_1750)" stroke-width="5" stroke-miterlimit="10"/>
<path d="M219.292 1340.25C422.52 1106.08 507.664 916.945 532.945 809.749C558.952 699.461 497.526 597.801 542.791 586.775C572.827 579.456 625.411 618.082 719.174 696.536C1007.84 938.058 1065.56 1042.3 1155.95 1026.53C1292.74 1002.67 1247.93 728.863 1433.87 616.102C1438.16 613.504 1442.41 610.898 1446.82 608.523C1585.71 533.641 1773.12 588.258 1907 645.048" stroke="url(#paint6_linear_1138_1750)" stroke-width="5" stroke-miterlimit="10"/>
<path d="M205.826 1328.07C401.685 1100.63 475.053 908.425 526.217 813.236C537.979 707.689 501.239 616.5 546.979 608.249C577.572 602.733 629.007 640.593 718.757 715.691C995.915 947.51 1055.7 1052.46 1144.88 1035.58C1281.67 1009.69 1228.4 724.037 1413.9 604.682C1418.22 601.908 1422.53 599.109 1427 596.554C1566.51 516.873 1761.01 572.025 1899.46 629.281" stroke="url(#paint7_linear_1138_1750)" stroke-width="5" stroke-miterlimit="10"/>
<path d="M192.36 1315.88C380.855 1095.17 459.224 905.296 519.489 816.723C534.933 718.649 504.961 635.224 551.167 629.728C582.327 626.021 632.6 663.111 718.316 734.802C983.948 956.926 1045.82 1062.56 1133.79 1044.58C1270.58 1016.62 1208.83 719.108 1393.92 593.214C1398.27 590.256 1402.61 587.272 1407.15 584.543C1547.3 500.093 1748.84 555.778 1891.89 613.474" stroke="url(#paint8_linear_1138_1750)" stroke-width="5" stroke-miterlimit="10"/>
<path d="M178.894 1303.7C360.021 1089.72 443.394 902.177 512.757 820.212C531.882 729.606 508.691 653.965 555.355 651.202C587.082 649.32 636.203 685.641 717.884 753.931C972.042 966.36 1035.94 1072.66 1122.71 1053.6C1259.51 1023.55 1189.23 714.153 1373.94 581.76C1378.32 578.623 1382.71 575.456 1387.3 572.549C1528.1 483.355 1736.7 539.538 1884.33 597.685" stroke="url(#paint9_linear_1138_1750)" stroke-width="5" stroke-miterlimit="10"/>
<path d="M165.43 1291.51C339.194 1084.26 427.565 899.054 506.029 823.705C528.836 740.573 512.426 672.737 559.537 672.684C591.839 672.645 639.807 708.177 717.45 773.05C960.095 975.763 1026.06 1082.74 1111.63 1062.62C1248.42 1030.45 1169.59 709.147 1353.96 570.308C1358.38 566.981 1362.81 563.642 1367.45 560.555C1508.93 466.637 1724.55 523.299 1876.76 581.894" stroke="url(#paint10_linear_1138_1750)" stroke-width="5" stroke-miterlimit="10"/>
<path d="M151.962 1279.32C318.351 1078.82 411.747 895.925 499.313 827.209C525.802 751.549 516.168 691.537 563.729 694.183C596.601 696.004 643.41 730.722 717.027 792.218C948.169 985.226 1016.19 1092.83 1100.57 1071.67C1237.35 1037.36 1149.95 704.155 1334 558.896C1338.46 555.383 1342.91 551.87 1347.63 548.617C1489.79 449.995 1712.43 507.11 1869.21 566.156" stroke="url(#paint11_linear_1138_1750)" stroke-width="5" stroke-miterlimit="10"/>
<path d="M138.495 1267.13C297.521 1073.36 395.9 892.808 492.573 830.679C522.743 762.493 519.881 710.332 567.912 715.636C601.35 719.331 647.005 753.233 716.592 811.331C936.249 994.628 1006.3 1102.86 1089.47 1080.68C1226.23 1044.2 1130.23 699.063 1314.02 547.433C1318.5 543.734 1323.02 540.04 1327.79 536.591C1470.65 433.302 1700.28 490.823 1861.65 550.339" stroke="url(#paint12_linear_1138_1750)" stroke-width="5" stroke-miterlimit="10"/>
<path d="M125.043 1254.94C276.687 1067.91 380.071 889.689 485.849 834.175C519.698 773.463 523.598 729.157 572.102 737.114C606.104 742.693 650.607 775.757 716.164 830.457C924.302 1004.06 996.418 1112.91 1078.4 1089.7C1215.13 1051.02 1110.49 693.95 1294.04 535.99C1298.56 532.101 1303.12 528.228 1307.94 524.607C1451.5 416.641 1688.13 474.611 1854.11 534.549" stroke="url(#paint13_linear_1138_1750)" stroke-width="5" stroke-miterlimit="10"/>
<path d="M111.567 1242.76C255.852 1062.46 364.243 886.564 479.119 837.658C516.649 784.418 527.306 747.992 576.293 758.601C610.848 766.076 654.211 798.291 715.718 849.607C912.352 1013.51 986.5 1122.93 1067.3 1098.74C1204 1057.83 1090.72 688.879 1274.05 524.558C1278.6 520.485 1283.21 516.439 1288.08 512.638C1432.38 400.014 1675.98 458.398 1846.5 518.792" stroke="url(#paint14_linear_1138_1750)" stroke-width="5" stroke-miterlimit="10"/>
<path d="M98.1007 1230.58C235.017 1057 348.411 883.442 472.386 841.147C513.603 795.378 531 766.843 580.476 780.066C615.579 789.447 657.806 820.813 715.306 868.722C900.43 1022.92 976.611 1132.91 1056.24 1107.75C1192.89 1064.57 1070.94 683.714 1254.1 513.121C1258.68 508.859 1263.34 504.639 1268.29 500.652C1413.3 383.37 1663.85 442.146 1838.95 502.974" stroke="url(#paint15_linear_1138_1750)" stroke-width="5" stroke-miterlimit="10"/>
<path d="M84.6288 1218.39C214.184 1051.55 332.581 880.332 465.654 844.629C510.52 806.33 534.679 785.703 584.661 801.538C620.297 812.833 661.403 843.332 714.863 887.831C888.485 1032.32 966.692 1142.87 1045.15 1116.75C1181.74 1071.28 1051.1 678.535 1234.11 501.628C1238.72 497.173 1243.43 492.784 1248.4 488.623C1394.22 366.744 1651.72 425.902 1831.39 487.201" stroke="url(#paint16_linear_1138_1750)" stroke-width="5" stroke-miterlimit="10"/>
<path d="M71.1486 1206.18C193.336 1046.08 316.731 877.172 458.91 848.099C507.486 817.272 538.335 804.545 588.826 822.991C624.988 836.18 664.988 865.834 714.421 906.957C876.539 1041.74 956.767 1152.84 1034.07 1125.77C1170.59 1077.99 1031.26 673.378 1214.14 490.203C1218.78 485.557 1223.54 480.997 1228.57 476.656C1375.15 350.13 1639.57 409.673 1823.84 471.432" stroke="url(#paint17_linear_1138_1750)" stroke-width="5" stroke-miterlimit="10"/>
<path d="M57.6805 1194C172.508 1040.66 322.302 932.411 452.188 851.598C500.79 821.357 542.001 823.431 593.02 844.48C629.704 859.593 668.597 888.375 714.001 926.1C864.615 1051.19 946.847 1162.81 1023 1134.81C1159.42 1084.66 1011.37 668.187 1194.16 478.737C1198.82 473.909 1203.65 469.17 1208.72 464.651C1356.09 333.51 1627.41 393.43 1816.27 455.616" stroke="url(#paint18_linear_1138_1750)" stroke-width="5" stroke-miterlimit="10"/>
<path d="M44.2105 1181.82C151.672 1035.17 287.093 885.131 445.452 855.071C502.579 844.231 545.639 842.293 597.201 865.944C634.398 882.985 672.186 910.888 713.562 945.22C852.678 1060.61 936.902 1172.74 1011.91 1143.82C1148.22 1091.29 991.454 662.983 1174.17 467.278C1178.87 462.255 1183.75 457.361 1188.87 452.65C1337.32 317.197 1615.28 377.181 1808.72 439.82" stroke="url(#paint19_linear_1138_1750)" stroke-width="5" stroke-miterlimit="10"/>
<path d="M30.7394 1169.63C130.823 1029.72 269.779 875.046 438.72 858.558C498.647 852.713 549.271 861.172 601.385 887.417C639.085 906.388 675.786 933.417 713.126 964.349C840.742 1070.04 927.085 1182.98 1000.83 1152.85C1136.77 1097.31 971.227 657.523 1154.2 455.83C1158.91 450.609 1163.85 445.553 1169.03 440.66C1318.16 300.449 1603.14 360.937 1801.14 424.028" stroke="url(#paint20_linear_1138_1750)" stroke-width="5" stroke-miterlimit="10"/>
<path d="M17.2681 1157.45C109.986 1024.27 253.397 864.692 431.986 862.051C701.216 858.083 867.341 1213.54 989.753 1161.87C1129.3 1102.98 942.299 628.847 1149.19 428.668C1299 283.707 1591.01 344.69 1793.58 408.246" stroke="url(#paint21_linear_1138_1750)" stroke-width="5" stroke-miterlimit="10"/>
</g>
<defs>
<linearGradient id="paint0_linear_1138_1750" x1="827.664" y1="332.789" x2="1128.24" y2="1080.45" gradientUnits="userSpaceOnUse">
<stop stop-color="#9945FF"/>
<stop offset="0.572917" stop-color="#14F195" stop-opacity="0"/>
</linearGradient>
<linearGradient id="paint1_linear_1138_1750" x1="831.512" y1="354.618" x2="1117.91" y2="1067" gradientUnits="userSpaceOnUse">
<stop stop-color="#9945FF"/>
<stop offset="0.572917" stop-color="#14F195" stop-opacity="0"/>
</linearGradient>
<linearGradient id="paint2_linear_1138_1750" x1="835.366" y1="376.393" x2="1107.6" y2="1053.54" gradientUnits="userSpaceOnUse">
<stop stop-color="#9945FF"/>
<stop offset="0.572917" stop-color="#14F195" stop-opacity="0"/>
</linearGradient>
<linearGradient id="paint3_linear_1138_1750" x1="839.171" y1="398.122" x2="1097.3" y2="1040.2" gradientUnits="userSpaceOnUse">
<stop stop-color="#9945FF"/>
<stop offset="0.572917" stop-color="#14F195" stop-opacity="0"/>
</linearGradient>
<linearGradient id="paint4_linear_1138_1750" x1="842.973" y1="419.767" x2="1094.47" y2="1045.35" gradientUnits="userSpaceOnUse">
<stop stop-color="#9945FF"/>
<stop offset="0.572917" stop-color="#14F195" stop-opacity="0"/>
</linearGradient>
<linearGradient id="paint5_linear_1138_1750" x1="846.732" y1="441.326" x2="1091.66" y2="1050.56" gradientUnits="userSpaceOnUse">
<stop stop-color="#9945FF"/>
<stop offset="0.572917" stop-color="#14F195" stop-opacity="0"/>
</linearGradient>
<linearGradient id="paint6_linear_1138_1750" x1="850.444" y1="462.8" x2="1088.85" y2="1055.83" gradientUnits="userSpaceOnUse">
<stop stop-color="#9945FF"/>
<stop offset="0.572917" stop-color="#14F195" stop-opacity="0"/>
</linearGradient>
<linearGradient id="paint7_linear_1138_1750" x1="854.104" y1="484.104" x2="1086.09" y2="1061.15" gradientUnits="userSpaceOnUse">
<stop stop-color="#9945FF"/>
<stop offset="0.572917" stop-color="#14F195" stop-opacity="0"/>
</linearGradient>
<linearGradient id="paint8_linear_1138_1750" x1="857.706" y1="505.286" x2="1083.32" y2="1066.48" gradientUnits="userSpaceOnUse">
<stop stop-color="#9945FF"/>
<stop offset="0.572917" stop-color="#14F195" stop-opacity="0"/>
</linearGradient>
<linearGradient id="paint9_linear_1138_1750" x1="861.233" y1="526.278" x2="1080.57" y2="1071.86" gradientUnits="userSpaceOnUse">
<stop stop-color="#9945FF"/>
<stop offset="0.572917" stop-color="#14F195" stop-opacity="0"/>
</linearGradient>
<linearGradient id="paint10_linear_1138_1750" x1="864.668" y1="547.044" x2="1077.83" y2="1077.26" gradientUnits="userSpaceOnUse">
<stop stop-color="#9945FF"/>
<stop offset="0.572917" stop-color="#14F195" stop-opacity="0"/>
</linearGradient>
<linearGradient id="paint11_linear_1138_1750" x1="867.989" y1="567.525" x2="1075.11" y2="1082.74" gradientUnits="userSpaceOnUse">
<stop stop-color="#9945FF"/>
<stop offset="0.572917" stop-color="#14F195" stop-opacity="0"/>
</linearGradient>
<linearGradient id="paint12_linear_1138_1750" x1="871.141" y1="587.566" x2="1072.4" y2="1088.19" gradientUnits="userSpaceOnUse">
<stop stop-color="#9945FF"/>
<stop offset="0.572917" stop-color="#14F195" stop-opacity="0"/>
</linearGradient>
<linearGradient id="paint13_linear_1138_1750" x1="874.091" y1="607.079" x2="1069.71" y2="1093.68" gradientUnits="userSpaceOnUse">
<stop stop-color="#9945FF"/>
<stop offset="0.572917" stop-color="#14F195" stop-opacity="0"/>
</linearGradient>
<linearGradient id="paint14_linear_1138_1750" x1="876.688" y1="625.831" x2="1066.99" y2="1099.21" gradientUnits="userSpaceOnUse">
<stop stop-color="#9945FF"/>
<stop offset="0.572917" stop-color="#14F195" stop-opacity="0"/>
</linearGradient>
<linearGradient id="paint15_linear_1138_1750" x1="878.854" y1="643.409" x2="1064.32" y2="1104.74" gradientUnits="userSpaceOnUse">
<stop stop-color="#9945FF"/>
<stop offset="0.572917" stop-color="#14F195" stop-opacity="0"/>
</linearGradient>
<linearGradient id="paint16_linear_1138_1750" x1="867.616" y1="627.622" x2="1061.65" y2="1110.27" gradientUnits="userSpaceOnUse">
<stop stop-color="#9945FF"/>
<stop offset="0.572917" stop-color="#14F195" stop-opacity="0"/>
</linearGradient>
<linearGradient id="paint17_linear_1138_1750" x1="855.979" y1="610.844" x2="1058.99" y2="1115.83" gradientUnits="userSpaceOnUse">
<stop stop-color="#9945FF"/>
<stop offset="0.572917" stop-color="#14F195" stop-opacity="0"/>
</linearGradient>
<linearGradient id="paint18_linear_1138_1750" x1="844.322" y1="594.01" x2="1056.36" y2="1121.44" gradientUnits="userSpaceOnUse">
<stop stop-color="#9945FF"/>
<stop offset="0.572917" stop-color="#14F195" stop-opacity="0"/>
</linearGradient>
<linearGradient id="paint19_linear_1138_1750" x1="832.712" y1="577.276" x2="1053.72" y2="1127.02" gradientUnits="userSpaceOnUse">
<stop stop-color="#9945FF"/>
<stop offset="0.572917" stop-color="#14F195" stop-opacity="0"/>
</linearGradient>
<linearGradient id="paint20_linear_1138_1750" x1="821.007" y1="560.351" x2="1051.08" y2="1132.65" gradientUnits="userSpaceOnUse">
<stop stop-color="#9945FF"/>
<stop offset="0.572917" stop-color="#14F195" stop-opacity="0"/>
</linearGradient>
<linearGradient id="paint21_linear_1138_1750" x1="809.3" y1="543.398" x2="1048.46" y2="1138.28" gradientUnits="userSpaceOnUse">
<stop stop-color="#9945FF"/>
<stop offset="0.572917" stop-color="#14F195" stop-opacity="0"/>
</linearGradient>
<clipPath id="clip0_1138_1750">
<rect width="1531" height="871" fill="white"/>
</clipPath>
</defs>
</svg>