<svg width="820" height="587" viewBox="0 0 820 587" fill="none" xmlns="http://www.w3.org/2000/svg">
<g clip-path="url(#clip0_1409_3240)">
<path d="M3363.08 157.471C2735.7 113.701 2272.1 2.40201 1953.54 -97.5845C1687.97 -180.946 1630.94 -222.644 1394.62 -279.217C881.807 -401.975 186.595 -436.336 129.201 -257.504C100.93 -169.411 273.706 -88.489 450.612 86.8131C609.746 244.51 762.262 471.168 686.299 753.088" stroke="url(#paint0_linear_1409_3240)" stroke-width="5" stroke-miterlimit="10"/>
<path d="M3311.01 121.071C2717.25 91.1233 2267.41 -12.1337 1959.14 -104.686C1699.72 -182.588 1634.96 -219.482 1391.8 -273.779C881.699 -387.684 223.62 -422.35 152.182 -252.268C115.374 -164.667 269.673 -82.4781 435.908 94.5201C582.255 250.348 727.272 474.728 655.051 754.654" stroke="url(#paint1_linear_1409_3240)" stroke-width="5" stroke-miterlimit="10"/>
<path d="M3258.69 84.3836C2698.75 68.3541 2262.51 -26.8121 1964.82 -111.866C1711.22 -184.326 1639.3 -216.369 1389.02 -268.335C882.042 -373.601 259.817 -408.437 175.37 -247.028C129.759 -159.825 265.806 -76.5671 421.188 102.26C554.873 256.137 692.126 478.293 623.63 756.215" stroke="url(#paint2_linear_1409_3240)" stroke-width="5" stroke-miterlimit="10"/>
<path d="M3206.08 47.3884C2680.19 45.3797 2257.36 -41.6318 1970.57 -119.166C1722.56 -186.185 1643.94 -213.341 1386.29 -262.878C882.759 -359.737 295.189 -394.633 198.819 -241.778C144.052 -154.937 262.159 -70.7485 406.491 110.037C527.715 261.867 656.866 481.866 592.201 757.78" stroke="url(#paint3_linear_1409_3240)" stroke-width="5" stroke-miterlimit="10"/>
<path d="M3153.22 10.0957C2661.56 22.2297 2251.96 -56.5467 1976.51 -126.492C1733.73 -188.137 1648.79 -210.389 1383.73 -257.429C883.915 -346.104 329.855 -380.976 222.623 -236.531C158.372 -149.993 258.895 -65.0023 391.92 117.837C500.848 267.561 621.604 485.446 560.732 759.315" stroke="url(#paint4_linear_1409_3240)" stroke-width="5" stroke-miterlimit="10"/>
<path d="M3100.08 -27.5104C2642.92 -1.14816 2246.26 -71.565 1982.51 -133.932C1744.63 -190.185 1653.95 -207.566 1381.2 -251.962C885.272 -332.695 363.728 -367.465 246.644 -231.278C172.517 -145.044 255.979 -59.3172 377.346 125.672C474.2 273.238 586.212 489.028 529.222 760.9" stroke="url(#paint5_linear_1409_3240)" stroke-width="5" stroke-miterlimit="10"/>
<path d="M3046.68 -65.4264C2624.25 -24.696 2240.3 -86.6148 1988.64 -141.455C1755.31 -192.304 1659.26 -204.852 1378.76 -246.487C886.834 -319.498 396.903 -354.126 270.955 -226.007C186.523 -140.115 253.372 -53.6387 362.824 133.543C447.833 278.925 550.718 492.632 497.632 762.459" stroke="url(#paint6_linear_1409_3240)" stroke-width="5" stroke-miterlimit="10"/>
<path d="M2992.98 -103.66C2605.42 -48.491 2234.01 -101.683 1994.85 -149.056C1765.68 -194.451 1664.65 -202.262 1376.37 -240.992C888.507 -306.507 429.387 -340.958 295.506 -220.718C200.308 -135.228 251.202 -47.9758 348.325 141.463C421.759 284.62 515.197 496.22 465.992 764.024" stroke="url(#paint7_linear_1409_3240)" stroke-width="5" stroke-miterlimit="10"/>
<path d="M2939.1 -142.222C2586.65 -72.4867 2227.55 -116.725 2001.23 -156.761C1775.85 -196.615 1670.24 -199.869 1374.14 -235.489C890.304 -293.723 461.329 -327.994 320.396 -215.434C213.932 -130.431 249.589 -42.2956 333.953 149.412C395.973 290.352 479.628 499.863 434.266 765.598" stroke="url(#paint8_linear_1409_3240)" stroke-width="5" stroke-miterlimit="10"/>
<path d="M2884.95 -181.095C2567.8 -96.6768 2220.86 -131.67 2007.71 -164.529C1785.84 -198.731 1675.94 -197.549 1371.98 -229.958C892.19 -281.109 492.792 -315.208 345.558 -210.111C227.351 -125.739 248.46 -36.5572 319.627 157.417C370.516 296.142 443.977 503.507 402.615 767.165" stroke="url(#paint9_linear_1409_3240)" stroke-width="5" stroke-miterlimit="10"/>
<path d="M2830.51 -220.329C2548.84 -121.1 2213.99 -146.512 2014.28 -172.406C1795.61 -200.76 1681.61 -195.438 1369.88 -224.427C894.015 -268.682 523.744 -302.642 370.952 -204.802C240.436 -121.222 247.842 -30.7733 305.325 165.442C345.327 301.968 408.24 507.142 370.825 768.71" stroke="url(#paint10_linear_1409_3240)" stroke-width="5" stroke-miterlimit="10"/>
<path d="M2775.85 -259.886C2529.95 -145.74 2207.08 -161.171 2020.97 -180.362C1805.33 -202.603 1687.26 -193.482 1367.88 -218.876C895.821 -256.398 554.335 -290.254 396.642 -199.461C253.222 -116.891 247.784 -24.8917 291.091 173.514C320.429 307.877 372.463 510.804 339.043 770.277" stroke="url(#paint11_linear_1409_3240)" stroke-width="5" stroke-miterlimit="10"/>
<path d="M2720.93 -299.79C2510.96 -170.6 2200.23 -175.619 2027.77 -188.412C1815.13 -204.184 1692.98 -191.698 1365.96 -213.303C897.564 -244.248 584.626 -278.062 422.593 -194.101C265.696 -112.797 248.285 -18.9016 276.923 181.637C295.809 313.872 336.621 514.476 307.208 771.843" stroke="url(#paint12_linear_1409_3240)" stroke-width="5" stroke-miterlimit="10"/>
<path d="M2665.79 -340.042C2491.93 -195.688 2193.57 -189.836 2034.69 -196.55C1825.21 -205.404 1698.62 -190.086 1364.17 -207.714C899.265 -232.216 614.749 -266.036 448.832 -188.736C277.748 -108.982 249.397 -12.7799 262.834 189.801C271.451 319.965 300.743 518.177 275.325 773.393" stroke="url(#paint13_linear_1409_3240)" stroke-width="5" stroke-miterlimit="10"/>
<path d="M2610.39 -380.644C2472.85 -220.999 2187.21 -203.806 2041.74 -204.783C1835.83 -206.161 1704.22 -188.642 1362.44 -202.106C900.847 -220.286 644.659 -254.239 475.346 -183.345C289.43 -105.498 251.08 -6.50945 248.831 198.024C247.409 326.167 264.826 521.87 243.506 774.976" stroke="url(#paint14_linear_1409_3240)" stroke-width="5" stroke-miterlimit="10"/>
<path d="M2554.76 -421.61C2453.7 -246.538 2181.33 -217.536 2048.86 -213.095C1847.21 -206.336 1709.69 -187.356 1360.77 -196.462C902.282 -208.453 674.484 -242.586 502.068 -177.929C300.637 -102.375 253.275 -0.0789228 234.785 206.272C223.477 332.473 228.764 525.578 211.52 776.53" stroke="url(#paint15_linear_1409_3240)" stroke-width="5" stroke-miterlimit="10"/>
<path d="M2498.87 -462.926C2434.55 -272.316 2147.62 -250.216 2056.06 -221.501C1906.3 -174.528 1715.05 -186.235 1359.16 -190.797C903.62 -196.647 704.341 -231.107 529.099 -172.49C311.407 -99.6971 256.13 6.57331 220.871 214.587C199.81 338.893 192.714 529.31 179.536 778.079" stroke="url(#paint16_linear_1409_3240)" stroke-width="5" stroke-miterlimit="10"/>
<path d="M2448.22 -494.27C2420.92 -289.65 2153.33 -251.699 2070.73 -221.872C1925.96 -169.596 1729.37 -177.511 1368.51 -177.347C917.821 -177.16 748.173 -211.757 571.145 -159.4C337.683 -90.4018 275.736 19.5705 223.524 227.442C192.992 348.949 173.377 535.052 164.392 779.667" stroke="url(#paint17_linear_1409_3240)" stroke-width="5" stroke-miterlimit="10"/>
<path d="M2399.26 -522.747C2408.81 -304.651 2162.87 -250.663 2087.19 -220.215C1945.9 -163.384 1745.7 -167.081 1380.55 -162.114C935.152 -156.028 795.295 -190.799 616.758 -144.577C367.289 -79.9865 299.832 34.1247 230.42 241.251C190.677 359.828 158.484 541.213 153.641 781.204" stroke="url(#paint18_linear_1409_3240)" stroke-width="5" stroke-miterlimit="10"/>
<path d="M2350.51 -551.221C2396.62 -319.757 2188.54 -242.033 2103.33 -218.828C1935.45 -173.157 1761.46 -157.134 1392.32 -147.262C951.833 -135.457 841.81 -170.514 661.794 -130.113C395.843 -70.4033 323.896 48.5617 237.015 254.831C188.252 370.633 143.423 547.289 142.729 782.789" stroke="url(#paint19_linear_1409_3240)" stroke-width="5" stroke-miterlimit="10"/>
<path d="M2302.01 -579.694C2384.42 -334.952 2194.58 -245.183 2119.25 -217.69C1964.36 -161.17 1776.74 -147.641 1403.82 -132.788C967.95 -115.411 887.836 -150.875 706.255 -116.026C423.303 -61.7269 347.737 62.7865 243.248 268.11C185.652 381.291 128.171 553.233 131.548 784.341" stroke="url(#paint20_linear_1409_3240)" stroke-width="5" stroke-miterlimit="10"/>
<path d="M2253.71 -608.172C2372.17 -350.227 2201.24 -248.652 2134.9 -216.772C1994.54 -149.297 1791.51 -138.561 1415.03 -118.652C983.471 -95.8284 933.465 -131.802 750.142 -102.268C449.855 -53.8664 371.502 76.9223 249.154 281.17C182.847 391.837 112.749 559.104 120.178 785.914" stroke="url(#paint21_linear_1409_3240)" stroke-width="5" stroke-miterlimit="10"/>
</g>
<defs>
<linearGradient id="paint0_linear_1409_3240" x1="2143.7" y1="538.504" x2="1975.1" y2="-606.564" gradientUnits="userSpaceOnUse">
<stop stop-color="#9945FF"/>
<stop offset="0.703125" stop-color="#14F195"/>
</linearGradient>
<linearGradient id="paint1_linear_1409_3240" x1="2126.02" y1="537.924" x2="1959.83" y2="-590.015" gradientUnits="userSpaceOnUse">
<stop stop-color="#9945FF"/>
<stop offset="0.703125" stop-color="#14F195"/>
</linearGradient>
<linearGradient id="paint2_linear_1409_3240" x1="2108.25" y1="537.31" x2="1944.45" y2="-573.586" gradientUnits="userSpaceOnUse">
<stop stop-color="#9945FF"/>
<stop offset="0.703125" stop-color="#14F195"/>
</linearGradient>
<linearGradient id="paint3_linear_1409_3240" x1="2090.47" y1="536.682" x2="1929.03" y2="-557.306" gradientUnits="userSpaceOnUse">
<stop stop-color="#9945FF"/>
<stop offset="0.703125" stop-color="#14F195"/>
</linearGradient>
<linearGradient id="paint4_linear_1409_3240" x1="2072.67" y1="536.007" x2="1913.57" y2="-541.179" gradientUnits="userSpaceOnUse">
<stop stop-color="#9945FF"/>
<stop offset="0.703125" stop-color="#14F195"/>
</linearGradient>
<linearGradient id="paint5_linear_1409_3240" x1="2054.86" y1="535.357" x2="1898.07" y2="-525.224" gradientUnits="userSpaceOnUse">
<stop stop-color="#9945FF"/>
<stop offset="0.703125" stop-color="#14F195"/>
</linearGradient>
<linearGradient id="paint6_linear_1409_3240" x1="2037.01" y1="534.661" x2="1882.5" y2="-509.429" gradientUnits="userSpaceOnUse">
<stop stop-color="#9945FF"/>
<stop offset="0.703125" stop-color="#14F195"/>
</linearGradient>
<linearGradient id="paint7_linear_1409_3240" x1="2019.11" y1="533.952" x2="1866.86" y2="-493.798" gradientUnits="userSpaceOnUse">
<stop stop-color="#9945FF"/>
<stop offset="0.703125" stop-color="#14F195"/>
</linearGradient>
<linearGradient id="paint8_linear_1409_3240" x1="2001.21" y1="533.221" x2="1851.19" y2="-478.343" gradientUnits="userSpaceOnUse">
<stop stop-color="#9945FF"/>
<stop offset="0.703125" stop-color="#14F195"/>
</linearGradient>
<linearGradient id="paint9_linear_1409_3240" x1="1983.33" y1="532.472" x2="1835.53" y2="-463.038" gradientUnits="userSpaceOnUse">
<stop stop-color="#9945FF"/>
<stop offset="0.703125" stop-color="#14F195"/>
</linearGradient>
<linearGradient id="paint10_linear_1409_3240" x1="1965.36" y1="531.676" x2="1819.74" y2="-447.916" gradientUnits="userSpaceOnUse">
<stop stop-color="#9945FF"/>
<stop offset="0.703125" stop-color="#14F195"/>
</linearGradient>
<linearGradient id="paint11_linear_1409_3240" x1="1947.42" y1="530.88" x2="1803.96" y2="-432.939" gradientUnits="userSpaceOnUse">
<stop stop-color="#9945FF"/>
<stop offset="0.703125" stop-color="#14F195"/>
</linearGradient>
<linearGradient id="paint12_linear_1409_3240" x1="1929.44" y1="530.06" x2="1788.12" y2="-418.111" gradientUnits="userSpaceOnUse">
<stop stop-color="#9945FF"/>
<stop offset="0.703125" stop-color="#14F195"/>
</linearGradient>
<linearGradient id="paint13_linear_1409_3240" x1="1911.43" y1="529.201" x2="1772.24" y2="-403.422" gradientUnits="userSpaceOnUse">
<stop stop-color="#9945FF"/>
<stop offset="0.703125" stop-color="#14F195"/>
</linearGradient>
<linearGradient id="paint14_linear_1409_3240" x1="1893.48" y1="528.357" x2="1756.38" y2="-388.906" gradientUnits="userSpaceOnUse">
<stop stop-color="#9945FF"/>
<stop offset="0.703125" stop-color="#14F195"/>
</linearGradient>
<linearGradient id="paint15_linear_1409_3240" x1="1875.42" y1="527.454" x2="1740.4" y2="-374.517" gradientUnits="userSpaceOnUse">
<stop stop-color="#9945FF"/>
<stop offset="0.703125" stop-color="#14F195"/>
</linearGradient>
<linearGradient id="paint16_linear_1409_3240" x1="1857.33" y1="526.529" x2="1724.38" y2="-360.272" gradientUnits="userSpaceOnUse">
<stop stop-color="#9945FF"/>
<stop offset="0.703125" stop-color="#14F195"/>
</linearGradient>
<linearGradient id="paint17_linear_1409_3240" x1="1847.74" y1="527.664" x2="1711.27" y2="-383.945" gradientUnits="userSpaceOnUse">
<stop stop-color="#9945FF"/>
<stop offset="0.703125" stop-color="#14F195"/>
</linearGradient>
<linearGradient id="paint18_linear_1409_3240" x1="1840.29" y1="529.255" x2="1698.78" y2="-418.11" gradientUnits="userSpaceOnUse">
<stop stop-color="#9945FF"/>
<stop offset="0.703125" stop-color="#14F195"/>
</linearGradient>
<linearGradient id="paint19_linear_1409_3240" x1="1832.79" y1="530.829" x2="1686.24" y2="-452.188" gradientUnits="userSpaceOnUse">
<stop stop-color="#9945FF"/>
<stop offset="0.703125" stop-color="#14F195"/>
</linearGradient>
<linearGradient id="paint20_linear_1409_3240" x1="1825.13" y1="532.307" x2="1673.57" y2="-486.171" gradientUnits="userSpaceOnUse">
<stop stop-color="#9945FF"/>
<stop offset="0.703125" stop-color="#14F195"/>
</linearGradient>
<linearGradient id="paint21_linear_1409_3240" x1="1817.39" y1="533.75" x2="1660.82" y2="-520.083" gradientUnits="userSpaceOnUse">
<stop stop-color="#9945FF"/>
<stop offset="0.703125" stop-color="#14F195"/>
</linearGradient>
<clipPath id="clip0_1409_3240">
<rect width="871" height="587" fill="white" transform="translate(871 587) rotate(180)"/>
</clipPath>
</defs>
</svg>
