<svg width="1224" height="280" viewBox="0 0 1224 280" fill="none" xmlns="http://www.w3.org/2000/svg">
<path d="M350.999 85.904V111.599H361.947C367.161 111.599 370.81 110.631 372.896 108.695C375.13 106.758 376.247 103.481 376.247 98.8635C376.247 93.9478 375.205 90.5962 373.119 88.8087C371.183 86.8723 367.459 85.904 361.947 85.904H350.999ZM350.999 184.44H361.947C367.459 184.44 371.183 183.547 373.119 181.759C375.205 179.823 376.247 176.397 376.247 171.481V164.108C376.247 159.341 375.205 155.989 373.119 154.053C371.183 152.116 367.459 151.148 361.947 151.148H350.999V184.44ZM251.792 226V44.5679H412.445C424.063 44.5679 433.969 45.3872 442.162 47.0257C450.355 48.6643 456.983 51.1966 462.048 54.6226C467.261 58.0487 471.06 62.5175 473.443 68.029C475.827 73.5404 477.018 80.0946 477.018 87.6916C477.018 99.7572 473.816 108.993 467.41 115.398C461.154 121.803 450.578 126.346 435.682 129.028C450.131 131.56 460.633 136.699 467.187 144.445C473.741 152.191 477.018 163.81 477.018 179.301C477.018 196.432 472.177 208.497 462.495 215.498C452.812 222.499 436.129 226 412.445 226H251.792ZM598.024 146.679H619.027L608.526 85.0103L598.024 146.679ZM486.305 226L530.993 44.5679H686.282L730.97 226H628.412L622.602 186.675H594.226L588.64 226H486.305ZM866.983 161.873H853.13V121.431H967.754L967.977 193.825C968.871 216.169 954.199 227.341 923.96 227.341H855.141H801.292C790.269 227.341 780.885 226.596 773.139 225.106C765.542 223.468 759.36 220.935 754.593 217.509C749.827 213.934 746.326 209.391 744.092 203.88C742.006 198.368 740.964 191.665 740.964 183.77V82.1056C740.964 68.5503 745.73 58.719 755.264 52.6117C764.946 46.5044 780.289 43.4507 801.292 43.4507H904.744C916.065 43.4507 925.673 44.1955 933.568 45.6851C941.612 47.0257 948.166 49.2601 953.23 52.3883C958.295 55.5164 961.944 59.5383 964.179 64.4539C966.562 69.3696 967.754 75.2535 967.754 82.1056V100.428H866.76L866.983 97.5228C866.983 97.2249 866.983 96.8525 866.983 96.4056C867.132 95.8098 867.206 95.3629 867.206 95.065C867.206 91.7879 866.015 89.1811 863.631 87.2447C861.248 85.3082 858.12 84.34 854.247 84.34C849.778 84.34 846.576 85.3827 844.639 87.4681C842.703 89.5535 841.735 92.9051 841.735 97.5228V173.045C841.735 177.663 842.703 181.014 844.639 183.1C846.576 185.036 849.778 186.005 854.247 186.005C858.716 186.005 861.918 185.036 863.855 183.1C865.94 181.014 866.983 177.663 866.983 173.045V161.873ZM1050.07 227.341C1029.52 227.341 1014.03 224.436 1003.6 218.627C993.171 212.817 987.958 204.326 987.958 193.155V160.309H1089.4V173.045C1089.4 181.685 1093.49 186.005 1101.69 186.005C1106.01 186.005 1109.14 184.962 1111.07 182.876C1113.16 180.642 1114.2 176.992 1114.2 171.928C1114.2 169.098 1113.98 166.789 1113.53 165.001C1113.23 163.065 1112.49 161.426 1111.3 160.086C1110.1 158.745 1108.39 157.553 1106.16 156.511C1103.92 155.468 1100.94 154.425 1097.22 153.382L1028.4 133.496C1012.46 128.879 1001.74 123.963 996.225 118.75C990.713 113.238 987.958 105.939 987.958 96.8525V77.4134C987.958 66.2415 993.171 57.8253 1003.6 52.1648C1014.03 46.3554 1029.52 43.4507 1050.07 43.4507H1152.18C1172.74 43.4507 1188.23 46.3554 1198.66 52.1648C1209.09 57.8253 1214.3 66.2415 1214.3 77.4134V98.8635H1113.53V96.6291C1113.53 88.4363 1109.21 84.34 1100.57 84.34C1097 84.34 1094.09 85.1592 1091.86 86.7978C1089.77 88.4363 1088.73 90.5962 1088.73 93.2775C1088.73 94.6181 1088.88 95.8098 1089.18 96.8525C1089.62 97.7463 1090.44 98.64 1091.63 99.5338C1092.97 100.428 1094.76 101.396 1097 102.438C1099.38 103.332 1102.58 104.375 1106.6 105.567L1186.59 129.698C1191.66 131.337 1195.9 133.199 1199.33 135.284C1202.91 137.369 1205.81 139.902 1208.04 142.881C1210.28 145.86 1211.84 149.435 1212.74 153.606C1213.78 157.777 1214.3 162.692 1214.3 168.353V188.462C1214.3 202.018 1209.31 211.923 1199.33 218.18C1189.5 224.287 1173.78 227.341 1152.18 227.341H1050.07Z" fill="white"/>
<path d="M140.326 93.2743C142.952 91.6229 146.364 91.4222 148.864 93.2589C160.519 101.823 174.315 114.952 183.697 133.555C210.782 187.252 207.896 260.51 99 260.51C-9.89619 260.51 -12.7815 187.252 14.3026 133.555C23.6557 115.011 37.3933 101.905 49.0253 93.3395C51.51 91.5098 54.8989 91.6988 57.5144 93.336C64.2368 97.544 78.2107 104.268 98.8704 104.268C119.632 104.268 133.642 97.4778 140.326 93.2743ZM82.1687 18.8252C95.1712 18.8252 100.228 27.3128 117.023 24.604C133.818 21.8953 135.083 33.2022 148.085 41.2183C161.918 49.7465 136.662 72.1928 128.947 78.6016C128.945 78.6027 128.943 78.6026 128.942 78.6016C128.94 78.6007 128.938 78.6009 128.937 78.6021C128.93 78.6089 128.906 78.631 128.866 78.6681C128.47 78.9964 128.121 79.2797 127.83 79.516C124.935 81.6767 116.155 86.9073 98.9617 86.9074C82.8069 86.9074 74.0786 82.2902 70.6818 79.94C66.3499 76.5512 36.1205 52.146 50.6012 41.9581C71.1884 27.4744 69.1666 18.8254 82.1687 18.8252Z" fill="#0EDF24"/>
</svg>
