<svg id="Layer_2" data-name="Layer 2" xmlns="http://www.w3.org/2000/svg" viewBox="0 0 439.78 349.97" fill="#ea5239">
  <g id="Layer_1-2" data-name="Layer 1">
    <g>
      
<g>
  <g>
    <g>
      <path d="M98.92,253.74c-.62.79-1.26,1.41-1.07,2.47s1.15,1.22,2.04,1.49c3.58.7,10.16,3.98,11.4,10.84,1.47,8.16-2.18,19.19-18.59,22.15-2.78.5-5.32.88-7.8,1.16-2.46.36-4.93.72-7.46,1.18-2.78.5-5.62,1.1-8.38,1.68-2.75.66-5.51,1.25-8.36,1.76-2.53.46-5.65-.5-6.17-3.35-.91-5.06,5.32-.88,3.36-14.51l-3.35-23.67c-1.74-12.41-7.74-5.51-8.75-11.15-.56-3.1,2.52-5.18,5.05-5.63,3.02-.55,6.07-.93,9.1-1.39,3.05-.38,6.1-.76,9.12-1.31,1.96-.35,3.81-.86,5.65-1.36,1.86-.42,3.79-.94,5.67-1.28,14.94-2.7,20.05,3.71,21.19,10,.68,3.76-.15,8.03-2.66,10.93ZM74.52,254.43c.57,3.18.69,4.76,3.22,4.31,4.9-.88,5.42-4.52,4.61-9.01-.66-3.67-2.71-8.02-7.2-7.21-3.02.55-2.25,2.93-1.82,5.3l1.19,6.61ZM78.11,274.35c1.71,9.47,3.3,9.43,5.83,8.98,4.65-.84,5.71-4.32,4.94-8.56-.9-4.98-3.16-9.12-8.88-8.09-2.53.46-2.87,1.87-2.64,3.59l.74,4.08Z" />
      <path d="M131.25,268.25c.23,3.15.82,8,5.07,7.7,5.66-.41,4.34-7.75,4.06-11.52-.19-2.6-.36-5.98-.93-8.47-.92-3.89-4.67-2.27-4.91-5.57-.34-4.64,15.41-6.58,18.4-6.8,2.83-.21,4.13,1.36,4.33,4.11.18,2.52.2,4.97.39,7.48l1.15,15.81c.34,4.72,4.51,2.2,4.78,5.98.39,5.35-13.42,7.86-17.75,8.17-6.06.44-2.39-4.57-5.53-4.34-.87.06-2.04,1.33-3.84,2.65-1.8,1.32-4.23,2.68-7.69,2.93-14.94,1.09-14.54-10.8-15.4-22.6-.88-12.03-5.92-6.37-6.3-11.56s19.43-6.71,20.06-6.76c2.2-.16,2.51.84,2.66,2.81l1.46,19.97Z" />
      <path d="M210.12,268.5c.25,5.51,4.34,3.52,4.52,7.61.27,5.99-16.97,7.15-17.83,7.19-4.02.18-1.38-4.28-3.97-4.16-.71.03-1.84,1.19-3.6,2.45-1.76,1.18-4.15,2.47-7.62,2.63-10.32.46-18.84-10.13-19.28-19.82-.47-10.48,7.58-21.1,18.45-21.58,5.43-.24,8.61,1.98,9.48,1.94,1.18-.05,1.14-2.66,1.11-3.52-.22-4.88-5.85-2.03-6.04-6.28-.26-5.83,19.76-8.22,20-8.23,2.36-.11,2.99,1.52,3.1,4.12l1.68,37.65ZM187.32,251.13c-5.28.24-5.82,9.34-5.65,13.04s1.4,10.12,6.28,9.9c5.28-.24,4.53-9.91,4.37-13.38-.14-3.07-.44-9.77-5.01-9.56Z" />
      <path d="M258.09,268.74c-.22,5.19,3.78,3.65,3.61,7.5-.24,5.63-16.48,5.31-17.3,5.28-3.78-.16-.94-4.12-3.38-4.23-.67-.03-1.82.96-3.57,2-1.75.96-4.09,1.98-7.35,1.84-9.71-.41-16.83-11.04-16.44-20.15.42-9.85,8.83-19.15,19.06-18.71,5.11.22,7.91,2.56,8.72,2.6,1.11.05,1.29-2.39,1.32-3.21.2-4.59-5.32-2.38-5.15-6.38.23-5.48,19.19-6.09,19.41-6.08,2.22.09,2.67,1.67,2.57,4.12l-1.51,35.42ZM238.15,250.59c-4.96-.21-6.22,8.27-6.37,11.75-.15,3.48.48,9.6,5.08,9.79,4.96.21,5.06-8.92,5.2-12.18.12-2.89.39-9.19-3.91-9.37Z" />
      <path d="M285.79,268.73c-.37,8.74,4.13,5.74,3.97,9.67-.22,5.04-9.63,4.64-12.96,4.5-12.74-.54-13.14-3.46-13.06-5.23.11-2.67,3.16-2.69,4.15-4.94,1.07-2.55,1.68-13.29.98-16.07-.56-2.62-4.37-1.97-4.23-5.3.22-5.26,19.14-6.68,19.88-6.65,2.22.09,2.22,1.8,2.16,3.36l-.88,20.67ZM272.25,241.8c-3.11-.13-6.39-1.68-6.23-5.31.21-4.89,10.08-6.47,13.85-6.31,2.96.13,7.15,1.27,6.99,4.97-.25,5.78-10.39,6.83-14.61,6.65Z" />
      <path d="M308.06,266.48c-.81-.06-1.98-.38-2.08.88-.29,3.7,4.27,7.18,7.75,7.45,5.55.44,8.54-2.68,10.09-2.56s2.7,2.52,2.59,3.92c-.45,5.69-11.2,9.02-17.85,8.49-13.31-1.04-19.43-11.2-18.68-20.73.89-11.39,11.23-18.91,22.32-18.04,12.57.99,17.35,11.11,16.92,16.65-.38,4.88-2.65,5.37-5.02,5.19l-16.04-1.26ZM315.22,257.67c.21-2.66-1.25-4.86-3.99-5.07-2.44-.19-4.63,2.17-4.82,4.53-.21,2.66,2.35,2.27,4.27,2.42s4.33.79,4.54-1.88Z" />
      <path d="M350.96,248.83c1.31.34,2.47.74,2.98.78.74.07,1.35-.1,2.04-.34.69-.16,1.37-.33,2.03-.27,3.4.3,6.2,7.4,5.93,10.42-.18,2-2.01,3.32-3.93,3.15-4.21-.37-6.06-6.42-9.31-6.7-1.33-.12-2.76.87-2.88,2.28-.42,4.73,15.76,7.05,14.75,18.5-.61,6.95-7.76,11.16-15.44,10.48-1.48-.13-3.6-.54-5.42-1-1.83-.38-3.43-.75-3.88-.79-.52-.05-.97-.01-1.49.02-.45.04-.9.07-1.42.02-1.48-.13-2.2-.42-3.13-1.69-1.66-2.23-3.14-6.6-2.89-9.41.17-1.92.97-3.41,3.11-3.23,3.25.29,5.56,7.86,9.7,8.23,1.48.13,2.95-.49,3.09-2.11.38-4.36-14.05-6.15-12.98-18.34.65-7.39,7.12-11.51,14.73-10.84,1.48.13,3.02.41,4.39.83Z" />
    </g>
    <g>
      <g>
        <path d="M155.02,308.94c-.3-5.54-7.04-2.73-7.3-7.39-.16-2.96,3.08-3.54,5.36-3.92,3.6-.62,7.07-.39,10.61-1.28,5.31-1.34,10.68-3.8,16.09-4.09,10.05-.55,19.1,7.84,19.7,18.93.6,11.01-8.39,17.44-18.67,18-2.22.12-4.46-.13-6.45-.02-.89.05-1.16.43-1.12,1.25l.23,4.29c.73,9.23,5.91,5.09,6.15,9.38.26,4.8-10.37,5.61-13.7,5.79-3.1.17-14.05.69-14.31-4.11-.22-4.07,5.31-1.85,4.98-7.91l-1.58-28.9ZM174.55,303.34c-3.05.23-2.9,1.17-2.79,2.73l.89,11.75c.12,1.64-.44,3.5,3.79,3.18,5.17-.39,6.91-4.46,6.54-9.24-.37-4.94-3.19-8.82-8.44-8.42Z" />
        <path d="M238.12,311.99c.32,13.03,4.59,5.81,4.69,9.81.1,4.22-5.55,8.95-10.96,9.08-5.85.14-6.09-3.63-7.94-3.58-.89.02-1.83,1.01-3.43,1.94-1.6,1-3.8,2.02-7.21,2.1-6.14.15-12.37-2.95-12.55-10.28-.13-5.25,4.74-11.89,17.77-12.21,2.29-.06,3.33.07,3.27-2.6-.06-2.44-.26-7.55-3.67-7.46-4.44.11-4.69,8.11-11.27,8.28-2.37.06-4.19-1.6-4.24-3.97-.16-6.29,12.25-10.67,19.28-10.85,4.22-.1,15.81,1.24,16.08,12.34l.18,7.4ZM216.08,319.06c.05,1.92,1.13,3.97,3.28,3.92,2.81-.07,2.96-3.11,2.9-5.33-.04-1.63-.01-3.48-2.08-3.43-2.52.06-4.16,2.47-4.1,4.84Z" />
        <path d="M281.11,319.15c-.49-.83-1.24-2.49-2.35-2.53-1.55-.06-2.67,2.05-3.38,3.21l-5.75,9.2c-1.1,1.66-2.44,3.84-4.73,3.75-2.74-.1-4.26-3.12-5.44-5.24l-13.22-23.38c-2.22-4.01-5.93-1.85-5.79-5.62.17-4.73,11.51-4.69,14.91-4.56,2.89.11,11.83.51,11.67,4.87-.06,1.7-1.49,2.32-1.53,3.28-.05,1.26,3.12,7.97,4.96,8.04,1.33.05,3.54-3.72,3.58-4.76.13-3.55-4.46-3.72-4.36-6.46.05-1.48.53-4.43,15.03-3.89,2.81.1,10.73.25,10.58,4.32-.1,2.66-2.47,2.8-2.54,4.5-.05,1.48,2.54,7.35,4.17,7.41,2.22.08,5.28-6.55,5.3-7.06.07-1.85-1.99-2.37-1.9-4.81.14-3.7,6.72-3.53,9.16-3.44,2.52.09,9.03.33,8.89,4.03-.15,4.14-4.56,1.02-8.11,7.11l-10.15,18.22c-1.34,2.32-4.83,8.56-8.09,8.45-2.89-.11-6.14-6.23-7.39-8.42l-3.55-6.21Z" />
        <path d="M337.44,298.35c1.29.39,2.43.83,2.95.9.73.09,1.35-.05,2.05-.26.69-.14,1.38-.27,2.04-.19,3.38.43,5.9,7.61,5.52,10.62-.25,1.98-2.13,3.24-4.04,3-4.19-.53-5.8-6.63-9.03-7.04-1.32-.17-2.78.77-2.96,2.16-.6,4.7,15.45,7.63,14.01,19.01-.87,6.9-8.16,10.83-15.8,9.86-1.47-.19-3.57-.68-5.37-1.2-1.81-.45-3.4-.88-3.84-.93-.51-.07-.96-.05-1.49-.04-.45.02-.9.03-1.41-.03-1.47-.19-2.17-.5-3.05-1.8-1.58-2.29-2.88-6.71-2.53-9.5.24-1.91,1.1-3.37,3.23-3.1,3.23.41,5.25,8.05,9.36,8.57,1.47.19,2.96-.37,3.16-1.99.55-4.33-13.78-6.67-12.25-18.79.93-7.34,7.54-11.21,15.1-10.25,1.47.19,2.99.53,4.35,1Z" />
      </g>
      <g>
        <path d="M67.09,329.01c-.12-1.59-.75-2.32-2.37-2.09-.61.09-2.14.57-2.27-.35-.58-4.01-.95-4.42.56-4.74.6-.14,1.4-.31,1.28-1.17-.14-.96-2.33-2.56-2.79-5.76-.87-6.03,5.08-8.96,10.15-9.69,8.26-1.19,10.82,2.89,11.13,5.07s-1.16,4.15-3.29,4.46c-4.41.63-5.62-3.85-8.51-3.43-1.01.15-1.61,1.06-1.46,2.07.46,3.19,5.89,3.5,7.12,5.6.21.38.28.53.79.46,2.13-.31,4.94-1.28,5.06.26l.28,3.74c.06.77-.48.95-1.19,1.05-2.99.43-3.51.45-3.02,3.8.2,1.42.61,3.17,1.16,4.44,1.35,2.91,4.72.77,5.17,3.91.18,1.22.43,3.72-10.98,5.36-2.43.35-8.98,1.24-9.49-2.31-.41-2.84,3.33-2.03,3.09-5.15l-.38-5.53Z" />
        <path d="M84.36,315.72c.29-9.16,8.5-14.07,16.94-13.8,8.96.29,13.85,7.47,13.65,13.81-.27,8.39-9.44,13.22-16.97,12.98-7.58-.24-13.88-4.91-13.63-12.99ZM98.91,307.89c-1.69-.05-2.66,1.5-2.61,2.99.1,3.23.77,11.14,4.3,11.46,1.94.16,2.4-1.46,2.46-3.1.07-2.3-.67-11.24-4.15-11.35Z" />
        <path d="M118.96,311.6c-.65-4.98-3.43-1.78-3.83-4.87-.52-4.01,11.22-6.67,11.68-6.73,1.93-.25,2.05.25,2.47,1.95.13.6.23,1.78,1.09,1.67,1.22-.16,1.46-4.27,5.83-4.83,3.4-.44,5.97,1.81,6.4,5.16.44,3.4-2.11,6.47-5.46,6.9-3.3.43-4.59-2.35-5.91-2.18-1.42.18-.73,3.55-.61,4.47.2,1.52.63,3.64,1.13,5.53.59,2.2,4.28.32,4.67,3.37.41,3.2-4.02,4.03-9.61,4.76-2.34.3-9.23,1.3-9.69-2.21-.28-2.13,2.06-2.44,2.39-4.29.24-1.32.02-4.24-.17-5.66l-.4-3.05Z" />
      </g>
    </g>
  </g>
</g>

      <g>
      <g>
        <path d="M355.1,41.86c-1.47-6.82-1.33-10.16-1.33-10.16.39-8.19-.58-6.35-.07-16.64.39-8.19,1.03-9.86,2.25-11.39.26-.33,3.61-4.28,7.97-3.58,2.37.3,3.84,1.95,4.43,2.46.45.49,1.84,2.13,2.48,5.71.53,3.28-.01,5.83-.8,9.16-3.1,13.47-2.55,10.33-3.55,14.72-.1.79-1.59,7.31-4.17,11-.62.87-1.57,1.99-2.98,2.25-.22-.03-1.34.19-2.36-.37-1.29-.75-1.67-2.33-1.79-3.15h-.07Z" />
        <circle cx="358.76" cy="54.43" r="6.15" transform="translate(117.82 325.76) rotate(-57.02)" />
        <path d="M381.91,49.57c1.45-6.82,2.93-9.84,2.93-9.84,3.7-7.33,2.08-6.01,6.68-15.27,3.7-7.33,4.96-8.63,6.67-9.44.39-.17,5.05-2.42,8.76-.05,2.03,1.28,2.71,3.34,2.99,4.03.21.68.83,2.66-.06,6.19-.85,3.25-2.43,5.31-4.45,8.04-8.26,11.06-6.53,8.36-9.19,12.04-.45.67-4.41,6-8.28,8.36-.94.54-2.19,1.18-3.61.85-.22-.03-1.34-.39-2.02-1.35-.87-1.2-.6-2.77-.42-3.56h0Z" />
        <circle cx="380.2" cy="62.48" r="6.15" transform="translate(120.84 347.42) rotate(-57.02)" />
        <path d="M400.08,69.1c4.67-5.17,7.46-7,7.46-7,6.84-4.46,4.84-4.2,13.43-9.82,6.85-4.53,8.58-4.96,10.54-4.86.43.05,5.64.42,7.55,4.32,1.05,2.1.7,4.25.53,5.03-.09.72-.64,2.76-3.15,5.29-2.34,2.33-4.74,3.41-7.9,4.76-12.72,5.39-9.84,3.93-14.01,5.73-.7.35-6.87,2.99-11.41,3.07-1.1,0-2.54-.1-3.51-1.1-.2-.17-.97-1-1.04-2.17-.1-1.47.93-2.73,1.44-3.32h.07s0,.08,0,.08Z" />
        <circle cx="392.05" cy="79.46" r="6.15" transform="translate(112 365.1) rotate(-57.02)" />
      </g>
      <g>
        <path d="M68.18,95.52c.25,1.04.61,3.38,2.27,2.98,1.04-.25,3.56-4.4,8.21-8.85,4.6-4.66,11.13-9.56,20.29-11.8,22.08-5.39,45.35,8.56,52.07,36.06,8.7,35.62-11.19,69.83-47.01,78.59-26.24,6.41-41.84-4.12-45.17-3.31s-5.9,4.75-12.78,6.43c-2.92.71-6.45.69-7.27-2.64s1.72-11.02-4.89-38.09l-13.54-55.4c-2.95-12.08-17.25-2.85-20.15-14.72-3.41-13.96,34.71-33.2,51.99-37.43,5.62-1.37,6.48,3.05,7.4,7.68l8.57,40.51ZM84.3,115.42c-9.16,2.24-8.37,9.99-6.64,17.07,9.87,40.41,12.98,43.18,21.31,41.15,13.75-3.36,12.22-19.54,9.62-30.16-2.39-9.79-10.54-31.42-24.29-28.06Z" />
        <path d="M173.56,112.51c-.2-6.66-2.66-9.87-9.49-9.22-2.56.24-9.08,1.94-9.44-1.9-1.6-16.86-3.06-18.66,3.3-19.7,2.54-.46,5.94-.99,5.59-4.62-.38-4.06-9.25-11.18-10.52-24.63-2.41-25.4,23.03-36.43,44.38-38.46,34.79-3.3,44.65,14.28,45.52,23.46.85,8.97-5.7,17.13-14.66,17.98-18.57,1.76-22.74-17.23-34.91-16.07-4.27.41-6.93,4.1-6.53,8.37,1.28,13.45,23.9,15.82,28.63,24.85.8,1.65,1.08,2.27,3.21,2.06,8.97-.85,20.91-4.35,21.09,2.09l.41,15.68c.09,3.22-2.22,3.87-5.21,4.16-12.59,1.2-14.75,1.18-13.41,15.27.57,5.98,1.92,13.39,3.94,18.79,5.06,12.44,19.56,4.17,20.82,17.41.49,5.12,1.05,15.62-46.98,20.18-10.25.97-37.8,3.37-39.22-11.57-1.13-11.95,14.33-7.82,13.95-20.92l-.48-23.21Z" />
        <path d="M353.56,68.79c-17.44-2.22-30.81,7.75-33.79,7.37-2.13-.27-1.96-3.28-1.77-4.76.59-4.68-.04-6.49-5.14-7.14-15.74-2-60.96,3.49-62.8,17.95-1.54,12.12,10.3,10.82,12.71,13.94.93,1.2,1.58,6.25-1.26,28.59l-1.49,11.7c-3,23.61-4.64,29.67-7.33,33.87-4.88,7.81-13.14,3.08-14.36,12.65-1.38,10.85,19.63,24.11,48.13,27.73,8.3,1.05,27.84,2.03,29.35-9.89,1.32-10.42-12.51-6.99-10.46-23.16.3-2.34,1.29-6.75,4.27-6.37,1.91.24,11.23,6.83,21.23,8.1,31.05,3.95,55.13-23.9,58.75-52.4,3.16-24.89-8.18-54.64-36.05-58.19ZM350.43,110.09c.92-2.81,2.67-5.72,5.01-8.07,1.02-1.02,2.06-1.84,3.09-2.48,1.7-1.05,3.4-1.6,4.9-1.62,1.6-.02,3,.55,4.01,1.71.3.35.56.75.78,1.2,1.01,2.1.93,4.95-.03,7.87-.92,2.81-2.66,5.72-5.01,8.07-1.01,1.01-2.06,1.84-3.09,2.48-1.7,1.05-3.39,1.6-4.9,1.61-1.61.02-3-.54-4.01-1.71-.3-.35-.56-.75-.78-1.19h0c-1.01-2.1-.93-4.95.03-7.87ZM333.46,103.77c.13-3.31,1.09-6.57,2.53-9.15,1.49-2.68,3.53-4.68,5.76-5.36.48-.15.95-.22,1.41-.24,1.54-.05,2.9.59,3.97,1.78,1.01,1.11,1.76,2.73,2.14,4.7.24,1.19.34,2.52.28,3.96-.13,3.31-1.09,6.57-2.53,9.15-1.5,2.69-3.53,4.69-5.76,5.36h0c-.47.14-.94.22-1.4.24-1.54.06-2.9-.59-3.98-1.78-1.01-1.12-1.76-2.74-2.14-4.7-.23-1.19-.33-2.52-.28-3.95ZM315.31,103.63c.61-2.31,1.83-4.2,3.51-5.13.37-.2.74-.35,1.12-.45,1.28-.34,2.58-.11,3.76.6,1.11.66,2.1,1.74,2.88,3.14.47.85.86,1.83,1.15,2.91.66,2.5.63,5.12.05,7.33-.6,2.31-1.83,4.2-3.51,5.13-.37.2-.74.35-1.12.46-1.28.34-2.58.11-3.77-.6-1.1-.66-2.1-1.73-2.88-3.14-.47-.85-.87-1.83-1.15-2.91-.66-2.5-.63-5.12-.06-7.33ZM354.72,147.21c-2.06,4.71-6.09,7.98-10.94,9.47-4.71,1.45-10.22,1.22-15.41-1.05-5.19-2.27-9.1-6.15-11.23-10.6-2.19-4.57-2.52-9.76-.47-14.46,2.06-4.71,6.09-7.98,10.94-9.48,4.71-1.45,10.22-1.21,15.41,1.06,5.19,2.27,9.1,6.15,11.24,10.6,2.19,4.57,2.52,9.76.46,14.46ZM375.61,130.4c-1.23,1.92-3.13,3.72-5.42,4.93-.99.52-1.97.9-2.92,1.13-1.56.38-3.02.38-4.26.02-1.32-.39-2.38-1.19-3-2.36-.18-.35-.32-.72-.42-1.13-.46-1.87.1-4.05,1.38-6.06,1.23-1.93,3.13-3.72,5.42-4.93.99-.52,1.97-.9,2.91-1.13,1.56-.38,3.03-.38,4.26-.02,1.32.39,2.38,1.19,2.99,2.36.19.34.33.72.43,1.13.46,1.87-.1,4.05-1.39,6.07Z" />
      </g>
    </g>
    </g>
  </g>
</svg>