<svg width="1622" height="285" viewBox="0 0 1622 285" fill="none" xmlns="http://www.w3.org/2000/svg">
<g clip-path="url(#clip0_1423_76)">
<path fill-rule="evenodd" clip-rule="evenodd" d="M830.3 16.45C830.3 7.38 837.68 0 846.75 0C855.82 0 863.2 7.38 863.2 16.45V266.51C863.2 275.58 855.82 282.96 846.75 282.96C837.68 282.96 830.3 275.58 830.3 266.51V16.45ZM646.77 0.0400391C637.7 0.0400391 630.32 7.42004 630.32 16.49V158.7C630.32 200.14 602.98 237.06 562.3 250.58C558.13 251.97 554.75 254.89 552.78 258.82C550.81 262.75 550.49 267.21 551.88 271.38C554.12 278.12 560.39 282.64 567.49 282.64C569.25 282.64 571 282.36 572.68 281.8C626.84 263.8 663.23 214.33 663.23 158.7V16.49C663.23 7.42004 655.85 0.0400391 646.78 0.0400391H646.77ZM428.86 158.66C428.86 199.89 455.79 236.85 495.88 250.64C500.03 252.07 503.38 255.03 505.31 258.98C507.23 262.93 507.51 267.39 506.08 271.55C503.8 278.19 497.55 282.65 490.53 282.65C488.71 282.65 486.91 282.34 485.18 281.75C431.81 263.39 395.96 213.93 395.96 158.66V16.8801C395.96 7.81005 403.34 0.430054 412.41 0.430054C421.48 0.430054 428.86 7.81005 428.86 16.8801V158.66ZM105.08 248.03C107.66 249.04 110.32 249.97 112.98 250.79V250.78C121.65 253.46 126.52 262.68 123.85 271.35C121.71 278.29 115.39 282.95 108.13 282.95C106.49 282.95 104.86 282.71 103.28 282.22C99.84 281.16 96.41 279.96 93.08 278.66C36.54 256.51 0 202.57 0 142.22C0 81.87 37.87 26.86 94.24 5.33999C96.99 4.28999 99.82 3.30999 102.64 2.41999C111.3 -0.290013 120.55 4.54999 123.26 13.2C125.97 21.85 121.14 31.1 112.48 33.81C110.3 34.5 108.11 35.26 105.98 36.07C62.27 52.76 32.9 95.11 32.9 142.22C32.9 189.33 61.23 230.86 105.08 248.03ZM235.88 64.25C231.66 64.25 227.64 62.65 224.57 59.74H224.58C212.84 48.62 199.19 40.29 184.02 34.98C179.87 33.53 176.54 30.55 174.63 26.59C172.72 22.63 172.47 18.17 173.92 14.02C175.37 9.87997 178.35 6.54997 182.31 4.63997C186.28 2.72997 190.74 2.47997 194.88 3.92997C214.46 10.78 232.06 21.52 247.19 35.85C250.38 38.87 252.2 42.96 252.32 47.35C252.44 51.74 250.84 55.92 247.82 59.11C244.73 62.38 240.38 64.25 235.88 64.25ZM226.8 222.54C215.63 233.72 202.54 242.29 187.91 248.02C183.82 249.62 180.6 252.72 178.84 256.75C177.08 260.78 177 265.25 178.6 269.34C181.09 275.69 187.1 279.79 193.92 279.79C195.98 279.79 198 279.41 199.92 278.65C218.79 271.25 235.67 260.2 250.07 245.8C256.48 239.39 256.48 228.95 250.07 222.53C243.66 216.12 233.22 216.12 226.81 222.53L226.8 222.54ZM953.98 0H919.07C910 0 902.62 7.38 902.62 16.45C902.62 25.52 910 32.9 919.07 32.9H953.98C1012.92 32.9 1060.87 80.85 1060.87 139.79V143.17C1060.87 202.11 1012.92 250.06 953.98 250.06H919.07C910 250.06 902.62 257.44 902.62 266.51C902.62 275.58 910 282.96 919.07 282.96H953.98C1031.06 282.96 1093.77 220.25 1093.77 143.17V139.79C1093.77 62.71 1031.06 0 953.98 0ZM1591.1 226.61C1595.51 218.69 1605.55 215.83 1613.47 220.24L1613.48 220.23C1621.4 224.64 1624.26 234.68 1619.85 242.6C1604.93 269.41 1573.01 284.18 1529.98 284.18C1480.16 284.18 1446.29 262.32 1434.62 222.63C1433.38 218.41 1433.86 213.97 1435.96 210.11C1438.06 206.26 1441.55 203.45 1445.76 202.21C1454.46 199.66 1463.62 204.65 1466.18 213.35C1473.38 237.81 1496.03 251.28 1529.98 251.28C1544.63 251.28 1557.94 249.07 1568.46 244.88C1579.09 240.64 1586.71 234.5 1591.1 226.61ZM1469.68 134.48C1486.77 145.04 1508.25 150.77 1525.51 155.36L1533.52 157.5L1533.6 157.52C1553.91 162.915 1576.91 169.026 1588.14 182C1591.27 185.62 1595.8 187.69 1600.59 187.69C1604.54 187.69 1608.36 186.27 1611.35 183.68C1618.21 177.75 1618.96 167.34 1613.03 160.48C1595.16 139.82 1566.91 132.32 1541.98 125.71L1533.99 123.58C1495.89 113.43 1470.92 104.96 1470.92 80.67C1470.92 68.15 1475.62 56.82 1484.15 48.76C1495.01 38.5 1511.55 33.3 1533.31 33.3C1577.78 33.3 1588.83 65.52 1589.27 66.87C1592 75.48 1601.24 80.29 1609.86 77.6C1618.51 74.89 1623.35 65.64 1620.64 56.96C1620.15 55.43 1615.51 41.58 1602.63 28.04C1590.63 15.43 1568.87 0.400024 1533.31 0.400024C1502.09 0.400024 1476.67 9.39002 1459.82 26.4C1445.76 40.59 1438.02 59.86 1438.02 80.67C1438.02 103.39 1448.67 121.5 1469.69 134.48H1469.68ZM1235.64 16.45C1235.64 7.38 1243.02 0 1252.09 0C1261.16 0 1268.54 7.38 1268.54 16.45V266.51C1268.54 275.58 1261.16 282.96 1252.09 282.96C1243.02 282.96 1235.64 275.58 1235.64 266.51V16.45Z" fill="white"/>
</g>
<defs>
<clipPath id="clip0_1423_76">
<rect width="1621.92" height="284.19" fill="white"/>
</clipPath>
</defs>
</svg>
