<?xml version="1.0" encoding="utf-8"?>
<!-- Generator: Adobe Illustrator 26.3.1, SVG Export Plug-In . SVG Version: 6.00 Build 0)  -->
<svg version="1.1" id="Layer_1" xmlns="http://www.w3.org/2000/svg" xmlns:xlink="http://www.w3.org/1999/xlink" x="0px" y="0px"
	 viewBox="0 0 1600 600" style="enable-background:new 0 0 1600 600;" xml:space="preserve">
<style type="text/css">
	.st0{fill:#FFFFFF;}
	.st1{fill:#030303;}
</style>
<g>
	<path class="st0" d="M749.69,555.58c-1.43,0-2.18-1.92-1.18-3.06l15.78-17.07c0.64-0.67,1.46-1.01,2.33-1.01h80.04
		c1.43,0,2.18,1.92,1.18,3.06l-15.78,17.08c-0.64,0.67-1.46,1.01-2.33,1.01H749.69z"/>
	<path class="st0" d="M749.69,492.2c-1.43,0-2.18-1.92-1.18-3.06l15.78-17.07c0.64-0.67,1.46-1.01,2.33-1.01h80.04
		c1.43,0,2.18,1.92,1.18,3.06l-15.78,17.08c-0.64,0.67-1.46,1.01-2.33,1.01H749.69z"/>
	<path class="st0" d="M829.65,502.57c0.9,0,1.69,0.34,2.33,1.01l15.86,17.08c1,1.17,0.23,3.06-1.2,3.06h-80.32
		c-0.9,0-1.69-0.34-2.33-1.01l-15.86-17.07c-1-1.17-0.23-3.06,1.2-3.06H829.65z"/>
	<path class="st0" d="M527.22,165.19c-19.48-10.24-42.02-15.31-67.51-15.31c-25.5,0-47.63,5.63-67.26,16.9
		c-19.68,11.26-34.93,27.03-45.79,47.26c-10.86,20.27-16.32,44.24-16.32,71.93c0,27.7,5.61,50.84,16.83,71.42
		c11.22,20.63,27.18,36.45,47.88,47.56c20.7,11.11,45.03,16.64,72.97,16.64c20.7,0,39.52-3.99,56.4-11.93
		c16.88-7.99,30.59-18.94,41.15-32.97c10.5-14.03,17.49-29.9,20.96-47.56h-56.4c-3.82,14.9-11.57,26.42-23.3,34.56
		c-11.73,8.14-26.21,12.19-43.44,12.19c-14.17,0-26.72-3.12-37.78-9.37c-11.06-6.25-19.68-15-25.85-26.21
		c-6.22-11.26-9.64-24.47-10.35-39.73v-3.12h199.73c0.36-3.48,0.61-7.01,0.77-10.65c0.15-3.63,0.25-7.01,0.25-10.14
		c-0.36-25.65-6.02-48.08-17.08-67.28c-11.06-19.2-26.31-33.95-45.79-44.19H527.22z M391.39,256.89
		c1.38-12.49,5.46-23.4,12.14-32.72c6.73-9.37,15.09-16.64,25.09-21.81c10-5.22,21.06-7.78,33.09-7.78
		c19.68,0,35.95,5.38,48.9,16.13c12.95,10.75,20.45,26.16,22.49,46.23H391.33L391.39,256.89z M804.21,165.19
		c-19.48-10.24-42.02-15.31-67.51-15.31c-25.49,0-47.63,5.63-67.26,16.9c-19.68,11.26-34.93,27.03-45.79,47.26
		c-10.86,20.27-16.32,44.24-16.32,71.93c0,27.7,5.61,50.84,16.83,71.42c11.22,20.63,27.18,36.45,47.88,47.56
		c20.7,11.11,45.02,16.64,72.97,16.64c20.7,0,39.52-3.99,56.39-11.93c16.88-7.99,30.6-18.94,41.15-32.97
		c10.5-14.03,17.5-29.9,20.96-47.56h-56.4c-3.82,14.9-11.57,26.42-23.3,34.56c-11.73,8.14-26.21,12.19-43.44,12.19
		c-14.18,0-26.72-3.12-37.78-9.37c-11.06-6.25-19.68-15-25.85-26.21c-6.22-11.26-9.64-24.47-10.35-39.73v-3.12h199.73
		c0.35-3.48,0.6-7.01,0.75-10.65c0.15-3.63,0.27-7.01,0.27-10.14c-0.36-25.65-6.02-48.08-17.09-67.28
		c-11.07-19.2-26.31-33.95-45.79-44.19H804.21z M668.37,256.89c1.38-12.49,5.46-23.4,12.14-32.72c6.73-9.37,15.09-16.64,25.09-21.81
		c9.99-5.22,21.06-7.78,33.09-7.78c19.68,0,35.95,5.38,48.9,16.13c12.95,10.75,20.45,26.16,22.49,46.23H668.32L668.37,256.89z
		 M1311.41,165.19c-19.47-10.24-42.02-15.31-67.51-15.31c-25.49,0-47.62,5.63-67.26,16.9c-19.68,11.26-34.93,27.03-45.79,47.26
		c-10.86,20.27-16.31,44.24-16.31,71.93c0,27.7,5.6,50.84,16.83,71.42c11.22,20.63,27.17,36.45,47.87,47.56
		c20.71,11.11,45.04,16.64,72.98,16.64c20.7,0,39.51-3.99,56.4-11.93c16.87-7.99,30.58-18.94,41.15-32.97
		c10.5-14.03,17.49-29.9,20.95-47.56h-56.4c-3.82,14.9-11.57,26.42-23.3,34.56c-11.73,8.14-26.21,12.19-43.44,12.19
		c-14.17,0-26.72-3.12-37.78-9.37c-11.07-6.25-19.69-15-25.86-26.21c-6.22-11.26-9.63-24.47-10.34-39.73v-3.12h199.72
		c0.36-3.48,0.61-7.01,0.77-10.65c0.15-3.63,0.25-7.01,0.25-10.14c-0.36-25.65-6.02-48.08-17.08-67.28
		c-11.07-19.2-26.32-33.95-45.79-44.19H1311.41z M1175.62,256.89c1.38-12.49,5.47-23.4,12.15-32.72
		c6.72-9.37,15.1-16.64,25.09-21.81c9.99-5.22,21.05-7.78,33.08-7.78c19.68,0,35.95,5.38,48.91,16.13
		c12.94,10.75,20.44,26.16,22.48,46.23h-141.75L1175.62,256.89z M1568.76,153.01v51.46h-113.46v214.06h-56.19V226.58
		c0-44.24,31.41-73.57,75.46-73.57H1568.76z M1024.28,284.44l124.16,133.53l-72.46,0.51l-98.11-108.59h-32.37v108.59h-56.4V44.42
		h56.4v213.55h33.35l97.13-107.57l72.46,0.51L1024.28,284.44z M294.86,255.36c10.86,13.88,16.32,32.05,16.32,54.58
		c0,21.15-5.76,40.19-17.34,57.14c-11.57,17-27.53,30.16-47.88,39.47c-20.35,9.37-43.44,14.03-69.35,14.03
		c-28.66,0-53.8-5.12-75.57-15.31c-21.72-10.19-38.65-24.68-50.69-43.37C38.27,343.21,31.9,321.91,31.24,298l57.98,0.51
		c1.73,21.5,10.5,38.81,26.41,51.97c15.86,13.16,36.41,19.76,61.6,19.76c22.08,0,39.93-4.66,53.54-14.03
		c13.61-9.37,20.45-22.68,20.45-39.99c0-12.13-3.82-21.81-11.37-29.08c-7.6-7.27-17.59-12.65-30.03-16.13
		c-12.44-3.48-30.54-7.42-54.31-11.93l-2.6-0.51c-22.44-3.79-41.91-9.17-58.49-16.13c-16.57-6.91-29.93-17.31-40.08-31.18
		c-10.2-13.82-15.25-31.85-15.25-54.01c0-20.79,5.46-39.32,16.32-55.6c10.86-16.28,26.11-28.93,45.79-37.94
		c19.68-9.01,41.91-13.52,66.75-13.52c24.83,0,49,4.76,69.35,14.28c20.35,9.52,36.41,22.84,48.14,39.99
		c11.73,17.15,17.95,36.61,18.61,58.47h-57.98c-2.4-18.69-10.71-33.69-24.83-44.95c-14.12-11.26-31.92-16.9-53.29-16.9
		c-21.37,0-38.29,4.5-50.69,13.52c-12.44,9.01-18.61,21.81-18.61,38.45c0,12.13,3.72,21.5,11.12,28.06
		c7.39,6.6,17.34,11.78,29.73,15.56c12.44,3.84,30.03,7.78,52.78,11.93h0.51c23.46,4.15,43.65,9.52,60.53,16.13
		c16.88,6.61,30.8,16.79,41.66,30.67L294.86,255.36z"/>
	<path class="st0" d="M415.96,488.5h11.34v46.96h28.75v10.18h-40.08V488.5z"/>
	<path class="st0" d="M486.56,488.5h20.35l19.02,57.13h-11.7l-4.73-14.2h-25.8l-4.73,14.2h-11.43L486.56,488.5z M506.2,521.62
		l-7.32-21.96h-4.64l-7.32,21.96H506.2z"/>
	<path class="st0" d="M539.75,488.5h19.46l20.53,44.54h1.43V488.5h11.16v57.13h-19.46l-20.62-44.54h-1.34v44.54h-11.16V488.5z"/>
	<path class="st0" d="M625.08,488.5h20.35l19.01,57.13h-11.7l-4.73-14.2h-25.8l-4.73,14.2h-11.43L625.08,488.5z M644.72,521.62
		l-7.32-21.96h-4.64l-7.32,21.96H644.72z"/>
	<path class="st0" d="M284.81,528.04h11.6c0.62,5,3.22,8.75,12.28,8.75h1.47c8.63,0,11.02-3.04,11.02-7.14
		c0-3.75-2.99-6.42-7.19-6.87l-12.14-1.83c-12.13-1.66-15.53-9.49-15.53-16.51c0-11.16,7.16-17.27,21.96-17.27
		c14.8,0,21.87,6.34,22.4,18.83h-11.51c-0.79-5.26-2.85-8.66-10.85-8.66h-0.98c-7.09,0-10.35,2.59-10.35,6.78
		c0,4.19,3.12,6.7,7.05,7.14l12.63,1.83c11.44,1.42,15.27,8.31,15.27,16.43c0,11.25-6.25,17.45-23.48,17.45
		C292.75,546.97,285.08,540.55,284.81,528.04L284.81,528.04z"/>
	<path class="st0" d="M351.01,495.16c5.25-5.36,12.33-8,21.32-8c8.99,0,16.08,2.72,21.24,8.08c5.25,5.36,7.83,12.63,7.83,21.91
		c0,9.27-2.58,16.55-7.75,21.91c-5.16,5.28-12.25,7.92-21.32,7.92c-9.08,0-16.16-2.64-21.32-7.92c-5.16-5.36-7.75-12.63-7.75-21.91
		C343.26,507.87,345.85,500.51,351.01,495.16z M355.5,520.97c0,10.03,6.62,15.85,16.83,15.85s16.75-6.12,16.75-15.85v-7.89
		c0-10.03-6.54-15.77-16.75-15.77s-16.83,6.2-16.83,15.77V520.97z"/>
	<path class="st0" d="M1145.13,535.63h11.25V498.5h-11.25v-10h33.84v10h-11.34v37.14h11.34v10h-33.84V535.63z"/>
	<path class="st0" d="M1195.23,488.5h11.34v46.96h28.75v10.18h-40.09V488.5z"/>
	<path class="st0" d="M1249.75,488.5h41.86v9.64h-30.61v13.48h28.39v9.46h-28.39v14.91h31.06v9.64h-42.31V488.5z"/>
	<path class="st0" d="M979.47,488.5l-10.09,43.83h-0.73h-0.74l-10.09-43.83h-20.97v57.13h11.15L947.46,501h2.6l10.27,44.63h8.32
		h8.32L987.24,501h2.6l-0.54,44.63h11.15V488.5H979.47z"/>
	<path class="st0" d="M1121.79,514.92v-0.35c5.37-2.32,8.04-6.79,8.04-12.05c0-8.21-6.07-14.02-17.32-14.02h-26.33v57.13h27.68
		c12.23,0,18.48-7.41,18.48-16.43C1132.33,522.33,1128.49,517.33,1121.79,514.92z M1097.43,497.42h15.56c3.14,0,5.69,2.54,5.69,5.68
		v2.65c0,3.14-2.54,5.68-5.69,5.68h-15.56V497.42z M1121.08,530.48c0,3.49-2.82,6.33-6.32,6.33h-17.33V520.1h17.33
		c3.49,0,6.32,2.83,6.32,6.33V530.48z"/>
	<path class="st0" d="M1021.22,495.16c5.26-5.36,12.33-8,21.33-8c8.99,0,16.07,2.72,21.23,8.08c5.26,5.36,7.84,12.63,7.84,21.91
		c0,9.27-2.59,16.55-7.76,21.91c-5.16,5.28-12.24,7.92-21.32,7.92c-9.09,0-16.16-2.64-21.33-7.92c-5.16-5.36-7.74-12.63-7.74-21.91
		C1013.48,507.87,1016.06,500.51,1021.22,495.16z M1025.72,520.97c0,10.03,6.63,15.85,16.83,15.85c10.2,0,16.74-6.12,16.74-15.85
		v-7.89c0-10.03-6.54-15.77-16.74-15.77c-10.2,0-16.83,6.2-16.83,15.77V520.97z"/>
</g>
</svg>
