<?xml version="1.0" encoding="UTF-8"?><svg id="Layer_1" xmlns="http://www.w3.org/2000/svg" viewBox="0 0 724.84 203.7"><defs><style>.cls-1{fill:#fff;}</style></defs><polygon class="cls-1" points="0 67.47 0 88.02 117.21 88.84 226.26 96.18 226.26 75.64 127.03 57.72 0 67.47"/><polygon class="cls-1" points="0 107.52 0 126.83 99.07 146.34 226.26 135 226.26 115.68 109 114.86 0 107.52"/><polygon class="cls-1" points="0 146.34 0 166.94 80.97 203.7 226.26 175.1 226.26 154.5 90.88 172.29 0 146.34"/><polygon class="cls-1" points="226.26 56.14 226.26 36.76 145.25 0 0 28.6 0 47.97 135.34 31.41 226.26 56.14"/><path class="cls-1" d="M296.27,88.82c-1.93.68-4.46,1.02-7.58,1.02-3.69,0-7.3-.62-10.82-1.87-3.52-1.25-6.47-2.81-8.86-4.68l-3.83,8.6c2.55,2.1,5.95,3.82,10.18,5.15,4.23,1.33,8.67,2,13.33,2,5.45,0,9.97-.81,13.54-2.43,3.58-1.62,6.23-3.78,7.96-6.47,1.73-2.7,2.6-5.63,2.6-8.82s-.64-5.69-1.92-7.71c-1.28-2.02-2.97-3.63-5.07-4.85-2.1-1.22-4.4-2.21-6.9-2.98-2.5-.77-5.03-1.43-7.58-2-2.55-.57-4.87-1.16-6.94-1.79-2.07-.62-3.75-1.49-5.03-2.6-1.28-1.11-1.92-2.57-1.92-4.39,0-1.48.44-2.82,1.32-4.05.88-1.22,2.28-2.2,4.22-2.94,1.93-.74,4.4-1.11,7.41-1.11,2.61,0,5.34.38,8.18,1.15,2.84.77,5.59,1.95,8.26,3.53l3.49-8.6c-2.61-1.7-5.68-3.01-9.2-3.92-3.52-.91-7.07-1.36-10.65-1.36-5.45,0-9.95.81-13.5,2.43-3.55,1.62-6.19,3.78-7.92,6.47-1.73,2.7-2.6,5.66-2.6,8.9s.64,5.79,1.92,7.84,2.97,3.68,5.07,4.9c2.1,1.22,4.41,2.23,6.94,3.02,2.53.8,5.05,1.46,7.58,2,2.53.54,4.83,1.14,6.9,1.79,2.07.65,3.76,1.53,5.07,2.64,1.31,1.11,1.96,2.57,1.96,4.39,0,1.48-.46,2.8-1.36,3.96-.91,1.16-2.33,2.09-4.26,2.77Z"/><polygon class="cls-1" points="335.02 98.19 346.1 98.19 346.1 47.93 365.85 47.93 365.85 38.56 315.26 38.56 315.26 47.93 335.02 47.93 335.02 98.19"/><path class="cls-1" d="M409.86,84.39l5.9,13.8h11.67l-26.91-59.62h-10.9l-26.83,59.62h11.33l5.93-13.8h29.82ZM394.98,49.61l11.17,26.09h-22.37l11.21-26.09Z"/><polygon class="cls-1" points="446.09 82.84 455.54 73.24 476.58 98.19 489.61 98.19 462.92 65.2 487.99 38.56 475.47 38.56 446.09 69.15 446.09 38.56 435.01 38.56 435.01 98.19 446.09 98.19 446.09 82.84"/><rect class="cls-1" x="497.1" y="38.56" width="11.07" height="59.62"/><polygon class="cls-1" points="568.05 98.19 577.16 98.19 577.16 38.56 566.26 38.56 566.26 79 533.39 38.56 524.27 38.56 524.27 98.19 535.26 98.19 535.26 57.76 568.05 98.19"/><path class="cls-1" d="M644.37,91.46v-23.68h-10.39v18.45c-1.21.7-2.44,1.27-3.71,1.7-2.75.94-5.61,1.4-8.56,1.4-3.18,0-6.08-.51-8.69-1.53-2.61-1.02-4.88-2.47-6.81-4.34-1.93-1.87-3.44-4.1-4.51-6.69-1.08-2.58-1.62-5.38-1.62-8.39s.54-5.88,1.62-8.43c1.08-2.56,2.58-4.77,4.51-6.64,1.93-1.87,4.22-3.32,6.86-4.34,2.64-1.02,5.55-1.53,8.73-1.53s6.2.55,8.9,1.66c2.7,1.11,5.21,2.83,7.54,5.15l6.98-6.81c-2.78-3.18-6.2-5.59-10.26-7.24-4.06-1.65-8.59-2.47-13.58-2.47s-9.1.75-12.99,2.26c-3.89,1.51-7.3,3.65-10.22,6.43-2.92,2.78-5.18,6.02-6.77,9.71-1.59,3.69-2.39,7.78-2.39,12.26s.8,8.57,2.39,12.27c1.59,3.69,3.83,6.93,6.73,9.71,2.9,2.78,6.29,4.93,10.18,6.43,3.89,1.5,8.16,2.26,12.82,2.26,4.26,0,8.43-.64,12.52-1.92,4.09-1.28,7.67-3.16,10.73-5.66Z"/><polygon class="cls-1" points="275.91 124.18 308.36 124.18 308.36 114.81 264.83 114.81 264.83 174.44 275.91 174.44 275.91 151.52 304.69 151.52 304.69 142.33 275.91 142.33 275.91 124.18"/><path class="cls-1" d="M334.93,114.81l-26.83,59.62h11.33l5.93-13.8h29.82l5.9,13.8h11.67l-26.91-59.62h-10.9ZM329.09,151.95l11.21-26.09,11.16,26.09h-22.37Z"/><path class="cls-1" d="M392.38,129.55c1.9-1.87,4.14-3.32,6.73-4.34,2.58-1.02,5.44-1.53,8.56-1.53s5.93.58,8.6,1.75c2.67,1.16,5.11,2.91,7.32,5.24l7.15-6.73c-2.78-3.29-6.19-5.78-10.22-7.45-4.03-1.67-8.49-2.51-13.37-2.51-4.6,0-8.83.75-12.69,2.26-3.86,1.51-7.24,3.65-10.14,6.43-2.9,2.78-5.14,6.02-6.73,9.71-1.59,3.69-2.39,7.78-2.39,12.26s.8,8.58,2.39,12.27c1.59,3.69,3.82,6.93,6.69,9.71,2.87,2.78,6.23,4.93,10.09,6.43,3.86,1.5,8.09,2.26,12.69,2.26,4.94,0,9.43-.85,13.46-2.55,4.03-1.7,7.44-4.2,10.22-7.5l-7.15-6.73c-2.21,2.38-4.66,4.16-7.32,5.32-2.67,1.16-5.54,1.75-8.6,1.75s-5.98-.51-8.56-1.53c-2.58-1.02-4.83-2.47-6.73-4.34-1.9-1.87-3.39-4.09-4.47-6.64-1.08-2.56-1.62-5.37-1.62-8.43s.54-5.88,1.62-8.43c1.08-2.56,2.57-4.77,4.47-6.64Z"/><rect class="cls-1" x="441.39" y="114.81" width="11.07" height="59.62"/><polygon class="cls-1" points="479.64 114.81 468.56 114.81 468.56 174.44 510.81 174.44 510.81 165.07 479.64 165.07 479.64 114.81"/><rect class="cls-1" x="519.58" y="114.81" width="11.07" height="59.62"/><polygon class="cls-1" points="539.08 124.18 558.84 124.18 558.84 174.44 569.92 174.44 569.92 124.18 589.68 124.18 589.68 114.81 539.08 114.81 539.08 124.18"/><rect class="cls-1" x="598.02" y="114.81" width="11.07" height="59.62"/><polygon class="cls-1" points="636.26 148.71 665.05 148.71 665.05 139.6 636.26 139.6 636.26 124.18 668.72 124.18 668.72 114.81 625.19 114.81 625.19 174.44 669.91 174.44 669.91 165.07 636.26 165.07 636.26 148.71"/><path class="cls-1" d="M722.93,149.86c-1.28-2.01-2.97-3.63-5.07-4.85-2.1-1.22-4.4-2.21-6.9-2.98-2.5-.77-5.03-1.43-7.58-2-2.55-.57-4.87-1.16-6.94-1.79-2.07-.62-3.75-1.49-5.03-2.6-1.28-1.11-1.92-2.57-1.92-4.39,0-1.48.44-2.82,1.32-4.05.88-1.22,2.28-2.2,4.22-2.94,1.93-.74,4.4-1.11,7.41-1.11,2.61,0,5.34.38,8.18,1.15,2.84.77,5.59,1.95,8.26,3.53l3.49-8.6c-2.61-1.7-5.68-3.01-9.2-3.92-3.52-.91-7.07-1.36-10.65-1.36-5.45,0-9.95.81-13.5,2.43-3.55,1.62-6.19,3.78-7.92,6.47-1.73,2.7-2.6,5.66-2.6,8.9s.64,5.79,1.92,7.83c1.28,2.04,2.97,3.68,5.07,4.9,2.1,1.22,4.41,2.23,6.94,3.02,2.53.8,5.05,1.46,7.58,2,2.53.54,4.83,1.14,6.9,1.79,2.07.65,3.76,1.53,5.07,2.64,1.31,1.11,1.96,2.57,1.96,4.39,0,1.48-.46,2.8-1.36,3.96-.91,1.16-2.33,2.09-4.26,2.77-1.93.68-4.46,1.02-7.58,1.02-3.69,0-7.3-.62-10.82-1.87-3.52-1.25-6.47-2.81-8.86-4.68l-3.83,8.6c2.55,2.1,5.95,3.82,10.18,5.15,4.23,1.33,8.67,2,13.33,2,5.45,0,9.97-.81,13.54-2.43,3.58-1.62,6.23-3.78,7.96-6.47,1.73-2.7,2.6-5.63,2.6-8.82s-.64-5.69-1.92-7.71Z"/></svg>