<svg width="101" height="65" viewBox="0 0 101 65" fill="none" xmlns="http://www.w3.org/2000/svg">
<g id="Group 55">
<path id="Exclude" fill-rule="evenodd" clip-rule="evenodd" d="M8.17641 11.1094C8.86638 11.3941 9.60809 11.5407 10.393 11.5407C10.9967 11.5407 11.5487 11.489 12.0403 11.3596C12.5319 11.2302 12.9631 11.0576 13.3598 10.8334C13.7566 10.6091 14.1016 10.3504 14.412 10.0399C14.7225 9.72941 15.0071 9.40158 15.2659 9.03935L12.9717 7.39189C12.8079 7.59035 12.6354 7.77141 12.4629 7.93528C12.2904 8.09924 12.1007 8.24581 11.9109 8.36659C11.7125 8.48736 11.4969 8.58225 11.2641 8.64263C11.0312 8.70292 10.7725 8.73751 10.4878 8.73751C10.0997 8.73751 9.74609 8.65983 9.42698 8.50456C9.10787 8.34929 8.83188 8.14233 8.59901 7.87489C8.36615 7.61614 8.18503 7.29701 8.05566 6.93478C7.92629 6.57255 7.85729 6.18433 7.85729 5.77032V5.73582C7.85729 5.33909 7.92629 4.95957 8.05566 4.59731C8.18503 4.24367 8.36615 3.93315 8.59901 3.66577C8.83188 3.39839 9.10787 3.19137 9.42698 3.03612C9.74609 2.88086 10.0997 2.80324 10.4878 2.80324C11.0226 2.80324 11.4711 2.91537 11.8505 3.14825C12.23 3.38113 12.575 3.69165 12.8855 4.09704L15.1796 2.30296C14.9382 1.96658 14.6622 1.65606 14.3517 1.37143C14.0412 1.08679 13.6962 0.845288 13.3167 0.63828C12.9286 0.431262 12.506 0.276014 12.0489 0.163886C11.5918 0.0517492 11.0829 0 10.5137 0C9.67709 0 8.9095 0.14663 8.20228 0.43989C7.49506 0.733151 6.88271 1.13855 6.37386 1.66469C5.86501 2.18222 5.45965 2.80324 5.16641 3.50189C4.87318 4.20916 4.72656 4.95957 4.72656 5.76172V5.79621C4.72656 6.62424 4.87317 7.39189 5.17504 8.09055C5.46827 8.7892 5.87363 9.40158 6.38248 9.91048C6.88271 10.4281 7.48644 10.8248 8.17641 11.1094ZM19.9301 0.223921H16.5234L20.9823 11.4023H23.8112L28.2701 0.223921H24.9237L22.4226 7.24497L19.9301 0.223921Z" fill="white"/>
<path id="Exclude_2" fill-rule="evenodd" clip-rule="evenodd" d="M101 15.5337H0V65.0001H101V15.5337ZM16.2812 32.1733H20.6798V44.3178H28.3729V48.2165H16.2812V32.1733ZM42.2355 32.0614H37.9922L31.2305 48.2167H35.8619L37.0003 45.3531H43.1238L44.2795 48.2167H48.9972L42.2355 32.0614ZM40.0793 37.3487L41.8474 41.9116H38.294L40.0793 37.3487ZM52.7812 32.1733H60.9142C61.9147 32.1733 62.7599 32.294 63.4757 32.5356C64.1831 32.7771 64.7782 33.1393 65.2439 33.6137C65.563 33.9329 65.813 34.3124 65.9941 34.735C66.1752 35.1663 66.2701 35.6493 66.2701 36.2013V36.2445C66.2701 37.176 66.0373 37.9264 65.5801 38.5043C65.123 39.0735 64.5367 39.5134 63.8293 39.824C64.8039 40.1431 65.5715 40.6089 66.1407 41.2127C66.71 41.8165 66.9947 42.6617 66.9947 43.7485V43.7917C66.9947 45.1803 66.4686 46.2671 65.4164 47.0434C64.3642 47.8197 62.8894 48.2078 60.9832 48.2078H52.7812V32.1733ZM59.8363 38.5646C60.5176 38.5646 61.035 38.4526 61.3886 38.2197C61.7422 37.9868 61.9234 37.6417 61.9234 37.1674V37.1242C61.9234 36.6843 61.7594 36.3394 61.4231 36.1064C61.0868 35.8736 60.5951 35.7528 59.9225 35.7528H57.0677V38.5733H59.8363V38.5646ZM60.4744 44.6369C61.1558 44.6369 61.6732 44.5075 62.0354 44.2574C62.3978 44.0072 62.5788 43.645 62.5788 43.1706V43.1275C62.5788 42.6876 62.4064 42.334 62.0614 42.0752C61.7164 41.8165 61.173 41.687 60.4314 41.687H57.0764V44.6369H60.4744ZM73.4364 47.8274C74.7128 48.2672 76.0583 48.4915 77.4813 48.4915C78.4473 48.4915 79.327 48.3708 80.0946 48.1465C80.8794 47.9136 81.5521 47.5686 82.1127 47.12C82.6733 46.6629 83.1046 46.1195 83.4151 45.4813C83.7256 44.8344 83.8808 44.1012 83.8808 43.2818V43.2387C83.8808 42.4883 83.7514 41.8414 83.4754 41.3066C83.1995 40.7718 82.8113 40.306 82.2939 39.9266C81.7764 39.5471 81.1554 39.2192 80.4223 38.9519C79.6892 38.6845 78.8699 38.4516 77.9643 38.2532C77.421 38.1325 76.9725 38.0117 76.6189 37.8996C76.2653 37.7874 75.9893 37.6667 75.7823 37.5546C75.5753 37.4425 75.4373 37.313 75.351 37.175C75.2734 37.0371 75.2303 36.8732 75.2303 36.692V36.649C75.2303 36.3556 75.3597 36.1142 75.627 35.9158C75.8944 35.726 76.2911 35.6225 76.8172 35.6225C77.5244 35.6225 78.2575 35.7518 79.0251 36.0193C79.7841 36.2866 80.5344 36.6834 81.2589 37.2009L83.4582 34.0527C82.5957 33.3454 81.6384 32.8106 80.5689 32.4484C79.5081 32.0861 78.292 31.905 76.9293 31.905C75.9806 31.905 75.1268 32.0344 74.3678 32.2845C73.6089 32.5346 72.962 32.8882 72.4273 33.3454C71.8926 33.8025 71.4786 34.3459 71.2026 34.967C70.918 35.5967 70.78 36.278 70.78 37.0285V37.0716C70.78 37.891 70.9352 38.5897 71.2457 39.1416C71.5562 39.7022 71.9788 40.168 72.5135 40.539C73.0569 40.9098 73.6865 41.2203 74.411 41.4532C75.144 41.6947 75.9289 41.9104 76.7741 42.1087C77.3175 42.2295 77.7659 42.3503 78.1023 42.4624C78.4473 42.5745 78.7146 42.6953 78.9216 42.816C79.1286 42.9368 79.2666 43.0662 79.3442 43.1955C79.4219 43.3249 79.4564 43.4802 79.4564 43.644V43.6872C79.4564 44.0408 79.3011 44.3082 78.9906 44.498C78.6888 44.6877 78.2317 44.7826 77.6452 44.7826C75.7995 44.7826 74.0832 44.1443 72.4963 42.8592L70.0469 45.8177C71.0301 46.7147 72.1599 47.3789 73.4364 47.8274Z" fill="white"/>
</g>
</svg>
