<svg width="222" height="69" viewBox="0 0 222 69" fill="none" xmlns="http://www.w3.org/2000/svg">
<path d="M79.13 47.36C77.45 47.36 76.12 47.01 75.14 46.31C74.18 45.61 73.49 44.63 73.07 43.37C72.67 42.09 72.47 40.62 72.47 38.96V30.8C72.47 29.08 72.69 27.59 73.13 26.33C73.57 25.07 74.32 24.1 75.38 23.42C76.46 22.72 77.92 22.37 79.76 22.37C81.56 22.37 82.97 22.67 83.99 23.27C85.03 23.87 85.77 24.7 86.21 25.76C86.65 26.82 86.87 28.06 86.87 29.48V31.04H81.62V29.06C81.62 28.54 81.58 28.06 81.5 27.62C81.44 27.18 81.28 26.83 81.02 26.57C80.78 26.29 80.38 26.15 79.82 26.15C79.24 26.15 78.82 26.31 78.56 26.63C78.3 26.93 78.13 27.31 78.05 27.77C77.99 28.23 77.96 28.71 77.96 29.21V40.46C77.96 41 78.01 41.51 78.11 41.99C78.23 42.45 78.43 42.83 78.71 43.13C79.01 43.41 79.43 43.55 79.97 43.55C80.53 43.55 80.96 43.4 81.26 43.1C81.56 42.8 81.77 42.41 81.89 41.93C82.01 41.45 82.07 40.94 82.07 40.4V37.55H79.88V34.4H86.9V47H83.36L83.06 44.99C82.74 45.67 82.27 46.24 81.65 46.7C81.03 47.14 80.19 47.36 79.13 47.36ZM89.6909 47V43.46L95.5109 34.52C95.9509 33.86 96.3609 33.22 96.7409 32.6C97.1409 31.98 97.4609 31.35 97.7009 30.71C97.9609 30.07 98.0909 29.4 98.0909 28.7C98.0909 28 97.9509 27.48 97.6709 27.14C97.3909 26.8 97.0109 26.63 96.5309 26.63C95.9909 26.63 95.5709 26.78 95.2709 27.08C94.9709 27.38 94.7609 27.78 94.6409 28.28C94.5409 28.78 94.4909 29.34 94.4909 29.96V31.16H89.6309V29.87C89.6309 28.43 89.8609 27.15 90.3209 26.03C90.7809 24.89 91.5109 24 92.5109 23.36C93.5109 22.7 94.8209 22.37 96.4409 22.37C98.6209 22.37 100.261 22.94 101.361 24.08C102.481 25.2 103.041 26.77 103.041 28.79C103.041 29.77 102.881 30.68 102.561 31.52C102.261 32.36 101.851 33.18 101.331 33.98C100.831 34.76 100.291 35.58 99.7109 36.44L95.2709 43.07H102.381V47H89.6909ZM113.347 47V22.7H124.267V26.36H118.717V32.39H122.947V36.11H118.717V43.37H124.327V47H113.347ZM133.215 47.36C131.695 47.36 130.425 47.09 129.405 46.55C128.385 46.01 127.615 45.18 127.095 44.06C126.575 42.92 126.285 41.45 126.225 39.65L130.815 38.96C130.835 40 130.925 40.84 131.085 41.48C131.265 42.12 131.505 42.58 131.805 42.86C132.125 43.14 132.505 43.28 132.945 43.28C133.505 43.28 133.865 43.09 134.025 42.71C134.205 42.33 134.295 41.93 134.295 41.51C134.295 40.51 134.055 39.67 133.575 38.99C133.095 38.29 132.445 37.59 131.625 36.89L129.525 35.06C128.605 34.28 127.825 33.4 127.185 32.42C126.565 31.42 126.255 30.19 126.255 28.73C126.255 26.67 126.865 25.1 128.085 24.02C129.305 22.92 130.965 22.37 133.065 22.37C134.365 22.37 135.405 22.59 136.185 23.03C136.985 23.47 137.585 24.05 137.985 24.77C138.405 25.47 138.685 26.22 138.825 27.02C138.985 27.8 139.075 28.55 139.095 29.27L134.475 29.84C134.455 29.12 134.405 28.5 134.325 27.98C134.265 27.44 134.125 27.03 133.905 26.75C133.685 26.45 133.345 26.3 132.885 26.3C132.385 26.3 132.015 26.51 131.775 26.93C131.555 27.35 131.445 27.77 131.445 28.19C131.445 29.09 131.655 29.83 132.075 30.41C132.515 30.97 133.085 31.56 133.785 32.18L135.795 33.95C136.855 34.85 137.745 35.87 138.465 37.01C139.205 38.15 139.575 39.56 139.575 41.24C139.575 42.38 139.315 43.42 138.795 44.36C138.275 45.28 137.535 46.01 136.575 46.55C135.635 47.09 134.515 47.36 133.215 47.36ZM142.175 47V22.7H150.335C151.795 22.7 152.995 22.98 153.935 23.54C154.875 24.08 155.575 24.88 156.035 25.94C156.495 26.98 156.725 28.25 156.725 29.75C156.725 31.63 156.415 33.07 155.795 34.07C155.175 35.05 154.335 35.73 153.275 36.11C152.215 36.49 151.025 36.68 149.705 36.68H147.545V47H142.175ZM147.545 32.93H149.345C150.005 32.93 150.505 32.81 150.845 32.57C151.185 32.33 151.405 31.97 151.505 31.49C151.625 31.01 151.685 30.4 151.685 29.66C151.685 29.04 151.635 28.5 151.535 28.04C151.455 27.56 151.245 27.18 150.905 26.9C150.565 26.62 150.035 26.48 149.315 26.48H147.545V32.93ZM166.274 47.36C164.454 47.36 163.014 47.04 161.954 46.4C160.894 45.76 160.134 44.84 159.674 43.64C159.214 42.44 158.984 41.01 158.984 39.35V30.32C158.984 28.64 159.214 27.21 159.674 26.03C160.134 24.85 160.894 23.95 161.954 23.33C163.014 22.69 164.454 22.37 166.274 22.37C168.114 22.37 169.564 22.69 170.624 23.33C171.704 23.95 172.474 24.85 172.934 26.03C173.394 27.21 173.624 28.64 173.624 30.32V39.35C173.624 41.01 173.394 42.44 172.934 43.64C172.474 44.84 171.704 45.76 170.624 46.4C169.564 47.04 168.114 47.36 166.274 47.36ZM166.274 43.55C166.834 43.55 167.244 43.41 167.504 43.13C167.764 42.85 167.934 42.49 168.014 42.05C168.094 41.61 168.134 41.16 168.134 40.7V29C168.134 28.52 168.094 28.07 168.014 27.65C167.934 27.21 167.764 26.85 167.504 26.57C167.244 26.29 166.834 26.15 166.274 26.15C165.754 26.15 165.364 26.29 165.104 26.57C164.844 26.85 164.674 27.21 164.594 27.65C164.514 28.07 164.474 28.52 164.474 29V40.7C164.474 41.16 164.504 41.61 164.564 42.05C164.644 42.49 164.804 42.85 165.044 43.13C165.304 43.41 165.714 43.55 166.274 43.55ZM176.892 47V22.7H183.582C185.222 22.7 186.642 22.88 187.842 23.24C189.042 23.6 189.972 24.25 190.632 25.19C191.312 26.11 191.652 27.42 191.652 29.12C191.652 30.12 191.572 31.01 191.412 31.79C191.252 32.57 190.952 33.25 190.512 33.83C190.092 34.39 189.482 34.86 188.682 35.24L192.012 47H186.462L183.792 36.11H182.262V47H176.892ZM182.262 33.02H183.762C184.522 33.02 185.112 32.89 185.532 32.63C185.952 32.35 186.242 31.96 186.402 31.46C186.582 30.94 186.672 30.32 186.672 29.6C186.672 28.56 186.482 27.75 186.102 27.17C185.722 26.59 185.022 26.3 184.002 26.3H182.262V33.02ZM196.836 47V26.69H193.176V22.7H205.866V26.69H202.236V47H196.836ZM214.455 47.36C212.935 47.36 211.665 47.09 210.645 46.55C209.625 46.01 208.855 45.18 208.335 44.06C207.815 42.92 207.525 41.45 207.465 39.65L212.055 38.96C212.075 40 212.165 40.84 212.325 41.48C212.505 42.12 212.745 42.58 213.045 42.86C213.365 43.14 213.745 43.28 214.185 43.28C214.745 43.28 215.105 43.09 215.265 42.71C215.445 42.33 215.535 41.93 215.535 41.51C215.535 40.51 215.295 39.67 214.815 38.99C214.335 38.29 213.685 37.59 212.865 36.89L210.765 35.06C209.845 34.28 209.065 33.4 208.425 32.42C207.805 31.42 207.495 30.19 207.495 28.73C207.495 26.67 208.105 25.1 209.325 24.02C210.545 22.92 212.205 22.37 214.305 22.37C215.605 22.37 216.645 22.59 217.425 23.03C218.225 23.47 218.825 24.05 219.225 24.77C219.645 25.47 219.925 26.22 220.065 27.02C220.225 27.8 220.315 28.55 220.335 29.27L215.715 29.84C215.695 29.12 215.645 28.5 215.565 27.98C215.505 27.44 215.365 27.03 215.145 26.75C214.925 26.45 214.585 26.3 214.125 26.3C213.625 26.3 213.255 26.51 213.015 26.93C212.795 27.35 212.685 27.77 212.685 28.19C212.685 29.09 212.895 29.83 213.315 30.41C213.755 30.97 214.325 31.56 215.025 32.18L217.035 33.95C218.095 34.85 218.985 35.87 219.705 37.01C220.445 38.15 220.815 39.56 220.815 41.24C220.815 42.38 220.555 43.42 220.035 44.36C219.515 45.28 218.775 46.01 217.815 46.55C216.875 47.09 215.755 47.36 214.455 47.36Z" fill="#EDEBEB"/>
<g clip-path="url(#clip0_374_5379)">
<path fill-rule="evenodd" clip-rule="evenodd" d="M22.6311 62.9033C24.1628 64.1159 27.2822 66.4549 29.6358 68.1559L29.9949 68.4154L30.0993 68.3424C30.1567 68.3022 30.5745 67.9989 31.0277 67.6683C34.5593 65.0921 37.355 62.9597 38.599 61.8934C41.442 59.4563 45.3799 55.793 46.9859 54.0913C48.3503 52.6455 50.7653 49.788 52.9762 47.0033C54.6072 44.9491 55.2877 43.9972 56.6335 41.8871C57.4817 40.5573 59.3846 37.468 59.4094 37.3808C59.4156 37.3591 58.9725 37.0131 58.4249 36.6119C54.8198 33.971 54.1772 33.4283 53.1743 32.1784C52.3753 31.1825 51.2582 29.4636 50.9543 28.7624C50.6043 27.955 50.0745 25.9841 49.6674 23.9752C49.6505 23.8918 49.6841 23.8603 50.0992 23.5704C51.2758 22.7485 52.5077 21.7275 53.2508 20.9584C53.8904 20.2965 55.1468 18.7448 55.5389 18.1325L55.5977 18.0406L55.4836 18.0211C55.4207 18.0106 54.705 17.917 53.8931 17.8132C52.1156 17.5859 49.4518 17.2087 48.9411 17.1118C48.048 16.9425 47.0331 16.6501 46.1683 16.3131C45.7687 16.1573 44.6494 15.623 44.5299 15.5309C44.4743 15.4881 44.4756 15.4626 44.5527 15.0957C44.7049 14.371 44.7263 14.111 44.7237 13.0321C44.7191 11.2753 44.5912 10.3289 44.156 8.83051C43.6489 7.08465 43.1526 5.9871 42.2872 4.69727C41.1355 2.98088 39.862 1.78541 38.4003 1.04859C38.0077 0.850659 37.3008 0.560707 37.2763 0.587694C37.271 0.593489 37.1472 0.851852 37.0011 1.16184C36.0772 3.12213 35.3615 4.37706 34.7023 5.19258C33.5575 6.60894 32.3821 7.41115 30.6758 7.94066C30.0903 8.12236 30.0194 8.13319 29.7922 8.07568C28.8718 7.84262 27.8495 7.40571 27.1653 6.95295C26.7429 6.67349 26.1549 6.16914 25.8049 5.7862C24.8235 4.71231 24.1297 3.57086 22.9943 1.16184C22.8482 0.851852 22.7244 0.593445 22.7191 0.587694C22.6948 0.560973 21.9891 0.849994 21.6034 1.04465C20.1267 1.79006 18.8652 2.973 17.7082 4.69727C16.7621 6.10739 16.1603 7.51525 15.6638 9.47987C15.3709 10.639 15.2773 11.4843 15.2724 13.015C15.2689 14.1129 15.2897 14.3675 15.4427 15.0957C15.5198 15.4626 15.5211 15.488 15.4655 15.5309C15.346 15.623 14.2267 16.1573 13.8271 16.3131C12.9623 16.6501 11.9474 16.9425 11.0543 17.1118C10.5436 17.2087 7.87983 17.5859 6.10233 17.8132C5.29038 17.917 4.57465 18.0105 4.51185 18.0211L4.39766 18.0406L4.45651 18.1325C4.84865 18.7448 6.10498 20.2965 6.74456 20.9584C7.48772 21.7275 8.7196 22.7485 9.89624 23.5704C10.3112 23.8603 10.3449 23.8918 10.328 23.9752C9.92088 25.9841 9.39108 27.955 9.04111 28.7624C8.73717 29.4636 7.62009 31.1825 6.82108 32.1784C5.81819 33.4283 5.17557 33.971 1.57045 36.6119C1.02285 37.0131 0.579864 37.3591 0.586 37.3808C0.610759 37.468 2.51373 40.5573 3.36193 41.8871C4.92615 44.3396 5.87857 45.6314 8.40611 48.7284C11.0449 51.9617 12.3698 53.4642 14.1002 55.186C16.6279 57.701 20.609 61.3025 22.6311 62.9033ZM30.0084 62.8189C29.9903 62.8189 29.5761 63.0879 29.0879 63.4167C28.5997 63.7455 28.1954 64.0135 28.1892 64.0135C28.1683 64.0117 26.737 63.014 26.2383 62.6536C25.597 62.1901 25.0922 61.7879 24.3672 61.1625C23.5141 60.4266 23.4748 60.389 23.5302 60.3572C23.6995 60.2605 25.7196 58.7799 25.7219 58.7512C25.7227 58.7403 25.5034 58.5404 25.2346 58.3071C22.6609 56.0736 21.7975 55.2869 19.5208 53.1007L19.0939 52.6908L19.4367 51.4952C19.6252 50.8377 19.8582 50.0709 19.9544 49.7912C20.0507 49.5116 20.125 49.2788 20.1197 49.2735C20.106 49.2603 19.012 50.5156 18.5993 51.0179C18.1912 51.5147 17.748 52.1169 17.0402 53.1362C16.7537 53.5487 16.5076 53.8863 16.4934 53.8863C16.4259 53.8863 13.6594 50.99 12.7242 49.9402C10.2263 47.1362 7.95984 44.1929 5.30729 40.3082C4.06757 38.4926 3.91132 38.2506 3.96127 38.2218C4.07744 38.1554 5.40215 37.172 5.91351 36.7726C6.65801 36.1911 7.22862 35.7148 7.82628 35.1759C9.45615 33.7062 10.597 32.0595 11.4176 29.9922C12.2987 27.7724 12.6863 26.105 12.8153 23.9802C12.8353 23.6514 12.8547 23.3655 12.8587 23.3447C12.8655 23.3086 13.973 23.6768 15.1411 24.1037L15.6654 24.2953L15.6435 25.4614C15.6228 26.5648 15.6722 28.9685 15.7675 31.4952C15.9538 36.4358 16.2739 38.3549 17.3581 41.0309C18.1151 42.8994 18.8619 44.2656 20.2214 46.2689C22.6049 49.7811 25.4751 52.6754 28.2983 54.4134C29.058 54.8812 29.8615 55.3039 29.9908 55.3039C30.0654 55.3039 30.8033 54.9338 31.2852 54.6545C32.8715 53.7354 34.2709 52.6428 35.7676 51.155C36.9144 50.015 37.8199 48.9654 38.8929 47.5323C40.4211 45.4913 41.6281 43.4615 42.4257 41.5916C43.5499 38.9556 43.9249 37.2332 44.1407 33.7155C44.2692 31.62 44.3695 28.1162 44.3631 25.9478C44.3589 24.512 44.3647 24.308 44.4108 24.2824C44.5556 24.2017 47.0474 23.3312 47.1334 23.3312C47.1698 23.3312 47.1811 23.3904 47.1811 23.5805C47.1811 24.1748 47.3148 25.4051 47.4741 26.2766C47.7733 27.9128 48.6055 30.2766 49.3593 31.6314C50.5596 33.7884 52.0954 35.3415 55.438 37.7785C55.7779 38.0263 56.0611 38.2432 56.0673 38.2604C56.0881 38.3183 53.454 42.1543 52.4329 43.5533C51.4457 44.9057 49.9387 46.829 48.809 48.1781C47.4162 49.8414 46.3908 50.9658 44.3881 53.0258C43.6923 53.7415 43.523 53.899 43.4882 53.8627C43.4646 53.8381 43.2171 53.4876 42.9383 53.0836C42.2017 52.0168 41.7901 51.4648 41.2573 50.8291C40.7862 50.2671 39.9061 49.2578 39.8872 49.2578C39.8818 49.2578 39.9536 49.4769 40.047 49.7446C40.2037 50.1941 40.8982 52.5733 40.8982 52.661C40.8983 52.7036 40.1923 53.3997 39.113 54.421C37.8435 55.6224 37.4015 56.0208 35.4137 57.7558L34.2722 58.7521L34.8644 59.1906C35.1901 59.4317 35.6922 59.7961 35.9801 60.0003C36.2681 60.2045 36.5037 60.3823 36.5037 60.3951C36.5037 60.4646 34.7643 61.9245 34.0677 62.4398C33.5782 62.8018 32.1702 63.7892 31.9181 63.9472L31.8129 64.0131L30.9271 63.416C30.4399 63.0876 30.0265 62.8189 30.0084 62.8189ZM33.8258 51.4474C33.3647 51.8316 32.4862 52.4659 31.68 52.9966C31.2457 53.2826 30.7861 53.5806 30.6586 53.6592L30.4269 53.802V45.539V37.276L30.7273 37.253C31.9983 37.1554 33.4211 36.9234 34.7957 36.5898C35.0175 36.5361 35.1991 36.5025 35.1991 36.5153C35.1991 36.5282 34.829 37.4208 34.3767 38.499C33.9243 39.5772 33.5589 40.4639 33.5646 40.4696C33.5789 40.4838 34.495 39.2597 34.7135 38.9344C34.8711 38.6999 35.6417 37.3749 36.1729 36.4251L36.3674 36.0776L36.9076 35.799C37.5569 35.4642 37.9032 35.2397 38.293 34.9006C38.797 34.4622 39.0172 34.1541 39.3325 33.4466C39.6345 32.7689 39.7663 32.2969 39.8309 31.6621C39.8917 31.0638 39.9047 30.7436 39.8681 30.7436C39.8267 30.7436 38.7596 31.2767 38.51 31.4221L38.3362 31.5234L38.6213 30.6638C38.778 30.1911 39.0531 29.3409 39.2325 28.7745C39.412 28.208 39.5679 27.7163 39.579 27.6814C39.5902 27.6466 39.3676 28.0793 39.0843 28.6429C38.5913 29.624 37.7683 31.1327 37.5098 31.5293C37.4425 31.6327 37.2643 31.8823 37.1139 32.084C36.8756 32.4037 36.7977 32.4803 36.509 32.6788C36.3267 32.8041 35.811 33.1738 35.3629 33.5003L34.5483 34.094L34.5389 34.7321L34.5296 35.3703L34.1005 35.519C33.5089 35.724 32.8889 35.8901 32.4191 35.9694C31.92 36.0536 30.7053 36.2091 30.5466 36.2091H30.4269V34.6463V33.0836L30.7598 32.7078C31.9101 31.4098 34.0149 29.5476 35.5081 28.507C37.2456 27.296 38.2803 26.7197 40.0978 25.9504C40.9029 25.6096 42.6816 24.8884 43.1606 24.7085L43.3802 24.626L43.3596 26.8394C43.3483 28.0568 43.323 29.3909 43.3034 29.8043C43.1162 33.7428 42.9385 35.3502 42.4387 37.6267C42.3238 38.1498 42.0699 39.1789 42.0488 39.2068C42.0344 39.2258 40.678 39.7292 40.1601 39.9077C38.6306 40.4348 37.4333 40.7353 35.0809 41.1826C34.6477 41.265 34.2831 41.3442 34.2708 41.3583C34.247 41.3858 34.1203 45.8732 34.1426 45.8953C34.1499 45.9025 34.321 45.726 34.5229 45.503C35.5506 44.3681 35.8272 43.9931 36.4646 42.8701C36.6725 42.5037 36.8629 42.1777 36.8877 42.1459C36.9173 42.1078 37.2887 41.9921 37.9628 41.811C39.7367 41.3343 40.2376 41.1733 41.1351 40.7909C41.2748 40.7315 41.3962 40.6899 41.4048 40.6983C41.4591 40.7523 40.2415 43.2695 39.6605 44.3048C38.6622 46.0836 37.1825 48.0983 35.7596 49.6165C35.2858 50.122 34.3274 51.0294 33.8258 51.4474ZM29.5686 37.2722V45.5195C29.5686 50.0555 29.557 53.7658 29.5428 53.7658C29.4347 53.7621 27.0217 51.998 26.2726 51.3751C24.5278 49.9241 22.6626 47.7888 21.1408 45.5002C19.3859 42.8611 18.3628 40.6606 17.7419 38.1902C17.2871 36.3807 17.1737 35.1898 16.9677 30.0604C16.9251 29.0013 16.8661 24.9834 16.8911 24.853C16.896 24.8275 16.8957 24.8067 16.9059 24.7951C16.9401 24.7562 17.093 24.8216 17.9626 25.1658C20.0513 25.9926 22.0519 26.9512 23.4187 27.7799C25.0729 28.783 27.2279 30.468 28.3303 31.6204C28.7047 32.0118 29.2395 32.6489 29.458 32.9639L29.5646 33.1176L29.5959 34.6548C29.6132 35.5002 29.6213 36.1987 29.6141 36.2071C29.5678 36.2607 27.9065 36.0265 27.3115 35.8826C26.9203 35.788 25.8881 35.4569 25.7289 35.3749C25.6358 35.3271 25.6336 35.3185 25.5917 34.8368C25.5527 34.3892 25.5538 34.204 25.4796 34.0569C25.4041 33.9072 25.2507 33.7969 24.8978 33.4901C23.6192 32.3785 22.7958 31.7644 21.3459 30.841C20.8008 30.4938 20.7616 30.4745 20.752 30.5494C20.7463 30.5934 20.7964 31.3123 20.8634 32.1469C21.1975 36.3124 21.4159 37.6827 22.0331 39.4831C22.6786 41.366 23.2458 42.4182 24.6876 44.4071C25.1441 45.0369 25.8009 45.8783 25.8207 45.8588C25.829 45.8506 25.8155 44.8191 25.7906 43.5667L25.7455 41.2896L25.5713 41.2135C25.4755 41.1717 25.0594 41.0189 24.6466 40.874C24.2338 40.729 23.7156 40.5346 23.495 40.442L23.0941 40.2735L22.8995 39.7485C22.4824 38.6232 22.2888 37.8508 22.0338 36.2944C21.8192 34.9847 21.8153 34.9627 21.8244 34.9535C21.8248 34.9532 21.8252 34.9528 21.8256 34.9524C21.8307 34.9471 22.1033 35.0676 22.4315 35.2205C23.9392 35.9224 25.2029 36.3919 26.2898 36.6538C27.2089 36.8752 28.5478 37.1312 29.4055 37.2496L29.5686 37.2722ZM33.2168 28.6822C31.9326 29.6997 31.2461 30.3903 30.3168 31.5994C30.1602 31.8032 30.0233 31.9717 30.0125 31.9717C30.0018 31.9726 29.8525 31.7928 29.6806 31.572C28.7148 30.3312 28.1493 29.7646 26.7876 28.6735C24.8887 27.1519 22.567 25.7364 20.419 24.7907C19.8037 24.5198 19.3848 24.3533 16.4047 23.195C13.4122 22.0317 12.2023 21.5167 11.3552 21.0454C10.8395 20.7584 10.0798 20.2666 9.53655 19.868L9.15867 19.5908L9.36428 19.5652C9.47738 19.5511 10.0025 19.493 10.5312 19.4361C12.4993 19.2244 13.9166 18.9632 14.9086 18.6294C15.7191 18.3567 16.7947 17.8624 17.497 17.44C17.7027 17.3163 17.8738 17.2191 17.8773 17.2245C19.9022 20.2154 21.2096 21.6578 23.3317 23.2416C23.8068 23.5962 24.4864 24.0708 24.659 24.1687C24.6873 24.1847 24.6085 24.0836 24.4838 23.9439C23.4702 22.8079 21.9868 21.0315 21.3706 20.2156C19.8318 18.1782 18.5549 15.2055 18.2335 12.9127C18.161 12.3947 18.1786 11.1576 18.2669 10.5652C18.5393 8.7396 19.2148 7.01781 20.1355 5.80208C20.3704 5.49191 20.7979 5.05699 21.0277 4.89449L21.1837 4.78411L21.383 5.11653C21.6612 5.58044 21.9796 6.04164 22.2849 6.42251C22.5395 6.7402 23.4525 7.67602 23.8434 8.01985L24.0405 8.19327L23.7798 8.56321C23.2273 9.3471 23.0026 9.81052 22.8044 10.5754C22.5126 11.7014 22.5381 12.7733 22.8899 14.1595C23.0744 14.8866 23.1801 15.2013 23.24 15.2013C23.2693 15.2013 23.4576 15.1308 23.6585 15.0445C25.0614 14.4423 26.6454 13.3267 29.2612 11.0985L30.0075 10.4628L30.5862 10.958C33.357 13.3284 35.0039 14.4846 36.477 15.0934L36.8108 15.2314L36.9128 14.9144C37.1496 14.1791 37.3303 13.3187 37.398 12.6053C37.4587 11.9645 37.3862 11.235 37.1877 10.4911C36.997 9.77655 36.7867 9.34587 36.2716 8.61453C36.1303 8.41403 36.0087 8.23442 36.0014 8.21584C35.9941 8.19703 36.1825 8.0049 36.4201 7.78883C37.3643 6.93043 38.0524 6.09531 38.6647 5.06468C38.7456 4.92847 38.8279 4.81703 38.8476 4.81703C38.9607 4.81703 39.5234 5.34756 39.8385 5.75125C40.533 6.64123 41.1739 8.01671 41.512 9.34308C41.6125 9.73722 41.7441 10.4785 41.7921 10.9198C41.8553 11.5018 41.8191 12.751 41.7235 13.2884C41.3918 15.154 40.4976 17.3589 39.2925 19.2826C38.7609 20.1313 37.6772 21.486 35.8897 23.5361C35.6358 23.8273 35.4036 24.0954 35.3737 24.1317C35.3437 24.168 35.5201 24.0624 35.7656 23.897C37.1992 22.9308 38.5503 21.7747 39.5004 20.701C40.2388 19.8666 41.1374 18.7047 41.806 17.7199C42.1289 17.2443 42.151 17.2199 42.218 17.2633C42.6507 17.5445 43.631 18.0468 44.2644 18.3118C45.6498 18.8917 47.3132 19.2313 50.1156 19.5067C50.5116 19.5455 50.839 19.5804 50.843 19.5849C50.8561 19.5979 50.1512 20.1123 49.7855 20.3566C48.3701 21.3019 47.4348 21.7201 42.2544 23.7238C40.2087 24.515 39.5757 24.781 38.6356 25.2442C36.6997 26.1981 34.9536 27.3059 33.2168 28.6822ZM37.6317 32.5536C38.1935 32.1961 38.6567 31.9339 38.9129 31.8379C38.8865 32.31 38.4501 33.736 37.9261 34.2873C37.2674 34.9805 36.0057 35.4635 35.3984 35.6074V34.1095C35.6884 33.8912 35.983 33.6765 36.2736 33.4704C36.5396 33.7758 37.0443 33.854 37.3269 33.6611C37.6411 33.4466 37.6835 33.2167 37.6817 32.9501C37.6807 32.8083 37.6566 32.6652 37.6317 32.5536Z" fill="white"/>
</g>
<defs>
<clipPath id="clip0_374_5379">
<rect width="60" height="69" fill="white"/>
</clipPath>
</defs>
</svg>
