<svg width="289" height="41" viewBox="0 0 289 41" fill="none" xmlns="http://www.w3.org/2000/svg">
<path d="M24.3348 6.48438V13.3735C24.3348 19.6234 19.3155 24.69 13.1239 24.69C12.3865 24.69 11.6664 24.616 10.9688 24.4788V28.9062H22.1796C28.3712 28.9062 33.3906 23.8397 33.3906 17.5898C33.3906 12.0842 29.495 7.499 24.3348 6.48438Z" fill="white"/>
<path d="M14.707 40.1172C17.1837 40.1172 19.1914 38.1096 19.1914 35.6328C19.1914 33.1563 17.1837 31.1484 14.707 31.1484C12.2304 31.1484 10.2227 33.1563 10.2227 35.6328C10.2227 38.1096 12.2304 40.1172 14.707 40.1172Z" fill="white"/>
<path d="M25.4219 2V1H24.4219H2H1V2V13.2109C1 19.153 5.24395 24.0993 10.8645 25.1941C11.6229 25.342 12.4071 25.4219 13.2109 25.4219C19.9549 25.4219 25.4219 19.9548 25.4219 13.211V6.38606V2Z" fill="white" stroke="#232323" stroke-width="2"/>
<path d="M46.6561 6.48438V19.3784C46.6561 24.0366 48.5768 26.3655 52.4186 26.3655C56.3023 26.3655 58.2449 24.0366 58.2449 19.3784V6.48438H61.0456V19.2197C61.0456 22.3957 60.31 24.8042 58.8407 26.4448C57.3704 28.086 55.2296 28.9062 52.4186 28.9062C49.6069 28.9062 47.4771 28.086 46.0285 26.4448C44.5799 24.8042 43.8555 22.3956 43.8555 19.2197V6.48438H46.6561Z" fill="white"/>
<path d="M75.7261 14.2474C76.8989 15.4375 77.4857 17.3064 77.4857 19.8557V28.9056H74.9322V20.0151C74.9322 18.3372 74.563 17.0571 73.8268 16.1753C73.0895 15.294 72.0254 14.8527 70.6348 14.8527C69.1398 14.8527 67.9668 15.3842 67.1157 16.4461C66.2641 17.5086 65.8389 18.9529 65.8389 20.7799V28.9056H63.2852V12.654H65.4965L65.8389 14.8527C67.0427 13.2595 68.7864 12.4629 71.0705 12.4629C73.0015 12.4629 74.5528 13.0578 75.7261 14.2474Z" fill="white"/>
<path d="M94.6758 6.48438V28.7156H92.4562L92.1122 26.1114C90.7782 27.9748 88.9543 28.9062 86.6409 28.9062C85.1604 28.9062 83.8421 28.5781 82.6854 27.9217C81.5287 27.2657 80.6217 26.3128 79.9656 25.0633C79.3091 23.8142 78.9805 22.332 78.9805 20.6171C78.9805 18.9869 79.3091 17.5474 79.9656 16.2979C80.6217 15.0488 81.5339 14.0748 82.7011 13.3761C83.8682 12.6774 85.1814 12.328 86.6409 12.328C87.9328 12.328 89.0372 12.5662 89.9547 13.0425C90.8717 13.519 91.5909 14.17 92.1122 14.9957V6.48438H94.6758ZM89.6264 25.8415C90.4286 25.3443 91.0489 24.6455 91.487 23.7454C91.9244 22.8456 92.1431 21.8239 92.1431 20.6806C92.1431 19.5164 91.9244 18.4733 91.487 17.5524C91.0489 16.6313 90.4286 15.9168 89.6264 15.4085C88.8239 14.9005 87.9118 14.6463 86.8909 14.6463C85.3064 14.6463 84.0302 15.2021 83.061 16.3137C82.0915 17.4253 81.6069 18.86 81.6069 20.6172C81.6069 22.3747 82.0915 23.8089 83.061 24.9204C84.0302 26.032 85.3064 26.5878 86.8909 26.5878C87.9118 26.5878 88.8239 26.3392 89.6264 25.8415Z" fill="white"/>
<path d="M97.1138 16.3688C97.7418 15.1299 98.6219 14.1693 99.7544 13.4865C100.887 12.8045 102.184 12.4629 103.646 12.4629C105.087 12.4629 106.364 12.7676 107.475 13.3762C108.587 13.9857 109.462 14.8676 110.101 16.0223C110.738 17.1775 111.078 18.532 111.12 20.0857C111.12 20.317 111.099 20.6842 111.058 21.1881H98.8282V21.4087C98.8691 22.9836 99.3425 24.2437 100.249 25.1885C101.155 26.1336 102.338 26.606 103.8 26.606C104.933 26.606 105.895 26.3176 106.688 25.7398C107.48 25.1624 108.011 24.3594 108.279 23.3301H110.842C110.533 24.9682 109.761 26.3069 108.525 27.3464C107.29 28.3859 105.777 28.9056 103.986 28.9056C102.421 28.9056 101.052 28.5644 99.8784 27.8817C98.7047 27.1996 97.7934 26.2334 97.1449 24.9838C96.4965 23.7346 96.1719 22.3015 96.1719 20.6842C96.1719 19.0462 96.4856 17.6081 97.1138 16.3688ZM108.494 19.0462C108.371 17.6814 107.872 16.6207 106.997 15.8647C106.121 15.1088 105.015 14.7308 103.677 14.7308C102.482 14.7308 101.433 15.1299 100.527 15.9279C99.6206 16.726 99.106 17.7656 98.9825 19.0462H108.494Z" fill="white"/>
<path d="M120.835 12.4629V15.0421H119.533C117.988 15.0421 116.882 15.5691 116.216 16.6221C115.549 17.6753 115.216 18.9755 115.216 20.523V28.9056H112.613V12.4629H114.867L115.216 14.9455C115.681 14.1934 116.284 13.5915 117.025 13.14C117.766 12.6887 118.792 12.4629 120.104 12.4629L120.835 12.4629Z" fill="white"/>
<path d="M136.531 6.48438V28.7156H134.311L133.967 26.1114C132.633 27.9748 130.809 28.9062 128.496 28.9062C127.016 28.9062 125.698 28.5781 124.541 27.9217C123.384 27.2657 122.478 26.3128 121.821 25.0633C121.164 23.8142 120.836 22.332 120.836 20.6171C120.836 18.9869 121.164 17.5474 121.821 16.2979C122.478 15.0488 123.389 14.0748 124.557 13.3761C125.724 12.6774 127.037 12.328 128.496 12.328C129.788 12.328 130.893 12.5662 131.81 13.0425C132.727 13.519 133.446 14.17 133.967 14.9957V6.48438H136.531ZM131.482 25.8415C132.284 25.3443 132.904 24.6455 133.342 23.7454C133.78 22.8456 133.999 21.8239 133.999 20.6806C133.999 19.5164 133.78 18.4733 133.342 17.5524C132.904 16.6313 132.284 15.9168 131.482 15.4085C130.679 14.9005 129.767 14.6463 128.746 14.6463C127.162 14.6463 125.885 15.2021 124.916 16.3137C123.947 17.4252 123.462 18.86 123.462 20.6172C123.462 22.3747 123.947 23.8089 124.916 24.9204C125.885 26.032 127.162 26.5878 128.746 26.5878C129.767 26.5878 130.679 26.3392 131.482 25.8415Z" fill="white"/>
<path d="M141.796 27.8661C140.607 27.1731 139.681 26.2075 139.02 24.9682C138.358 23.7293 138.027 22.3015 138.027 20.6842C138.027 19.0674 138.358 17.6396 139.02 16.4003C139.681 15.1614 140.607 14.1954 141.796 13.5024C142.985 12.8094 144.344 12.4629 145.875 12.4629C147.405 12.4629 148.765 12.8094 149.954 13.5024C151.143 14.1954 152.068 15.1615 152.73 16.4003C153.392 17.6396 153.723 19.0674 153.723 20.6842C153.723 22.3015 153.392 23.7293 152.73 24.9682C152.068 26.2075 151.143 27.1731 149.954 27.8661C148.765 28.5591 147.405 28.9056 145.875 28.9056C144.344 28.9056 142.985 28.5591 141.796 27.8661ZM148.62 25.8501C149.416 25.3461 150.031 24.6426 150.465 23.7396C150.9 22.8369 151.117 21.8182 151.117 20.6842C151.117 19.5503 150.9 18.532 150.465 17.6287C150.031 16.726 149.416 16.0223 148.62 15.5182C147.824 15.0143 146.909 14.7623 145.875 14.7623C144.841 14.7623 143.926 15.0143 143.13 15.5182C142.333 16.0223 141.718 16.726 141.284 17.6287C140.85 18.532 140.633 19.5503 140.633 20.6842C140.633 21.8182 140.85 22.8369 141.284 23.7396C141.718 24.6426 142.333 25.3461 143.13 25.8501C143.926 26.354 144.841 26.606 145.875 26.606C146.909 26.606 147.824 26.354 148.62 25.8501Z" fill="white"/>
<path d="M170.911 12.6491V27.711C170.911 32.4936 168.149 34.8848 162.624 34.8848C160.463 34.8848 158.699 34.4189 157.335 33.4873C155.969 32.5553 155.178 31.2304 154.96 29.5122H157.712C157.929 30.506 158.486 31.2716 159.382 31.8102C160.277 32.3482 161.423 32.6177 162.821 32.6177C166.424 32.6177 168.225 30.9508 168.225 27.6179V25.7544C167.024 27.7009 165.114 28.6738 162.494 28.6738C160.943 28.6738 159.562 28.3529 158.35 27.711C157.138 27.0696 156.188 26.1378 155.501 24.916C154.812 23.6946 154.469 22.2452 154.469 20.5683C154.469 18.9743 154.812 17.5666 155.501 16.3448C156.188 15.1234 157.143 14.171 158.367 13.4877C159.589 12.8045 160.965 12.4629 162.494 12.4629C163.848 12.4629 165.005 12.7167 165.966 13.2238C166.926 13.7314 167.68 14.4505 168.225 15.382L168.586 12.6491H170.911ZM165.622 25.677C166.462 25.1907 167.112 24.5075 167.57 23.6273C168.029 22.7475 168.258 21.7484 168.258 20.6304C168.258 19.492 168.029 18.472 167.57 17.5715C167.112 16.6708 166.462 15.9722 165.622 15.4751C164.781 14.9783 163.825 14.7298 162.755 14.7298C161.096 14.7298 159.758 15.2733 158.743 16.3602C157.728 17.4472 157.22 18.8501 157.22 20.5684C157.22 22.287 157.728 23.6894 158.743 24.7763C159.758 25.8632 161.096 26.4066 162.755 26.4066C163.825 26.4066 164.781 26.1636 165.622 25.677Z" fill="white"/>
<path d="M187.56 6.48438C189.001 6.48438 190.275 6.76768 191.382 7.33324C192.488 7.89924 193.34 8.69997 193.935 9.73547C194.53 10.7716 194.828 11.9833 194.828 13.3711C194.828 14.7594 194.525 15.9766 193.919 17.0227C193.314 18.0691 192.463 18.8755 191.366 19.4411C190.27 20.0071 189.001 20.2899 187.56 20.2899H181.858V28.9063H179.133V6.48438H187.56ZM181.858 17.7275H187.309C188.75 17.7275 189.899 17.3324 190.755 16.5421C191.612 15.7525 192.04 14.6954 192.04 13.3712C192.04 12.0473 191.617 10.9957 190.771 10.2161C189.925 9.43671 188.782 9.04689 187.341 9.04689H181.858V17.7275Z" fill="white"/>
<path d="M205.292 12.4629V15.0421H203.99C202.445 15.0421 201.339 15.5691 200.673 16.6221C200.006 17.6753 199.673 18.9755 199.673 20.523V28.9056H197.07V12.4629H199.324L199.673 14.9455C200.138 14.1934 200.741 13.5915 201.482 13.14C202.223 12.6887 203.249 12.4629 204.561 12.4629L205.292 12.4629Z" fill="white"/>
<path d="M209.808 27.8661C208.618 27.1731 207.693 26.2075 207.032 24.9682C206.37 23.7293 206.039 22.3015 206.039 20.6842C206.039 19.0674 206.37 17.6396 207.032 16.4003C207.693 15.1614 208.618 14.1954 209.808 13.5024C210.997 12.8094 212.356 12.4629 213.887 12.4629C215.417 12.4629 216.776 12.8094 217.965 13.5024C219.154 14.1954 220.079 15.1615 220.742 16.4003C221.403 17.6396 221.734 19.0674 221.734 20.6842C221.734 22.3015 221.403 23.7293 220.742 24.9682C220.079 26.2075 219.154 27.1731 217.965 27.8661C216.776 28.5591 215.417 28.9056 213.887 28.9056C212.356 28.9056 210.997 28.5591 209.808 27.8661ZM216.632 25.8501C217.427 25.3461 218.043 24.6426 218.477 23.7396C218.912 22.8369 219.129 21.8182 219.129 20.6842C219.129 19.5503 218.912 18.532 218.477 17.6287C218.043 16.726 217.427 16.0223 216.632 15.5182C215.836 15.0143 214.92 14.7623 213.887 14.7623C212.852 14.7623 211.937 15.0143 211.141 15.5182C210.345 16.0223 209.73 16.726 209.296 17.6287C208.862 18.532 208.645 19.5503 208.645 20.6842C208.645 21.8182 208.862 22.8369 209.296 23.7396C209.73 24.6426 210.345 25.3461 211.141 25.8501C211.937 26.354 212.852 26.606 213.887 26.606C214.92 26.606 215.836 26.354 216.632 25.8501Z" fill="white"/>
<path d="M225.283 14.9649H222.48V12.5612H225.283V7.97852H227.78V12.5612H231.709V14.9649H227.78V24.6112C227.78 25.2953 227.907 25.781 228.161 26.0694C228.415 26.3579 228.856 26.5019 229.486 26.5019H232.197V28.9056H229.334C227.871 28.9056 226.831 28.5642 226.212 27.88C225.592 27.1965 225.283 26.1174 225.283 24.6432V14.9649Z" fill="white"/>
<path d="M236.714 27.8661C235.525 27.1731 234.6 26.2075 233.938 24.9682C233.276 23.7293 232.945 22.3015 232.945 20.6842C232.945 19.0674 233.276 17.6396 233.938 16.4003C234.6 15.1614 235.525 14.1954 236.714 13.5024C237.903 12.8094 239.263 12.4629 240.793 12.4629C242.323 12.4629 243.682 12.8094 244.872 13.5024C246.061 14.1954 246.986 15.1615 247.648 16.4003C248.31 17.6396 248.641 19.0674 248.641 20.6842C248.641 22.3015 248.31 23.7293 247.648 24.9682C246.986 26.2075 246.061 27.1731 244.872 27.8661C243.682 28.5591 242.323 28.9056 240.793 28.9056C239.263 28.9056 237.903 28.5591 236.714 27.8661ZM243.538 25.8501C244.334 25.3461 244.95 24.6426 245.383 23.7396C245.818 22.8369 246.035 21.8182 246.035 20.6842C246.035 19.5503 245.818 18.532 245.383 17.6287C244.95 16.726 244.334 16.0223 243.538 15.5182C242.742 15.0143 241.827 14.7623 240.793 14.7623C239.759 14.7623 238.844 15.0143 238.048 15.5182C237.252 16.0223 236.637 16.726 236.202 17.6287C235.768 18.532 235.551 19.5503 235.551 20.6842C235.551 21.8182 235.768 22.8369 236.202 23.7396C236.637 24.6426 237.252 25.3461 238.048 25.8501C238.844 26.354 239.759 26.606 240.793 26.606C241.827 26.606 242.742 26.354 243.538 25.8501Z" fill="white"/>
<path d="M263.461 27.3778C262.217 28.3966 260.637 28.9056 258.72 28.9056C257.161 28.9056 255.792 28.5591 254.612 27.8661C253.432 27.1731 252.515 26.2019 251.862 24.9523C251.209 23.7032 250.883 22.27 250.883 20.6528C250.883 19.0359 251.215 17.6081 251.879 16.3688C252.542 15.1299 253.474 14.1693 254.675 13.4865C255.876 12.8045 257.256 12.4629 258.815 12.4629C260.711 12.4629 262.275 12.9668 263.508 13.9748C264.74 14.9828 265.514 16.3688 265.831 18.1328H263.207C262.955 17.104 262.428 16.2851 261.627 15.6758C260.826 15.067 259.858 14.7623 258.72 14.7623C257.182 14.7623 255.934 15.3086 254.975 16.4003C254.017 17.4925 253.537 18.91 253.537 20.6528C253.537 22.4167 254.017 23.8499 254.975 24.9523C255.934 26.0548 257.182 26.606 258.72 26.606C259.9 26.606 260.89 26.3019 261.691 25.6926C262.491 25.0838 263.007 24.2437 263.239 23.1727H265.831C265.493 24.9577 264.703 26.3595 263.461 27.3778Z" fill="white"/>
<path d="M271.843 27.8661C270.654 27.1731 269.728 26.2075 269.067 24.9682C268.405 23.7293 268.074 22.3015 268.074 20.6842C268.074 19.0674 268.405 17.6396 269.067 16.4003C269.728 15.1614 270.654 14.1954 271.843 13.5024C273.032 12.8094 274.391 12.4629 275.922 12.4629C277.452 12.4629 278.811 12.8094 280.001 13.5024C281.19 14.1954 282.115 15.1615 282.777 16.4003C283.438 17.6396 283.77 19.0674 283.77 20.6842C283.77 22.3015 283.438 23.7293 282.777 24.9682C282.115 26.2075 281.19 27.1731 280.001 27.8661C278.811 28.5591 277.452 28.9056 275.922 28.9056C274.391 28.9056 273.032 28.5591 271.843 27.8661ZM278.667 25.8501C279.463 25.3461 280.078 24.6426 280.512 23.7396C280.947 22.8369 281.164 21.8182 281.164 20.6842C281.164 19.5503 280.947 18.532 280.512 17.6287C280.078 16.726 279.463 16.0223 278.667 15.5182C277.871 15.0143 276.956 14.7623 275.922 14.7623C274.888 14.7623 273.972 15.0143 273.177 15.5182C272.38 16.0223 271.765 16.726 271.331 17.6287C270.897 18.532 270.68 19.5503 270.68 20.6842C270.68 21.8182 270.897 22.8369 271.331 23.7396C271.765 24.6426 272.38 25.3461 273.177 25.8501C273.972 26.354 274.888 26.606 275.922 26.606C276.956 26.606 277.871 26.354 278.667 25.8501Z" fill="white"/>
<path d="M286.758 6.48438H289V28.9063H286.758V6.48438Z" fill="white"/>
</svg>
