<?xml version="1.0" encoding="UTF-8"?>
<svg xmlns="http://www.w3.org/2000/svg" width="500" height="500" viewBox="0 0 500 500" fill="none" style="background: transparent;">

<path d="M259.206 168.994L245.617 199.525L228.947 238.725C227.915 241.152 224.456 241.158 223.415 238.736L206.57 199.525H186.45V265.502H203.482V241.552C203.482 238.257 208.066 237.392 209.282 240.457L219.22 265.502H232.966L242.804 240.613C244.017 237.544 248.605 238.407 248.605 241.704V265.502H265.639V168.994H259.206Z" fill="#B6FFE2"/>
<path d="M312.794 238.725C311.762 241.151 308.303 241.157 307.262 238.735L290.417 199.524L276.762 168.994H270.297V265.501H287.329V241.551C287.329 238.256 291.913 237.391 293.129 240.456L303.068 265.501H316.813L326.65 240.613C327.863 237.544 332.452 238.406 332.452 241.703V265.502H349.486V199.524H329.464L312.794 238.725Z" fill="#B6FFE2"/>
<path d="M354.144 265.502V199.401H370.78V265.502H354.144Z" fill="#B6FFE2"/>
<path d="M124.231 199.401V245.603C124.231 256.593 133.199 265.502 144.263 265.502H161.427C172.491 265.502 181.459 256.593 181.459 245.603L181.459 199.401H164.823V242.012C164.823 245.859 161.684 248.977 157.812 248.977H147.878C144.006 248.977 140.867 245.859 140.867 242.012V199.401H124.231Z" fill="#B6FFE2"/>
<path d="M375.771 213.683V199.401H433V213.683H415.709C414.049 213.683 412.704 215.019 412.704 216.667V265.502H396.023V216.667C396.023 215.019 394.677 213.683 393.018 213.683H375.771Z" fill="#B6FFE2"/>
<path d="M94.2139 265.502C89.655 265.502 85.4285 264.749 81.5344 263.242C77.6403 261.704 74.4743 259.319 72.0366 256.086C69.5988 252.822 68.2533 248.584 68 243.374H83.0065C83.0065 245.289 83.4973 246.874 84.4787 248.129C85.4601 249.385 86.7898 250.311 88.4678 250.907C90.1774 251.503 92.0611 251.801 94.119 251.801C95.7653 251.801 97.3007 251.66 98.7254 251.378C100.182 251.095 101.353 250.593 102.24 249.871C103.126 249.149 103.569 248.161 103.569 246.905C103.569 245.367 103.094 244.222 102.145 243.468C101.226 242.715 99.5485 241.852 97.1108 240.879L83.244 234.9C78.685 232.954 75.1392 230.662 72.6064 228.026C70.0737 225.389 68.8073 221.796 68.8073 217.244C68.8073 211.909 70.9918 207.609 75.3608 204.344C79.7614 201.049 85.7767 199.401 93.4066 199.401C101.163 199.401 107.115 201.221 111.262 204.862C115.41 208.472 117.737 213.635 118.243 220.352H103.332C102.952 218.28 102.018 216.538 100.53 215.126C99.0737 213.713 96.6992 213.007 93.4066 213.007C91.0322 213.007 89.1168 213.447 87.6605 214.325C86.2041 215.173 85.476 216.24 85.476 217.527C85.476 218.72 85.935 219.661 86.8531 220.352C87.8029 221.042 89.2118 221.795 91.0797 222.612L105.754 228.779C110.629 230.882 114.254 233.346 116.629 236.171C119.035 238.996 120.238 242.385 120.238 246.34C120.238 250.577 119.209 254.124 117.151 256.98C115.125 259.805 112.165 261.94 108.271 263.383C104.408 264.796 99.7227 265.502 94.2139 265.502Z" fill="#B6FFE2"/>
<path d="M88.868 180.789L85.8967 183.848C85.8322 183.914 85.754 183.967 85.6672 184.003C85.5803 184.04 85.4866 184.058 85.392 184.058H71.3069C71.2397 184.058 71.1739 184.039 71.1177 184.004C71.0615 183.969 71.0173 183.918 70.9905 183.859C70.9637 183.8 70.9555 183.734 70.9669 183.671C70.9783 183.607 71.0088 183.548 71.0547 183.501L74.0282 180.442C74.0926 180.376 74.1705 180.323 74.257 180.287C74.3436 180.251 74.437 180.232 74.5314 180.232H88.6157C88.6829 180.232 88.7487 180.251 88.8049 180.286C88.861 180.321 88.9052 180.372 88.9321 180.431C88.9589 180.49 88.9671 180.556 88.9557 180.619C88.9443 180.683 88.9138 180.742 88.868 180.789ZM85.8967 174.629C85.8322 174.563 85.754 174.51 85.6672 174.474C85.5803 174.437 85.4866 174.419 85.392 174.419H71.3069C71.2397 174.419 71.1739 174.438 71.1177 174.473C71.0615 174.508 71.0173 174.559 70.9905 174.618C70.9637 174.677 70.9555 174.742 70.9669 174.806C70.9783 174.87 71.0088 174.929 71.0547 174.976L74.0282 178.035C74.0926 178.101 74.1705 178.154 74.257 178.19C74.3436 178.226 74.437 178.245 74.5314 178.245H88.6157C88.6829 178.245 88.7487 178.226 88.8049 178.191C88.861 178.155 88.9052 178.105 88.9321 178.046C88.9589 177.987 88.9671 177.921 88.9557 177.858C88.9443 177.794 88.9138 177.735 88.868 177.688L85.8967 174.629ZM71.3069 172.432H85.392C85.4866 172.432 85.5803 172.413 85.6672 172.377C85.754 172.341 85.8322 172.288 85.8967 172.222L88.868 169.163C88.9138 169.116 88.9443 169.057 88.9557 168.993C88.9671 168.929 88.9589 168.864 88.9321 168.805C88.9052 168.746 88.861 168.695 88.8049 168.66C88.7487 168.625 88.6829 168.606 88.6157 168.606H74.5314C74.437 168.606 74.3436 168.625 74.257 168.661C74.1705 168.697 74.0926 168.75 74.0282 168.816L71.0555 171.875C71.0096 171.922 70.9792 171.981 70.9677 172.045C70.9563 172.108 70.9645 172.173 70.9911 172.233C71.0178 172.292 71.0619 172.342 71.118 172.377C71.1741 172.413 71.2397 172.432 71.3069 172.432Z" fill="#B6FFE2"/>
<path d="M98.7061 171.122H112.49V167.649H98.9245C96.8861 167.649 95.2602 169.288 95.2602 171.342V174.375C95.2602 176.405 96.8861 178.069 98.9245 178.069H109.044V181.542H95.2602V185.015H108.825C110.864 185.015 112.49 183.376 112.49 181.322V178.289C112.49 176.259 110.864 174.595 108.825 174.595H98.7061V171.122Z" fill="#B6FFE2"/>
<path d="M152.467 181.42H139.023V167.502H135.31V182.765C135.31 184.086 136.377 185.162 137.688 185.162H152.467V181.42Z" fill="#B6FFE2"/>
<path d="M193.222 167.649H189.752V181.542H188.999L182.302 168.847C181.913 168.089 181.137 167.649 180.312 167.649H177.497C176.259 167.649 175.264 168.652 175.264 169.923V185.015H178.71V171.122H179.609L186.306 183.817C186.694 184.575 187.447 185.04 188.296 185.015H190.965C192.202 185.015 193.222 184.012 193.222 182.765V167.649Z" fill="#B6FFE2"/>
<path fill-rule="evenodd" clip-rule="evenodd" d="M129.198 167.649C131.237 167.649 132.887 169.288 132.887 171.342V181.322C132.887 183.376 131.237 185.015 129.198 185.015H118.594C116.555 185.015 114.929 183.376 114.929 181.322V171.342C114.929 169.288 116.555 167.649 118.594 167.649H129.198ZM118.375 171.122H129.417V181.542H118.375V171.122Z" fill="#B6FFE2"/>
<path fill-rule="evenodd" clip-rule="evenodd" d="M169.857 167.649C171.507 167.649 172.842 168.97 172.842 170.633V185.015H169.371V179.316H158.33V185.015H154.884V170.633C154.884 168.97 156.195 167.649 157.845 167.649H169.857ZM158.33 171.122H169.371V175.843H158.33V171.122Z" fill="#B6FFE2"/>
<path fill-rule="evenodd" clip-rule="evenodd" d="M210.617 167.649C212.268 167.649 213.602 168.97 213.602 170.633V185.015H210.132V179.316H199.091V185.015H195.645V170.633C195.645 168.97 196.955 167.649 198.605 167.649H210.617ZM199.091 171.122H210.132V175.843H199.091V171.122Z" fill="#B6FFE2"/>
<rect x="68" y="287.089" width="34.9529" height="44.9855" rx="17.4764" fill="#9258D1"/>
<rect x="106.551" y="287.089" width="34.9529" height="44.9855" rx="17.4764" fill="#9258D1"/>
<rect x="147.5" y="287.089" width="206" height="44.9855" rx="22.4928" fill="#9258D1"/>
<path d="M199.891 320.514C198.087 320.514 196.494 320.14 195.113 319.391C193.731 318.624 192.647 317.568 191.86 316.225C191.073 314.863 190.68 313.299 190.68 311.534C190.68 309.749 190.978 308.099 191.572 306.583C192.186 305.067 193.04 303.743 194.134 302.611C195.228 301.46 196.504 300.567 197.962 299.934C199.42 299.301 201.003 298.984 202.711 298.984C204.4 298.984 205.887 299.301 207.173 299.934C208.477 300.548 209.523 301.421 210.31 302.553C211.097 303.686 211.557 305.029 211.691 306.583H206.309C206.213 305.95 205.992 305.422 205.647 305C205.302 304.559 204.851 304.223 204.294 303.993C203.738 303.762 203.095 303.647 202.366 303.647C201.464 303.647 200.629 303.839 199.862 304.223C199.094 304.607 198.423 305.153 197.847 305.863C197.29 306.554 196.859 307.379 196.552 308.339C196.245 309.279 196.091 310.306 196.091 311.418C196.091 312.34 196.274 313.155 196.638 313.865C197.003 314.575 197.511 315.131 198.164 315.534C198.816 315.937 199.564 316.139 200.409 316.139C201.195 316.139 201.915 316.004 202.567 315.736C203.239 315.467 203.815 315.083 204.294 314.585C204.774 314.086 205.11 313.491 205.302 312.8H200.495L201.215 308.598H211.663C211.336 311.092 210.655 313.232 209.619 315.016C208.583 316.782 207.24 318.144 205.589 319.103C203.958 320.044 202.059 320.514 199.891 320.514ZM219.013 320.37C217.708 320.37 216.509 320.111 215.415 319.593C214.34 319.055 213.477 318.278 212.824 317.261C212.191 316.244 211.875 315.016 211.875 313.577C211.875 311.793 212.239 310.2 212.968 308.799C213.717 307.398 214.734 306.305 216.019 305.518C217.305 304.712 218.754 304.309 220.366 304.309C222.035 304.309 223.388 304.731 224.424 305.576C225.479 306.401 226.208 307.514 226.611 308.914C227.033 310.296 227.11 311.841 226.842 313.548H214.465L215.012 310.555H222.467C222.447 309.883 222.265 309.298 221.92 308.799C221.574 308.3 221.047 308.051 220.337 308.051C219.492 308.051 218.811 308.3 218.293 308.799C217.775 309.298 217.401 309.951 217.171 310.756C216.94 311.543 216.825 312.387 216.825 313.289C216.825 314.287 217.046 315.045 217.487 315.563C217.929 316.062 218.562 316.312 219.387 316.312C220.461 316.312 221.219 315.803 221.661 314.786H226.554C225.901 316.762 224.904 318.192 223.56 319.075C222.236 319.938 220.721 320.37 219.013 320.37ZM233.384 312.886L232.118 320.082H227.369L230.103 304.597H234.449L233.96 307.389C234.459 306.775 235.006 306.257 235.601 305.835C236.195 305.393 236.877 305.067 237.644 304.856C238.431 304.626 239.352 304.511 240.407 304.511L239.515 309.461C238.344 309.269 237.327 309.25 236.464 309.404C235.62 309.557 234.939 309.912 234.42 310.469C233.922 311.025 233.576 311.831 233.384 312.886ZM243.713 320.082H238.964L241.698 304.597H246.044L245.728 306.525C246.342 305.758 247.004 305.201 247.714 304.856C248.443 304.491 249.201 304.309 249.988 304.309C251.062 304.309 251.945 304.559 252.636 305.058C253.326 305.556 253.816 306.238 254.103 307.101C254.756 306.18 255.485 305.489 256.291 305.029C257.097 304.549 257.98 304.309 258.939 304.309C260.013 304.309 260.915 304.578 261.645 305.115C262.374 305.652 262.882 306.401 263.17 307.36C263.477 308.32 263.515 309.432 263.285 310.699L261.645 320.082H256.895L258.363 311.735C258.536 310.756 258.488 309.999 258.219 309.461C257.951 308.905 257.49 308.627 256.838 308.627C256.339 308.627 255.907 308.742 255.543 308.972C255.197 309.183 254.909 309.528 254.679 310.008C254.449 310.488 254.267 311.111 254.132 311.879L252.693 320.082H247.944L249.412 311.735C249.585 310.756 249.527 309.999 249.239 309.461C248.971 308.905 248.51 308.627 247.858 308.627C247.32 308.627 246.879 308.751 246.534 309.001C246.188 309.25 245.91 309.615 245.699 310.094C245.488 310.574 245.315 311.169 245.181 311.879L243.713 320.082ZM272.943 320.082L273.23 318.528C272.732 319.142 272.117 319.602 271.388 319.909C270.659 320.216 269.805 320.37 268.827 320.37C267.426 320.37 266.294 319.986 265.43 319.219C264.567 318.451 264.135 317.444 264.135 316.196C264.135 315.103 264.442 314.153 265.056 313.347C265.689 312.541 266.572 311.917 267.704 311.476C268.855 311.035 270.199 310.814 271.734 310.814C272.175 310.814 272.578 310.833 272.943 310.872C273.307 310.891 273.614 310.929 273.864 310.987L274.008 310.267C274.142 309.596 274.036 309.068 273.691 308.684C273.346 308.281 272.818 308.08 272.108 308.08C270.726 308.08 269.911 308.809 269.661 310.267H265.373C265.526 308.425 266.246 306.976 267.531 305.921C268.836 304.846 270.534 304.309 272.626 304.309C273.988 304.309 275.14 304.578 276.08 305.115C277.039 305.633 277.73 306.362 278.152 307.303C278.574 308.224 278.68 309.298 278.469 310.526L276.771 320.082H272.943ZM268.712 315.592C268.712 316.014 268.884 316.369 269.23 316.657C269.575 316.926 270.007 317.06 270.525 317.06C271.005 317.06 271.427 316.974 271.791 316.801C272.175 316.628 272.492 316.379 272.741 316.052C272.991 315.726 273.154 315.342 273.23 314.901L273.403 313.894C273.096 313.817 272.779 313.769 272.453 313.75C272.146 313.711 271.839 313.692 271.532 313.692C270.63 313.692 269.93 313.855 269.431 314.182C268.951 314.508 268.712 314.978 268.712 315.592ZM285.517 311.879L284.049 320.082H279.3L282.034 304.597H286.38L286.064 306.525C286.64 305.835 287.292 305.297 288.021 304.914C288.769 304.511 289.585 304.309 290.468 304.309C291.542 304.309 292.444 304.578 293.173 305.115C293.902 305.652 294.411 306.401 294.699 307.36C295.006 308.32 295.044 309.432 294.814 310.699L293.173 320.082H288.424L289.892 311.735C290.065 310.737 290.007 309.97 289.719 309.432C289.431 308.895 288.923 308.627 288.194 308.627C287.656 308.627 287.215 308.751 286.87 309.001C286.524 309.25 286.246 309.615 286.035 310.094C285.824 310.574 285.651 311.169 285.517 311.879ZM312.064 304.597L301.04 325.637H295.831L299.112 319.909L296.09 304.597H300.897L302.422 314.326L306.941 304.597H312.064Z" fill="#220E33"/>
<rect x="359.496" y="287.089" width="34.9529" height="44.9855" rx="17.4764" fill="#9258D1"/>
<rect x="398.047" y="287.089" width="34.9529" height="44.9855" rx="17.4764" fill="#9258D1"/>
</svg>