<?xml version="1.0" standalone="no"?>
<!DOCTYPE svg PUBLIC "-//W3C//DTD SVG 20010904//EN"
 "http://www.w3.org/TR/2001/REC-SVG-20010904/DTD/svg10.dtd">
<svg version="1.0" xmlns="http://www.w3.org/2000/svg"
 width="1914.000000pt" height="822.000000pt" viewBox="0 0 1914.000000 822.000000"
 preserveAspectRatio="xMidYMid meet">

<g transform="translate(0.000000,822.000000) scale(0.100000,-0.100000)"
fill="#000000" stroke="none">
<path d="M6609 6960 c-5 -290 -7 -463 -8 -713 0 -139 -5 -225 -12 -238 -8 -15
-8 -24 0 -32 18 -18 12 -64 -14 -111 -15 -27 -21 -47 -15 -51 16 -10 11 -21
-15 -33 -33 -15 -41 -38 -21 -60 14 -17 14 -21 -6 -60 -20 -42 -20 -44 -3 -82
13 -30 16 -51 10 -95 -6 -51 -9 -57 -45 -75 -53 -27 -115 -101 -129 -155 -37
-149 21 -274 158 -338 25 -12 48 -23 50 -25 3 -1 -5 -9 -17 -18 -12 -8 -22
-25 -22 -37 -1 -12 -7 -33 -15 -47 -20 -34 -18 -46 6 -69 21 -19 21 -24 15
-268 -4 -136 -11 -347 -16 -468 -10 -215 -23 -565 -40 -1130 -22 -696 -22
-705 -37 -705 -8 0 -13 -12 -13 -30 0 -29 -2 -30 -45 -30 -43 0 -45 1 -45 30
0 29 -2 30 -45 30 -43 0 -45 -1 -45 -30 0 -30 -1 -30 -55 -30 -54 0 -55 0 -55
30 0 29 -2 30 -45 30 -43 0 -45 -1 -45 -30 0 -29 -1 -30 -50 -30 -49 0 -50 0
-50 31 0 26 -3 31 -20 26 -18 -5 -20 0 -22 41 -4 84 -6 117 -7 130 -2 20 -18
14 -27 -11 -6 -16 -9 -5 -11 42 -2 35 1 77 7 94 14 42 -4 57 -21 18 -8 -17
-17 -31 -21 -31 -5 0 -8 -7 -8 -16 0 -13 -3 -14 -13 -5 -11 8 -11 21 -3 61 11
56 4 71 -22 47 -22 -20 -32 -21 -33 -4 0 6 -10 33 -22 59 l-22 47 -19 -60
c-11 -32 -21 -59 -23 -59 -2 0 -14 9 -26 21 l-22 20 -3 -48 c-1 -26 -5 -64 -8
-83 l-6 -35 -20 50 c-32 82 -38 76 -31 -31 6 -87 5 -98 -9 -87 -24 20 -28 6
-28 -89 0 -53 -4 -88 -10 -88 -6 0 -14 -10 -19 -23 -8 -20 -15 -22 -50 -19
-38 4 -41 6 -41 33 0 27 -3 29 -40 29 -38 0 -40 -2 -40 -30 0 -29 -2 -30 -44
-30 -43 0 -45 1 -48 33 -3 30 -5 32 -43 32 -38 0 -40 -2 -43 -32 -3 -33 -4
-33 -57 -33 -51 0 -54 1 -57 27 -3 26 -6 28 -48 28 -42 0 -45 -2 -48 -27 -3
-26 -7 -28 -47 -28 -42 0 -44 1 -47 32 -3 30 -5 32 -43 32 -38 1 -40 -1 -43
-32 -3 -31 -4 -32 -52 -32 -48 0 -49 1 -55 33 -6 31 -8 32 -46 29 -36 -4 -39
-7 -39 -33 0 -28 -2 -29 -45 -29 -25 0 -48 -1 -52 -2 -5 -2 -9 12 -11 30 -3
31 -5 32 -48 32 -42 0 -44 -1 -44 -30 0 -30 -1 -30 -55 -30 -54 0 -55 0 -55
30 0 29 -2 30 -45 30 -43 0 -45 -1 -45 -30 l0 -30 -155 0 c-114 0 -155 -3
-155 -12 0 -9 -3 -9 -12 0 -16 16 -1013 17 -1023 2 -4 -6 -11 -8 -16 -5 -5 4
-2 13 6 22 14 13 85 15 598 13 320 -1 587 -1 592 0 6 1 18 2 28 1 16 -2 17 12
17 172 l0 174 -42 9 -43 8 35 3 c61 6 61 7 40 65 -10 29 -36 112 -56 183 -21
72 -41 134 -44 138 -8 9 -26 -40 -70 -188 -17 -60 -38 -125 -47 -144 -18 -40
-9 -50 47 -52 l35 -1 -42 -11 -43 -10 0 -143 c0 -79 -4 -144 -8 -144 -4 0 -20
25 -35 55 -15 30 -30 55 -34 55 -5 0 -17 -18 -27 -40 -20 -41 -36 -52 -36 -25
0 8 -5 15 -10 15 -6 0 -13 -7 -16 -15 -10 -25 -35 -18 -29 7 4 15 -2 34 -19
56 l-24 33 -34 -47 c-18 -27 -36 -53 -40 -58 -8 -11 -37 19 -69 71 -11 18 -24
33 -28 33 -4 0 -18 -22 -32 -49 -26 -53 -65 -74 -77 -42 -3 9 -17 33 -30 54
l-25 38 -28 -43 c-16 -24 -31 -47 -33 -53 -2 -6 -8 -5 -16 2 -11 10 -16 9 -26
-5 -12 -16 -13 -16 -20 3 -4 11 -21 37 -37 57 l-30 38 -24 -35 c-12 -18 -23
-38 -23 -43 0 -5 -10 -12 -22 -15 -23 -7 -44 12 -54 50 -3 13 -9 23 -13 23 -3
0 -21 -28 -39 -61 -19 -33 -36 -58 -40 -55 -3 4 -5 69 -3 145 l3 138 -59 7
c-33 4 -85 4 -117 0 l-57 -7 3 -183 c2 -101 0 -184 -4 -184 -16 0 -7 -32 32
-118 l40 -89 0 -314 c1 -370 3 -391 45 -400 41 -9 133 -10 189 -3 l46 7 0 56
c0 35 -6 65 -15 77 -47 62 8 106 185 145 76 17 356 12 434 -7 154 -40 182 -57
171 -107 -4 -18 -9 -62 -12 -99 l-5 -68 146 0 146 0 0 80 c0 94 0 95 130 133
171 52 323 70 580 71 319 0 523 -31 741 -115 l79 -30 0 -70 0 -69 191 0 191 0
-6 28 c-12 51 -17 337 -8 397 8 51 10 33 11 -117 1 -139 4 -178 14 -178 7 0
17 4 23 9 8 8 93 43 174 71 38 14 177 47 250 59 116 20 249 27 560 30 346 3
529 -9 711 -44 186 -36 389 -99 389 -120 0 -3 -7 -20 -16 -36 -8 -17 -14 -45
-12 -62 l3 -32 385 0 385 0 3 44 c2 33 -2 52 -17 72 -12 16 -21 37 -21 48 0
12 41 58 104 118 l105 98 1005 -1 1005 0 102 -102 103 -103 -14 -32 c-7 -18
-15 -58 -18 -90 l-4 -57 396 0 396 0 0 31 c0 17 -7 43 -16 59 -10 15 -14 34
-11 42 5 15 189 87 277 109 155 39 262 50 580 59 524 15 780 -13 1032 -111 57
-23 114 -43 126 -46 23 -5 24 -9 20 -72 l-3 -66 193 -3 c163 -2 192 0 192 12
0 8 -4 18 -10 21 -6 4 -10 91 -9 233 1 247 14 259 18 17 1 -82 3 -151 5 -152
1 -2 31 13 67 31 87 47 272 101 410 122 246 36 608 -10 807 -103 l32 -15 0
-83 0 -82 58 -6 c31 -3 95 -2 142 1 l85 7 3 49 c2 33 -3 60 -14 81 -27 51 -13
82 51 111 97 45 181 56 380 52 157 -4 188 -8 245 -28 116 -41 135 -67 106
-140 -9 -22 -16 -60 -16 -84 l0 -43 108 -7 c146 -9 157 -4 165 73 4 33 4 102
0 153 -4 66 -2 101 7 117 8 17 9 26 1 34 -7 7 -11 68 -11 168 0 166 -1 160 59
291 29 64 28 88 -4 88 -14 0 -25 5 -25 10 0 6 11 10 24 10 24 0 24 0 29 153 3
83 8 162 12 175 7 20 4 22 -26 23 -19 1 -45 4 -59 8 -21 6 -16 9 28 15 57 7
59 10 38 58 -7 18 -23 65 -34 103 -11 39 -30 105 -42 147 -13 43 -27 75 -31
72 -5 -3 -14 -24 -20 -47 -7 -23 -30 -100 -51 -172 -22 -71 -40 -137 -41 -145
-2 -11 13 -16 58 -20 l60 -5 -55 -9 c-67 -10 -74 -14 -60 -31 14 -16 9 -257
-5 -262 -6 -2 -21 24 -33 57 -13 33 -27 60 -30 60 -4 0 -18 -18 -32 -40 -13
-22 -29 -40 -35 -40 -7 0 -24 22 -39 50 -15 27 -31 52 -35 55 -5 2 -24 -20
-42 -49 -42 -68 -62 -68 -108 -4 -19 27 -37 48 -40 48 -6 0 -26 -28 -47 -69
-9 -17 -23 -25 -48 -27 -23 -2 -36 1 -36 9 0 7 -13 27 -29 46 l-28 34 -27 -45
c-22 -37 -31 -45 -56 -45 -17 0 -30 6 -30 13 0 7 -12 30 -26 52 l-26 40 -34
-44 c-19 -24 -34 -48 -34 -52 0 -5 -9 -8 -21 -7 -14 1 -26 14 -38 40 l-17 39
-35 -57 c-54 -90 -61 -80 -57 82 l3 139 -55 6 c-80 8 -176 -6 -171 -24 2 -8 5
-85 6 -170 l2 -154 44 -12 c43 -12 43 -12 10 -13 -29 -1 -33 -4 -27 -23 5 -23
4 -23 -67 -18 l-72 4 58 6 c63 6 77 22 25 30 -29 4 -33 9 -36 38 -3 30 -6 32
-43 32 -38 0 -39 -1 -39 -35 l0 -35 -49 0 c-49 0 -50 1 -53 32 -3 30 -6 33
-40 36 -37 2 -38 2 -38 -33 l0 -35 -55 0 c-54 0 -55 0 -55 30 0 28 -2 30 -39
30 -37 0 -40 -2 -43 -33 -3 -31 -4 -32 -53 -32 -49 0 -50 1 -55 33 -3 18 -8
33 -12 32 -5 0 -24 0 -43 0 -32 0 -35 -2 -35 -30 0 -30 0 -30 -59 -30 l-60 0
-3 32 c-3 35 -21 44 -63 34 -18 -5 -25 -14 -27 -39 -2 -17 -6 -31 -10 -29 -5
1 -28 2 -53 2 -43 0 -45 1 -45 30 0 28 -2 30 -40 30 -38 0 -40 -2 -40 -30 l0
-30 -60 0 -60 0 0 31 c0 26 -3 31 -20 26 -19 -5 -20 0 -20 76 0 85 -14 133
-26 89 -4 -12 -10 -22 -15 -22 -13 0 -11 111 2 149 8 21 8 36 2 42 -7 7 -18
-7 -34 -40 -13 -28 -28 -51 -33 -51 -5 0 -6 31 -2 70 6 70 0 84 -24 55 -14
-17 -30 -20 -30 -6 0 22 -44 105 -48 91 -10 -31 -43 -100 -48 -100 -3 0 -13 8
-22 17 -16 16 -17 13 -20 -45 -2 -34 -6 -62 -10 -62 -4 0 -17 17 -30 38 l-23
37 7 -193 c4 -135 3 -192 -4 -192 -7 0 -12 36 -14 97 -2 64 -7 98 -15 100 -9
3 -13 -17 -15 -69 -2 -40 -7 -73 -13 -73 -15 0 -26 381 -23 793 l3 352 -21 0
c-21 0 -22 6 -29 123 -4 67 -4 151 -1 187 3 36 8 111 12 168 l6 102 -25 0
c-14 0 -29 -4 -32 -10 -3 -5 -25 -10 -47 -10 -54 0 -103 38 -130 99 -17 40
-19 61 -15 156 6 153 14 166 69 120 32 -27 85 -34 106 -13 7 7 12 27 12 45 0
32 -2 33 -38 33 -27 0 -48 8 -68 25 -18 16 -41 25 -61 25 l-33 0 0 -149 c0
-89 -4 -152 -10 -156 -5 -3 -10 -20 -10 -36 0 -76 -63 -149 -129 -149 -20 0
-42 5 -48 11 -6 6 -23 9 -39 7 l-29 -3 3 -70 c1 -38 5 -165 8 -282 l5 -212
-28 -3 -28 -3 4 -586 c2 -323 0 -596 -4 -608 -10 -31 -25 -26 -25 9 0 28 -2
30 -40 30 -38 0 -40 -2 -40 -30 0 -30 -1 -30 -54 -30 -54 0 -55 0 -58 32 -3
30 -6 32 -40 34 -37 1 -38 0 -38 -33 0 -33 0 -33 -49 -33 -49 0 -50 1 -53 33
-2 17 -6 31 -10 30 -5 -2 -24 -3 -43 -3 -33 0 -35 -2 -35 -36 l0 -35 -42 3
c-40 3 -43 5 -46 36 -3 31 -5 32 -48 32 -42 0 -44 -1 -44 -30 0 -30 -1 -30
-55 -30 -54 0 -55 1 -55 29 0 25 -4 29 -37 34 -40 7 -53 -2 -53 -40 0 -20 -5
-23 -45 -23 -43 0 -45 1 -45 29 0 36 -5 39 -52 34 -33 -5 -37 -8 -40 -37 -2
-17 -6 -30 -10 -28 -5 1 -28 2 -53 2 -43 0 -45 1 -45 30 0 28 -2 30 -40 30
-38 0 -40 -2 -40 -30 0 -29 -1 -30 -49 -30 -49 0 -50 1 -53 33 -2 27 -8 33
-30 35 -26 3 -28 6 -28 53 0 42 -3 49 -20 49 -18 0 -20 7 -20 79 0 44 5 83 10
86 16 10 12 35 -5 35 -12 0 -3 25 34 97 l50 98 3 150 3 150 -135 -6 c-184 -9
-490 -12 -497 -5 -4 3 -53 6 -110 6 l-103 0 0 -154 c0 -94 4 -157 10 -161 6
-4 8 -10 5 -15 -3 -5 8 -28 24 -50 34 -47 59 -112 44 -117 -5 -2 -7 -44 -5
-98 4 -81 2 -96 -12 -101 -11 -4 -16 -19 -16 -50 0 -24 -1 -45 -2 -45 -8 -5
-2357 -8 -2375 -4 -20 5 -23 12 -23 55 0 43 -3 50 -20 50 -18 0 -20 7 -20 78
0 49 5 83 13 91 10 10 8 15 -6 26 -18 13 -17 15 4 57 12 23 33 61 47 83 22 34
26 54 29 135 2 52 5 122 6 155 l3 60 -428 0 -427 0 2 -160 2 -160 42 -70 c23
-38 47 -75 52 -81 7 -8 4 -14 -10 -17 -17 -5 -19 -9 -10 -26 17 -30 14 -168
-3 -174 -8 -3 -16 -25 -19 -49 -16 -119 -16 -118 -57 -118 -36 0 -39 2 -42 33
-3 29 -6 32 -38 32 -32 0 -35 -3 -40 -35 -3 -20 -11 -35 -17 -34 -7 1 -31 2
-53 3 -37 1 -40 3 -40 31 0 29 -2 30 -45 30 -43 0 -45 -1 -45 -30 l0 -30 -60
0 -60 0 0 30 c0 29 -1 30 -50 30 -49 0 -50 -1 -50 -30 l0 -30 -65 0 -65 0 0
30 c0 28 -2 30 -39 30 -37 0 -40 -2 -43 -31 -3 -31 -4 -32 -53 -32 -48 0 -50
1 -53 30 -3 26 -8 32 -35 36 -41 6 -47 2 -47 -34 0 -28 -1 -29 -50 -29 -49 0
-50 1 -50 30 0 29 -2 30 -45 30 -41 0 -45 -2 -45 -24 0 -33 -22 -48 -67 -44
-36 3 -38 5 -41 42 -2 25 0 36 7 31 6 -3 11 -17 11 -31 0 -21 4 -25 26 -22
l27 3 -2 184 c-1 102 -4 188 -6 191 -2 4 -9 227 -15 496 -18 849 -20 896 -30
1059 -5 88 -15 274 -21 414 -10 250 -10 254 10 273 24 22 27 60 7 77 -8 7 -12
19 -9 29 2 9 -5 27 -16 39 -12 12 -21 24 -21 26 0 2 21 12 47 22 62 24 121 79
149 140 58 124 3 291 -118 354 l-45 24 3 66 c2 36 6 87 9 112 4 29 2 55 -5 69
-9 16 -9 25 1 36 10 12 6 21 -19 47 -25 26 -29 36 -20 45 9 9 8 20 -5 47 -15
31 -17 102 -23 633 -6 616 -19 850 -25 472z m7014 -3361 c17 -24 18 -30 6 -55
-12 -24 -21 -30 -57 -32 -52 -4 -72 10 -72 51 0 68 81 91 123 36z m-5413 -739
c6 -12 10 -38 8 -58 -3 -34 -6 -37 -35 -40 l-33 -3 0 48 c0 68 36 99 60 53z
m158 8 c7 -7 12 -31 12 -54 0 -34 -4 -44 -20 -49 -11 -3 -24 -3 -30 0 -11 7
-14 98 -3 108 10 11 28 8 41 -5z m172 -48 c0 -45 -22 -69 -45 -50 -20 16 -19
74 1 95 23 23 44 2 44 -45z m2828 48 c16 -16 15 -93 -1 -106 -8 -7 -17 -7 -30
2 -29 22 -19 116 13 116 3 0 11 -5 18 -12z m146 6 c23 -9 22 -92 -1 -109 -28
-21 -53 2 -53 50 0 54 18 73 54 59z m176 -60 c0 -47 -13 -63 -35 -44 -18 15
-20 81 -3 98 20 20 38 -6 38 -54z m-3690 -17 c0 -73 -18 -67 -20 8 -2 65 -2
67 10 60 6 -3 10 -34 10 -68z m3160 8 c0 -30 -4 -57 -10 -60 -6 -4 -10 18 -10
60 0 42 4 64 10 60 6 -3 10 -30 10 -60z m-3092 5 c-4 -67 -22 -69 -26 -2 -2
42 0 52 13 52 13 0 15 -10 13 -50z m597 0 c7 -49 2 -70 -16 -70 -5 0 -9 27 -9
60 0 73 15 79 25 10z m55 -10 c0 -33 -4 -60 -10 -60 -6 0 -10 27 -10 60 0 33
4 60 10 60 6 0 10 -27 10 -60z m2510 11 c0 -50 -13 -74 -24 -45 -3 9 -6 33 -6
55 0 28 4 39 15 39 11 0 15 -12 15 -49z m580 -6 c0 -42 -3 -55 -15 -55 -12 0
-15 13 -15 55 0 42 3 55 15 55 12 0 15 -13 15 -55z m56 -2 c0 -35 -6 -58 -13
-61 -10 -3 -13 13 -13 57 0 46 4 61 14 61 10 0 14 -14 12 -57z m-3638 -226 l3
-97 -34 0 c-35 0 -35 0 -42 58 -9 68 -7 123 6 139 6 7 20 8 37 4 27 -7 27 -8
30 -104z m147 97 c12 -13 15 -34 13 -103 l-3 -86 -34 -3 c-19 -2 -37 2 -41 8
-4 6 -7 46 -8 88 -1 100 29 139 73 96z m3153 4 c8 -8 12 -46 12 -105 l0 -93
-40 0 -40 0 0 93 c0 95 8 117 40 117 9 0 21 -5 28 -12z m-2983 -98 l0 -95 -37
-3 -38 -3 0 85 c0 107 4 118 44 114 l31 -3 0 -95z m2843 -2 l3 -98 -30 0 c-16
0 -32 3 -34 8 -3 4 -8 49 -12 100 l-8 93 39 -3 39 -3 3 -97z m302 63 c0 -21
-3 -66 -6 -100 -7 -59 -8 -61 -35 -61 l-29 0 0 93 c0 52 3 97 7 100 3 4 19 7
35 7 26 0 28 -3 28 -39z m-3676 -23 c9 -12 16 -32 16 -43 0 -17 -3 -16 -25 10
-25 31 -32 55 -16 55 6 0 17 -10 25 -22z m3176 -46 c-1 -13 -6 -11 -25 11 -14
15 -25 36 -25 45 1 13 6 11 25 -11 14 -15 25 -36 25 -45z m670 57 c0 -6 -8
-23 -19 -37 -10 -15 -21 -37 -25 -49 -4 -11 -13 -27 -22 -34 -16 -13 -14 -7
25 84 19 43 41 63 41 36z m-3759 -29 c4 -14 7 -44 8 -68 1 -36 -2 -43 -16 -40
-13 3 -17 12 -15 31 1 15 -4 40 -13 56 -21 41 -19 53 7 49 14 -2 25 -13 29
-28z m559 23 c0 -5 -9 -21 -20 -38 -11 -16 -20 -40 -20 -52 0 -12 -4 -25 -10
-28 -6 -4 -10 15 -10 49 0 42 4 57 18 65 20 12 42 14 42 4z m60 1 c0 -3 -8
-18 -18 -32 -10 -15 -22 -35 -25 -44 -4 -10 -12 -18 -18 -18 -8 0 -7 7 3 23 8
12 18 34 22 50 3 15 13 27 21 27 8 0 15 -3 15 -6z m2538 -11 c14 -28 24 -123
13 -123 -5 0 -13 10 -16 23 -4 12 -18 43 -31 70 l-25 47 25 0 c14 0 29 -8 34
-17z m542 12 c0 -2 -13 -26 -30 -52 l-30 -47 0 36 c0 38 21 68 46 68 8 0 14
-2 14 -5z m-580 -122 c0 -7 -4 -13 -9 -13 -10 0 -21 24 -21 48 0 13 3 12 15
-4 8 -10 15 -25 15 -31z m-8601 -120 c0 -34 -1 -36 -11 -16 -6 12 -8 29 -5 37
11 27 17 18 16 -21z m3026 -3 c-5 -8 -11 -8 -17 -2 -6 6 -7 16 -3 22 5 8 11 8
17 2 6 -6 7 -16 3 -22z m100 21 c3 -5 1 -12 -5 -16 -5 -3 -10 1 -10 9 0 18 6
21 15 7z m8305 -6 c0 -8 -4 -15 -10 -15 -5 0 -10 7 -10 15 0 8 5 15 10 15 6 0
10 -7 10 -15z m101 2 c-1 -12 -15 -9 -19 4 -3 6 1 10 8 8 6 -3 11 -8 11 -12z
m1456 -120 c-2 -23 -3 -1 -3 48 0 50 1 68 3 42 2 -26 2 -67 0 -90z m150 -39
c-2 -35 -3 -9 -3 57 0 66 1 94 3 63 2 -32 2 -86 0 -120z m-11930 130 c-3 -8
-6 -5 -6 6 -1 11 2 17 5 13 3 -3 4 -12 1 -19z m0 -140 c-2 -24 -4 -7 -4 37 0
44 2 63 4 43 2 -21 2 -57 0 -80z m1883 -4 c0 -76 -2 -85 -17 -82 -15 3 -18 14
-17 76 2 79 9 107 24 97 5 -3 10 -44 10 -91z m8400 11 c0 -78 -2 -85 -20 -85
-18 0 -20 7 -20 78 0 80 3 92 27 92 10 0 13 -21 13 -85z m-98 -61 l-9 -69 -1
90 c0 68 2 85 9 69 7 -14 7 -44 1 -90z m-8155 4 c-2 -18 -4 -6 -4 27 0 33 2
48 4 33 2 -15 2 -42 0 -60z m8413 32 c0 -27 -4 -50 -10 -50 -11 0 -14 83 -3
93 12 12 13 8 13 -43z m-11180 -52 c0 -16 -19 -8 -35 15 l-16 22 -19 -25 c-28
-37 -36 -17 -9 26 l23 37 28 -33 c15 -19 28 -38 28 -42z m13150 14 c0 -13 -2
-13 -19 2 -17 16 -19 15 -33 -6 -23 -35 -29 -6 -5 31 l21 34 18 -23 c10 -12
18 -29 18 -38z m-12992 16 c20 -34 7 -50 -15 -19 l-16 23 -23 -28 c-30 -38
-33 -8 -3 30 25 31 35 30 57 -6z m162 0 c23 -38 18 -48 -11 -22 -20 18 -22 18
-34 1 -14 -19 -25 -22 -25 -6 0 13 33 58 43 59 4 0 16 -14 27 -32z m12648 0
c25 -38 17 -61 -9 -27 -17 23 -18 23 -38 5 -12 -11 -24 -16 -27 -13 -7 7 34
67 46 67 4 0 17 -14 28 -32z m363 1 c13 -19 18 -34 12 -40 -6 -6 -14 0 -23 16
-15 28 -28 32 -36 10 -7 -18 -24 -20 -24 -3 0 13 29 48 41 48 4 0 17 -14 30
-31z m168 2 c12 -16 21 -34 21 -40 0 -21 -17 -11 -29 17 l-13 27 -22 -27 c-23
-29 -36 -35 -36 -17 0 13 42 68 52 68 4 1 16 -12 27 -28z m-13663 -39 c-3 -2
-13 1 -21 8 -12 10 -19 10 -27 2 -22 -22 -28 -12 -12 20 l17 32 24 -28 c13
-16 22 -31 19 -34z m644 6 c0 -20 -16 -24 -23 -5 -3 8 -9 6 -19 -7 -24 -31
-29 -3 -6 34 19 33 21 33 34 15 8 -10 14 -27 14 -37z m180 0 c0 -15 -19 -8
-29 9 -8 16 -11 15 -30 -7 -27 -33 -27 -10 1 25 l21 27 18 -23 c10 -13 19 -27
19 -31z m12155 26 c11 -17 14 -29 7 -36 -7 -7 -12 -3 -17 11 -8 26 -21 27 -34
4 -5 -10 -12 -15 -16 -11 -7 7 23 58 35 58 4 0 15 -12 25 -26z m829 -3 c17
-32 10 -50 -10 -23 -11 16 -13 16 -33 -2 -25 -23 -28 -6 -5 29 21 32 30 31 48
-4z m-13594 -31 c0 -5 -7 -10 -15 -10 -8 0 -15 5 -15 10 0 6 7 10 15 10 8 0
15 -4 15 -10z m3390 -25 c0 -22 4 -25 34 -25 30 0 35 4 39 28 3 21 4 19 6 -11
l1 -38 -47 3 c-46 3 -48 4 -51 36 -2 18 1 32 7 32 6 0 11 -11 11 -25z m10265
-23 c11 -4 20 -16 21 -28 0 -18 -3 -19 -23 -10 -12 6 -23 14 -23 19 0 4 -218
7 -484 7 l-485 0 -19 -25 c-11 -14 -24 -25 -28 -25 -4 0 -3 5 4 12 22 22 13
38 -19 38 -17 0 -28 4 -24 10 7 11 1047 12 1080 2z m-9278 -48 c-3 -3 -12 -4
-19 -1 -8 3 -5 6 6 6 11 1 17 -2 13 -5z m5386 -1 c-7 -2 -19 -2 -25 0 -7 3 -2
5 12 5 14 0 19 -2 13 -5z m1520 0 c-13 -2 -35 -2 -50 0 -16 2 -5 4 22 4 28 0
40 -2 28 -4z m1010 0 c-13 -2 -35 -2 -50 0 -16 2 -5 4 22 4 28 0 40 -2 28 -4z
m-5991 -30 c41 -37 19 -64 -85 -108 -74 -30 -290 -151 -342 -191 -30 -22 -40
-24 -153 -24 l-122 0 0 163 c0 90 3 167 7 170 3 4 157 7 341 7 298 0 337 -2
354 -17z m1668 -153 l0 -170 -98 0 -97 0 -65 43 c-81 55 -263 154 -352 192
-59 26 -68 33 -68 55 0 50 2 50 352 50 l328 0 0 -170z m-879 107 c53 -14 133
-40 177 -57 88 -34 385 -179 417 -204 18 -14 -65 -15 -872 -16 -491 0 -893 4
-893 8 0 12 214 123 345 179 237 101 343 123 565 119 141 -2 179 -6 261 -29z
m-7132 -35 c32 -27 34 -31 43 -129 5 -56 8 -135 6 -175 l-3 -73 -107 -3 -106
-3 -4 148 c-4 168 6 207 65 243 43 27 67 25 106 -8z m263 -1 l33 -29 3 -176 3
-176 -54 0 c-30 0 -74 3 -99 6 l-45 6 2 153 c2 167 13 206 66 232 37 19 56 16
91 -16z m261 9 c58 -34 67 -67 67 -239 l0 -151 -111 0 -110 0 3 171 3 171 37
34 c44 39 64 42 111 14z m12460 -8 c38 -34 47 -75 47 -222 l0 -140 -115 0
-115 0 0 143 c0 119 3 148 18 176 35 66 116 87 165 43z m269 1 c42 -38 48 -66
48 -218 l0 -146 -107 3 -108 3 -3 135 c-1 74 0 146 3 159 4 14 23 40 42 59 31
29 42 33 71 28 19 -3 43 -13 54 -23z m238 12 c53 -27 63 -63 64 -227 0 -81 -2
-148 -4 -150 -3 -2 -50 -1 -105 2 l-100 5 -3 140 c-2 138 -2 141 24 182 40 61
73 74 124 48z m-2313 -17 c-3 -8 -6 -5 -6 6 -1 11 2 17 5 13 3 -3 4 -12 1 -19z
m-10102 -20 c15 -7 33 -24 41 -40 18 -34 29 -185 20 -261 l-7 -57 -90 0 -89 0
0 148 c0 158 7 187 50 209 31 16 42 16 75 1z m249 1 c46 -21 56 -63 56 -223
l0 -146 -57 0 c-32 0 -75 3 -95 6 l-38 7 0 136 c0 149 12 193 61 218 30 16 42
16 73 2z m245 -4 c49 -25 61 -67 61 -218 l0 -136 -91 -3 c-63 -2 -93 1 -96 9
-2 6 -3 77 -1 158 l3 147 33 29 c37 33 51 35 91 14z m240 4 c54 -19 71 -74 71
-229 0 -71 -3 -130 -7 -132 -5 -2 -48 -1 -98 2 l-90 5 2 130 c3 173 7 192 46
215 38 23 35 23 76 9z m249 0 c52 -18 63 -57 60 -221 l-3 -143 -84 -3 c-46 -2
-87 1 -90 7 -3 5 -6 74 -6 153 0 154 6 176 57 205 28 15 28 15 66 2z m293 -43
c16 -27 19 -51 19 -172 l0 -141 -47 -6 c-27 -3 -69 -3 -95 0 l-48 6 0 134 c0
105 4 143 17 170 32 69 115 74 154 9z m8556 17 c-3 -10 -5 -4 -5 12 0 17 2 24
5 18 2 -7 2 -21 0 -30z m111 17 c14 -13 22 -33 22 -53 0 -18 3 -65 5 -104 l5
-73 -54 0 -53 0 1 104 c2 87 5 108 20 125 24 26 27 26 54 1z m-8390 -7 c5 -10
12 -64 15 -120 l5 -103 -49 0 -49 0 0 102 c0 80 3 105 17 120 20 23 50 23 61
1z m306 7 c14 -5 35 -24 46 -42 17 -29 20 -51 20 -170 l0 -138 -90 0 -90 0 0
133 c0 146 13 191 60 214 30 15 24 15 54 3z m253 -14 l28 -24 3 -156 3 -156
-85 0 -86 0 0 136 c0 147 11 192 53 212 34 17 54 14 84 -12z m218 14 c43 -16
55 -62 55 -215 l0 -136 -87 3 -88 3 0 135 c0 148 10 184 55 207 30 15 32 16
65 3z m237 -1 c37 -20 48 -69 48 -214 l0 -136 -87 3 -88 3 -3 133 c-2 105 1
140 13 166 24 49 73 68 117 45z m244 -16 c33 -36 35 -48 32 -198 l-3 -130 -82
-3 -83 -3 0 141 c0 106 4 148 15 170 29 56 81 66 121 23z m261 3 l28 -24 3
-156 3 -156 -86 0 -86 0 3 156 3 156 28 24 c15 13 39 24 52 24 13 0 37 -11 52
-24z m226 3 c38 -29 49 -79 45 -214 l-3 -120 -88 -3 -88 -3 3 151 3 152 33 29
c38 34 60 36 95 8z m234 -3 l28 -24 3 -156 3 -156 -86 0 -86 0 3 156 3 156 28
24 c15 13 39 24 52 24 13 0 37 -11 52 -24z m251 -14 c21 -26 22 -34 20 -172
l-3 -145 -82 -3 -83 -3 0 143 c0 154 7 183 50 205 33 18 70 8 98 -25z m4069
14 l28 -24 3 -151 4 -151 -86 0 -86 0 0 150 c0 147 1 152 25 175 31 32 75 32
112 1z m212 14 c36 -19 51 -82 51 -215 0 -75 -4 -126 -10 -130 -6 -4 -45 -3
-86 0 l-75 7 3 150 3 150 28 24 c30 26 57 30 86 14z m238 -14 l28 -24 3 -150
3 -150 -76 -4 c-41 -2 -80 -1 -85 0 -6 2 -10 56 -10 128 0 135 11 179 51 208
32 22 53 20 86 -8z m215 10 c36 -27 48 -80 48 -211 l0 -125 -84 0 -85 0 -7 47
c-10 69 2 226 20 261 21 41 74 54 108 28z m230 3 c36 -20 48 -69 48 -209 l0
-130 -85 0 -85 0 0 130 c0 99 4 137 16 164 24 49 65 67 106 45z m255 -4 c32
-23 43 -75 43 -213 l0 -123 -82 3 -83 3 -3 130 c-3 137 5 175 42 200 26 19 56
19 83 0z m230 -9 l28 -24 3 -151 4 -151 -87 0 -87 0 4 143 c3 149 11 175 53
196 32 16 52 13 82 -13z m188 18 c38 -15 53 -109 47 -286 l-2 -58 -80 0 -80 0
0 129 c0 71 4 141 10 155 20 53 61 76 105 60z m227 -5 c36 -20 48 -69 48 -209
l0 -130 -85 0 -85 0 0 129 c0 139 6 167 41 200 25 23 50 26 81 10z m625 -13
l28 -24 3 -151 3 -151 -85 0 -86 0 0 129 c0 136 6 167 40 201 27 27 63 25 97
-4z m210 9 c32 -23 43 -75 43 -213 l0 -123 -82 3 -83 3 -3 127 c-2 95 1 136
12 163 22 51 72 69 113 40z m230 -9 l28 -24 3 -151 3 -151 -80 0 -81 0 0 140
c0 176 11 204 82 209 9 0 30 -10 45 -23z m200 18 c41 -11 53 -60 53 -208 l0
-136 -81 0 -80 0 3 156 c3 150 4 157 27 175 24 20 41 23 78 13z m240 -18 l28
-24 3 -151 3 -151 -81 0 -81 0 3 149 c3 142 4 151 27 175 31 32 62 33 98 2z
m227 -9 c25 -33 26 -39 26 -175 l0 -142 -80 0 -80 0 0 134 c0 74 5 147 10 163
24 63 84 72 124 20z m-1657 -379 c-2 -13 -4 -3 -4 22 0 25 2 35 4 23 2 -13 2
-33 0 -45z m1713 43 c0 -6 -4 -13 -10 -16 -5 -3 -10 1 -10 9 0 9 5 16 10 16 6
0 10 -4 10 -9z m265 -1 c-3 -5 -11 -10 -16 -10 -6 0 -7 5 -4 10 3 6 11 10 16
10 6 0 7 -4 4 -10z m810 0 c3 -6 -1 -7 -9 -4 -18 7 -21 14 -7 14 6 0 13 -4 16
-10z m-2781 -215 c3 -8 1 -15 -4 -15 -6 0 -10 7 -10 15 0 8 2 15 4 15 2 0 6
-7 10 -15z"/>
<path d="M13555 3580 c-8 -13 4 -32 16 -25 12 8 12 35 0 35 -6 0 -13 -4 -16
-10z"/>
<path d="M11500 4837 c0 -35 -10 -39 -30 -14 -16 19 -19 20 -25 5 -4 -9 1 -30
10 -48 9 -17 13 -40 10 -51 -4 -13 0 -28 10 -39 19 -21 12 -60 -10 -60 -11 0
-10 -8 6 -35 l20 -34 -21 -88 c-30 -125 -87 -367 -105 -443 -43 -193 -66 -287
-74 -305 -5 -11 -11 -27 -13 -35 -3 -9 -14 2 -28 28 -13 23 -27 42 -31 42 -15
0 -21 -117 -8 -159 11 -37 29 -56 29 -31 0 6 93 10 260 10 167 0 260 -4 260
-10 0 -12 -46 -13 -317 -10 l-203 2 0 -201 0 -201 258 0 259 0 7 196 c6 161
10 204 27 246 16 40 19 63 13 105 -3 29 -9 53 -13 53 -4 0 -19 -22 -33 -50
-26 -50 -38 -55 -38 -13 0 16 -6 23 -20 23 -22 0 -26 10 -9 27 7 7 3 43 -17
124 -53 225 -95 405 -111 474 -8 39 -22 95 -30 125 -26 96 -26 103 -3 128 l22
24 -21 14 c-26 19 -27 40 -1 54 15 8 18 17 14 39 -4 17 1 41 10 60 16 30 14
57 -4 46 -4 -3 -13 2 -20 10 -18 22 -30 18 -30 -8z m149 -1499 c1 -86 -3 -138
-9 -138 -6 0 -10 62 -9 168 1 99 4 155 9 137 4 -16 8 -92 9 -167z m-260 99 c7
-14 11 -53 9 -102 l-3 -80 -45 0 -45 0 -3 82 c-2 46 2 92 8 103 15 28 63 27
79 -3z"/>
<path d="M8290 4830 c0 -11 8 -35 17 -55 13 -26 14 -38 5 -47 -8 -8 -6 -19 10
-41 l22 -30 -21 -16 c-20 -16 -20 -16 -1 -42 10 -14 19 -34 20 -45 0 -10 -26
-129 -60 -264 -33 -135 -77 -312 -96 -395 -20 -82 -43 -165 -52 -184 l-15 -34
-18 29 c-10 16 -27 37 -38 47 -17 15 -21 16 -26 3 -11 -29 4 -141 24 -174 17
-30 19 -53 19 -228 l0 -194 270 0 270 0 0 200 0 200 -270 0 c-173 0 -270 4
-270 10 0 16 547 13 553 -2 12 -31 38 66 35 128 -3 73 -16 77 -39 15 -17 -46
-36 -55 -31 -16 3 21 -1 25 -21 25 -21 0 -25 6 -30 38 -8 51 -64 310 -127 582
-52 222 -52 220 -35 253 14 28 14 32 0 39 -20 12 -19 37 2 60 13 14 15 23 7
36 -8 12 -6 28 8 60 11 24 17 46 14 49 -3 4 -33 8 -66 9 -54 3 -60 2 -60 -16z
m91 -1360 c17 -10 19 -22 19 -110 l0 -100 -55 0 -55 0 0 94 c0 87 2 96 22 110
26 19 42 20 69 6z"/>
<path d="M8337 3364 c-15 -15 -7 -45 11 -42 9 2 17 12 17 22 0 20 -16 31 -28
20z"/>
<path d="M8000 3072 c-44 -35 -80 -69 -80 -76 0 -10 93 -13 435 -15 239 -1
435 2 435 6 0 15 -14 28 -91 85 l-76 57 -272 3 -271 4 -80 -64z"/>
<path d="M11326 3133 l-98 -4 -79 -60 c-53 -40 -79 -67 -79 -80 0 -11 4 -18 9
-15 5 3 198 6 430 7 336 1 421 3 421 14 0 7 -35 39 -77 71 l-78 59 -100 6
c-103 7 -176 7 -349 2z"/>
<path d="M2651 2773 c-18 -60 -45 -147 -60 -195 -16 -48 -26 -90 -23 -93 7 -7
172 -6 210 1 l30 6 -14 47 c-15 46 -51 174 -81 284 -8 31 -18 57 -22 57 -4 0
-21 -48 -40 -107z"/>
<path d="M15670 2845 c-6 -16 -27 -84 -46 -150 -19 -66 -41 -137 -50 -159 -8
-21 -13 -41 -10 -43 9 -10 126 -15 179 -9 l55 7 -9 32 c-5 18 -27 97 -49 175
-49 176 -54 188 -70 147z"/>
</g>
</svg>
