<svg width="303" height="24" viewBox="0 0 303 24" fill="none" xmlns="http://www.w3.org/2000/svg">
<path d="M7.8732 12.9145H5.2002L4.2282 18.625H0.6561L3.7422 1.1776H9.9387C11.1051 1.1776 12.1176 1.3882 12.9762 1.8094C13.8348 2.2306 14.499 2.8219 14.9688 3.5833C15.4548 4.3285 15.6978 5.2114 15.6978 6.232C15.6978 7.5604 15.3738 8.7268 14.7258 9.7312C14.0778 10.7356 13.1706 11.5213 12.0042 12.0883C10.8378 12.6391 9.4608 12.9145 7.8732 12.9145ZM9.3555 4.2637H6.7554L5.7591 9.8284H8.3835C9.1611 9.8284 9.8253 9.6988 10.3761 9.4396C10.9269 9.1642 11.3481 8.7916 11.6397 8.3218C11.9475 7.8358 12.1014 7.2688 12.1014 6.6208C12.1014 5.8918 11.8584 5.3167 11.3724 4.8955C10.8864 4.4743 10.2141 4.2637 9.3555 4.2637ZM21.0918 18.868C20.0064 18.868 19.0425 18.6412 18.2001 18.1876C17.3577 17.7178 16.7016 17.0779 16.2318 16.2679C15.762 15.4417 15.5271 14.494 15.5271 13.4248C15.5271 12.3232 15.7134 11.2864 16.086 10.3144C16.4748 9.3424 17.0013 8.4919 17.6655 7.7629C18.3459 7.0177 19.1316 6.4426 20.0226 6.0376C20.9298 5.6164 21.8937 5.4058 22.9143 5.4058C23.9997 5.4058 24.9555 5.6407 25.7817 6.1105C26.6241 6.5641 27.2802 7.1959 27.75 8.0059C28.2198 8.8159 28.4547 9.7555 28.4547 10.8247C28.4547 11.9425 28.2603 12.9874 27.8715 13.9594C27.4989 14.9314 26.9724 15.79 26.292 16.5352C25.6116 17.2642 24.8259 17.8393 23.9349 18.2605C23.0601 18.6655 22.1124 18.868 21.0918 18.868ZM21.432 15.952C21.9504 15.952 22.4283 15.8305 22.8657 15.5875C23.3031 15.3445 23.6838 15.0043 24.0078 14.5669C24.348 14.1133 24.6072 13.5949 24.7854 13.0117C24.9798 12.4285 25.077 11.8048 25.077 11.1406C25.077 10.2658 24.8502 9.5773 24.3966 9.0751C23.943 8.5729 23.3274 8.3218 22.5498 8.3218C22.0476 8.3218 21.5697 8.4433 21.1161 8.6863C20.6787 8.9293 20.2899 9.2776 19.9497 9.7312C19.6257 10.1686 19.3665 10.6789 19.1721 11.2621C18.9939 11.8453 18.9048 12.4771 18.9048 13.1575C18.9048 14.0161 19.1316 14.6965 19.5852 15.1987C20.055 15.7009 20.6706 15.952 21.432 15.952ZM39.0154 18.625L38.1649 9.877L34.2769 18.625H30.9235L29.6599 5.6488H32.7946L33.4507 14.1538L37.1929 5.6488H40.4491L41.1781 14.1538L44.7988 5.6488H47.9821L42.1258 18.625H39.0154ZM52.9319 18.868C51.8627 18.868 50.8907 18.6493 50.0159 18.2119C49.1573 17.7583 48.4688 17.1103 47.9504 16.2679C47.4482 15.4255 47.1971 14.4211 47.1971 13.2547C47.1971 11.7481 47.5049 10.4035 48.1205 9.2209C48.7361 8.0383 49.5704 7.1068 50.6234 6.4264C51.6926 5.746 52.8833 5.4058 54.1955 5.4058C55.5401 5.4058 56.6255 5.746 57.4517 6.4264C58.2941 7.0906 58.8773 7.9897 59.2013 9.1237C59.5253 10.2577 59.5739 11.5375 59.3471 12.9631H49.0196L49.3841 10.8733H56.3825C56.4311 10.0471 56.261 9.3586 55.8722 8.8078C55.4996 8.2408 54.9326 7.9573 54.1712 7.9573C53.3774 7.9573 52.7132 8.2003 52.1786 8.6863C51.644 9.1561 51.239 9.7798 50.9636 10.5574C50.7044 11.3188 50.5748 12.1531 50.5748 13.0603C50.5748 14.0323 50.8016 14.7856 51.2552 15.3202C51.725 15.8386 52.373 16.0978 53.1992 16.0978C54.398 16.0978 55.2485 15.466 55.7507 14.2024H59.0555C58.5209 15.8386 57.719 17.0293 56.6498 17.7745C55.5806 18.5035 54.3413 18.868 52.9319 18.868ZM64.6114 12.2827L63.4936 18.625H60.2617L62.5459 5.6488L65.5105 5.6488L65.0731 8.176C65.4781 7.6252 65.9317 7.1554 66.4339 6.7666C66.9523 6.3616 67.5355 6.0538 68.1835 5.8432C68.8477 5.6326 69.601 5.5273 70.4434 5.5273L69.8359 8.905C68.8963 8.7754 68.0539 8.8159 67.3087 9.0265C66.5797 9.2371 65.9884 9.6097 65.5348 10.1443C65.0812 10.6789 64.7734 11.3917 64.6114 12.2827ZM75.5119 18.868C74.4427 18.868 73.4707 18.6493 72.5959 18.2119C71.7373 17.7583 71.0488 17.1103 70.5304 16.2679C70.0282 15.4255 69.7771 14.4211 69.7771 13.2547C69.7771 11.7481 70.0849 10.4035 70.7005 9.2209C71.3161 8.0383 72.1504 7.1068 73.2034 6.4264C74.2726 5.746 75.4633 5.4058 76.7755 5.4058C78.1201 5.4058 79.2055 5.746 80.0317 6.4264C80.8741 7.0906 81.4573 7.9897 81.7813 9.1237C82.1053 10.2577 82.1539 11.5375 81.9271 12.9631H71.5996L71.9641 10.8733H78.9625C79.0111 10.0471 78.841 9.3586 78.4522 8.8078C78.0796 8.2408 77.5126 7.9573 76.7512 7.9573C75.9574 7.9573 75.2932 8.2003 74.7586 8.6863C74.224 9.1561 73.819 9.7798 73.5436 10.5574C73.2844 11.3188 73.1548 12.1531 73.1548 13.0603C73.1548 14.0323 73.3816 14.7856 73.8352 15.3202C74.305 15.8386 74.953 16.0978 75.7792 16.0978C76.978 16.0978 77.8285 15.466 78.3307 14.2024H81.6355C81.1009 15.8386 80.299 17.0293 79.2298 17.7745C78.1606 18.5035 76.9213 18.868 75.5119 18.868ZM82.7745 13.522C82.7745 12.3718 82.9365 11.3107 83.2605 10.3387C83.6007 9.3505 84.0705 8.4838 84.6699 7.7386C85.2693 6.9934 85.9659 6.4183 86.7597 6.0133C87.5535 5.6083 88.4121 5.4058 89.3355 5.4058C90.2265 5.4058 90.9879 5.6164 91.6197 6.0376C92.2515 6.4426 92.6889 7.0096 92.9319 7.7386L94.0983 1.1776H97.3302L94.2441 18.625H91.2552L91.6197 16.6081C91.1499 17.2885 90.5505 17.8312 89.8215 18.2362C89.0925 18.6412 88.2987 18.8437 87.4401 18.8437C86.5167 18.8437 85.7067 18.6169 85.0101 18.1633C84.3135 17.7097 83.7627 17.086 83.3577 16.2922C82.9689 15.4984 82.7745 14.575 82.7745 13.522ZM86.1522 13.1818C86.1522 14.008 86.3709 14.6722 86.8083 15.1744C87.2619 15.6766 87.8532 15.9277 88.5822 15.9277C89.133 15.9277 89.6271 15.8062 90.0645 15.5632C90.5181 15.304 90.9069 14.9557 91.2309 14.5183C91.5549 14.0647 91.7979 13.5382 91.9599 12.9388C92.1381 12.3394 92.2272 11.7076 92.2272 11.0434C92.2272 10.2172 92.0085 9.553 91.5711 9.0508C91.1337 8.5486 90.5424 8.2975 89.7972 8.2975C89.1006 8.2975 88.4769 8.5081 87.9261 8.9293C87.3753 9.3505 86.9379 9.9256 86.6139 10.6546C86.3061 11.3836 86.1522 12.226 86.1522 13.1818ZM115.426 10.7032C115.426 11.8534 115.256 12.9307 114.916 13.9351C114.592 14.9233 114.13 15.79 113.531 16.5352C112.931 17.2642 112.235 17.8393 111.441 18.2605C110.647 18.6655 109.789 18.868 108.865 18.868C107.974 18.868 107.172 18.6574 106.459 18.2362C105.763 17.7988 105.285 17.2318 105.026 16.5352L104.637 18.625H101.672L104.758 1.1776H107.99L106.824 7.5928C107.31 6.9124 107.901 6.3778 108.598 5.989C109.294 5.6002 110.015 5.4058 110.761 5.4058C111.684 5.4058 112.494 5.6326 113.191 6.0862C113.887 6.5236 114.43 7.1473 114.819 7.9573C115.224 8.7511 115.426 9.6664 115.426 10.7032ZM112.048 11.0677C112.048 10.2253 111.822 9.5611 111.368 9.0751C110.914 8.5729 110.331 8.3218 109.618 8.3218C109.068 8.3218 108.565 8.4514 108.112 8.7106C107.674 8.9536 107.294 9.3019 106.97 9.7555C106.646 10.1929 106.395 10.7113 106.216 11.3107C106.038 11.8939 105.949 12.5257 105.949 13.2061C105.949 14.0323 106.176 14.6965 106.63 15.1987C107.083 15.7009 107.674 15.952 108.403 15.952C109.116 15.952 109.74 15.7414 110.275 15.3202C110.825 14.899 111.255 14.3239 111.562 13.5949C111.886 12.8497 112.048 12.0073 112.048 11.0677ZM129.081 5.6488L119.75 23.3149H116.227L118.948 18.4792L116.397 5.6488H119.653L121.208 14.6398L125.606 5.6488H129.081Z" fill="#B6FFE2"/>
<path d="M157.319 3.10664H162.919V5.24557C162.919 8.14649 160.549 10.4911 157.615 10.4911H157.319V3.10664ZM149.348 0H157.319V20.1913H156.37C150.592 20.1913 149.437 16.2061 149.437 12.6598L149.348 0ZM136.398 4.57196C136.398 8.1762 139.006 9.4952 141.91 9.93487H136.398V20.25H141.702C147.037 20.25 147.658 17.9053 147.658 15.678C147.658 12.9524 145.762 11.0482 142.828 10.3151H147.658V0H142.354C137.021 0 136.398 2.34465 136.398 4.57196Z" fill="#B6FFE2"/>
<g clip-path="url(#clip0_143_132)">
<path d="M175.696 16.2318C174.8 16.2318 173.977 16.1494 173.219 15.9755C172.46 15.8016 171.802 15.5546 171.235 15.2344C170.669 14.914 170.23 14.5114 169.919 14.0356C169.608 13.5598 169.453 13.0108 169.453 12.3794C169.453 12.3153 169.453 12.2513 169.453 12.1872C169.453 12.1232 169.462 12.0683 169.481 12.0226H172.881C172.881 12.05 172.881 12.0866 172.881 12.1324C172.881 12.169 172.881 12.2056 172.881 12.2422C172.899 12.6173 173.036 12.9193 173.301 13.1572C173.566 13.3951 173.922 13.5598 174.361 13.6604C174.8 13.7612 175.257 13.816 175.741 13.816C176.198 13.816 176.637 13.7886 177.067 13.7245C177.496 13.6604 177.853 13.5323 178.145 13.3493C178.437 13.1572 178.575 12.91 178.575 12.599C178.575 12.2055 178.401 11.9219 178.063 11.7297C177.715 11.5376 177.249 11.3911 176.646 11.2813C176.043 11.1715 175.367 11.0434 174.617 10.9062C173.996 10.7964 173.392 10.6591 172.826 10.4852C172.259 10.3114 171.738 10.0918 171.29 9.81725C170.833 9.54274 170.477 9.19505 170.212 8.75582C169.947 8.32575 169.81 7.78586 169.81 7.14533C169.81 6.46819 169.956 5.8917 170.257 5.40673C170.559 4.92175 170.979 4.51913 171.528 4.20802C172.076 3.8969 172.725 3.66813 173.465 3.51257C174.206 3.36616 175.01 3.29297 175.869 3.29297C176.664 3.29297 177.423 3.36616 178.127 3.51257C178.831 3.65897 179.443 3.87861 179.955 4.17143C180.476 4.46424 180.878 4.82112 181.189 5.26034C181.499 5.69957 181.646 6.19368 181.646 6.74271C181.646 6.83421 181.646 6.92569 181.646 6.9989C181.646 7.08125 181.636 7.13618 181.618 7.19108H178.218V7.02637C178.218 6.72441 178.109 6.48651 177.898 6.29435C177.688 6.10219 177.396 5.96489 177.03 5.85509C176.664 5.74528 176.244 5.69954 175.778 5.69954C175.54 5.69954 175.275 5.71783 174.983 5.74528C174.69 5.77273 174.398 5.82764 174.124 5.90999C173.849 5.99234 173.63 6.10219 173.465 6.23944C173.301 6.3767 173.219 6.55969 173.219 6.7793C173.219 7.06296 173.365 7.28261 173.667 7.44732C173.968 7.61203 174.361 7.74011 174.855 7.83163C175.348 7.92313 175.878 8.0238 176.463 8.1336C177.121 8.27086 177.779 8.41724 178.437 8.56365C179.096 8.71006 179.699 8.91134 180.247 9.16756C180.796 9.41462 181.225 9.78069 181.536 10.2474C181.847 10.714 182.002 11.3454 182.002 12.1232C182.002 12.8736 181.847 13.514 181.545 14.0356C181.243 14.5572 180.805 14.9873 180.247 15.3075C179.681 15.6278 179.022 15.8565 178.255 16.003C177.487 16.1494 176.619 16.2318 175.696 16.2318Z" fill="#B6FFE2"/>
<path d="M188.793 16.2344C187.321 16.2344 186.188 15.8593 185.374 15.109C184.57 14.3586 184.168 13.1782 184.168 11.5586V3.59766H187.595V11.0004C187.595 11.4579 187.65 11.8331 187.76 12.1442C187.87 12.4461 188.034 12.6932 188.253 12.8853C188.473 13.0776 188.738 13.2147 189.039 13.2971C189.341 13.3795 189.688 13.4252 190.081 13.4252C190.648 13.4252 191.16 13.2971 191.617 13.0501C192.074 12.803 192.449 12.4462 192.732 12.0069C193.015 11.5586 193.152 11.0553 193.152 10.4879V3.60682H196.598V15.9691H193.783L193.527 14.0932H193.363C192.988 14.5782 192.567 14.9808 192.092 15.3011C191.626 15.6213 191.105 15.8593 190.529 16.0148C189.953 16.1704 189.387 16.2344 188.793 16.2344Z" fill="#B6FFE2"/>
<path d="M199.469 20.2513V3.58835H202.265L202.567 5.37271H202.732C203.216 4.62237 203.828 4.09164 204.578 3.77137C205.318 3.46026 206.132 3.30469 207.009 3.30469C208.152 3.30469 209.139 3.53345 209.98 3.99097C210.82 4.4485 211.46 5.15308 211.917 6.10473C212.374 7.05638 212.593 8.28256 212.593 9.77408C212.593 11.229 212.365 12.4369 211.899 13.3885C211.433 14.3402 210.802 15.0539 209.989 15.5297C209.175 15.9964 208.225 16.2344 207.128 16.2344C206.579 16.2344 206.049 16.1702 205.547 16.0421C205.035 15.914 204.569 15.7219 204.148 15.4656C203.728 15.2095 203.362 14.8891 203.07 14.514H202.933V20.2513H199.469ZM206.013 13.4343C206.717 13.4343 207.292 13.3062 207.749 13.0499C208.206 12.7938 208.535 12.4003 208.755 11.8787C208.974 11.3571 209.084 10.7349 209.084 10.012V9.54532C209.084 8.79498 208.974 8.16359 208.755 7.64201C208.535 7.12958 208.197 6.73609 207.749 6.47987C207.292 6.22366 206.707 6.09558 205.985 6.09558C205.309 6.09558 204.742 6.23285 204.285 6.51652C203.819 6.80018 203.472 7.20281 203.225 7.72439C202.978 8.24597 202.86 8.86817 202.86 9.59106V9.92046C202.86 10.4512 202.933 10.9454 203.07 11.3846C203.207 11.8329 203.408 12.2081 203.673 12.5101C203.938 12.812 204.249 13.0499 204.633 13.2055C205.026 13.3519 205.483 13.4343 206.013 13.4343Z" fill="#B6FFE2"/>
<path d="M221.485 16.2309C219.996 16.2309 218.734 16.0022 217.692 15.5356C216.65 15.0688 215.855 14.3643 215.307 13.4127C214.759 12.461 214.484 11.244 214.484 9.77078C214.484 8.29755 214.759 7.08055 215.307 6.1289C215.855 5.17726 216.641 4.46351 217.665 4.00598C218.689 3.54846 219.932 3.31055 221.385 3.31055C222.811 3.31055 224.017 3.53931 225.013 3.99683C226.01 4.45436 226.759 5.14065 227.262 6.074C227.774 7.00735 228.02 8.17858 228.02 9.58776V10.5485H218.021C218.049 11.2714 218.204 11.8662 218.469 12.3421C218.734 12.8179 219.118 13.1656 219.63 13.3852C220.142 13.6048 220.772 13.7146 221.522 13.7146C221.897 13.7146 222.253 13.6688 222.6 13.5865C222.948 13.5042 223.259 13.3668 223.542 13.1838C223.825 13.0008 224.063 12.7812 224.246 12.5159C224.438 12.2506 224.538 11.9486 224.547 11.6009H227.993C227.993 12.3238 227.828 12.9735 227.509 13.55C227.189 14.1265 226.75 14.6113 226.183 15.0048C225.617 15.3983 224.94 15.7003 224.145 15.9107C223.359 16.1212 222.463 16.2309 221.485 16.2309ZM218.076 8.40736H224.41C224.41 7.96814 224.337 7.58382 224.191 7.2544C224.045 6.92498 223.834 6.65044 223.569 6.43083C223.304 6.21122 222.993 6.05569 222.628 5.94588C222.272 5.84523 221.869 5.79029 221.431 5.79029C220.754 5.79029 220.178 5.89095 219.703 6.08311C219.228 6.27527 218.853 6.57725 218.588 6.96157C218.332 7.36419 218.158 7.84003 218.076 8.40736Z" fill="#B6FFE2"/>
<path d="M230.461 15.948V3.58578H233.276L233.559 5.60806H233.724C233.879 5.18714 234.108 4.79365 234.409 4.43678C234.702 4.07991 235.067 3.79626 235.497 3.59495C235.926 3.39364 236.42 3.29297 236.959 3.29297C237.243 3.29297 237.499 3.32043 237.736 3.36619C237.974 3.41194 238.175 3.46683 238.349 3.53088V6.54137H236.987C236.457 6.54137 236 6.62374 235.616 6.78845C235.232 6.95316 234.912 7.19109 234.656 7.49306C234.4 7.79502 234.208 8.15188 234.089 8.56365C233.971 8.97542 233.916 9.43295 233.916 9.94537V15.9573H230.461V15.948Z" fill="#B6FFE2"/>
<path d="M245.232 16.2329C244.372 16.2329 243.669 16.0957 243.12 15.8303C242.572 15.5649 242.17 15.1714 241.914 14.6407C241.658 14.1101 241.53 13.4603 241.53 12.6826V6.17657H239.629V3.59613H241.667L242.325 0H244.976V3.59613H247.745V6.17657H244.976V12.1884C244.976 12.6551 245.076 13.012 245.268 13.2591C245.46 13.5061 245.835 13.6251 246.383 13.6251H247.745V15.8578C247.544 15.9218 247.288 15.9767 246.996 16.0315C246.694 16.0865 246.392 16.1323 246.082 16.1689C245.762 16.2054 245.478 16.2329 245.232 16.2329Z" fill="#B6FFE2"/>
<path d="M256.275 16.2309C254.785 16.2309 253.524 16.0022 252.482 15.5356C251.44 15.0688 250.645 14.3643 250.096 13.4127C249.548 12.461 249.273 11.244 249.273 9.77078C249.273 8.29755 249.548 7.08055 250.096 6.1289C250.645 5.17726 251.431 4.46351 252.454 4.00598C253.478 3.54846 254.721 3.31055 256.174 3.31055C257.6 3.31055 258.806 3.53931 259.803 3.99683C260.799 4.45436 261.548 5.14065 262.051 6.074C262.563 7.00735 262.81 8.17858 262.81 9.58776V10.5485H252.82C252.847 11.2714 253.003 11.8662 253.268 12.3421C253.533 12.8179 253.917 13.1656 254.428 13.3852C254.94 13.6048 255.571 13.7146 256.32 13.7146C256.695 13.7146 257.051 13.6688 257.399 13.5865C257.746 13.5042 258.057 13.3668 258.34 13.1838C258.624 13.0008 258.861 12.7812 259.044 12.5159C259.236 12.2506 259.336 11.9486 259.346 11.6009H262.791C262.791 12.3238 262.627 12.9735 262.307 13.55C261.987 14.1265 261.548 14.6113 260.982 15.0048C260.415 15.3983 259.739 15.7003 258.943 15.9107C258.148 16.1212 257.262 16.2309 256.275 16.2309ZM252.865 8.40736H259.199C259.199 7.96814 259.126 7.58382 258.98 7.2544C258.834 6.92498 258.623 6.65044 258.358 6.43083C258.093 6.21122 257.783 6.05569 257.417 5.94588C257.061 5.84523 256.658 5.79029 256.22 5.79029C255.543 5.79029 254.968 5.89095 254.492 6.08311C254.017 6.27527 253.642 6.57725 253.377 6.96157C253.121 7.36419 252.948 7.84003 252.865 8.40736Z" fill="#B6FFE2"/>
<path d="M269.204 16.2318C268.656 16.2318 268.107 16.1769 267.559 16.067C267.01 15.9573 266.526 15.7741 266.096 15.5271C265.667 15.28 265.32 14.9233 265.054 14.4565C264.79 13.999 264.652 13.4043 264.652 12.6813C264.652 11.7572 264.872 11.0068 265.31 10.4395C265.749 9.87215 266.38 9.44211 267.211 9.14929C268.043 8.85648 269.021 8.66431 270.155 8.5728C271.288 8.4813 272.54 8.43553 273.902 8.43553V7.70349C273.902 7.28257 273.81 6.93484 273.628 6.66033C273.445 6.38581 273.171 6.16624 272.787 6.01068C272.403 5.85513 271.891 5.77276 271.251 5.77276C270.685 5.77276 270.209 5.82767 269.807 5.94663C269.405 6.06559 269.103 6.22114 268.893 6.40415C268.683 6.58716 268.573 6.8159 268.573 7.06296V7.34661H265.192C265.173 7.25511 265.164 7.17275 265.155 7.1087C265.146 7.04465 265.146 6.97148 265.146 6.87083C265.146 6.14794 265.393 5.51656 265.877 4.97668C266.361 4.4368 267.074 4.02498 267.998 3.73217C268.921 3.43935 270.045 3.29297 271.343 3.29297C272.64 3.29297 273.728 3.43024 274.615 3.7139C275.501 3.99757 276.178 4.4368 276.644 5.03158C277.11 5.62636 277.348 6.38584 277.348 7.31004V12.7363C277.348 13.0199 277.421 13.2304 277.567 13.3859C277.713 13.5323 277.896 13.6056 278.115 13.6056H279.102V15.8108C278.929 15.884 278.655 15.9664 278.28 16.0579C277.905 16.1403 277.466 16.186 276.964 16.186C276.388 16.186 275.904 16.1128 275.529 15.9664C275.154 15.82 274.861 15.6186 274.651 15.3533C274.441 15.0879 274.286 14.7951 274.194 14.4474H274.002C273.673 14.7951 273.271 15.097 272.796 15.3715C272.321 15.6461 271.781 15.8565 271.178 15.9939C270.584 16.1585 269.926 16.2318 269.204 16.2318ZM270.237 13.6879C270.694 13.6879 271.132 13.633 271.562 13.514C271.992 13.395 272.376 13.2304 272.723 13.0199C273.07 12.8094 273.344 12.5441 273.564 12.2238C273.783 11.9036 273.893 11.5558 273.893 11.1807V10.4944C272.668 10.4944 271.635 10.5493 270.767 10.6682C269.908 10.7872 269.241 10.9794 268.784 11.2539C268.327 11.5284 268.089 11.9036 268.089 12.3977C268.089 12.7088 268.18 12.9651 268.372 13.1481C268.564 13.3402 268.82 13.4774 269.149 13.5598C269.487 13.6513 269.844 13.6879 270.237 13.6879Z" fill="#B6FFE2"/>
<path d="M280.723 15.9473V3.58505H283.538L283.821 5.44262H283.986C284.315 4.95764 284.707 4.55501 285.174 4.23474C285.64 3.91448 286.133 3.67655 286.664 3.53015C287.194 3.38374 287.742 3.31055 288.309 3.31055C289.259 3.31055 290.073 3.47524 290.722 3.81381C291.37 4.15238 291.882 4.69228 292.22 5.44262H292.385C292.732 4.95764 293.134 4.55501 293.591 4.23474C294.048 3.91448 294.56 3.67655 295.118 3.53015C295.675 3.38374 296.242 3.31055 296.818 3.31055C297.741 3.31055 298.527 3.4661 299.176 3.77722C299.824 4.08834 300.328 4.59157 300.693 5.27786C301.049 5.96414 301.233 6.8426 301.233 7.91321V15.9473H297.759V8.49885C297.759 8.05963 297.704 7.68447 297.603 7.37336C297.503 7.06224 297.357 6.80603 297.175 6.62302C296.983 6.43084 296.745 6.30274 296.462 6.22038C296.169 6.13803 295.858 6.10143 295.538 6.10143C295.026 6.10143 294.551 6.22041 294.121 6.46747C293.692 6.71453 293.345 7.0531 293.089 7.50147C292.833 7.94985 292.705 8.4531 292.705 9.02043V15.9473H289.277V8.49885C289.277 8.05963 289.223 7.68447 289.113 7.37336C289.003 7.06224 288.848 6.80603 288.656 6.62302C288.464 6.43084 288.226 6.30274 287.952 6.22038C287.678 6.13803 287.358 6.10143 287.002 6.10143C286.481 6.10143 286.015 6.22041 285.585 6.46747C285.155 6.71453 284.817 7.0531 284.561 7.50147C284.315 7.94985 284.187 8.4531 284.187 9.02043V15.9473H280.723Z" fill="#B6FFE2"/>
</g>
<defs>
<clipPath id="clip0_143_132">
<rect width="132.735" height="20.25" fill="white" transform="translate(169.453)"/>
</clipPath>
</defs>
</svg>
