<svg viewBox="0 0 132 42" fill="none" xmlns="http://www.w3.org/2000/svg">
							<path d="M25.2402 17.8433C25.2402 15.5032 23.3419 13.6079 21.0049 13.6079C18.6678 13.6079 16.7695 15.5062 16.7695 17.8433C16.7695 19.4795 17.6989 20.8994 19.0609 21.6033L17.4917 28.392H24.5272L22.958 21.6033C24.317 20.8994 25.2463 19.4795 25.2463 17.8433H25.2402Z" fill="white"></path>
							<path d="M37.5727 26.3414C36.75 32.731 31.2806 37.6854 24.6716 37.6854H17.3344C10.1587 37.6854 4.32066 31.8474 4.32066 24.6716V17.3344C4.32066 10.1587 10.1587 4.32066 17.3344 4.32066H24.6716C31.2806 4.32066 36.75 9.2751 37.5727 15.6647H41.9208C41.0768 6.88625 33.6634 0 24.6686 0H17.3314C7.77597 0 0 7.77597 0 17.3314V24.6686C0 34.2271 7.77597 42 17.3314 42H24.6686C33.6603 42 41.0737 35.1138 41.9177 26.3384H37.5696L37.5727 26.3414Z" fill="white"></path>
							<path d="M78.8706 11.9136H74.5469V32.0909H78.8706V11.9136Z" fill="white"></path>
							<path d="M91.9833 27.365L86.4835 11.9136H81.8398L89.2867 32.0878H94.5276L101.974 11.9136H97.407L91.9833 27.365Z" fill="white"></path>
							<path d="M109.261 11.9136H104.938V32.0909H109.261V11.9136Z" fill="white"></path>
							<path d="M127.36 25.1074C126.771 27.3165 125.026 28.6297 122.64 28.6297C119.285 28.6297 117.033 25.9819 117.033 22.0421C117.033 18.1023 119.288 15.3752 122.64 15.3752C125.093 15.3752 126.771 16.6245 127.396 18.8976H131.93C131.004 14.3088 127.664 11.6792 122.719 11.6792C119.727 11.6792 117.183 12.6634 115.367 14.5282C113.551 16.3868 112.594 18.9859 112.594 22.0421C112.594 25.0982 113.532 27.7248 115.309 29.5469C117.082 31.3659 119.605 32.3257 122.603 32.3257C127.585 32.3257 131.053 29.6291 131.933 25.1074H127.36Z" fill="white"></path>
							<path d="M66.4494 25.1074C65.8613 27.3165 64.1154 28.6297 61.7296 28.6297C58.3748 28.6297 56.1231 25.9819 56.1231 22.0421C56.1231 18.1023 58.3779 15.3752 61.7296 15.3752C64.1824 15.3752 65.8613 16.6245 66.486 18.8976H71.0199C70.0936 14.3088 66.7541 11.6792 61.8088 11.6792C58.8166 11.6792 56.2724 12.6634 54.4564 14.5282C52.6404 16.3868 51.6836 18.9859 51.6836 22.0421C51.6836 25.0982 52.6221 27.7248 54.3985 29.5469C56.1718 31.3659 58.6948 32.3257 61.693 32.3257C66.6749 32.3257 70.1424 29.6291 71.023 25.1074H66.4494Z" fill="white"></path>
						</svg>