<svg xmlns="http://www.w3.org/2000/svg" xmlns:xlink="http://www.w3.org/1999/xlink" width="820" zoomAndPan="magnify" viewBox="0 0 615 143.249994" height="191" preserveAspectRatio="xMidYMid meet" version="1.0"><defs><clipPath id="20be944951"><path d="M 159 3.507812 L 218 3.507812 L 218 27 L 159 27 Z M 159 3.507812 " clip-rule="nonzero"/></clipPath><clipPath id="6c0cd66098"><path d="M 158 61 L 219 61 L 219 139.296875 L 158 139.296875 Z M 158 61 " clip-rule="nonzero"/></clipPath></defs><g clip-path="url(#20be944951)"><path fill="#ffffff" d="M 186.707031 3.929688 C 187.691406 3.367188 188.894531 3.367188 189.878906 3.929688 L 217.148438 19.464844 C 217.691406 19.773438 217.691406 20.554688 217.148438 20.863281 L 207.945312 26.089844 C 206.960938 26.648438 205.757812 26.648438 204.773438 26.089844 L 189.878906 17.601562 C 188.894531 17.042969 187.691406 17.042969 186.707031 17.601562 L 171.820312 26.0625 C 170.835938 26.621094 169.636719 26.621094 168.652344 26.0625 L 159.46875 20.84375 C 158.925781 20.535156 158.925781 19.753906 159.46875 19.445312 Z M 186.707031 3.929688 " fill-opacity="1" fill-rule="nonzero"/></g><path fill="#ffffff" d="M 147.78125 27.902344 L 156.96875 33.101562 C 157.511719 33.410156 157.511719 34.191406 156.972656 34.5 L 142.597656 42.726562 C 141.515625 43.34375 141.519531 44.910156 142.601562 45.523438 L 156.929688 53.636719 C 157.46875 53.941406 157.472656 54.726562 156.929688 55.035156 L 147.78125 60.261719 C 146.78125 60.835938 146.160156 61.902344 146.160156 63.058594 L 146.160156 113.1875 C 146.160156 114.421875 144.832031 115.199219 143.761719 114.585938 L 117.6875 99.675781 C 116.6875 99.101562 116.066406 98.035156 116.066406 96.878906 L 116.066406 46.042969 C 116.066406 44.882812 116.6875 43.816406 117.691406 43.246094 L 144.617188 27.90625 C 145.597656 27.347656 146.800781 27.347656 147.78125 27.902344 Z M 147.78125 27.902344 " fill-opacity="1" fill-rule="nonzero"/><g clip-path="url(#6c0cd66098)"><path fill="#ffffff" d="M 207.953125 62.058594 L 216.757812 67.0625 C 217.765625 67.632812 218.386719 68.699219 218.386719 69.859375 L 218.386719 120.996094 C 218.386719 122.160156 217.757812 123.234375 216.746094 123.800781 L 189.871094 138.886719 C 188.890625 139.4375 187.695312 139.433594 186.71875 138.878906 L 159.828125 123.632812 C 158.820312 123.058594 158.199219 121.992188 158.199219 120.832031 L 158.199219 68.921875 C 158.199219 68.34375 158.511719 67.808594 159.011719 67.523438 L 168.632812 62.058594 C 169.613281 61.5 170.816406 61.5 171.796875 62.054688 L 186.714844 70.503906 C 187.695312 71.058594 188.890625 71.058594 189.871094 70.503906 L 204.789062 62.054688 C 205.773438 61.5 206.972656 61.5 207.953125 62.058594 Z M 207.953125 62.058594 " fill-opacity="1" fill-rule="nonzero"/></g><path fill="#ffffff" d="M 228.457031 27.894531 L 219.253906 33.101562 C 218.710938 33.410156 218.707031 34.191406 219.25 34.5 L 233.625 42.726562 C 234.707031 43.34375 234.703125 44.910156 233.617188 45.523438 L 219.292969 53.636719 C 218.75 53.941406 218.75 54.726562 219.289062 55.035156 L 228.4375 60.261719 C 229.441406 60.835938 230.058594 61.902344 230.058594 63.058594 L 230.058594 113.199219 C 230.058594 114.433594 231.386719 115.207031 232.457031 114.601562 L 258.890625 99.613281 C 259.894531 99.042969 260.519531 97.972656 260.519531 96.8125 L 260.519531 45.9375 C 260.519531 44.773438 259.890625 43.699219 258.871094 43.128906 L 231.597656 27.882812 C 230.621094 27.339844 229.429688 27.34375 228.457031 27.894531 Z M 228.457031 27.894531 " fill-opacity="1" fill-rule="nonzero"/><path fill="#ffffff" d="M 333.078125 51.769531 C 330.191406 50.257812 326.96875 49.503906 323.410156 49.503906 L 307.085938 49.503906 L 307.085938 92.671875 L 323.410156 92.671875 C 326.96875 92.671875 330.191406 91.917969 333.078125 90.40625 C 336.007812 88.898438 338.332031 86.695312 340.046875 83.800781 C 341.761719 80.90625 342.621094 77.488281 342.621094 73.542969 L 342.621094 68.636719 C 342.621094 64.691406 341.761719 61.273438 340.046875 58.378906 C 338.332031 55.484375 336.007812 53.28125 333.078125 51.769531 Z M 323.410156 84.933594 L 316.816406 84.933594 L 316.816406 57.246094 L 323.410156 57.246094 C 326.089844 57.246094 328.265625 58.125 329.9375 59.886719 C 331.613281 61.609375 332.449219 64.0625 332.449219 67.25 L 332.449219 74.925781 C 332.449219 78.117188 331.613281 80.589844 329.9375 82.351562 C 328.265625 84.074219 326.089844 84.933594 323.410156 84.933594 Z M 384.277344 92.671875 L 393.945312 92.671875 L 393.945312 75.996094 L 405.058594 75.996094 C 407.445312 75.996094 409.621094 75.410156 411.585938 74.234375 C 413.597656 73.0625 415.164062 71.464844 416.296875 69.453125 C 417.46875 67.398438 418.054688 65.171875 418.054688 62.78125 L 418.054688 62.40625 C 418.054688 59.972656 417.46875 57.769531 416.296875 55.796875 C 415.125 53.824219 413.53125 52.292969 411.523438 51.203125 C 409.558594 50.070312 407.402344 49.503906 405.058594 49.503906 L 384.277344 49.503906 Z M 402.796875 68.382812 L 393.945312 68.382812 L 393.945312 57.246094 L 402.796875 57.246094 C 404.429688 57.246094 405.75 57.789062 406.753906 58.882812 C 407.800781 59.929688 408.324219 61.1875 408.324219 62.65625 L 408.324219 63.035156 C 408.324219 64.460938 407.800781 65.71875 406.753906 66.808594 C 405.707031 67.859375 404.386719 68.382812 402.796875 68.382812 Z M 447.117188 92.671875 L 447.117188 74.675781 L 432.238281 74.675781 L 432.238281 92.671875 L 422.503906 92.671875 L 422.503906 49.503906 L 432.175781 49.503906 L 432.175781 66.621094 L 447.117188 66.621094 L 447.117188 49.503906 L 456.785156 49.503906 L 456.785156 92.671875 Z M 485 76.125 L 485 92.671875 L 475.328125 92.671875 L 475.328125 76.125 L 460.574219 49.503906 L 471.5 49.503906 L 480.476562 66.621094 L 480.792969 66.621094 L 489.769531 49.503906 L 499.6875 49.503906 Z M 378.253906 80.652344 C 378.253906 83.464844 377.582031 85.835938 376.242188 87.765625 C 374.902344 89.652344 373.125 91.058594 370.90625 91.980469 C 368.730469 92.863281 366.34375 93.300781 363.75 93.300781 L 362.746094 93.300781 C 359.773438 93.300781 357.09375 92.671875 354.710938 91.414062 C 352.324219 90.15625 350.441406 88.351562 349.058594 86.003906 C 347.71875 83.609375 347.050781 80.78125 347.050781 77.507812 L 347.050781 75.683594 C 347.050781 72.453125 347.742188 69.640625 349.121094 67.25 C 350.503906 64.859375 352.367188 63.035156 354.710938 61.773438 C 357.09375 60.515625 359.773438 59.886719 362.746094 59.886719 L 363.75 59.886719 C 366.34375 59.886719 368.75 60.433594 370.96875 61.523438 C 373.1875 62.570312 374.964844 64.125 376.304688 66.179688 C 377.644531 68.195312 378.316406 70.585938 378.316406 73.355469 L 378.316406 78.136719 L 356.339844 78.136719 L 356.339844 79.648438 C 356.339844 81.742188 356.949219 83.507812 358.164062 84.933594 C 359.417969 86.316406 361.113281 87.007812 363.246094 87.007812 C 365.171875 87.007812 366.679688 86.484375 367.765625 85.4375 C 368.898438 84.34375 369.460938 82.75 369.460938 80.652344 Z M 362.808594 66.179688 C 360.964844 66.179688 359.460938 66.832031 358.289062 68.128906 C 357.15625 69.429688 356.507812 71.089844 356.339844 73.101562 L 369.023438 73.101562 C 369.023438 70.960938 368.519531 69.285156 367.515625 68.066406 C 366.554688 66.808594 364.984375 66.179688 362.808594 66.179688 Z M 362.808594 66.179688 " fill-opacity="1" fill-rule="evenodd"/><path fill="#e4a055" d="M 187.207031 30.789062 L 165.246094 43.351562 C 164.707031 43.660156 164.707031 44.445312 165.25 44.753906 L 187.210938 57.242188 C 187.699219 57.519531 188.296875 57.519531 188.785156 57.242188 L 210.746094 44.753906 C 211.285156 44.445312 211.289062 43.660156 210.746094 43.351562 L 188.789062 30.789062 C 188.296875 30.511719 187.699219 30.511719 187.207031 30.789062 Z M 187.207031 37.628906 L 177.234375 43.332031 C 176.695312 43.640625 176.695312 44.425781 177.238281 44.730469 L 187.210938 50.402344 C 187.699219 50.679688 188.296875 50.679688 188.785156 50.402344 L 198.757812 44.730469 C 199.296875 44.425781 199.300781 43.640625 198.757812 43.332031 L 188.789062 37.628906 C 188.296875 37.347656 187.699219 37.347656 187.207031 37.628906 Z M 187.207031 37.628906 " fill-opacity="1" fill-rule="evenodd"/></svg>