<svg class="logo css-1gtfl7l e1xnpohk0" viewBox="0 0 170 32" fill="white" xmlns="http://www.w3.org/2000/svg" style="display:inline-block;width:120px"><path fill-rule="evenodd" clip-rule="evenodd" d="M2.55773 0L0 0L0 2.60771L0 11.5702L0 14.1779H2.55773L32 14.1779V8.96251L5.11546 8.96251L5.11546 5.21542L32 5.21542V0L2.55773 0ZM2.55773 17.8221H0L0 20.4298L0 29.3923L0 32H2.55773L32 32V26.7846L5.11546 26.7846L5.11546 23.0375L32 23.0375L32 17.8221L2.55773 17.8221Z"></path><path d="M65.3938 3.70994H46.1743V27.9695H65.9986V24.0047H51.6176V17.3518H64.8898V13.3869H51.6176V7.67481H65.3938V3.70994Z"></path><path d="M67.585 19.267C67.585 25.6175 73.0618 28.608 78.9419 28.608C89.6269 28.608 91.9454 23.8367 91.9454 18.2926V3.70994H86.5021V18.3934C86.5021 22.8623 83.814 24.8447 79.782 24.8447C75.6155 24.8447 73.0282 22.5599 73.0282 18.5278V3.70994H67.585V19.267Z"></path><path d="M100.066 7.67481H107.357C110.247 7.67481 112.867 8.07802 112.867 11.0013C112.867 13.9245 110.314 14.6301 107.122 14.6301H100.066V7.67481ZM94.6224 27.9695H100.066V18.3934H105.811C111.12 18.3934 112.195 19.3678 112.431 24.1391C112.498 25.5503 112.666 27.2639 112.968 27.9695H118.815C118.445 27.0287 118.176 25.7855 118.076 23.7695C117.807 19.267 117.37 16.7806 111.826 16.5454V16.4782C115.556 16.2094 118.512 14.4621 118.512 10.2285C118.512 5.42357 114.514 3.70994 109.171 3.70994H94.6224V27.9695Z"></path><path d="M119.879 15.8397C119.879 24.3407 125.087 28.608 134.025 28.608C142.963 28.608 148.171 24.3407 148.171 15.8397C148.171 7.3388 142.963 3.07153 134.025 3.07153C125.087 3.07153 119.879 7.3388 119.879 15.8397ZM125.524 15.8397C125.524 10.1276 128.783 7.0364 134.025 7.0364C139.3 7.0364 142.526 10.1276 142.526 15.8397C142.526 21.5518 139.3 24.6431 134.025 24.6431C128.783 24.6431 125.524 21.5518 125.524 15.8397Z"></path><path d="M169.205 20.4245V19.3805C169.205 12.3418 164.237 10.1865 159.818 10.1865C152.045 10.1865 149.851 14.6319 149.851 19.2794C149.851 23.927 152.045 28.3724 159.818 28.3724C162.957 28.3724 168.321 27.3958 168.779 23.1861H163.841C163.353 24.8026 161.311 25.3414 159.94 25.3414C157.318 25.3414 154.667 23.9606 154.667 20.4245H169.205ZM154.667 17.3935C154.941 14.4972 157.227 13.2175 159.513 13.2175C162.043 13.2175 164.115 14.3288 164.39 17.3935H154.667Z"></path></svg>