<svg width="136" height="31" viewBox="0 0 136 31" fill="none" xmlns="http://www.w3.org/2000/svg">
<path d="M41.7908 7.91902C41.7908 7.91902 41.7882 7.91196 41.7855 7.90843C41.7529 7.80964 41.7185 7.71349 41.6797 7.61558C40.8143 5.36093 38.4194 4.11629 36.0721 3.99808C33.6869 3.87547 31.3591 4.95693 29.916 6.85697C29.9019 6.8755 29.8886 6.89402 29.8745 6.91254L28.5311 8.71997C28.5214 8.73055 28.5125 8.7429 28.5028 8.75525V8.75701L19.6324 20.676C19.5945 20.7315 19.5522 20.7836 19.5098 20.8338C17.7227 23.1494 15.1734 24.5493 12.4751 24.9453C10.8626 25.1817 9.1972 25.0591 7.6103 24.559C6.47945 24.2044 5.39358 23.6575 4.38887 22.9121C-0.430928 19.3246 -1.4374 12.4857 2.1501 7.66409L5.60087 3.02689C6.80935 1.40471 8.55856 0.425578 10.4154 0.153009C12.2704 -0.118678 14.2287 0.31708 15.8518 1.52291L8.02753 12.0375C6.85169 13.6174 7.18424 15.8588 8.76409 17.0346C9.55357 17.6221 10.5062 17.8329 11.4095 17.6997C12.3128 17.5674 13.1649 17.092 13.7541 16.3025L14.6186 15.1408C14.9361 15.5351 15.2087 16.1058 15.3128 16.9279C15.3128 16.9279 17.0982 14.9352 16.2311 12.9743L22.6245 4.3818C25.4631 0.566714 30.3429 -0.853467 34.6431 0.502321C35.7775 0.852514 36.8669 1.40295 37.8699 2.1492C38.976 2.9722 39.8819 3.96633 40.5744 5.06719C41.1125 5.92018 41.5076 6.96723 41.7899 7.91814L41.7908 7.91902Z" fill="url(#paint0_linear_20_91)"></path>
<path d="M42.1172 9.15306C42.5282 11.7014 42.0422 14.391 40.5806 16.703C40.5444 16.7603 40.5091 16.8167 40.4694 16.8741C40.3556 17.0514 40.233 17.2243 40.1069 17.3936L36.6561 22.0308C34.2409 25.2761 29.6522 25.9491 26.4052 23.5348L34.2294 13.0202C35.4053 11.4403 35.0727 9.19893 33.4973 8.02838C31.9298 6.86224 29.7131 7.17186 28.5311 8.71995L29.8745 6.91252C29.8886 6.894 29.9018 6.87547 29.916 6.85695C31.3582 4.95691 33.6869 3.87545 36.0721 3.99806C38.4194 4.11715 40.8143 5.36091 41.6796 7.61556C41.7176 7.71347 41.752 7.80962 41.7855 7.90841C41.7881 7.91194 41.7899 7.91547 41.7908 7.919C41.9293 8.32476 42.0378 8.73671 42.1181 9.15306H42.1172Z" fill="url(#paint1_linear_20_91)"></path>
<path d="M12.3339 13.1172C12.8148 13.1172 13.2046 12.7274 13.2046 12.2466C13.2046 11.7657 12.8148 11.3759 12.3339 11.3759C11.8531 11.3759 11.4633 11.7657 11.4633 12.2466C11.4633 12.7274 11.8531 13.1172 12.3339 13.1172Z" fill="url(#paint2_linear_20_91)"></path>
<path d="M14.3187 10.4506C14.7995 10.4506 15.1893 10.0609 15.1893 9.58001C15.1893 9.09918 14.7995 8.70938 14.3187 8.70938C13.8378 8.70938 13.448 9.09918 13.448 9.58001C13.448 10.0609 13.8378 10.4506 14.3187 10.4506Z" fill="url(#paint3_linear_20_91)"></path>
<path d="M16.3034 7.78317C16.7842 7.78317 17.174 7.39337 17.174 6.91253C17.174 6.4317 16.7842 6.0419 16.3034 6.0419C15.8226 6.0419 15.4328 6.4317 15.4328 6.91253C15.4328 7.39337 15.8226 7.78317 16.3034 7.78317Z" fill="url(#paint4_linear_20_91)"></path>
<path d="M64.878 16.8027C64.878 17.8682 64.7034 18.8306 64.3558 19.6898C64.0074 20.5489 63.5125 21.2775 62.8712 21.8756C62.23 22.4746 61.4519 22.9359 60.539 23.2623C59.6251 23.5886 58.6028 23.7518 57.4719 23.7518C55.6662 23.7518 54.0573 23.4634 52.6433 22.8874C51.2293 22.3114 50.0658 21.6533 49.1519 20.9132L51.86 18.2052C52.578 18.8579 53.3825 19.3581 54.2743 19.7056C54.8177 19.9235 55.3293 20.0647 55.8074 20.1299C56.2855 20.1952 56.6771 20.2278 56.9823 20.2278C57.5478 20.2278 58.0638 20.1573 58.5322 20.0161C58.9997 19.875 59.4072 19.6845 59.7557 19.4454C60.4949 18.902 60.8645 18.184 60.8645 17.2922C60.8645 16.7488 60.6686 16.2593 60.277 15.8244C59.9727 15.4769 59.581 15.1937 59.102 14.9767C58.7104 14.7597 58.2976 14.585 57.8618 14.4545C57.4269 14.3239 57.0353 14.2049 56.6868 14.0955C56.5775 14.0523 56.4795 14.0249 56.3931 14.0143C56.3058 14.0037 56.2299 13.9764 56.1646 13.9332C56.1205 13.9332 56.0553 13.912 55.9688 13.8679C55.5119 13.7374 54.8538 13.5089 53.9947 13.1834C53.1355 12.857 52.2816 12.4116 51.4339 11.8461C49.4545 10.5195 48.4648 8.88845 48.4648 6.95224C48.4648 5.66878 48.688 4.58733 49.1334 3.70611C49.5789 2.82489 50.1611 2.10774 50.8791 1.5529C51.5971 0.998061 52.3963 0.601998 53.2775 0.362066C54.1587 0.123017 55.0232 0.00305176 55.8709 0.00305176C57.4366 0.00305176 58.7527 0.188293 59.8183 0.557893C60.8839 0.927493 61.7325 1.29709 62.3632 1.66669C62.6895 1.86252 62.9665 2.05305 63.195 2.23741C63.4234 2.42265 63.6246 2.59113 63.7983 2.74286L61.025 5.54882C60.4375 4.96134 59.8395 4.51588 59.2308 4.21155C58.317 3.77668 57.3599 3.5588 56.3596 3.5588C55.9247 3.5588 55.4898 3.61349 55.055 3.72199C54.6192 3.83137 54.239 3.9725 53.9126 4.14628C52.9556 4.73376 52.4775 5.50559 52.4775 6.46267C52.4775 7.05015 52.6733 7.5503 53.0649 7.96312C53.3472 8.2895 53.7389 8.58324 54.2399 8.84434C54.6527 9.06222 55.0885 9.23599 55.5454 9.36655C56.0023 9.4971 56.4266 9.61706 56.8174 9.72556L57.209 9.82347C57.3175 9.86758 57.5239 9.93285 57.8292 10.0193C58.1335 10.1066 58.4925 10.2372 58.9062 10.411C59.319 10.5856 59.7707 10.792 60.2602 11.0311C60.7498 11.271 61.2332 11.5533 61.7122 11.8796C63.8213 13.2716 64.8771 14.9141 64.8771 16.8062L64.878 16.8027Z" fill="white"></path>
<path d="M76.4274 6.55795C77.6235 6.55795 78.727 6.78112 79.7388 7.22658C80.7505 7.67292 81.6256 8.28687 82.3657 9.07017C83.1049 9.85348 83.6809 10.7665 84.0946 11.8109C84.5074 12.8544 84.7147 13.9755 84.7147 15.1717C84.7147 16.3678 84.5074 17.4554 84.0946 18.4989C83.6809 19.5433 83.1049 20.4563 82.3657 21.2396C81.6256 22.0229 80.7505 22.6378 79.7388 23.0832C78.727 23.5287 77.6235 23.7518 76.4274 23.7518C75.1007 23.7518 73.9363 23.5013 72.936 23.0012L74.3385 19.5098C74.8607 19.7277 75.4473 19.8362 76.1001 19.8362C76.7528 19.8362 77.3289 19.7224 77.8943 19.494C78.4597 19.2655 78.9704 18.9232 79.4274 18.4663C80.3412 17.5524 80.7982 16.4551 80.7982 15.1708C80.7982 13.8864 80.3412 12.7565 79.4274 11.8435C78.4703 10.9296 77.3606 10.4727 76.1001 10.4727C74.8396 10.4727 73.6858 10.9296 72.7719 11.8435C71.8581 12.7574 71.402 13.8662 71.402 15.1708V29.8525H67.4873V6.98224H71.402V8.28687C72.0327 7.78672 72.7613 7.37389 73.5879 7.04663C74.4144 6.72026 75.36 6.55707 76.4265 6.55707L76.4274 6.55795Z" fill="white"></path>
<path d="M86.9976 23.3275V0.48996H90.9123V23.3275H86.9976Z" fill="white"></path>
<path d="M94.1752 23.3275V7.01483H98.09V23.3275H94.1752Z" fill="white"></path>
<path d="M109.737 6.55792C110.803 6.55792 111.77 6.75904 112.641 7.16128C113.511 7.5644 114.256 8.11836 114.875 8.82492C115.496 9.53148 115.974 10.3536 116.311 11.2886C116.648 12.2237 116.817 13.2248 116.817 14.2904V23.3275H112.902V14.2904C112.902 13.2028 112.521 12.3004 111.761 11.5824C111.021 10.8432 110.13 10.4736 109.085 10.4736C108.041 10.4736 107.116 10.844 106.377 11.5824C105.637 12.3224 105.268 13.2248 105.268 14.2904V23.3275H101.354V7.01485H105.268V8.25508C105.856 7.75493 106.518 7.3474 107.258 7.03161C107.998 6.7167 108.824 6.5588 109.738 6.5588L109.737 6.55792Z" fill="white"></path>
<path d="M136 21.6965C136 22.8715 135.777 23.9803 135.331 25.0247C134.885 26.0682 134.271 26.9821 133.488 27.7654C132.704 28.5487 131.791 29.1679 130.747 29.6249C129.704 30.0818 128.582 30.3103 127.386 30.3103C126.408 30.3103 125.483 30.1576 124.613 29.8533C123.742 29.549 122.938 29.1132 122.199 28.5487L125.037 25.7427C125.733 26.1776 126.517 26.3955 127.386 26.3955C128.713 26.3955 129.822 25.9271 130.714 24.993C131.627 24.08 132.084 22.9818 132.084 21.6974V15.1399C132.084 13.8785 131.627 12.7697 130.714 11.8117C129.801 10.8988 128.692 10.4418 127.386 10.4418C126.081 10.4418 125.015 10.8988 124.059 11.8117C123.145 12.7688 122.688 13.8785 122.688 15.1399C122.688 16.4013 123.145 17.5542 124.059 18.4672C125.016 19.381 126.125 19.8371 127.386 19.8371C128.039 19.8371 128.627 19.7286 129.148 19.5107L130.616 23.1652C129.637 23.5569 128.582 23.7527 127.451 23.7527H127.385C126.21 23.7527 125.102 23.5295 124.058 23.0841C123.015 22.6386 122.101 22.0238 121.317 21.2405C120.534 20.4572 119.915 19.5442 119.458 18.4998C119.001 17.4563 118.773 16.336 118.773 15.1399C118.773 13.9438 118.968 12.8235 119.36 11.7791C119.752 10.7347 120.3 9.82171 121.008 9.0384C121.714 8.2551 122.563 7.64116 123.553 7.19482C124.542 6.74935 125.625 6.52618 126.799 6.52618C127.973 6.52618 128.93 6.69466 129.801 7.03163C130.67 7.36947 131.432 7.78759 132.084 8.28774V7.01575H135.999V21.6974L136 21.6965Z" fill="white"></path>
<path d="M98.09 0.48996H94.1752V4.40472H98.09V0.48996Z" fill="url(#paint5_linear_20_91)"></path>
<defs>
<linearGradient id="paint0_linear_20_91" x1="-1.47459" y1="38.3697" x2="31.5238" y2="-4.76128" gradientUnits="userSpaceOnUse">
<stop stop-color="#AF67FF"></stop>
<stop offset="0.26" stop-color="#8E5FFC"></stop>
<stop offset="0.76" stop-color="#5651F6"></stop>
<stop offset="1" stop-color="#414CF5"></stop>
</linearGradient>
<linearGradient id="paint1_linear_20_91" x1="22.983" y1="31.7888" x2="42.539" y2="-0.448343" gradientUnits="userSpaceOnUse">
<stop stop-color="#0093FE"></stop>
<stop offset="0.42" stop-color="#01B9E3"></stop>
<stop offset="1" stop-color="#04F6BB"></stop>
</linearGradient>
<linearGradient id="paint2_linear_20_91" x1="6.29683" y1="11.8056" x2="41.4871" y2="14.3676" gradientUnits="userSpaceOnUse">
<stop stop-color="#AF67FF"></stop>
<stop offset="0.26" stop-color="#8E5FFC"></stop>
<stop offset="0.76" stop-color="#5651F6"></stop>
<stop offset="1" stop-color="#414CF5"></stop>
</linearGradient>
<linearGradient id="paint3_linear_20_91" x1="6.49879" y1="9.0086" x2="41.689" y2="11.5706" gradientUnits="userSpaceOnUse">
<stop stop-color="#AF67FF"></stop>
<stop offset="0.26" stop-color="#8E5FFC"></stop>
<stop offset="0.76" stop-color="#5651F6"></stop>
<stop offset="1" stop-color="#414CF5"></stop>
</linearGradient>
<linearGradient id="paint4_linear_20_91" x1="6.7044" y1="6.21193" x2="41.8946" y2="8.77394" gradientUnits="userSpaceOnUse">
<stop stop-color="#AF67FF"></stop>
<stop offset="0.26" stop-color="#8E5FFC"></stop>
<stop offset="0.76" stop-color="#5651F6"></stop>
<stop offset="1" stop-color="#414CF5"></stop>
</linearGradient>
<linearGradient id="paint5_linear_20_91" x1="90.2137" y1="-13.8459" x2="105.584" y2="28.4667" gradientUnits="userSpaceOnUse">
<stop stop-color="#0093FE"></stop>
<stop offset="0.42" stop-color="#01B9E3"></stop>
<stop offset="1" stop-color="#04F6BB"></stop>
</linearGradient>
</defs>
</svg>