<svg width="155" height="44" viewBox="0 0 155 44" fill="none" xmlns="http://www.w3.org/2000/svg">
<path d="M64.6465 5.66821C65.8184 5.6617 67.1367 5.91886 68.6016 6.4397L67.9863 8.78345C66.6257 8.30168 65.5189 8.06079 64.666 8.06079C63.9759 8.06079 63.4323 8.19751 63.0352 8.47095C62.638 8.74438 62.4395 9.11548 62.4395 9.58423C62.4395 10.092 62.6217 10.4957 62.9863 10.7952C63.3574 11.0946 64.0312 11.3713 65.0078 11.6252C66.4466 11.9963 67.4688 12.5107 68.0742 13.1682C68.6797 13.8193 68.9824 14.7177 68.9824 15.8635C68.9824 17.2502 68.5137 18.3147 67.5762 19.0569C66.6452 19.7926 65.3138 20.1604 63.582 20.1604C62.1693 20.1604 60.6556 19.8414 59.041 19.2034L59.7637 16.928C60.6556 17.247 61.3848 17.4716 61.9512 17.6018C62.5176 17.7255 63.0547 17.7874 63.5625 17.7874C64.2982 17.7874 64.8646 17.6311 65.2617 17.3186C65.6654 16.9996 65.8672 16.5601 65.8672 16.0002C65.8672 15.6422 65.7826 15.3427 65.6133 15.1018C65.444 14.8609 65.1576 14.6461 64.7539 14.4573C64.3503 14.262 63.7676 14.0699 63.0059 13.8811C61.7363 13.5751 60.8086 13.0999 60.2227 12.4553C59.6367 11.8108 59.3438 10.9612 59.3438 9.90649C59.3438 8.55884 59.806 7.51717 60.7305 6.78149C61.6615 6.03931 62.9668 5.66821 64.6465 5.66821ZM79.7836 8.16821H75.9457V20.0237H72.8891V8.16821H68.9047V5.84399H79.7836V8.16821ZM82.4891 16.3811L81.3367 20.0237H78.3289L82.9285 5.84399H86.9715L91.6883 20.0237H88.7293L87.5281 16.3811H82.4891ZM84.9109 8.46118L83.1727 14.1252H86.8348L85.0477 8.46118H84.9109ZM93.0266 5.84399H96.0832V20.0237H93.0266V5.84399ZM105.029 20.0237H101.542L96.3664 12.4456L101.103 5.84399H104.55L99.6867 12.4065L105.029 20.0237ZM106.279 5.84399H109.336V20.0237H106.279V5.84399ZM117.148 13.7444C116.68 13.0803 115.947 11.8987 114.951 10.1995V20.0237H112.168V5.84399H114.59L118.906 12.0061C119.453 12.7808 120.215 13.9788 121.191 15.5999V5.84399H123.984V20.0237H121.543L117.148 13.7444ZM137.725 19.1448C136.976 19.4768 136.179 19.734 135.332 19.9163C134.486 20.092 133.656 20.1799 132.842 20.1799C130.642 20.1799 128.939 19.5517 127.735 18.2952C126.53 17.0321 125.928 15.2483 125.928 12.9436C125.928 10.6259 126.55 8.83553 127.793 7.57251C129.043 6.30298 130.808 5.66821 133.086 5.66821C133.887 5.66821 134.688 5.76587 135.489 5.96118C136.289 6.14998 137.009 6.41691 137.647 6.76196L136.748 8.92017C136.071 8.64022 135.479 8.4384 134.971 8.3147C134.463 8.18449 133.955 8.11938 133.448 8.11938C132.009 8.11938 130.918 8.52303 130.176 9.33032C129.434 10.1376 129.063 11.3225 129.063 12.885C129.063 14.4345 129.405 15.6357 130.088 16.4885C130.778 17.3414 131.752 17.7678 133.008 17.7678C133.646 17.7678 134.271 17.6799 134.883 17.5042V12.8264H137.725V19.1448ZM63.1816 29.7034H68.4258V32.0081H63.1816V38.0237H60.125V23.844H69.2461V26.1389H63.1816V29.7034ZM72.6742 34.3811L71.5219 38.0237H68.5141L73.1137 23.844H77.1566L81.8734 38.0237H78.9145L77.7133 34.3811H72.6742ZM75.0961 26.4612L73.3578 32.1252H77.0199L75.2328 26.4612H75.0961ZM88.6805 23.6682C89.4292 23.6682 90.1746 23.7659 90.9168 23.9612C91.6655 24.15 92.3361 24.4169 92.9285 24.762L92.0203 26.8811C91.4604 26.6142 90.9428 26.4221 90.4676 26.3049C89.9988 26.1812 89.5236 26.1194 89.0418 26.1194C87.6941 26.1194 86.6688 26.5263 85.9656 27.3401C85.269 28.1539 84.9207 29.3355 84.9207 30.885C84.9207 32.4605 85.269 33.6552 85.9656 34.469C86.6688 35.2763 87.6941 35.6799 89.0418 35.6799C90.0835 35.6799 91.1707 35.4423 92.3035 34.967L93.0457 37.2034C91.5809 37.8544 90.1128 38.1799 88.6414 38.1799C86.4279 38.1799 84.7319 37.5582 83.5535 36.3147C82.3751 35.0647 81.7859 33.2743 81.7859 30.9436C81.7859 29.4397 82.0594 28.1409 82.6063 27.0471C83.1531 25.9534 83.9409 25.1168 84.9695 24.5374C86.0047 23.9579 87.2417 23.6682 88.6805 23.6682ZM94.5695 23.844H97.6262V38.0237H94.5695V23.844ZM109.336 38.0237H100.459V23.844H103.379V35.6995H109.336V38.0237ZM110.703 23.844H113.76V38.0237H110.703V23.844ZM125.987 26.1682H122.149V38.0237H119.092V26.1682H115.108V23.844H125.987V26.1682ZM127.345 23.844H130.401V38.0237H127.345V23.844ZM136.29 29.6057H141.876V31.8225H136.29V35.7678H142.677V38.0237H133.234V23.844H142.472V26.0999H136.29V29.6057ZM149.093 23.6682C150.265 23.6617 151.584 23.9189 153.048 24.4397L152.433 26.7834C151.073 26.3017 149.966 26.0608 149.113 26.0608C148.423 26.0608 147.879 26.1975 147.482 26.4709C147.085 26.7444 146.886 27.1155 146.886 27.5842C146.886 28.092 147.069 28.4957 147.433 28.7952C147.804 29.0946 148.478 29.3713 149.455 29.6252C150.893 29.9963 151.916 30.5107 152.521 31.1682C153.127 31.8193 153.429 32.7177 153.429 33.8635C153.429 35.2502 152.961 36.3147 152.023 37.0569C151.092 37.7926 149.761 38.1604 148.029 38.1604C146.616 38.1604 145.102 37.8414 143.488 37.2034L144.211 34.928C145.102 35.247 145.832 35.4716 146.398 35.6018C146.964 35.7255 147.502 35.7874 148.009 35.7874C148.745 35.7874 149.311 35.6311 149.709 35.3186C150.112 34.9996 150.314 34.5601 150.314 34.0002C150.314 33.6422 150.229 33.3427 150.06 33.1018C149.891 32.8609 149.604 32.6461 149.201 32.4573C148.797 32.262 148.214 32.0699 147.453 31.8811C146.183 31.5751 145.255 31.0999 144.67 30.4553C144.084 29.8108 143.791 28.9612 143.791 27.9065C143.791 26.5588 144.253 25.5172 145.177 24.7815C146.108 24.0393 147.414 23.6682 149.093 23.6682Z" fill="white"/>
<path d="M48.5039 11.0056V8.37558L31.0695 0L0 6.4281V9.34983L30.7772 4.48018L48.5039 11.0056Z" fill="white"/>
<path d="M48.5039 12.1744V14.9014L28.4395 11.0054L0 14.2197V11.0054L29.2188 6.52521L48.5039 12.1744Z" fill="white"/>
<path d="M48.5039 16.1676V18.9919L26.5901 17.5799L0 18.9919V15.5831L26.8815 13.1486L48.5039 16.1676Z" fill="white"/>
<path d="M48.5039 20.453V23.3747L24.2131 24.1541L0 23.3747V20.453L24.7386 19.7714L48.5039 20.453Z" fill="white"/>
<path d="M48.5039 24.9322V27.8884L21.8909 30.9997L0 27.5768V24.9325L22.1241 26.5659L48.5039 24.9322Z" fill="white"/>
<path d="M48.5039 29.6772V32.7109L19.6348 37.4561L0 31.7777V28.9777L19.8681 33.2173L48.5039 29.6772Z" fill="white"/>
<path d="M0 32.7894V35.4337L17.5347 43.9904L48.5039 37.4559V34.4221L17.7678 39.5563L0 32.7894Z" fill="white"/>
</svg>
