<svg width="298" height="44" viewBox="0 0 298 44" fill="none" xmlns="http://www.w3.org/2000/svg">
<path d="M136.93 1.0022H151.345C151.596 1.59996 151.86 2.22085 152.115 2.84833C154.124 7.77246 156.137 12.6966 158.133 17.6306C158.295 18.0302 158.483 18.2284 158.912 18.1888C159.316 18.1524 159.729 18.1491 160.13 18.1888C160.572 18.2317 160.753 18.0104 160.909 17.624C163.061 12.3036 165.226 6.98976 167.392 1.67592C167.481 1.45795 167.586 1.24989 167.69 1.01541H182.017C182.182 1.60326 182.259 41.0888 182.103 42.9118C181.591 43.0802 170.495 43.1364 169.407 42.958V26.2074H167.09C165.745 29.5892 164.4 32.9678 163.058 36.3496H155.978C154.626 32.9479 153.281 29.5694 151.94 26.1909H149.676C149.6 27.1156 149.651 28.0304 149.641 28.9386C149.631 29.8865 149.641 30.8376 149.641 31.7854V40.1707C149.641 41.0888 149.641 42.0102 149.641 43.0472C145.381 43.0571 141.184 43.0472 136.933 43.0505V1.0022H136.93Z" fill="white"/>
<path d="M201.074 34.1339C200.282 37.1062 199.5 40.0455 198.712 43.0079H185.72C185.562 42.4762 185.66 41.9973 185.797 41.5151C186.925 37.5752 188.051 33.6352 189.177 29.6919C191.265 22.3668 193.354 15.0384 195.443 7.71334C196.057 5.56667 196.67 3.42 197.287 1.27333C197.309 1.20067 197.354 1.13462 197.411 1.02563H217.565C217.804 1.83146 218.052 2.6538 218.29 3.48605C220.417 10.9664 222.544 18.4467 224.668 25.927C226.169 31.2078 227.666 36.4919 229.151 41.776C229.253 42.1426 229.256 42.5422 229.31 42.9914H216.173C215.391 40.0521 214.605 37.1095 213.811 34.1306H201.074V34.1339ZM211.134 23.8497C210.275 20.5868 209.448 17.4427 208.612 14.2755H206.269C205.43 17.4658 204.6 20.6297 203.754 23.8497H211.13H211.134Z" fill="white"/>
<path d="M265.646 42.9514V1.02856H297.418V13.4297H278.395V17.6174H294.715V26.3857H278.5C278.309 27.0297 278.281 29.6585 278.449 30.5899H297.424C297.424 34.7511 297.424 38.8298 297.424 42.9084C296.899 43.0802 266.603 43.1264 265.643 42.9481L265.646 42.9514Z" fill="white"/>
<path d="M25.4829 1.01533H38.1147C38.1401 1.17055 38.1846 1.31586 38.1846 1.46448C38.1846 10.0644 38.2895 18.6643 38.1306 27.2608C38.0161 33.3442 35.1705 37.938 30.1248 41.0293C27.5463 42.6079 24.723 43.4236 21.7566 43.7374C18.0907 44.1238 14.498 43.7836 11.0261 42.4494C6.85786 40.8476 3.6085 38.1329 1.62773 33.932C0.556266 31.6698 0.0539187 29.2622 0.0157658 26.7522C-0.0064901 25.1967 0.00940696 23.6412 0.00940696 22.0824C0.00940696 15.4079 0.00940696 8.73343 0.00940696 2.06224V1.12431C0.562625 0.952578 11.662 0.906342 12.7398 1.07477C12.7398 1.38852 12.7398 1.72538 12.7398 2.05894C12.7398 9.97189 12.7334 17.8848 12.7525 25.8011C12.7525 26.4979 12.8542 27.2311 13.08 27.885C13.4361 28.922 14.2182 29.6321 15.1688 30.0812C17.7378 31.2933 20.3449 31.3164 22.9171 30.1341C24.634 29.3448 25.4892 27.9313 25.4829 25.9398C25.467 17.974 25.4765 10.0082 25.4765 2.03912C25.4765 1.72538 25.4765 1.41163 25.4765 1.01202L25.4829 1.01533Z" fill="white"/>
<path d="M105.387 42.9745V30.4512H112.82V13.6543H105.486C105.298 13.007 105.266 1.87402 105.431 1.02856H133.096V13.6081H125.643V30.4049H133.083V42.925C132.523 43.0736 106.443 43.1231 105.387 42.9745Z" fill="white"/>
<path d="M261.792 1.03491V13.5946H250.034C249.948 14.6217 250.002 15.586 249.993 16.5471C249.983 17.5213 249.993 18.4989 249.993 19.4732V42.9974H237.256C237.193 41.9438 237.237 40.8738 237.228 39.8071C237.221 38.7271 237.228 37.6439 237.228 36.5639V16.9467C237.228 15.8701 237.228 14.7967 237.228 13.6309H225.416V1.03491H261.795H261.792Z" fill="white"/>
<path d="M101.559 1.03931V13.6122H89.7379V42.9951H77.0425C76.9567 41.3604 77.0139 39.7355 77.0044 38.1106C76.9948 36.5023 77.0044 34.8939 77.0044 33.2823V13.6353C75.9679 13.6089 74.9886 13.6254 74.0094 13.6221C73.0428 13.6188 72.0763 13.6221 71.1097 13.6221H68.1338C67.1736 13.6221 66.2103 13.6221 65.1992 13.6221V1.03931H101.559Z" fill="white"/>
<path d="M54.6994 1.08836V30.4383H73.1813V43.0013H42.0867C41.9372 42.3936 41.8705 2.73304 42.0104 1.10487C42.5509 0.949653 53.7901 0.91993 54.6994 1.08506V1.08836Z" fill="white"/>
</svg>
